<svg id="building" xmlns="http://www.w3.org/2000/svg" width="199.74mm" height="174.48mm" viewBox="0 0 566.19 494.6"><defs><style>.cls-1{fill:#fdeeff;}.cls-2{fill:#191919;}.cls-3{fill:#1d1d1d;}.cls-4{fill:#1c1c1c;}.cls-5{fill:#1f1f1f;}.cls-6{fill:#222;}.cls-7{fill:#1e1e1e;}.cls-8{fill:#e2e2e2;}.cls-9{fill:#ffecb3;stroke:#000;stroke-miterlimit:10;stroke-width:0.25px;}.cls-10{fill:#fefefe;}.cls-11{fill:#595959;}.cls-12{fill:#fdfdfd;}.cls-13{fill:#0b0b0b;}.cls-14{fill:#787878;}.cls-15{fill:#0a0a0a;}.cls-16{fill:#fbfbfb;}.cls-17{fill:#f7f7f7;}.cls-18{fill:#f5f5f5;}.cls-19{fill:#f6f6f6;}.cls-20{fill:#585858;}.cls-21{fill:#f0f0f0;}.cls-22{fill:#999;}.cls-23{fill:#f1f1f1;}.cls-24{fill:#efefef;}.cls-25{fill:#1a1a1a;}.cls-26{fill:#1b1b1b;}.cls-27{fill:#e3e3e3;}.cls-28{fill:#73d861;}.cls-29{fill:#e5e5e5;}.cls-30{fill:#b4b4b4;}.cls-31{fill:#b5b5b5;}.cls-32{fill:#b3b3b3;}.cls-33{fill:#fdfdf8;}.cls-34{fill:#f97097;}.cls-35{fill:#fefefd;}.cls-36{fill:#b6b6b6;}.cls-37{fill:#fefbf6;}.cls-38{fill:#fefaf4;}.cls-39{fill:#2e3192;}.cls-40{fill:#f8f9fb;}.cls-41{fill:#fbfbfd;}.cls-42{fill:#f6d804;}.cls-43{fill:#fefdf6;}.cls-44{fill:#fefdf5;}.cls-45{fill:#fefcf1;}.cls-46{fill:#fefdfa;}.cls-47{fill:#f6d805;}.cls-48{fill:#f6d909;}</style></defs><circle class="cls-1" cx="204.55" cy="218.28" r="190.95"/><path class="cls-2" d="M523.32,448.6c2.27.18,4.48.3,6.68.57,1.83.23,3.65.6,5.46,1s2.18,1,2.2,2.74c0,.67,0,1.34,0,2.05,2.63.79,3.14,3,3.36,5.3a18.69,18.69,0,0,1-.77,7.28c-.09.28-.16.57-.28,1h1.24q13.93,0,27.87,0c.61,0,1.58-.32,1.59.69s-1,.74-1.64.74q-14.34,0-28.68,0a1.56,1.56,0,0,0-1.55.93,27.52,27.52,0,0,1-1.94,2.54,2.39,2.39,0,0,0-.46.93c-.19.88-.3,1.79-.46,2.68a3,3,0,0,1-2.94,2.72c-3.28.26-6.58.55-9.87.53a71.62,71.62,0,0,1-7.41-.78,2.58,2.58,0,0,1-2.39-2c-.44-1.69-.78-3.4-1.16-5.11-.06-.25-.09-.52-.15-.87a12.29,12.29,0,0,1-9.2-1c0,.46-.06.8-.06,1.14,0,2.49.11,5-.09,7.46s-1.68,3.9-4.28,4.12c-1.3.11-2.62.09-3.93.09l-90.18.05c-1.64,0-3.3.05-4.94-.09-2.73-.22-4-1.59-4.32-4.29-.09-.78.07-1.8-.36-2.26s-1.45-.32-2.21-.43q-10.54-1.51-21.08-3c-.76-.11-1.5-.58-2.32,0-.16.11-.64-.22-1-.37-1.87-.9-3.72-1.83-5.6-2.7a3,3,0,0,0-1.26-.23H337.39a3,3,0,0,1-1,0c-.26-.1-.64-.43-.62-.62a1.21,1.21,0,0,1,.61-.75c.23-.13.59,0,.89,0h23.46c-1.9-2.94-2-6.12-2.09-9.32a9,9,0,0,1,2.32-6.29c.93-1.06,1.91-2.08,2.89-3.1a101.54,101.54,0,0,0,12.75-16.38,62.09,62.09,0,0,1,15.11-16.79,29.11,29.11,0,0,0,7.19-8c.87-1.4,1.83-2.75,2.82-4.06a12.22,12.22,0,0,1,5.86-4.45,1.31,1.31,0,0,0,.53-.29,12.23,12.23,0,0,1,6.74-3.19,27.4,27.4,0,0,0,14.95-8.61c1.37-1.46,2.77-2.87,5-3.1-.85-2.85-1-5.81-2.55-8.31a27.57,27.57,0,0,0-2.37-2.73c-.85-1-1.67-2.06-2.52-3.09-.17-.2-.37-.36-.56-.55a7.8,7.8,0,0,1-1.61-1.64c-1-1.94-3.1-2.76-4.3-4.46a.42.42,0,0,0-.24-.17c-1.71.15-2.06-1.24-2.22-2.33a60.41,60.41,0,0,1-.62-7.72,35.85,35.85,0,0,1,2.6-15,20.83,20.83,0,0,1,8.9-10.13,11.6,11.6,0,0,1,6.95-1.68,1.06,1.06,0,0,0,.82-.33c2-3.2,5.09-4.41,8.62-4.66,10.28-.73,20.69,6.13,24.2,15.79a26.76,26.76,0,0,0,2,4.39c1.89,3.22,2.18,6.74,2.19,10.33,0,1-.58,1.12-1.6.45-.25,1.69-.46,3.34-.76,5s-.73,3.55-1.11,5.33c-.07.29-.13.75-.31.82-1,.4-.77,1.26-.77,2a11.55,11.55,0,0,1-2.38,7.26,12.16,12.16,0,0,0-2.56,8.34c0,.13,0,.27,0,.4a2,2,0,0,0,2.54,2,7.75,7.75,0,0,1,7.66,1.92,9.91,9.91,0,0,0,4.16,2.38q7.13,2,14.24,4.12c.28.08.57.12.9.2-.42-2.59-.9-5.09-1.22-7.61-.36-2.76-.54-5.54-.84-8.3-.14-1.31-.31-2.62-.57-3.91a3.37,3.37,0,0,1,.56-2.68c1.22-1.77,2.45-3.54,3.71-5.28a1.64,1.64,0,0,1,2.4-.47,3.31,3.31,0,0,1,1.55,3c.68-.52,1.27-1,1.87-1.44a2.29,2.29,0,0,1,3.36,0c.83.68,1.61,1.41,2.42,2.13,1-2.36,1.93-4.73,3-7a39.93,39.93,0,0,1,2.72-4.92,4.5,4.5,0,0,1,3-2c1.76-.31,2.77.5,2.5,2.25a20.86,20.86,0,0,1-1,3.35q-.87,2.61-1.77,5.22c-.22.63-.45,1.26-.72,1.88a15,15,0,0,0-1.32,6.57,1.5,1.5,0,0,0,.36,1,6.08,6.08,0,0,1,1.56,6.24c-1.26,5.16-2.58,10.31-5,15.09a5.44,5.44,0,0,0-.45,3.9c1.9,7.83,3.8,15.67,5.63,23.53.86,3.66,1.59,7.35,2.34,11a.91.91,0,0,0,.79.85,12.69,12.69,0,0,1,2.83,1,3.71,3.71,0,0,1,1.87,4.37,3.81,3.81,0,0,1-.2.68,8,8,0,0,0-.42,5.32A19,19,0,0,1,523.32,448.6Zm-48.51-29.7,23.42-.16c2.61,0,3.27.63,3.24,3.26-.07,7.47-.18,14.93-.2,22.4,0,10.76.05,21.52.07,32.28,0,.7,0,1.41-.07,2.11a3,3,0,0,1-2.84,3.11l-.05.14a3.77,3.77,0,0,1-.91.22H400a4.23,4.23,0,0,1-.92-.21.4.4,0,0,1,0-.15,2.54,2.54,0,0,1-2.43-2.42,29.06,29.06,0,0,1-.16-3.62q0-26,.11-52c0-.48,0-.95,0-1.42.15-2.11.81-2.9,2.87-3.45a6.76,6.76,0,0,1,1.5-.34q21.74,0,43.48,0h28.65c.5,0,1,.09,1.49.13Zm-80.17,26.6c-.24-.32-.66-.75-1-.72-.64.05-.55.63-.41,1.11a17.51,17.51,0,0,1,.75,6.78c-.15,1.55-.47,3.08-.75,4.79-1.07-.51-1.9-.87-2.68-1.32a1.54,1.54,0,0,1-.56-.77,12.11,12.11,0,0,0-10.69-7.67c-.54,0-1.19-.08-1.21.69s.62.74,1.17.76a10.69,10.69,0,0,1,8.79,5.52c-5.6-2.53-11-2.48-15.8,1.37s-6,9.11-4.66,15.19a12.14,12.14,0,0,1-4.16-2.13c-4-3.44-3.7-8-2.92-12.46.22-1.3,1.36-2.52,2.29-3.59,2.1-2.45,4.47-4.68,6.49-7.19a123.22,123.22,0,0,0,7.46-10.16c4.37-6.79,9.35-13,15.84-17.88a30.36,30.36,0,0,0,7.1-7.8c1-1.46,1.93-2.92,3-4.31a11.24,11.24,0,0,1,5.64-4.23,1.21,1.21,0,0,0,.53-.27c1.9-2.12,4.49-2.78,7.1-3.32a26.31,26.31,0,0,0,12.48-6.47c1.18-1.06,2.2-2.27,3.37-3.33a20.66,20.66,0,0,1,2.3-1.62l.25.31-2.77,3c-1.71,1.86-1.81,2.89-.49,5a36.71,36.71,0,0,0,10.33,11.33,20.24,20.24,0,0,0,10,3.89,12.94,12.94,0,0,0,9.27-2.71,20.21,20.21,0,0,0,5-5.64c2.17-3.6,4.22-7.27,6.3-10.93a5.39,5.39,0,0,0,.54-1.5,2.16,2.16,0,0,0-1.18-2.63c-.64-.35-1.33-.62-2.05-1a4.12,4.12,0,0,1,3.74,1.05c2.48,2.54,5.7,3.46,8.94,4.38q5.86,1.68,11.76,3.28a1.87,1.87,0,0,1,1.41,1.21c2.51,5.95,3.16,12.21,3.25,18.57,0,1,.32,2.28-.17,2.81s-1.82.3-2.78.3q-44.33.12-88.66.2c-2.42,0-4.85,0-7.26.14a4.33,4.33,0,0,0-4.4,4.48c-.1,1.71,0,3.43,0,5.14q0,9.39,0,18.77c0,.19,0,.37,0,.55l-.15,0A3.79,3.79,0,0,0,394.64,445.5ZM464.59,347a.84.84,0,0,1,.47.42c1.05,2.33,2.1,4.66,3.1,7a3.39,3.39,0,0,1,.2,1.34c-.07,2.76-.33,5.52-.2,8.26a14.94,14.94,0,0,1-2.58,9.43c-1.58,2.34-3.05,4.75-4.49,7.18a6,6,0,0,1-4.15,2.91c-6,1.24-11.38.21-15.94-4.21a72.26,72.26,0,0,1-8.54-10.2,3.46,3.46,0,0,0-.59-.8c-.31-.24-.8-.57-1.05-.47s-.44.65-.6,1c-.05.13,0,.31.07.49a2.51,2.51,0,0,1-3-.58,10,10,0,0,1-1.81-3.06c-.14-.38.53-1.07.88-1.7.91.74,1.66,1.41,2.48,2a5.56,5.56,0,0,0,1.31.5,4.76,4.76,0,0,0,.27-1.36c-.23-2.68-.52-5.35-.8-8,.21,0,.28-.05.33,0l1.48.63a6.67,6.67,0,0,0,.38-1.54,41.31,41.31,0,0,1,1.27-11c.19.51.28.83.42,1.12.93,2,1.9,3.92,2.8,5.9.32.7.6,1.31,1.45,1.54s1.29,0,1.13-.78a.89.89,0,0,1,.74-1.19,10.36,10.36,0,0,1,2.44-.49c1.55,0,3.09.14,4.64.14.33,0,.66-.35,1-.54-.27-.29-.52-.8-.81-.83-2.8-.26-5.63-.71-8.42.57a18.33,18.33,0,0,1,0-6.44,21.42,21.42,0,0,1,2.33-6.62c.37-.69.81-.86,1.46-.59a11.78,11.78,0,0,1,2.09,1c3,2,6,4.12,8.95,6.2.22.15.4.42.64.48a1.49,1.49,0,0,0,1,0c.17-.09.22-.6.15-.87-.17-.64-.46-1.25-.69-1.87A33.62,33.62,0,0,0,464.59,347Zm35.3,26.38a1.65,1.65,0,0,1,1-.67,34.85,34.85,0,0,1,3.64-.83,1.74,1.74,0,0,1,1.22.35c2.11,1.77,4.19,3.59,6.26,5.41.4.35.74.78,1.12,1.15s.69.61,1.19,1.05a2.25,2.25,0,0,1-.05.53c-1.24,5-2.44,10-4.81,14.62a7.51,7.51,0,0,0-.68,5.45c1.69,6.92,3.43,13.83,5,20.78,1.22,5.4,2.06,10.9,3.41,16.27.46,1.8-.45,2.24-1.45,2.9A21.27,21.27,0,0,1,502.72,444v-1.2c.06-6.73.13-13.45.16-20.18a13.83,13.83,0,0,0-.26-2.8,2.7,2.7,0,0,0-1.88-2.19c-.69-.21-.75-.59-.76-1.18a51.82,51.82,0,0,0-3.5-21.45,29.7,29.7,0,0,1-1.73-7.13c-.27-2.6-.72-5.19-1.07-7.78-.07-.49-.07-1-.1-1.55h1.47c-.11.63-.26,1.21-.31,1.79a2.09,2.09,0,0,0,2.66,2.37c1.85-.35,2.77-1.76,3.62-3.25a12.33,12.33,0,0,1,1.25-2.15c.35-.38,1-.45,1.52-.64l2,3.25c-4.44,2.07-6.12,6.13-7.4,10.47-.05.2-.17.43-.11.59a8.27,8.27,0,0,0,.61,1.08c.26-.27.71-.51.77-.82a18.4,18.4,0,0,1,3.22-7.12,6.51,6.51,0,0,1,2.86-2.46,5.76,5.76,0,0,0,.88-.48c1.39-.87,1.39-1.24.35-2.46a12.32,12.32,0,0,1-1.59-2.54,1.44,1.44,0,0,0-1.83-.94c-1.36.3-2.55.62-3.07,2.18a2,2,0,0,1-2.59,1C498.54,376.64,499.16,375,499.89,373.36Zm-28.75-21.47c-.4,3.09-.85,6.16-1.29,9.24l-.42,0c.13-1.79.24-3.58.42-5.37a3.37,3.37,0,0,0-.4-2.18c-1-1.88-1.81-3.87-2.76-5.93a4,4,0,0,0,1.08,0,5.06,5.06,0,0,0,.93-.57c-.28-.27-.51-.68-.83-.79-1.83-.57-3.73-.94-5.51-1.61a26.22,26.22,0,0,1-11.44-8.5c-.13-.16-.23-.4-.39-.45s-.77-.2-1-.05a1,1,0,0,0-.09.93c.65,1.06,1.4,2.05,2.08,3.09a5.5,5.5,0,0,1,.8,1.91c-.31-.22-.61-.46-.93-.66-2.4-1.55-4.73-3.23-7.22-4.61-3-1.7-3.91-1.3-5.34,1.84a21.77,21.77,0,0,0-2.08,10.08c0,.5,0,1,0,1.51a3.53,3.53,0,0,1-.19.36c-.37-.75-.72-1.38-1-2-.95-2.49-1.92-5-1.42-7.73a14.26,14.26,0,0,1,1.29-3.22c.2-.46.67-.88.1-1.32s-1,.05-1.31.48a9,9,0,0,0-1.7,4.88,6.34,6.34,0,0,1-.25,1.38,41.1,41.1,0,0,0-2,11c0,.16-.05.32-.07.46s-.18.09-.23.08c-1.71-.65-2-.49-1.91,1.31.12,2.38.34,4.75.52,7.13,0,.39,0,.79.08,1.51l-1.81-1.38c-1-.73-1.19-.6-1.78.47a9.49,9.49,0,0,1-1.69,1.75c-.5-.54-.87-1-1.27-1.36-.65-.64-1-1.64-2.05-1.84-.2,0-.42-.52-.45-.82-.85-7.54-.79-15,2.5-22.05a17.78,17.78,0,0,1,9.75-9.47,13.6,13.6,0,0,1,4.24-.62,2.39,2.39,0,0,0,2.38-1.24,7,7,0,0,1,4-3.1,16.9,16.9,0,0,1,10.34.06,23.07,23.07,0,0,1,14.81,12.06c.47.92.72,1.95,1.14,2.9a38.44,38.44,0,0,0,1.69,3.55,14.05,14.05,0,0,1,2,7.52C471.37,350.33,471.25,351,471.14,351.89ZM435.8,393.66c0,.3,0,.6,0,.91,0,.54,0,1.08.74,1.06s.75-.59.71-1.11a51,51,0,0,0-.59-7c-1-4.79-2.36-9.52-3.56-14.27a1.8,1.8,0,0,1-.1-.82l.6.75a49.47,49.47,0,0,0,7.88,8.48c5.15,4.26,10.95,4.52,17.07,2.91a5.56,5.56,0,0,0,3.19-2.34,11.6,11.6,0,0,1,1.54-1.89,12.9,12.9,0,0,0-.11,1.86,29.26,29.26,0,0,0,.59,5.05,6.85,6.85,0,0,0,1.74,2.39c.35.39.94.65,1.25,0a1.26,1.26,0,0,0-.37-1.12,4.67,4.67,0,0,1-1.67-3.21c2,.89,4,1.69,5.91,2.59.29.14.38.74.52,1.15,0,.12-.09.32-.16.46a77.59,77.59,0,0,1-8.11,13.69c-3,3.83-6.83,5.92-11.83,5.38a17.15,17.15,0,0,1-6.9-2.41A33.29,33.29,0,0,1,432,393.34a1.86,1.86,0,0,1,0-1.66c1-1.27,2.09-2.4,3.16-3.59l.26.08C435.55,390,435.68,391.83,435.8,393.66Zm99,81.58c-.32,3-.44,2.94-3.48,3.27a54.76,54.76,0,0,1-14.58-.24,2.32,2.32,0,0,1-2.28-2.08c-.5-3.38-1.11-6.76-1.37-10.17-.33-4.29-.37-8.6-.5-12.9,0-1.74,0-1.73,1.7-2a45.08,45.08,0,0,1,13.16-.73c2.49.3,5,.82,7.46,1.16,1.15.16,1.39.74,1.36,1.78-.06,2.38,0,4.77,0,7.16h-.14C535.64,465.4,535.28,470.33,534.76,475.24ZM386.93,474.1c-5.06-.71-10.13-1.41-15.18-2.16a10.82,10.82,0,0,1-2.37-.79c-.2-.09-.33-.48-.39-.76-1.16-5.15-.06-9.72,4.09-13.1s9-3.76,13.92-1.42q3.83,1.81,7.6,3.72a1.09,1.09,0,0,1,.55.77c0,4.78-.06,9.55-.1,14.33a4.83,4.83,0,0,1-.12.56Zm122.69-29.42a20.06,20.06,0,0,0,7.4-3.34c2-1.45,2.28-2.16,1.66-4.47,2.5,0,4.45,1.66,3.37,4.12a10.56,10.56,0,0,0-.34,6.43c.24,1.27.17,1.25-1.08,1.4-2.33.27-4.67.56-7,.91-2,.3-2.59.95-2.55,3,.07,3.87.22,7.73.37,11.59.07,1.65.21,3.29.36,4.93.05.54-.1.78-.64.92a10,10,0,0,1-7.87-1.08,1.29,1.29,0,0,1-.55-.94c0-7.46,0-14.92,0-22.39,0-.06,0-.12,0-.09C505.12,445.37,507.4,445.16,509.62,444.68Zm7.25-86.88a30.67,30.67,0,0,0-1.71,4.08c-.84,3.68-2.89,7-3.11,11.15-1.1-1.07-2.22-2.13-3.29-3.23-.11-.12,0-.53.08-.76,1.54-3.6,3-7.24,4.68-10.79a3.71,3.71,0,0,1,3.8-2.38A12.24,12.24,0,0,1,516.87,357.8Zm22.34,100.8a15.54,15.54,0,0,1-.55,9c-.44,1.24-1,2.42-1.58,3.62l-.27-.09c.27-4.85.53-9.69.8-14.66A2.59,2.59,0,0,1,539.21,458.6Zm-45.39-88.22c1-1.29,2-2.64,2.89-4,.44-.64.78-.5,1.17,0a2.8,2.8,0,0,1-.11,2.94c-1.59,1.5-3.22,2.95-4.77,4.34A3.6,3.6,0,0,1,493.82,370.38Zm3.28,3a7.48,7.48,0,0,0-1.25,2.47,1.41,1.41,0,0,1-1.31,1.14c-.39,0-.84-.42-1.52-.81,2.5-2.61,4.77-5,7.05-7.4l.46.43C499.38,370.55,498.18,371.9,497.1,373.34Zm10.8-1.18c1.19-.23,5.73,3.7,6.26,5.36ZM501.75,371a5.48,5.48,0,0,1-.61.06c.76-1.94,1.73-2.17,3.9-.83Zm-3.21,9.24c-.38.71-1.53,1.37-2,.91s-.29-1.16-.43-1.84Zm-69.36-8.91c1.65-.7,2.1-.26,2.24,2.05Zm73-3.59c.89-1.09,1.85-.89,2.79.6ZM395.13,456v2.13C394.4,457.79,394.41,457.7,395.13,456Z"/><path class="cls-3" d="M381.94,341.88c.14.27.23.45.33.62.5.83,1,1.69,1.52,2.47.2.28.66.37,1,.55.1-.38.4-.85.27-1.11a24.66,24.66,0,0,0-1.7-2.83,1,1,0,0,0-.85-.27C382.29,341.34,382.12,341.68,381.94,341.88Z"/><path class="cls-4" d="M380.12,349.38c.37-.34.69-.5.75-.73a.88.88,0,0,0-.23-.78c-.86-.63-1.75-1.23-2.66-1.78a.9.9,0,0,0-.8.12c-.16.11-.28.61-.2.68C378,347.73,379,348.52,380.12,349.38Z"/><path class="cls-5" d="M376.15,352.82l-.2,0c-.61,0-1.42-.37-1.5.61s.77.76,1.34.83a12.41,12.41,0,0,0,2.1.18c.3,0,.58-.39.87-.6-.24-.27-.43-.68-.72-.77a10.74,10.74,0,0,0-1.89-.25Z"/><path class="cls-6" d="M515.1,341.54a4.67,4.67,0,0,1,0,1.3c-.1.31-.48.52-.73.77-.24-.24-.65-.46-.67-.72a12,12,0,0,1,0-2.61c0-.28.47-.51.73-.77.23.28.57.52.67.83a4,4,0,0,1,0,1.2Z"/><path class="cls-7" d="M508.67,344.84c-.33.29-.55.65-.83.7a1,1,0,0,1-.75-.46,20.55,20.55,0,0,1-1-2.62c-.07-.25.09-.77.27-.83s.83,0,.93.19C507.82,342.75,508.2,343.75,508.67,344.84Z"/><path class="cls-8" d="M474.81,418.9l23.42-.16c2.61,0,3.27.63,3.24,3.26-.07,7.47-.18,14.93-.2,22.4,0,10.76.05,21.52.07,32.28,0,.7,0,1.41-.07,2.11a3,3,0,0,1-2.84,3.11v-.09a13.27,13.27,0,0,0-1.4-.14H400.45a13.27,13.27,0,0,0-1.4.14v.09a2.54,2.54,0,0,1-2.43-2.42,29.06,29.06,0,0,1-.16-3.62q0-26,.11-52c0-.48,0-.95,0-1.42.15-2.11.81-2.9,2.87-3.45a.47.47,0,0,0,.17,0l.25.08c.5.05,1,.15,1.49.15h79.82V419h-6.44C474.76,419,474.79,419,474.81,418.9ZM451.6,451.13a2.33,2.33,0,0,1-.43-4.63,2.24,2.24,0,0,1,2.45,2.32A2.13,2.13,0,0,1,451.6,451.13Z"/><path class="cls-9" d="M395,446.59a3.79,3.79,0,0,0-.37-1.09c-.24-.32-.66-.75-1-.72-.64.05-.55.63-.41,1.11a17.51,17.51,0,0,1,.75,6.78c-.15,1.55-.47,3.08-.75,4.79-1.07-.51-1.9-.87-2.68-1.32a1.54,1.54,0,0,1-.56-.77,12.11,12.11,0,0,0-10.69-7.67c-.54,0-1.19-.08-1.21.69s.62.74,1.17.76a10.69,10.69,0,0,1,8.79,5.52c-5.6-2.53-11-2.48-15.8,1.37s-6,9.11-4.66,15.19a12.14,12.14,0,0,1-4.16-2.13c-4-3.44-3.7-8-2.92-12.46.22-1.3,1.36-2.52,2.29-3.59,2.1-2.45,4.47-4.68,6.49-7.19a123.22,123.22,0,0,0,7.46-10.16c4.37-6.79,9.35-13,15.84-17.88a30.36,30.36,0,0,0,7.1-7.8c1-1.46,1.93-2.92,3-4.31a11.24,11.24,0,0,1,5.64-4.23,1.21,1.21,0,0,0,.53-.27c1.9-2.12,4.49-2.78,7.1-3.32a26.31,26.31,0,0,0,12.48-6.47c1.18-1.06,2.2-2.27,3.37-3.33a20.66,20.66,0,0,1,2.3-1.62l.25.31-2.77,3c-1.71,1.86-1.81,2.89-.49,5a36.71,36.71,0,0,0,10.33,11.33,20.24,20.24,0,0,0,10,3.89,12.94,12.94,0,0,0,9.27-2.71,20.21,20.21,0,0,0,5-5.64c2.17-3.6,4.22-7.27,6.3-10.93a5.39,5.39,0,0,0,.54-1.5,2.16,2.16,0,0,0-1.18-2.63c-.64-.35-1.33-.62-2.05-1a4.12,4.12,0,0,1,3.74,1.05c2.48,2.54,5.7,3.46,8.94,4.38q5.86,1.68,11.76,3.28a1.87,1.87,0,0,1,1.41,1.21c2.51,5.95,3.16,12.21,3.25,18.57,0,1,.32,2.28-.17,2.81s-1.82.3-2.78.3q-44.33.12-88.66.2c-2.42,0-4.85,0-7.26.14a4.33,4.33,0,0,0-4.4,4.48c-.1,1.71,0,3.43,0,5.14q0,9.39,0,18.77c0,.19,0,.37,0,.55Z"/><path class="cls-10" d="M454.4,341.92A33.62,33.62,0,0,0,464.59,347a.84.84,0,0,1,.47.42c1.05,2.33,2.1,4.66,3.1,7a3.39,3.39,0,0,1,.2,1.34c-.07,2.76-.33,5.52-.2,8.26a14.94,14.94,0,0,1-2.58,9.43c-1.58,2.34-3.05,4.75-4.49,7.18a6,6,0,0,1-4.15,2.91c-6,1.24-11.38.21-15.94-4.21a72.26,72.26,0,0,1-8.54-10.2,3.46,3.46,0,0,0-.59-.8c-.31-.24-.8-.57-1.05-.47s-.44.65-.6,1c-.05.13,0,.31.07.49a2.51,2.51,0,0,1-3-.58,10,10,0,0,1-1.81-3.06c-.14-.38.53-1.07.88-1.7.91.74,1.66,1.41,2.48,2a5.56,5.56,0,0,0,1.31.5,4.76,4.76,0,0,0,.27-1.36c-.23-2.68-.52-5.35-.8-8,.21,0,.28-.05.33,0l1.48.63a6.67,6.67,0,0,0,.38-1.54,41.31,41.31,0,0,1,1.27-11c.19.51.28.83.42,1.12.93,2,1.9,3.92,2.8,5.9.32.7.6,1.31,1.45,1.54s1.29,0,1.13-.78a.89.89,0,0,1,.74-1.19,10.36,10.36,0,0,1,2.44-.49c1.55,0,3.09.14,4.64.14.33,0,.66-.35,1-.54-.27-.29-.52-.8-.81-.83-2.8-.26-5.63-.71-8.42.57a18.33,18.33,0,0,1,0-6.44,21.42,21.42,0,0,1,2.33-6.62c.37-.69.81-.86,1.46-.59a11.78,11.78,0,0,1,2.09,1c3,2,6,4.12,8.95,6.2.22.15.4.42.64.48a1.49,1.49,0,0,0,1,0c.17-.09.22-.6.15-.87C454.92,343.15,454.63,342.54,454.4,341.92Zm-6.95,30.38c-.29-.08-.46-.58-.69-.89a3.22,3.22,0,0,1,1.17-.41c1.49.05,3,.31,4.48.28a25,25,0,0,0,4.4-.48,18.89,18.89,0,0,0,3.23-1.09c.47-.18.92-.58,1.29.06s-.08,1-.6,1.24a16.2,16.2,0,0,1-3.3,1.16c-2.15.37-4.34.52-6.76.78C449.73,372.77,448.57,372.6,447.45,372.3Zm8.13-6.3a.71.71,0,0,1-.83-.92,1.6,1.6,0,0,1,.34-.49c1.32-1.5,1.26-1.47.33-3.3s-1.67-3.59-2.44-5.41c-.11-.25.16-.66.25-1,.36.16.9.22,1,.49,1.16,2.3,2.25,4.63,3.35,7a3.59,3.59,0,0,1,.22.71A5.21,5.21,0,0,1,455.58,366Zm8.57-17.52a.88.88,0,0,1,.33.81c-.07.23-.54.56-.71.5-2.22-.78-4.2.25-6.26.77-.57.15-1.3.75-1.65-.13s.58-1.07,1.18-1.24c1.73-.49,3.49-.9,5.13-1.32A13.45,13.45,0,0,1,464.15,348.48Zm-12,27.62c-.26-.08-.39-.57-.58-.87.29-.18.61-.53.86-.49a9.39,9.39,0,0,0,5.06-.44c.25-.09.66.24,1,.38-.17.31-.27.84-.51.92-1.21.38-2.46.64-3.39.87A19,19,0,0,1,452.11,376.1Zm-7.83-21.71c.79,0,1.12.63,1.12,1.37s-.11,1.25-.91,1.33c-.63.07-1.1-.6-1.09-1.88C443.57,355,443.91,354.41,444.28,354.39Zm16.15-1.93c.56-.21,1.19.61,1.15,1.42,0,.63-.18,1.3-1,1.27s-1-.77-1.24-1.63C459.73,353.15,460,352.61,460.43,352.46Z"/><path class="cls-10" d="M497.85,378.36c.69-1.72,1.31-3.39,2-5a1.65,1.65,0,0,1,1-.67,34.85,34.85,0,0,1,3.64-.83,1.74,1.74,0,0,1,1.22.35c2.11,1.77,4.19,3.59,6.26,5.41.4.35.74.78,1.12,1.15s.69.61,1.19,1.05a2.25,2.25,0,0,1-.05.53c-1.24,5-2.44,10-4.81,14.62a7.51,7.51,0,0,0-.68,5.45c1.69,6.92,3.43,13.83,5,20.78,1.22,5.4,2.06,10.9,3.41,16.27.46,1.8-.45,2.24-1.45,2.9A21.27,21.27,0,0,1,502.72,444v-1.2c.06-6.73.13-13.45.16-20.18a13.83,13.83,0,0,0-.26-2.8,2.7,2.7,0,0,0-1.88-2.19c-.69-.21-.75-.59-.76-1.18a51.82,51.82,0,0,0-3.5-21.45,29.7,29.7,0,0,1-1.73-7.13c-.27-2.6-.72-5.19-1.07-7.78-.07-.49-.07-1-.1-1.55h1.47c-.11.63-.26,1.21-.31,1.79a2.09,2.09,0,0,0,2.66,2.37c1.85-.35,2.77-1.76,3.62-3.25a12.33,12.33,0,0,1,1.25-2.15c.35-.38,1-.45,1.52-.64l2,3.25c-4.44,2.07-6.12,6.13-7.4,10.47-.05.2-.17.43-.11.59a8.27,8.27,0,0,0,.61,1.08c.26-.27.71-.51.77-.82a18.4,18.4,0,0,1,3.22-7.12,6.51,6.51,0,0,1,2.86-2.46,5.76,5.76,0,0,0,.88-.48c1.39-.87,1.39-1.24.35-2.46a12.32,12.32,0,0,1-1.59-2.54,1.44,1.44,0,0,0-1.83-.94c-1.36.3-2.55.62-3.07,2.18A2,2,0,0,1,497.85,378.36Z"/><path class="cls-11" d="M472.55,350.41c-1.18-.08-1.3.63-1.41,1.48-.4,3.09-.85,6.16-1.29,9.24l-.42,0c.13-1.79.24-3.58.42-5.37a3.37,3.37,0,0,0-.4-2.18c-1-1.88-1.81-3.87-2.76-5.93a4,4,0,0,0,1.08,0,5.06,5.06,0,0,0,.93-.57c-.28-.27-.51-.68-.83-.79-1.83-.57-3.73-.94-5.51-1.61a26.22,26.22,0,0,1-11.44-8.5c-.13-.16-.23-.4-.39-.45s-.77-.2-1-.05a1,1,0,0,0-.09.93c.65,1.06,1.4,2.05,2.08,3.09a5.5,5.5,0,0,1,.8,1.91c-.31-.22-.61-.46-.93-.66-2.4-1.55-4.73-3.23-7.22-4.61-3-1.7-3.91-1.3-5.34,1.84a21.77,21.77,0,0,0-2.08,10.08c0,.5,0,1,0,1.51a3.53,3.53,0,0,1-.19.36c-.37-.75-.72-1.38-1-2-.95-2.49-1.92-5-1.42-7.73a14.26,14.26,0,0,1,1.29-3.22c.2-.46.67-.88.1-1.32s-1,.05-1.31.48a9,9,0,0,0-1.7,4.88,6.34,6.34,0,0,1-.25,1.38,41.1,41.1,0,0,0-2,11c0,.16-.05.32-.07.46s-.18.09-.23.08c-1.71-.65-2-.49-1.91,1.31.12,2.38.34,4.75.52,7.13,0,.39,0,.79.08,1.51l-1.81-1.38c-1-.73-1.19-.6-1.78.47a9.49,9.49,0,0,1-1.69,1.75c-.5-.54-.87-1-1.27-1.36-.65-.64-1-1.64-2.05-1.84-.2,0-.42-.52-.45-.82-.85-7.54-.79-15,2.5-22.05a17.78,17.78,0,0,1,9.75-9.47,13.6,13.6,0,0,1,4.24-.62,2.39,2.39,0,0,0,2.38-1.24,7,7,0,0,1,4-3.1,16.9,16.9,0,0,1,10.34.06,23.07,23.07,0,0,1,14.81,12.06c.47.92.72,1.95,1.14,2.9a38.44,38.44,0,0,0,1.69,3.55A14.05,14.05,0,0,1,472.55,350.41Z"/><path class="cls-10" d="M435.42,388.17c.13,1.83.26,3.66.38,5.49,0,.3,0,.6,0,.91,0,.54,0,1.08.74,1.06s.75-.59.71-1.11a51,51,0,0,0-.59-7c-1-4.79-2.36-9.52-3.56-14.27a1.8,1.8,0,0,1-.1-.82l.6.75a49.47,49.47,0,0,0,7.88,8.48c5.15,4.26,10.95,4.52,17.07,2.91a5.56,5.56,0,0,0,3.19-2.34,11.6,11.6,0,0,1,1.54-1.89,12.9,12.9,0,0,0-.11,1.86,29.26,29.26,0,0,0,.59,5.05,6.85,6.85,0,0,0,1.74,2.39c.35.39.94.65,1.25,0a1.26,1.26,0,0,0-.37-1.12,4.67,4.67,0,0,1-1.67-3.21c2,.89,4,1.69,5.91,2.59.29.14.38.74.52,1.15,0,.12-.09.32-.16.46a77.59,77.59,0,0,1-8.11,13.69c-3,3.83-6.83,5.92-11.83,5.38a17.15,17.15,0,0,1-6.9-2.41A33.29,33.29,0,0,1,432,393.34a1.86,1.86,0,0,1,0-1.66c1-1.27,2.09-2.4,3.16-3.59Z"/><path class="cls-10" d="M536.07,460.48c-.43,4.92-.79,9.85-1.31,14.76-.32,3-.44,2.94-3.48,3.27a54.76,54.76,0,0,1-14.58-.24,2.32,2.32,0,0,1-2.28-2.08c-.5-3.38-1.11-6.76-1.37-10.17-.33-4.29-.37-8.6-.5-12.9,0-1.74,0-1.73,1.7-2a45.08,45.08,0,0,1,13.16-.73c2.49.3,5,.82,7.46,1.16,1.15.16,1.39.74,1.36,1.78-.06,2.38,0,4.77,0,7.16Zm-21.51-7.25c-.17,0-.4,0-.49-.05-.28-.27-.51-.59-.76-.88.3-.18.61-.53.91-.52,2.35.13,4.69.41,7,.48,3.59.12,7.19.13,10.78.14.66,0,1.31-.32,2-.36.32,0,.66.23,1,.37-.19.33-.32.89-.58,1a13.67,13.67,0,0,1-3.16.6c-2.18.09-4.36,0-6.3,0Z"/><path class="cls-10" d="M394.93,475.25l-8-1.15c-5.06-.71-10.13-1.41-15.18-2.16a10.82,10.82,0,0,1-2.37-.79c-.2-.09-.33-.48-.39-.76-1.16-5.15-.06-9.72,4.09-13.1s9-3.76,13.92-1.42q3.83,1.81,7.6,3.72a1.09,1.09,0,0,1,.55.77c0,4.78-.06,9.55-.1,14.33A4.83,4.83,0,0,1,394.93,475.25Z"/><path class="cls-9" d="M502.76,445.71c2.36-.34,4.64-.55,6.86-1a20.06,20.06,0,0,0,7.4-3.34c2-1.45,2.28-2.16,1.66-4.47,2.5,0,4.45,1.66,3.37,4.12a10.56,10.56,0,0,0-.34,6.43c.24,1.27.17,1.25-1.08,1.4-2.33.27-4.67.56-7,.91-2,.3-2.59.95-2.55,3,.07,3.87.22,7.73.37,11.59.07,1.65.21,3.29.36,4.93.05.54-.1.78-.64.92a10,10,0,0,1-7.87-1.08,1.29,1.29,0,0,1-.55-.94c0-7.46,0-14.92,0-22.39C502.73,445.74,502.77,445.68,502.76,445.71Z"/><path class="cls-10" d="M517.32,355.87a12.24,12.24,0,0,1-.45,1.93,30.67,30.67,0,0,0-1.71,4.08c-.84,3.68-2.89,7-3.11,11.15-1.1-1.07-2.22-2.13-3.29-3.23-.11-.12,0-.53.08-.76,1.54-3.6,3-7.24,4.68-10.79A3.71,3.71,0,0,1,517.32,355.87Z"/><path class="cls-12" d="M455.42,359.5a2.59,2.59,0,0,0-1.6,2.1,15.62,15.62,0,0,0,.54,9c.45,1.24,1.05,2.42,1.58,3.62l.27-.09C456,369.31,455.69,364.47,455.42,359.5Z"/><path class="cls-13" d="M498.38,482a3.77,3.77,0,0,1-.91.22H400a4.23,4.23,0,0,1-.92-.21l1.21,0h87Z"/><path class="cls-14" d="M498.38,482l-11.1,0h-87l-1.21,0a.4.4,0,0,1,0-.15v-.09c.4,0,.81.06,1.21.06h87.36c3.6,0,7.2,0,10.8-.05v.09Z"/><path class="cls-12" d="M493,373.65a3.6,3.6,0,0,1,.82-3.27c1-1.29,2-2.64,2.89-4,.44-.64.78-.5,1.17,0a2.8,2.8,0,0,1-.11,2.94C496.18,370.81,494.55,372.26,493,373.65Z"/><path class="cls-15" d="M399.63,419a.47.47,0,0,1-.17,0,6.76,6.76,0,0,1,1.5-.34q21.74,0,43.48,0h28.65c.5,0,1,.09,1.49.13l-1.11,0-72.14.06C400.76,418.89,400.2,419,399.63,419Z"/><path class="cls-14" d="M399.63,419c.57-.05,1.13-.15,1.7-.15l72.14-.06,1.11,0,.23.09c0,.05-.05.09-.07.14l-1,0-63.66.05c-3.4,0-6.79,0-10.19.05Z"/><path class="cls-16" d="M500.53,369.17c-1.15,1.38-2.35,2.73-3.43,4.17a7.48,7.48,0,0,0-1.25,2.47,1.41,1.41,0,0,1-1.31,1.14c-.39,0-.84-.42-1.52-.81,2.5-2.61,4.77-5,7.05-7.4Z"/><path class="cls-17" d="M514.16,377.52l-6.26-5.36C509.09,371.93,513.63,375.86,514.16,377.52Z"/><path class="cls-18" d="M505,370.22l-3.29.77a5.48,5.48,0,0,1-.61.06C501.9,369.11,502.87,368.88,505,370.22Z"/><path class="cls-19" d="M496.16,379.3l2.38.93c-.38.71-1.53,1.37-2,.91S496.3,380,496.16,379.3Z"/><path class="cls-20" d="M431.42,373.37l-2.24-2.05C430.83,370.62,431.28,371.06,431.42,373.37Z"/><path class="cls-21" d="M505,368.33l-2.79-.6C503.05,366.64,504,366.84,505,368.33Z"/><path class="cls-22" d="M395.13,458.12c-.73-.33-.72-.42,0-2.13Z"/><path class="cls-23" d="M498.42,481.81c-3.6,0-7.2.05-10.8.05H400.26c-.4,0-.81,0-1.21-.06a13.27,13.27,0,0,1,1.4-.14H497A13.27,13.27,0,0,1,498.42,481.81Z"/><path class="cls-24" d="M399.88,419.12c3.4,0,6.79-.05,10.19-.05l63.66-.05,1,0h6.44v.23H401.37C400.87,419.27,400.38,419.17,399.88,419.12Z"/><path class="cls-2" d="M453.62,448.82a2.13,2.13,0,0,1-2,2.31,2.33,2.33,0,0,1-.43-4.63A2.24,2.24,0,0,1,453.62,448.82Zm-2.19.76c-.29-.07-.72-.54-.67-.75a1.16,1.16,0,0,1,.78-.73c.21,0,.51.41,1,.84C452,449.26,451.66,449.64,451.43,449.58Z"/><path class="cls-25" d="M450.67,373c-.94-.18-2.1-.35-3.22-.65-.29-.08-.46-.58-.69-.89a3.22,3.22,0,0,1,1.17-.41c1.49.05,3,.31,4.48.28a25,25,0,0,0,4.4-.48,18.89,18.89,0,0,0,3.23-1.09c.47-.18.92-.58,1.29.06s-.08,1-.6,1.24a16.2,16.2,0,0,1-3.3,1.16C455.28,372.54,453.09,372.69,450.67,373Z"/><path class="cls-2" d="M457.84,363.05a5.21,5.21,0,0,1-2.26,2.95.71.71,0,0,1-.83-.92,1.6,1.6,0,0,1,.34-.49c1.32-1.5,1.26-1.47.33-3.3s-1.67-3.59-2.44-5.41c-.11-.25.16-.66.25-1,.36.16.9.22,1,.49,1.16,2.3,2.25,4.63,3.35,7A3.59,3.59,0,0,1,457.84,363.05Z"/><path class="cls-25" d="M462.17,347.87a13.45,13.45,0,0,1,2,.61.88.88,0,0,1,.33.81c-.07.23-.54.56-.71.5-2.22-.78-4.2.25-6.26.77-.57.15-1.3.75-1.65-.13s.58-1.07,1.18-1.24C458.77,348.7,460.53,348.29,462.17,347.87Z"/><path class="cls-25" d="M454.54,376.47a19,19,0,0,1-2.43-.37c-.26-.08-.39-.57-.58-.87.29-.18.61-.53.86-.49a9.39,9.39,0,0,0,5.06-.44c.25-.09.66.24,1,.38-.17.31-.27.84-.51.92C456.72,376,455.47,376.24,454.54,376.47Z"/><path class="cls-25" d="M443.4,355.21c.17-.17.51-.8.88-.82.79,0,1.12.63,1.12,1.37s-.11,1.25-.91,1.33C443.86,357.16,443.39,356.49,443.4,355.21Z"/><path class="cls-26" d="M459.38,353.52c.35-.37.63-.91,1.05-1.06s1.19.61,1.15,1.42c0,.63-.18,1.3-1,1.27S459.64,354.38,459.38,353.52Z"/><path class="cls-2" d="M525,454l-10.41-.77c-.17,0-.4,0-.49-.05-.28-.27-.51-.59-.76-.88.3-.18.61-.53.91-.52,2.35.13,4.69.41,7,.48,3.59.12,7.19.13,10.78.14.66,0,1.31-.32,2-.36.32,0,.66.23,1,.37-.19.33-.32.89-.58,1a13.67,13.67,0,0,1-3.16.6C529.09,454.06,526.91,454,525,454Z"/><path class="cls-27" d="M452.51,448.94c-.51.32-.85.7-1.08.64s-.72-.54-.67-.75a1.16,1.16,0,0,1,.78-.73C451.75,448.06,452.05,448.51,452.51,448.94Z"/><path class="cls-23" d="M284.6,153.07v47.74H269.53a2.33,2.33,0,0,0-2.54,2.55q0,7,0,14a3.83,3.83,0,0,0,.13.74v.14h-48c-.41-.33-.82-.65-1.21-1-.23-.21-.43-.47-.64-.7V152.93l.57,0h66.58ZM268,179.64a13.18,13.18,0,0,0-.15-1.54,3.24,3.24,0,0,0-2.24-2.76,3.15,3.15,0,0,0-3.59,1,5,5,0,0,0-.9,2.11c-.45,2.92,1.08,5.05,4,4.86a2.69,2.69,0,0,0,2.64-2.55c-.56.17-1.18.18-1.52.49a2.29,2.29,0,0,1-2.38.55,1.93,1.93,0,0,1-1-2.18Zm-12.19-4.25a7.18,7.18,0,0,1-.83,0c-.67-.1-1,.15-1.18.84-.47,1.68-1.06,3.34-1.65,5.18-.15-.47-.25-.75-.33-1-.46-1.47-.89-2.94-1.37-4.4a.86.86,0,0,0-.51-.54,6.91,6.91,0,0,0-1.38,0c.1.33.16.55.23.77L251,182.6a1.62,1.62,0,0,1-1.54,2.3l-.68,0v1.3c2,.31,3.24-.33,3.92-2.13C253.74,181.27,254.72,178.39,255.79,175.39ZM242,177.65a11.61,11.61,0,0,0-1-1.75,3.36,3.36,0,0,0-3.59-.41,3,3,0,0,0-1.23,1.17,1.87,1.87,0,0,0,1.06,2.73c.77.34,1.61.54,2.39.87a.9.9,0,0,1,.49.66,1.2,1.2,0,0,1-.41.88,1.66,1.66,0,0,1-2.41-.77c-.06-.16-.23-.36-.38-.38a6.63,6.63,0,0,0-1.09,0,2,2,0,0,0,1.12,2.29,4.1,4.1,0,0,0,3.69,0,2.13,2.13,0,0,0,1.21-2.27,1.87,1.87,0,0,0-1.4-1.76c-.74-.26-1.49-.46-2.21-.76a1.1,1.1,0,0,1-.6-.69,1.14,1.14,0,0,1,.45-.79,1.43,1.43,0,0,1,2,.48c.11.19.3.43.49.47A9.51,9.51,0,0,0,242,177.65Zm5.45-2.18c-.53-.08-1.23,0-1.42-.27s-.11-1-.08-1.52-.25-.61-.65-.55-1-.28-1,.55v1.64l-1.13.13c0,.24,0,.43,0,.61l0,.54c1.23.17,1.21.17,1.17,1-.06,1.16,0,2.32-.14,3.47-.14,1.61,1,2.49,2.66,2.15,1.1-.23,1.22-.4.9-1.57l-.54.11c-1.06.15-1.31-.06-1.31-1.14s0-2.18,0-3.27c0-.52.17-.71.7-.7C247.65,176.66,247.65,176.64,247.48,175.47Zm-18.31,2.16,4.42-2.11c.95-.46,1.12-.92.7-2l-.45.18c-2,1-3.91,1.91-5.87,2.85a.88.88,0,0,0-.62,1c0,.5.06.86.61,1.12,2,.94,4,1.93,6,2.9a1.89,1.89,0,0,0,.44.13c.16-1.54.15-1.52-1.16-2.11S230.65,178.34,229.17,177.63Zm45.27,0c-1.47.69-2.8,1.32-4.15,1.93s-1.33.75-1.06,2.13a1.11,1.11,0,0,0,.26-.07c2.1-1,4.2-2.06,6.31-3.06.53-.25.4-.66.43-1.07a.73.73,0,0,0-.45-.84c-2-.95-3.95-1.92-5.92-2.88-.2-.09-.43-.14-.65-.22-.2,1.48-.2,1.49,1,2.08Zm-14.18,4.21c-1.5-.18-1.5-.18-1.5-1.71v-6.61c0-1.41,0-1.41-1.39-1.25a.67.67,0,0,0-.17.12c0,3.25,0,6.53,0,9.82a1.31,1.31,0,0,0,.74.9,2.87,2.87,0,0,0,2.28,0Z"/><path class="cls-28" d="M284.44,152.9H217.86l-.57,0V130.48c.62-1.6,1.82-2,3.47-2,7.76.06,15.52,0,23.28,0h37.69a2.5,2.5,0,0,1,2.72,2.47C284.46,138.27,284.44,145.59,284.44,152.9ZM248.1,139.38a2.62,2.62,0,0,0-.85-2.3,3.84,3.84,0,0,0-3.58-.83,2.94,2.94,0,0,0-2.5,2.56,2.77,2.77,0,0,0,1.78,2.94c.61.31,1.25.55,1.86.86a7.6,7.6,0,0,1,1.5.91,1.21,1.21,0,0,1-.05,1.87,2.3,2.3,0,0,1-3.61-1c-.18-.72-.53-.83-1.12-.76l-.61,0a3.09,3.09,0,0,0,1.31,3,4.78,4.78,0,0,0,5,0,3,3,0,0,0-.3-5.12c-1.05-.53-2.15-1-3.21-1.47a1.2,1.2,0,0,1-.8-1.23,1.34,1.34,0,0,1,1.05-1.13,1.88,1.88,0,0,1,2.52,1.25.63.63,0,0,0,.41.36A9.93,9.93,0,0,0,248.1,139.38Zm-9.11,0a2.86,2.86,0,0,0-1.26-2.59,4,4,0,0,0-4.3-.11,2.76,2.76,0,0,0-.15,4.76,20,20,0,0,0,2,1,13.22,13.22,0,0,1,1.75.92,1.25,1.25,0,0,1,.14,2,2.36,2.36,0,0,1-3.65-.9c-.08-.24-.14-.49-.21-.76h-1.54a3.24,3.24,0,0,0,2.63,3.54c2.21.5,4.21-.32,4.78-2a2.88,2.88,0,0,0-1.53-3.74c-1-.5-2.12-.93-3.15-1.46a1.14,1.14,0,0,1-.34-1.93,1.93,1.93,0,0,1,3.1.69.68.68,0,0,0,.85.57A9.11,9.11,0,0,1,239,139.38Zm-8.86.29a3.38,3.38,0,0,0-2.8-3.46,4.32,4.32,0,0,0-4.77,2.27,7.29,7.29,0,0,0,0,6.5,4.12,4.12,0,0,0,3.39,2.38,3.67,3.67,0,0,0,4.34-4h-1.43c0,.19-.11.36-.15.55-.28,1.22-.85,1.85-1.82,2a2.45,2.45,0,0,1-2.67-1.45,6.23,6.23,0,0,1,0-5.35,2.34,2.34,0,0,1,2.27-1.42,2.08,2.08,0,0,1,2.07,1.63.75.75,0,0,0,.54.39A5.67,5.67,0,0,0,230.13,139.67Z"/><path class="cls-10" d="M284.32,200.81h.28v17.47H267.13v-.14c.19-.21.37-.43.57-.63l16.05-16.07C284,201.24,284.13,201,284.32,200.81Z"/><path class="cls-10" d="M284.44,152.9c0-7.31,0-14.63,0-21.94a2.5,2.5,0,0,0-2.72-2.47H244c-7.76,0-15.52,0-23.28,0-1.65,0-2.85.41-3.47,2v-2.13H284.6v24.72Z"/><path class="cls-12" d="M237.85,224.21a8.42,8.42,0,0,0,.64.7c.39.35.8.67,1.2,1h-1.84Z"/><path class="cls-29" d="M284.32,200.81c-.19.21-.37.43-.57.63L267.7,217.51c-.2.2-.38.42-.57.63a3.83,3.83,0,0,1-.13-.74q0-7,0-14a2.33,2.33,0,0,1,2.54-2.55h14.79Z"/><path class="cls-30" d="M268,179.64h-5.16a1.93,1.93,0,0,0,1,2.18,2.29,2.29,0,0,0,2.38-.55c.34-.31,1-.32,1.52-.49a2.69,2.69,0,0,1-2.64,2.55c-2.93.19-4.46-1.94-4-4.86a5,5,0,0,1,.9-2.11,3.15,3.15,0,0,1,3.59-1,3.24,3.24,0,0,1,2.24,2.76A13.18,13.18,0,0,1,268,179.64Zm-1.77-1.3c-.22-1.34-.79-1.9-1.8-1.83a1.69,1.69,0,0,0-1.56,1.83Z"/><path class="cls-30" d="M255.79,175.39c-1.07,3-2,5.88-3.13,8.73-.68,1.8-2,2.44-3.92,2.13V185l.68,0a1.62,1.62,0,0,0,1.54-2.3l-2.19-6.44c-.07-.22-.13-.44-.23-.77a6.91,6.91,0,0,1,1.38,0,.86.86,0,0,1,.51.54c.48,1.46.91,2.93,1.37,4.4.08.29.18.57.33,1,.59-1.84,1.18-3.5,1.65-5.18.2-.69.51-.94,1.18-.84A7.18,7.18,0,0,0,255.79,175.39Z"/><path class="cls-30" d="M242,177.65a9.51,9.51,0,0,1-1.47,0c-.19,0-.38-.28-.49-.47a1.43,1.43,0,0,0-2-.48,1.14,1.14,0,0,0-.45.79,1.1,1.1,0,0,0,.6.69c.72.3,1.47.5,2.21.76a1.87,1.87,0,0,1,1.4,1.76,2.13,2.13,0,0,1-1.21,2.27,4.1,4.1,0,0,1-3.69,0,2,2,0,0,1-1.12-2.29,6.63,6.63,0,0,1,1.09,0c.15,0,.32.22.38.38a1.66,1.66,0,0,0,2.41.77,1.2,1.2,0,0,0,.41-.88.9.9,0,0,0-.49-.66c-.78-.33-1.62-.53-2.39-.87a1.87,1.87,0,0,1-1.06-2.73,3,3,0,0,1,1.23-1.17,3.36,3.36,0,0,1,3.59.41A11.61,11.61,0,0,1,242,177.65Z"/><path class="cls-31" d="M247.48,175.47c.17,1.17.17,1.19-.95,1.19-.53,0-.71.18-.7.7,0,1.09,0,2.18,0,3.27s.25,1.29,1.31,1.14l.54-.11c.32,1.17.2,1.34-.9,1.57-1.62.34-2.8-.54-2.66-2.15.09-1.15.08-2.31.14-3.47,0-.84.06-.84-1.17-1l0-.54c0-.18,0-.37,0-.61l1.13-.13v-1.64c0-.83.63-.49,1-.55s.68,0,.65.55-.16,1.16.08,1.52S247,175.39,247.48,175.47Z"/><path class="cls-30" d="M229.17,177.63c1.48.71,2.76,1.35,4.07,2s1.32.57,1.16,2.11a1.89,1.89,0,0,1-.44-.13c-2-1-4-2-6-2.9-.55-.26-.59-.62-.61-1.12a.88.88,0,0,1,.62-1c2-.94,3.91-1.9,5.87-2.85l.45-.18c.42,1,.25,1.51-.7,2Z"/><path class="cls-30" d="M274.44,177.64l-4.21-2c-1.22-.59-1.22-.6-1-2.08.22.08.45.13.65.22,2,1,3.94,1.93,5.92,2.88a.73.73,0,0,1,.45.84c0,.41.1.82-.43,1.07-2.11,1-4.21,2-6.31,3.06a1.11,1.11,0,0,1-.26.07c-.27-1.38-.16-1.58,1.06-2.13S273,178.33,274.44,177.64Z"/><path class="cls-32" d="M260.26,181.85v1.24a2.87,2.87,0,0,1-2.28,0,1.31,1.31,0,0,1-.74-.9c-.06-3.29,0-6.57,0-9.82a.67.67,0,0,1,.17-.12c1.39-.16,1.39-.16,1.39,1.25v6.61C258.76,181.67,258.76,181.67,260.26,181.85Z"/><path class="cls-33" d="M248.1,139.38a9.93,9.93,0,0,1-1.23,0,.63.63,0,0,1-.41-.36,1.88,1.88,0,0,0-2.52-1.25,1.34,1.34,0,0,0-1.05,1.13,1.2,1.2,0,0,0,.8,1.23c1.06.5,2.16.94,3.21,1.47a3,3,0,0,1,.3,5.12,4.78,4.78,0,0,1-5,0,3.09,3.09,0,0,1-1.31-3l.61,0c.59-.07.94,0,1.12.76a2.3,2.3,0,0,0,3.61,1,1.21,1.21,0,0,0,.05-1.87,7.6,7.6,0,0,0-1.5-.91c-.61-.31-1.25-.55-1.86-.86a2.77,2.77,0,0,1-1.78-2.94,2.94,2.94,0,0,1,2.5-2.56,3.84,3.84,0,0,1,3.58.83A2.62,2.62,0,0,1,248.1,139.38Z"/><path class="cls-33" d="M239,139.38a9.11,9.11,0,0,0-.92,0,.68.68,0,0,1-.85-.57,1.93,1.93,0,0,0-3.1-.69,1.14,1.14,0,0,0,.34,1.93c1,.53,2.11,1,3.15,1.46a2.88,2.88,0,0,1,1.53,3.74c-.57,1.67-2.57,2.49-4.78,2a3.24,3.24,0,0,1-2.63-3.54h1.54c.07.27.13.52.21.76a2.36,2.36,0,0,0,3.65.9,1.25,1.25,0,0,0-.14-2,13.22,13.22,0,0,0-1.75-.92,20,20,0,0,1-2-1,2.76,2.76,0,0,1,.15-4.76,4,4,0,0,1,4.3.11A2.86,2.86,0,0,1,239,139.38Z"/><path class="cls-33" d="M230.13,139.67a5.67,5.67,0,0,1-1,0,.75.75,0,0,1-.54-.39,2.08,2.08,0,0,0-2.07-1.63,2.34,2.34,0,0,0-2.27,1.42,6.23,6.23,0,0,0,0,5.35,2.45,2.45,0,0,0,2.67,1.45c1-.13,1.54-.76,1.82-2,0-.19.1-.36.15-.55h1.43a3.67,3.67,0,0,1-4.34,4,4.12,4.12,0,0,1-3.39-2.38,7.29,7.29,0,0,1,0-6.5,4.32,4.32,0,0,1,4.77-2.27A3.38,3.38,0,0,1,230.13,139.67Z"/><path class="cls-21" d="M266.21,178.34h-3.36a1.69,1.69,0,0,1,1.56-1.83C265.42,176.44,266,177,266.21,178.34Z"/><path class="cls-23" d="M184,128.16v46.59h-.14a4,4,0,0,0-1-.26c-1.54,0-3.07,0-4.61,0-3,0-6,.11-8.94.11a2.34,2.34,0,0,0-2.21,2.33c0,4.67,0,9.33,0,14a2.39,2.39,0,0,0,.13.51v.14H120.66c-.07-.08-.11-.22-.19-.25a2.28,2.28,0,0,1-1.48-1.83c0-.1-.17-.17-.26-.26V128.3l.16-.18,1,0h63.19ZM151,150c0,.47.1.94.1,1.41,0,1.77,0,3.53,0,5.3,0,.62.17.8.78.77s.92,0,.89-.76c-.05-1.37,0-2.75,0-4.13a1.46,1.46,0,0,1,1.45-1.45c.8,0,1.3.52,1.31,1.43,0,1.29,0,2.57,0,3.86,0,1.06,0,1,1,1,.49,0,.63-.16.62-.63,0-1.29,0-2.57,0-3.86a2.77,2.77,0,0,1,.1-.81,1.46,1.46,0,0,1,1.53-1c.82.11,1.12.45,1.13,1.35,0,1.47,0,2.93,0,4.4,0,.75.54.51.93.55s.72.05.71-.53c0-1.73,0-3.45,0-5.17a2,2,0,0,0-2-2,2.86,2.86,0,0,0-2.61,1c-2-1.37-2.65-1.39-4.31-.15C152.42,149.84,152.26,149.78,151,150ZM137.23,147a2.63,2.63,0,0,0,0,.36c0,3.22,0,6.43,0,9.64,0,.5.24.6.63.54s1,.27,1-.53c0-1.33,0-2.66,0-4a2.26,2.26,0,0,1,.67-1.41,2.09,2.09,0,0,1,1.38-.25c.55.05.73.57.81,1.06a4,4,0,0,1,0,.69c0,1.28,0,2.57,0,3.85,0,.8.57.53,1,.58s.7,0,.69-.56c0-1.61,0-3.21,0-4.82a2.14,2.14,0,0,0-2.4-2.3,11.82,11.82,0,0,0-2.15.53v-2.09C138.82,146.76,138.82,146.76,137.23,147Zm7.74,4.15c1.05.17,1.05.17,1,1.26s0,2.11,0,3.16c0,1.61.94,2.35,2.55,2,1-.2,1.14-.47.77-1.53-.15,0-.3.08-.46.1-.95.15-1.21-.06-1.21-1,0-.8,0-1.6,0-2.41v-1.53c.57,0,1.09.13,1.41,0s.21-.71.31-1.13l-1.68-.09a10.67,10.67,0,0,1,0-1.51c0-.39,0-.71-.42-.62s-1.11-.44-1.14.49c0,.54,0,1.08,0,1.6C144.84,150.06,144.84,150.06,145,151.11Zm-9.52,5c.18-1.57.17-1.55-1.11-2.13s-2.28-1.07-3.42-1.62a3.35,3.35,0,0,1-.42-.32l4.17-2c.93-.45,1.08-.86.7-1.91a1.11,1.11,0,0,0-.26.07c-2,1-4,2-6.06,2.94-.45.21-.42.54-.42.91s0,.74.45,1c1.5.69,3,1.43,4.46,2.15Zm37.1-4-4.24,2c-.92.44-1,.77-.68,1.85a4.29,4.29,0,0,0,.5-.19c1.9-.92,3.79-1.86,5.69-2.76a.83.83,0,0,0,.55-.9c0-.45-.07-.76-.54-1-2-.93-3.92-1.9-5.88-2.85a2.43,2.43,0,0,0-.38-.13c-.26,1.46-.22,1.49,1,2.05S171.11,151.43,172.55,152.12Zm-5.79,4.07c-1.34-.1-1.34-.1-1.34-1.43q0-3.56,0-7.09c0-.24,0-.49,0-.77-.42,0-.76,0-1.1,0s-.49.13-.49.49c0,3,0,6,0,8.94a1.08,1.08,0,0,0,.72,1.14,3.12,3.12,0,0,0,2.25,0Z"/><path class="cls-34" d="M184,128.16l-.9,0H119.93l-1,0q0-10.44,0-20.88a2.5,2.5,0,0,1,2.82-2.79q29.65,0,59.29,0a2.82,2.82,0,0,1,3,1.95Zm-31.72-5.6V112.05c-.63,0-1.22,0-1.81,0-.41,0-.55.16-.66.52-.38,1.37-.8,2.73-1.21,4.09s-.75,2.52-1.18,3.95c-.13-.33-.2-.5-.25-.66q-1.08-3.66-2.17-7.32c-.06-.21-.25-.53-.4-.54-.69-.06-1.39,0-2.11,0v10.5H144v-7.93a1,1,0,0,1,.31.56c.68,2.26,1.4,4.51,2,6.79.22.83.77.55,1.27.63s.7-.19.84-.65c.68-2.36,1.38-4.7,2.08-7,0-.16.13-.3.19-.45l.11,0v8.07Zm-26.75,0v-4.71H130v4.69h1.6V112.11H130v4.28c-1.23,0-2.4,0-3.57,0-.73,0-.9-.21-.86-.89,0-1.14,0-2.28,0-3.42h-1.66v10.46Zm12.4,0v-9.08h2.86V112.1h-7.45v1.42h2.89v9Zm17.1-10.49v10.46h6.18v-1.4h-4.5v-9.06Z"/><path class="cls-10" d="M183.88,174.75H184v16.81H167.21v-.14c.12-.14.23-.28.36-.41q7.94-8,15.89-15.91A4.58,4.58,0,0,1,183.88,174.75Z"/><path class="cls-35" d="M184,106.38a2.82,2.82,0,0,0-3-1.95q-29.64,0-59.29,0a2.5,2.5,0,0,0-2.82,2.79q0,10.44,0,20.88l-.16.18v-24H184Z"/><path class="cls-35" d="M118.73,189.22c.09.09.24.16.26.26a2.28,2.28,0,0,0,1.48,1.83c.08,0,.12.17.19.25h-1.93Z"/><path class="cls-29" d="M183.88,174.75a4.58,4.58,0,0,0-.42.35q-8,8-15.89,15.91c-.13.13-.24.27-.36.41a2.39,2.39,0,0,1-.13-.51c0-4.66,0-9.32,0-14a2.34,2.34,0,0,1,2.21-2.33c3,0,6-.08,8.94-.11,1.54,0,3.07,0,4.61,0A4,4,0,0,1,183.88,174.75Z"/><path class="cls-31" d="M151,150c1.27-.26,1.43-.2,1.69.62,1.66-1.24,2.31-1.22,4.31.15a2.86,2.86,0,0,1,2.61-1,2,2,0,0,1,2,2c0,1.72,0,3.44,0,5.17,0,.58-.33.56-.71.53s-.94.2-.93-.55c0-1.47,0-2.93,0-4.4,0-.9-.31-1.24-1.13-1.35a1.46,1.46,0,0,0-1.53,1,2.77,2.77,0,0,0-.1.81c0,1.29,0,2.57,0,3.86,0,.47-.13.64-.62.63-1,0-1,0-1-1,0-1.29,0-2.57,0-3.86,0-.91-.51-1.44-1.31-1.43a1.46,1.46,0,0,0-1.45,1.45c0,1.38-.05,2.76,0,4.13,0,.74-.36.73-.89.76s-.79-.15-.78-.77c0-1.77,0-3.53,0-5.3C151.09,151,151,150.51,151,150Z"/><path class="cls-31" d="M137.23,147c1.59-.2,1.59-.2,1.59,1.3v2.09a11.82,11.82,0,0,1,2.15-.53,2.14,2.14,0,0,1,2.4,2.3c0,1.61,0,3.21,0,4.82,0,.55-.28.6-.69.56s-1,.22-1-.58c0-1.28,0-2.57,0-3.85a4,4,0,0,0,0-.69c-.08-.49-.26-1-.81-1.06a2.09,2.09,0,0,0-1.38.25,2.26,2.26,0,0,0-.67,1.41c-.09,1.33,0,2.66,0,4,0,.8-.63.46-1,.53s-.63,0-.63-.54c0-3.21,0-6.42,0-9.64A2.63,2.63,0,0,1,137.23,147Z"/><path class="cls-31" d="M145,151.11c-.13-1.05-.13-1.05,1.18-1.25,0-.52,0-1.06,0-1.6,0-.93.74-.41,1.14-.49s.47.23.42.62a10.67,10.67,0,0,0,0,1.51l1.68.09c-.1.42-.08,1-.31,1.13s-.84,0-1.41,0v1.53c0,.81,0,1.61,0,2.41,0,1,.26,1.17,1.21,1,.16,0,.31-.07.46-.1.37,1.06.23,1.33-.77,1.53-1.61.32-2.55-.42-2.55-2,0-1.05,0-2.11,0-3.16S146,151.28,145,151.11Z"/><path class="cls-30" d="M135.45,156.14l-1.91-.94c-1.48-.72-3-1.46-4.46-2.15-.47-.22-.45-.56-.45-1s0-.7.42-.91c2-1,4-2,6.06-2.94a1.11,1.11,0,0,1,.26-.07c.38,1.05.23,1.46-.7,1.91l-4.17,2a3.35,3.35,0,0,0,.42.32c1.14.55,2.27,1.11,3.42,1.62S135.63,154.57,135.45,156.14Z"/><path class="cls-30" d="M172.55,152.12c-1.44-.69-2.68-1.31-4-1.88s-1.28-.59-1-2.05a2.43,2.43,0,0,1,.38.13c2,1,3.91,1.92,5.88,2.85.47.22.53.53.54,1a.83.83,0,0,1-.55.9c-1.9.9-3.79,1.84-5.69,2.76a4.29,4.29,0,0,1-.5.19c-.36-1.08-.24-1.41.68-1.85Z"/><path class="cls-36" d="M166.76,156.19v1.23a3.12,3.12,0,0,1-2.25,0,1.08,1.08,0,0,1-.72-1.14c0-3,0-6,0-8.94,0-.36.13-.51.49-.49s.68,0,1.1,0c0,.28,0,.53,0,.77q0,3.54,0,7.09C165.42,156.09,165.42,156.09,166.76,156.19Z"/><path class="cls-37" d="M152.3,122.56h-1.45v-8.07l-.11,0c-.06.15-.14.29-.19.45-.7,2.35-1.4,4.69-2.08,7-.14.46-.31.73-.84.65s-1,.2-1.27-.63c-.61-2.28-1.33-4.53-2-6.79a1,1,0,0,0-.31-.56v7.93h-1.53v-10.5c.72,0,1.42,0,2.11,0,.15,0,.34.33.4.54q1.09,3.66,2.17,7.32c.05.16.12.33.25.66.43-1.43.81-2.69,1.18-3.95s.83-2.72,1.21-4.09c.11-.36.25-.54.66-.52.59,0,1.18,0,1.81,0Z"/><path class="cls-37" d="M125.55,122.56h-1.64V112.1h1.66c0,1.14,0,2.28,0,3.42,0,.68.13.93.86.89,1.17-.07,2.34,0,3.57,0v-4.28h1.64v10.43H130v-4.69h-4.48Z"/><path class="cls-37" d="M138,122.57h-1.7v-9h-2.89V112.1h7.45v1.39H138Z"/><path class="cls-38" d="M155.05,112.08h1.68v9.06h4.5v1.4h-6.18Z"/><path class="cls-23" d="M92.73,331.78V258.16c.13,0,.25,0,.38,0h71.25l.17.19v55.14H148.58a2.7,2.7,0,0,0-2.83,2.88q0,8.24,0,16.48a4.26,4.26,0,0,0,.14.78v.16H94.7a2.36,2.36,0,0,0-.35-.48c-.32-.28-.67-.52-1-.8S92.94,332,92.73,331.78Zm15.78-19.87.82,0q19.23,0,38.45,0c.64,0,.87-.13.87-.83q0-24.57,0-49.14c0-.69-.22-.83-.86-.83q-19.23,0-38.46,0c-.27,0-.53,0-.82,0Z"/><path class="cls-39" d="M164.36,258.12H93.11c-.13,0-.25,0-.38,0V232.25a1.83,1.83,0,0,0,.18-.3,2.66,2.66,0,0,1,3-2q32.76,0,65.54,0a2.84,2.84,0,0,1,2.91,2.88c0,.88,0,1.77,0,2.65Q164.37,246.82,164.36,258.12Zm-59.49-10.58a3.78,3.78,0,0,0,1.41,3.46,4.52,4.52,0,0,0,6.12-.87,3.6,3.6,0,0,0-.65-4.7,23.48,23.48,0,0,0-2.14-1.2c-.6-.31-1.25-.54-1.84-.86a1.4,1.4,0,0,1-.64-1.81,1.87,1.87,0,0,1,3.11-.45,8.8,8.8,0,0,1,.79,1.33h1.52a3.47,3.47,0,0,0-3.17-3.68,4.28,4.28,0,0,0-3.19,1.06,3.21,3.21,0,0,0-.17,4.59,18.18,18.18,0,0,0,2.63,1.65,18.81,18.81,0,0,1,2,1.29,1.46,1.46,0,0,1,.06,2.09c-1,1-3.65.77-3.91-.91a7,7,0,0,0-.3-1Zm-8,4.22c1,0,1.94.07,2.86,0a2.82,2.82,0,0,0,2.86-3c0-.18,0-.36,0-.53V239.7a5,5,0,0,0-.06-.57h-1.76V240c0,2.65,0,5.29,0,7.94,0,1.69-.72,2.3-2.42,2.16L96.84,250Z"/><path class="cls-10" d="M164.23,313.45h.3v20.3H145.9v-.16a2.76,2.76,0,0,1,.3-.5l5.46-5.93c1.81-2,3.61-3.92,5.42-5.87,2.21-2.37,4.43-4.73,6.64-7.11A5.63,5.63,0,0,0,164.23,313.45Z"/><path class="cls-10" d="M164.36,258.12q0-11.31,0-22.63c0-.88,0-1.77,0-2.65a2.84,2.84,0,0,0-2.91-2.88q-32.78,0-65.54,0a2.66,2.66,0,0,0-3,2,1.83,1.83,0,0,1-.18.3v-2.42h71.8v28.48Z"/><path class="cls-12" d="M92.73,331.78c.21.23.4.48.63.69s.67.52,1,.8a2.36,2.36,0,0,1,.35.48h-2Z"/><path class="cls-30" d="M108.51,311.91V261.22c.29,0,.55,0,.82,0q19.23,0,38.46,0c.64,0,.86.14.86.83q0,24.57,0,49.14c0,.7-.23.83-.87.83q-19.22,0-38.45,0ZM110.45,290q0,9.43,0,18.86c0,.55.09.8.73.8q17.39,0,34.76,0c.62,0,.76-.21.75-.79q0-18.78,0-37.56c0-.65-.22-.79-.82-.79q-17.31,0-34.61,0c-.69,0-.83.22-.83.86Q110.46,280.73,110.45,290Z"/><path class="cls-29" d="M164.23,313.45a5.63,5.63,0,0,1-.52.73c-2.21,2.38-4.43,4.74-6.64,7.11-1.81,1.95-3.61,3.91-5.42,5.87l-5.46,5.93a2.76,2.76,0,0,0-.3.5,4.26,4.26,0,0,1-.14-.78q0-8.25,0-16.48a2.7,2.7,0,0,1,2.83-2.88Z"/><path class="cls-40" d="M104.87,247.54h1.62a7,7,0,0,1,.3,1c.26,1.68,2.95,1.92,3.91.91a1.46,1.46,0,0,0-.06-2.09,18.81,18.81,0,0,0-2-1.29,18.18,18.18,0,0,1-2.63-1.65,3.21,3.21,0,0,1,.17-4.59,4.28,4.28,0,0,1,3.19-1.06,3.47,3.47,0,0,1,3.17,3.68H111a8.8,8.8,0,0,0-.79-1.33,1.87,1.87,0,0,0-3.11.45,1.4,1.4,0,0,0,.64,1.81c.59.32,1.24.55,1.84.86a23.48,23.48,0,0,1,2.14,1.2,3.6,3.6,0,0,1,.65,4.7,4.52,4.52,0,0,1-6.12.87A3.78,3.78,0,0,1,104.87,247.54Z"/><path class="cls-41" d="M96.84,251.76V250l1.49.11c1.7.14,2.41-.47,2.42-2.16,0-2.65,0-5.29,0-7.94v-.85h1.76a5,5,0,0,1,.06.57v8.54c0,.17,0,.35,0,.53a2.82,2.82,0,0,1-2.86,3C98.78,251.83,97.85,251.76,96.84,251.76Z"/><path class="cls-23" d="M110.45,290q0-9.32,0-18.63c0-.64.14-.86.83-.86q17.31,0,34.61,0c.6,0,.82.14.82.79q0,18.78,0,37.56c0,.58-.13.79-.75.79q-17.38,0-34.76,0c-.64,0-.74-.25-.73-.8Q110.46,299.47,110.45,290Zm32.19,5.67c1,.2,1.53-.1,1.69-.86a21.28,21.28,0,0,0,.49-3.05c.11-1.22-.44-1.75-1.65-1.82-.2,0-.5-.07-.57-.21a1.89,1.89,0,0,1,.91-2.35,1.25,1.25,0,0,0,.92-1.56,33,33,0,0,0-1.14-3.35c-.34-.82-.8-1-1.63-.69a1.37,1.37,0,0,1-1.65-.38,12.43,12.43,0,0,1-1.74-2.25,2.59,2.59,0,0,1,0-1.76c.2-.72.22-1.46-.34-1.85a23.55,23.55,0,0,0-2.74-1.7,1.14,1.14,0,0,0-1.67.5,1.62,1.62,0,0,1-2,1c-.74-.13-1.49-.23-2.24-.29s-1.09-.21-1.12-1.05c0-1.23-.71-1.64-1.94-1.39-.71.14-1.42.29-2.13.46-1.12.26-1.49.78-1.32,1.89a1.81,1.81,0,0,1-1,2,16,16,0,0,0-1.64,1.08c-.8.62-1.08.64-1.88,0a1.19,1.19,0,0,0-1.81.08c-.66.92-1.3,1.85-1.87,2.83a1.25,1.25,0,0,0,.18,1.73,2,2,0,0,1,.71,2.46c-.17.63-.29,1.28-.48,1.9-.28.87-.83,1.54-1.73,1.5a1,1,0,0,0-1.11,1.08,26,26,0,0,0,.31,3.52,1.3,1.3,0,0,0,1.49,1.28,1.62,1.62,0,0,1,1.72,1.07,11.18,11.18,0,0,1,.89,2.16,2.47,2.47,0,0,1-.21,1.77c-.75,1-.64,1.61,0,2.29a25.81,25.81,0,0,0,2.23,2.33,1.1,1.1,0,0,0,1.56-.14,1.41,1.41,0,0,1,2-.56c.6.26,1.14.63,1.73.9,1,.46,1.27.81,1.27,1.9a1.33,1.33,0,0,0,1.06,1.43A22.22,22.22,0,0,0,129,308a1.56,1.56,0,0,0,1.58-1.55,1.61,1.61,0,0,1,1.24-1.69c.66-.22,1.33-.46,2-.62a1.58,1.58,0,0,1,1.88.55,1.3,1.3,0,0,0,2,.17c.76-.62,1.48-1.29,2.18-2a1.45,1.45,0,0,0,.11-1.93,1.7,1.7,0,0,1-.32-1,6.5,6.5,0,0,1,1.78-3.64C141.72,296,142.24,295.92,142.64,295.71Z"/><path class="cls-32" d="M142.64,295.71c-.4.21-.92.31-1.17.63a6.5,6.5,0,0,0-1.78,3.64,1.7,1.7,0,0,0,.32,1,1.45,1.45,0,0,1-.11,1.93c-.7.68-1.42,1.35-2.18,2a1.3,1.3,0,0,1-2-.17,1.58,1.58,0,0,0-1.88-.55c-.69.16-1.36.4-2,.62a1.61,1.61,0,0,0-1.24,1.69A1.56,1.56,0,0,1,129,308a22.22,22.22,0,0,1-2.81-.34,1.33,1.33,0,0,1-1.06-1.43c0-1.09-.25-1.44-1.27-1.9-.59-.27-1.13-.64-1.73-.9a1.41,1.41,0,0,0-2,.56,1.1,1.1,0,0,1-1.56.14,25.81,25.81,0,0,1-2.23-2.33c-.59-.68-.7-1.27,0-2.29a2.47,2.47,0,0,0,.21-1.77,11.18,11.18,0,0,0-.89-2.16,1.62,1.62,0,0,0-1.72-1.07,1.3,1.3,0,0,1-1.49-1.28,26,26,0,0,1-.31-3.52,1,1,0,0,1,1.11-1.08c.9,0,1.45-.63,1.73-1.5.19-.62.31-1.27.48-1.9a2,2,0,0,0-.71-2.46,1.25,1.25,0,0,1-.18-1.73c.57-1,1.21-1.91,1.87-2.83a1.19,1.19,0,0,1,1.81-.08c.8.66,1.08.64,1.88,0a16,16,0,0,1,1.64-1.08,1.81,1.81,0,0,0,1-2c-.17-1.11.2-1.63,1.32-1.89.71-.17,1.42-.32,2.13-.46,1.23-.25,1.89.16,1.94,1.39,0,.84.43,1,1.12,1.05s1.5.16,2.24.29a1.62,1.62,0,0,0,2-1,1.14,1.14,0,0,1,1.67-.5,23.55,23.55,0,0,1,2.74,1.7c.56.39.54,1.13.34,1.85a2.59,2.59,0,0,0,0,1.76,12.43,12.43,0,0,0,1.74,2.25,1.37,1.37,0,0,0,1.65.38c.83-.29,1.29-.13,1.63.69a33,33,0,0,1,1.14,3.35,1.25,1.25,0,0,1-.92,1.56,1.89,1.89,0,0,0-.91,2.35c.07.14.37.2.57.21,1.21.07,1.76.6,1.65,1.82a21.28,21.28,0,0,1-.49,3.05C144.17,295.61,143.62,295.91,142.64,295.71Zm-5.19-6a9.33,9.33,0,0,0-5.52-8.49,7.66,7.66,0,0,0-2.32-.62,8.17,8.17,0,0,0-7.83,3.3,9.81,9.81,0,0,0-2,7.68,9.55,9.55,0,0,0,4.15,6.73,8.49,8.49,0,0,0,10.11-.71A10.28,10.28,0,0,0,137.45,289.75Z"/><path class="cls-23" d="M137.45,289.75a10.28,10.28,0,0,1-3.37,7.89,8.49,8.49,0,0,1-10.11.71,9.55,9.55,0,0,1-4.15-6.73,9.81,9.81,0,0,1,2-7.68,8.17,8.17,0,0,1,7.83-3.3,7.66,7.66,0,0,1,2.32.62A9.33,9.33,0,0,1,137.45,289.75Z"/><path class="cls-23" d="M192.1,339.42V266l.57,0h76.89l.19.2v55.06h-.32c-.81-.05-1.63-.15-2.44-.15q-6.17,0-12.35,0c-.81,0-1.62.07-2.43.15-1.93.2-2.77,1.16-2.77,3.1q0,8,0,16a5,5,0,0,0,.16.93l-.16.34H195.05c-.12-.11-.24-.3-.38-.32a2.8,2.8,0,0,1-2.2-1.55C192.4,339.56,192.23,339.5,192.1,339.42Zm15.06-37.33h-.08c.15,1.24.26,2.49.47,3.72a1.62,1.62,0,0,0,2.15,1.42,1.91,1.91,0,0,1,2.38,1.19c.48,1,.95,2,1.43,3,.64,1.35.55,1.85-.54,2.88a1.49,1.49,0,0,0-.06,2.51c1.1,1.1,2.23,2.17,3.36,3.23a1.52,1.52,0,0,0,2.4-.24,2,2,0,0,1,2.79-.66c1,.47,2.1.93,3.15,1.37a1.82,1.82,0,0,1,1.26,2.24c-.17,1.13.17,1.95,1.09,2.07a42.16,42.16,0,0,0,5.27.37,1.58,1.58,0,0,0,1.57-1.82,1.89,1.89,0,0,1,1.54-2.38l3.43-1.1a1.88,1.88,0,0,1,2.33.8c.88,1.31,1.67,1.42,2.88.43,1-.82,2-1.64,3.07-2.45s1.25-1.75.22-2.87a1.69,1.69,0,0,1-.31-2.3c.61-1.09,1.28-2.15,1.93-3.23s1.27-1.42,2.56-1a1.52,1.52,0,0,0,2.12-1.25c.29-1.38.44-2.8.8-4.16.43-1.63-.53-2.51-2.07-2.47-1.19,0-1.19,0-1.36-1.19a1.91,1.91,0,0,1,1.31-2.25c1.68-.49,2-1.12,1.37-2.77-.44-1.17-.86-2.36-1.28-3.54-.5-1.42-1.28-1.76-2.64-1.12a1.75,1.75,0,0,1-2.29-.43c-.88-1-1.74-2-2.55-3a1.89,1.89,0,0,1-.07-2.61,1.59,1.59,0,0,0-.64-2.57l-3.8-2.08a1.59,1.59,0,0,0-2.51.85,1.82,1.82,0,0,1-2.39,1.24,31.93,31.93,0,0,0-3.62-.54c-1.46-.11-1.46,0-1.69-1.48,0-.16,0-.33,0-.49a1.52,1.52,0,0,0-1.86-1.47c-1.6.32-3.19.68-4.77,1.07a1.49,1.49,0,0,0-1.1,2.14,1.81,1.81,0,0,1-.68,2.44c-1.14.8-2.32,1.54-3.51,2.25a1.59,1.59,0,0,1-2.16-.26c-1.17-1.07-2-1-2.91.28l-2.52,3.43a1.52,1.52,0,0,0,.55,2.51,1.88,1.88,0,0,1,1.05,2.32c-.34,1.32-.72,2.63-1.13,3.93a1.76,1.76,0,0,1-2,1.24,1.56,1.56,0,0,0-1.89,1.61Z"/><path class="cls-42" d="M269.56,266H192.67l-.57,0V240.1a3.87,3.87,0,0,1,2.3-2.3h73a3.16,3.16,0,0,1,2.13,2.9Q269.58,253.33,269.56,266Zm-53.87-14h-5.26V246.9H208.5v12.42h2v-5.58h5.28v5.57h2v-12.4h-2Zm-15.63,2.62c1.25-.08,2.37-.09,3.47-.25,1.83-.26,2.81-1.51,2.87-3.49s-.92-3.55-2.72-3.79-3.67-.22-5.56-.32v12.57h1.94ZM221,246.75v12.57h1.92v-4.73c1.2-.07,2.32-.08,3.42-.23a3.3,3.3,0,0,0,2.93-3.55c.05-2-.93-3.48-2.72-3.73S222.87,246.85,221,246.75Z"/><path class="cls-10" d="M269.43,321.22h.32v20.33H249.44l.16-.34c.21-.24.42-.49.65-.72L268.77,322C269,321.72,269.21,321.47,269.43,321.22Z"/><path class="cls-10" d="M269.56,266q0-12.63,0-25.26a3.16,3.16,0,0,0-2.13-2.9h2.3v28.36Z"/><path class="cls-10" d="M192.1,339.42c.13.08.3.14.37.26a2.8,2.8,0,0,0,2.2,1.55c.14,0,.26.21.38.32h-3Z"/><path class="cls-43" d="M194.4,237.8a3.87,3.87,0,0,0-2.3,2.3v-2.3Z"/><path class="cls-32" d="M207.16,302.09v-1.15a1.56,1.56,0,0,1,1.89-1.61,1.76,1.76,0,0,0,2-1.24c.41-1.3.79-2.61,1.13-3.93a1.88,1.88,0,0,0-1.05-2.32,1.52,1.52,0,0,1-.55-2.51l2.52-3.43c.94-1.28,1.74-1.35,2.91-.28a1.59,1.59,0,0,0,2.16.26c1.19-.71,2.37-1.45,3.51-2.25a1.81,1.81,0,0,0,.68-2.44,1.49,1.49,0,0,1,1.1-2.14c1.58-.39,3.17-.75,4.77-1.07a1.52,1.52,0,0,1,1.86,1.47c0,.16,0,.33,0,.49.23,1.44.23,1.37,1.69,1.48a31.93,31.93,0,0,1,3.62.54,1.82,1.82,0,0,0,2.39-1.24,1.59,1.59,0,0,1,2.51-.85l3.8,2.08a1.59,1.59,0,0,1,.64,2.57,1.89,1.89,0,0,0,.07,2.61c.81,1,1.67,2,2.55,3a1.75,1.75,0,0,0,2.29.43c1.36-.64,2.14-.3,2.64,1.12.42,1.18.84,2.37,1.28,3.54.62,1.65.31,2.28-1.37,2.77a1.91,1.91,0,0,0-1.31,2.25c.17,1.18.17,1.22,1.36,1.19,1.54,0,2.5.84,2.07,2.47-.36,1.36-.51,2.78-.8,4.16a1.52,1.52,0,0,1-2.12,1.25c-1.29-.39-1.84-.17-2.56,1s-1.32,2.14-1.93,3.23a1.69,1.69,0,0,0,.31,2.3c1,1.12,1,2-.22,2.87s-2.05,1.63-3.07,2.45c-1.21,1-2,.88-2.88-.43a1.88,1.88,0,0,0-2.33-.8l-3.43,1.1a1.89,1.89,0,0,0-1.54,2.38,1.58,1.58,0,0,1-1.57,1.82,42.16,42.16,0,0,1-5.27-.37c-.92-.12-1.26-.94-1.09-2.07a1.82,1.82,0,0,0-1.26-2.24c-1.05-.44-2.11-.9-3.15-1.37a2,2,0,0,0-2.79.66,1.52,1.52,0,0,1-2.4.24c-1.13-1.06-2.26-2.13-3.36-3.23a1.49,1.49,0,0,1,.06-2.51c1.09-1,1.18-1.53.54-2.88-.48-1-.95-2-1.43-3a1.91,1.91,0,0,0-2.38-1.19,1.62,1.62,0,0,1-2.15-1.42c-.21-1.23-.32-2.48-.47-3.72Zm23.56,12.26a12.85,12.85,0,1,0,.17-25.69,12.85,12.85,0,0,0-.17,25.69Z"/><path class="cls-29" d="M269.43,321.22c-.22.25-.43.5-.66.73l-18.52,18.54c-.23.23-.44.48-.65.72a5,5,0,0,1-.16-.93q0-8,0-16c0-1.94.84-2.9,2.77-3.1.81-.08,1.62-.15,2.43-.15q6.18,0,12.35,0C267.8,321.07,268.62,321.17,269.43,321.22Z"/><path class="cls-44" d="M215.69,252v-5.07h2v12.4h-2v-5.57h-5.28v5.58h-2V246.9h1.93V252Z"/><path class="cls-45" d="M200.06,254.6v4.72h-1.94V246.75c1.89.1,3.74.07,5.56.32s2.78,1.75,2.72,3.79-1,3.23-2.87,3.49C202.43,254.51,201.31,254.52,200.06,254.6Zm.06-6.08v4.19c.91,0,1.77.06,2.63,0,1-.09,1.54-.77,1.6-1.92a1.79,1.79,0,0,0-1.44-2.06A27.58,27.58,0,0,0,200.12,248.52Z"/><path class="cls-46" d="M221,246.75c1.88.1,3.73.08,5.55.33s2.77,1.76,2.72,3.73a3.3,3.3,0,0,1-2.93,3.55c-1.1.15-2.22.16-3.42.23v4.73H221Zm1.94,6.1c1,0,1.85,0,2.73-.15a1.68,1.68,0,0,0,1.52-1.82c.06-1.2-.33-1.95-1.31-2.14a27.67,27.67,0,0,0-2.94-.27Z"/><path class="cls-23" d="M230.72,314.35a12.85,12.85,0,1,1,13-12.22A12.79,12.79,0,0,1,230.72,314.35Z"/><path class="cls-47" d="M200.12,248.52a27.58,27.58,0,0,1,2.79.19,1.79,1.79,0,0,1,1.44,2.06c-.06,1.15-.56,1.83-1.6,1.92-.86.08-1.72,0-2.63,0Z"/><path class="cls-48" d="M222.93,252.85v-4.38a27.67,27.67,0,0,1,2.94.27c1,.19,1.37.94,1.31,2.14a1.68,1.68,0,0,1-1.52,1.82C224.78,252.8,223.89,252.8,222.93,252.85Z"/></svg>