<svg id="building" xmlns="http://www.w3.org/2000/svg" width="199.74mm" height="174.48mm" viewBox="0 0 566.19 494.6"><defs><style>.cls-1{fill:#f9f7e5;}.cls-2{fill:#080808;}.cls-3{fill:#999;}.cls-4{fill:#d7d7d7;}.cls-5{fill:#d8d8d9;}.cls-6{fill:#010101;}.cls-7{fill:#d8d8d8;}.cls-8{fill:#fefefe;}.cls-9{fill:#dadada;}.cls-10{fill:#fdfdfd;}.cls-11{fill:#d9d9d9;}.cls-12{fill:#9cf;}.cls-13{fill:#d4d4d4;}.cls-14{fill:#dcdcdc;}.cls-15{fill:#f2f2f2;}.cls-16{fill:#d6d6d6;}.cls-17{fill:#c9c9c9;}.cls-18{fill:#d1d1d1;}.cls-19{fill:#efefef;}.cls-20{fill:#090909;}.cls-21{fill:#0a0a0a;}.cls-22{fill:#fcfcfc;}.cls-23{fill:#dcefff;}.cls-24{fill:#cff;}.cls-25{fill:#666;}.cls-26{fill:#080707;}.cls-27{fill:#070707;}.cls-28{fill:#060606;}.cls-29{fill:#0b0b0b;}.cls-30{fill:#050505;}.cls-31{fill:#333;}.cls-32{fill:#101010;}.cls-33{fill:#cfcfcf;}.cls-34{fill:#0c0c0c;}.cls-35{fill:#f9fafa;}.cls-36{fill:#f2f3f4;}.cls-37{fill:#cacaca;}</style></defs><circle class="cls-1" cx="190.95" cy="213.36" r="190.95"/><path class="cls-2" d="M263.86,214.94l2.93.81-.18-.33a11.67,11.67,0,0,1,2.27-1.23,6.09,6.09,0,0,0,4.76-5.17c.33-2.56-.92-4.37-3-5.62-1.07-.64-2.21-1.14-3.32-1.7s-2.19-.95-3.19-1.57c-3.9-2.42-4.34-6.18-1.07-9.35,1.14-1.1,2.47-2,3.71-3,3.67-3,4.5-7,2.21-11.21C266.37,171.9,262,169.91,257,169c-3.84-.7-7.79-.91-11.59-1.79a19.73,19.73,0,0,1-6.75-3c-3.2-2.24-4.61-5.62-3.38-9.43,1.56-4.8,1.75-9.31-1.16-13.65a21.21,21.21,0,0,0-13.54-9c-6.05-1.36-12.18-.92-18.3-.77-12.88.32-25.76.68-38.64.62-7.76,0-15.52-1-23.28-1.19a59.08,59.08,0,0,0-11.81.77,11.25,11.25,0,0,0-8.25,6c-1.77,3.37-1.14,7,1.59,10,3.23,3.58,7.53,4.59,12,5.32a24,24,0,0,1,5.24,1.33c2.81,1.13,3.66,3.11,2.95,6-.09.38-.22.76-.35,1.14-2.34,7.25.5,13.19,7.68,16.06,4.77,1.91,9.74,1.89,14.75,1.5,5.37-.42,10.74-.83,16.12-1.11a15.9,15.9,0,0,1,4.37.57c.45.11.76.84,1.14,1.29-.62.31-1.23.9-1.84.89-3.45,0-6.91-.44-10.35-.31-4.35.17-8.69.9-13,1.09-6.22.26-12.26-.4-17.22-4.82-4.18-3.72-6.9-10.25-3.77-16.29,1-1.88.47-3.23-1.54-3.9a43.79,43.79,0,0,0-6.44-1.44,20.7,20.7,0,0,1-9.92-4.15c-6.27-5.08-6.37-13.11-.24-18.35a16.31,16.31,0,0,1,11-4c7.08.05,14.15.6,21.23.76,10.5.25,21,.51,31.49.45,8.62-.05,17.23-.71,25.85-.83,5.52-.08,11,.59,16.06,3.09,6.24,3.08,10.63,7.8,11.66,14.89a17.9,17.9,0,0,1-.64,6.84c-1.39,5.32,0,8.81,5.33,10.46a73.48,73.48,0,0,0,11.5,2.09c5.21.75,10.11,2.11,13.91,6,4.46,4.61,6.05,13-1.61,18.21a20.87,20.87,0,0,0-2.3,1.76c-2.41,2.2-2.18,4.45.67,6,1.84,1,3.79,1.78,5.65,2.73a8,8,0,0,1,4.56,5.41,8.27,8.27,0,0,1-5.49,9.87c-.47.16-.94.3-1.55.49.69.57,1.26,1,1.81,1.5a8.22,8.22,0,0,1,2.88,6.62c-.06,9.49,0,19,0,28.46a10.37,10.37,0,0,0,.71,2.17c.12.45.26,1.22.05,1.37-1.09.81-.78,1.91-.78,2.93q0,19.43,0,38.86c0,2-.48,2.31-2.35,1.56V257.75H254.36l.09,1.93v5.43h8.75a5,5,0,0,1,1.66.15,5.71,5.71,0,0,1,1.28,1.23,5.09,5.09,0,0,1-1.29,1,5.41,5.41,0,0,1-1.67.11h-8.7v6.12h8.69a8.76,8.76,0,0,1,2,.2c.39.12.94.67.9,1a1.77,1.77,0,0,1-.9,1.16,3.77,3.77,0,0,1-1.51.07h-9.17v6.33c3.51,0,6.91,0,10.31,0,.45,0,.9.61,1.34.93-.4.44-.75,1.15-1.23,1.26a13.13,13.13,0,0,1-2.88.09H254.5V291h3c2.44,0,4.89-.06,7.32,0,.45,0,.87.76,1.31,1.16a5.28,5.28,0,0,1-1.27,1.07,5.37,5.37,0,0,1-1.67.14H245v4.78H263.2c.73,0,1.46.08,2.19.1,1.37.05,1.84.66,1.26,2a11.57,11.57,0,0,1-2.07.38q-41.31,0-82.63,0H106c-.4,0-.88.14-1.17,0a7.7,7.7,0,0,1-1.32-1.18c.45-.39.88-1.11,1.35-1.14,2.38-.12,4.77,0,7.15,0h1.61V217.86a3.4,3.4,0,0,1,0-1c.18-.61.32-1.4.76-1.7s1.18.08,1.65.38c4.52,2.92,9,5.89,13.51,8.85l25.72,16.9,1.29.82c0-.64.11-1.06.11-1.48V211.31c0-3.34,0-6.69,0-10a8.51,8.51,0,0,1,.59-2.15,7.15,7.15,0,0,1,2.22.8q17,13.51,33.92,27.1c.47.38,1,.74,1.63,1.27V197.12c-1.15,0-2.26,0-3.37,0-1.58,0-1.93-.49-1.54-2,.33-1.26.7-2.51,1.08-3.76.48-1.6.83-1.73,2.42-.88l-.68,4H214.1c0-10.67,0-21,0-31.42a6.28,6.28,0,0,0-.42-1.61,13.33,13.33,0,0,0-2.17-2.53c-4.67-3.37-9.77-3.63-15.1-1.84L195,156c.38-.46.68-1.19,1.16-1.35a18.61,18.61,0,0,1,17.09,2.54,7.45,7.45,0,0,1,3.29,6.54c0,7.21,0,14.41,0,21.62,0,2.38-.09,4.77,0,7.15a12.59,12.59,0,0,0,.73,2.17,3.62,3.62,0,0,1,0,1.57,10.73,10.73,0,0,0-.71,2.19q0,48.3,0,96.59a2.9,2.9,0,0,1,0,1.18,9.35,9.35,0,0,1-1.05,1.49,1.54,1.54,0,0,1-1.33-1.81c0-2.76,0-5.52,0-8.29v-4.77H201.23v15.34h41.32v-4.76H234.9c-4.57,0-9.15,0-13.72-.09-.54,0-1.07-.58-1.6-.89l1-1.5h22v-6.08H220.6c-1.45-1-1.46-1.56,0-2.47h22v-6.16h-22l-1-1.54c.54-.3,1.07-.84,1.62-.85,4.56-.09,9.12-.08,13.68-.1h7.67v-6.12h-7.68l-4.25-.05c-3.16,0-6.33.05-9.5-.05-.53,0-1-.67-1.57-1a14.81,14.81,0,0,1,1.61-1.28c.3-.17.78,0,1.18,0l12.55-.05h7.64V248H226.05v11.51c0,.91.11,2-1.21,2s-1.19-1.06-1.19-2V247.91a13.72,13.72,0,0,1-2.82,0c-.58-.13-1-.75-1.55-1.15.5-.4.95-1,1.51-1.16a12.62,12.62,0,0,1,2.76-.05v-18c-1.13,0-2.15,0-3.16,0-1.71.07-2.22-.47-1.81-2.08.32-1.26.68-2.51,1.07-3.75.47-1.54,1-1.69,2.44-.75l-.7,3.91h21.09a7.47,7.47,0,0,0,.14-.93c0-9.93,0-19.85,0-29.78a11.09,11.09,0,0,0-.93-3,14.72,14.72,0,0,0-2-2,16.16,16.16,0,0,0-14.27-1.9c-1.18.35-2,.34-2.08-1.19a7.21,7.21,0,0,1,1.61-1.08,18.56,18.56,0,0,1,13.7.8c4.23,1.82,6.79,4.82,6.27,9.76a16.7,16.7,0,0,0,0,2.55c.06,1.84.16,3.67.25,5.5,0,.62-.12,1.24-.12,1.86,0,5.62,0,11.25,0,16.87,0,1-.38,2.13.79,2.91.2.13,0,.92-.07,1.38a12,12,0,0,0-.69,2.45c-.08,3.91,0,7.83,0,11.75v4.57h6.8V221.56a3.31,3.31,0,0,1,0-1.34c.21-.44.74-1.1,1-1.05a2,2,0,0,1,1.25,1,3.37,3.37,0,0,1,.08,1.5q0,10.9,0,21.82v1.9h6.27c2,0,4,0,5.92.19.56,0,1.46.56,1.55,1,.21,1.06-.68,1.21-1.55,1.23-2,0-3.95.08-5.92.13h-6.2v2.45a11.05,11.05,0,0,1-.2,2.46c-.15.51-.76.88-1.16,1.31a6.39,6.39,0,0,1-1-1.27,4.67,4.67,0,0,1-.17-1.47V248H245v17.08h6.85v-7.17c-1.26,0-2.4,0-3.53,0s-1.73-.67-1.37-1.9.75-2.61,1.15-3.9c.51-1.65,1.1-1.79,2.48-.62-.29,1.31-.58,2.62-.84,3.81h21.08a5.24,5.24,0,0,0,.17-.71q0-15.42,0-30.82a6.28,6.28,0,0,0-.42-1.61c-1.18-1.11-2.19-2.51-3.56-3.27a16.44,16.44,0,0,0-13.32-1.26c-.53.16-1.29-.38-1.94-.6.41-.56.7-1.42,1.24-1.62a27.55,27.55,0,0,1,4-.9Zm-95.67,70.27v-2.33h-9v15.3h9ZM226.1,229v16.44h16.41V227.27H226.1Zm-55.36,55.92v13.28h27.91V282.91H187.87v2c0,2.94,0,5.88-.17,8.81,0,.57-.81,1.1-1.24,1.64-.35-.55-1-1.08-1-1.65-.12-2.93-.1-5.87-.12-8.81v-2H170.74ZM126.5,298.18a8,8,0,0,0,.84.1h28.07c.39,0,.77-.06,1.17-.1V282.87H141.17v2c0,2.89,0,5.78-.16,8.65,0,.62-.59,1.64-1,1.71-1.13.19-1.25-.79-1.25-1.71,0-2.89,0-5.78-.07-8.66v-2H124.18v15.29ZM197.66,199c0,9.82,0,19.63-.11,29.45a3.3,3.3,0,0,0,1.59,3.24,3.81,3.81,0,0,1,2,3.46q-.08,21.87-.07,43.75c0,.48.07,1,.1,1.49H214V196.92H197.51ZM147,248.06l-.64-.4c-.25-.21-.5-.45-.77-.64L125,233.47l-8.88-5.83V298.2h5.62v-1.74c0-4.66.07-9.32,0-14,0-1.65.5-2.12,2.14-2.11,10.34.06,20.67,0,31,0h1.91c0-8.5,0-16.85,0-25.19a1.72,1.72,0,0,0-.61-1.26C153.08,252,150,250,147,248.06Zm51.76,32.28v-1.87c0-11.08,0-22.16,0-33.23a3.05,3.05,0,0,0-1.31-2.7q-18.51-14.74-37-29.56c-.38-.3-.79-.56-1.36-1v68.32ZM116,218.28c0,2-.1,3.67,0,5.3a2.77,2.77,0,0,0,1,1.84q17.7,11.75,35.47,23.39c1.34.88,2.71,1.74,4.3,2.76,0-1.88-.09-3.46,0-5a2.27,2.27,0,0,0-1.29-2.3q-13.65-8.91-27.27-17.91Zm43-15.81c0,1.79.09,3.2,0,4.58a3,3,0,0,0,1.38,2.84c10,7.9,19.86,15.87,29.79,23.81,2.81,2.25,5.64,4.48,8.43,6.71,1-4.1-.3-6.8-3.62-9.33-9.85-7.5-19.39-15.4-29-23.13C163.64,206.19,161.44,204.46,158.93,202.47ZM252,276.27h-7v6.1h7Zm-.05-8.6h-6.9v6.06H252Zm-7,17.2v6h7v-6Z"/><path class="cls-3" d="M263.86,214.94l-6.87-.45a7.7,7.7,0,0,1,.54-.6c1.74-1.6,1.8-3,.12-4.61A6.16,6.16,0,0,0,255.9,208c-3.58-1.5-7.2-2.93-10.8-4.38-.09-1.83-.19-3.66-.25-5.5a16.7,16.7,0,0,1,0-2.55c.52-4.94-2-7.94-6.27-9.76a18.56,18.56,0,0,0-13.7-.8,7.21,7.21,0,0,0-1.61,1.08l-6.72-.68c0-7.21-.07-14.41,0-21.62a7.45,7.45,0,0,0-3.29-6.54,18.61,18.61,0,0,0-17.09-2.54c-.48.16-.78.89-1.16,1.35l1.41,1.06,0,1.29c-1.28,0-1.39.76-1.39,1.79,0,5.22-.07,10.43-.12,15.65-13.34,0-26.69.09-40,0a12.33,12.33,0,0,1-8.78-4,8.06,8.06,0,0,1-2-7.59c.24-1.28.71-2.53.83-3.81.49-5.07-2-8.42-7.14-10.42a50,50,0,0,1-8.22-4.32,14.62,14.62,0,0,1-3.39-3.53,3.66,3.66,0,0,1-.26-4.17,3.75,3.75,0,0,1,3.64-2c26.47.05,52.93,0,79.4.06a35.26,35.26,0,0,1,13.77,2.68c3.91,1.66,6.24,4.71,6,7.88-.21,2.37-.58,4.72-.75,7.09a24.06,24.06,0,0,0,1.42,10.53c1.85,4.8,5.86,6.21,10.49,6.84,4.88.67,9.75,1.43,14.57,2.45a21.76,21.76,0,0,1,6.23,2.59c2.38,1.4,2.91,3.4,1.66,5.85s-2.87,4.63-4.17,7a19.41,19.41,0,0,0-2,4.84,8.13,8.13,0,0,0,2.37,7.81c1.68,1.68,3.55,3.18,5.23,4.86a12.14,12.14,0,0,1,2.21,3c1.09,2.13.66,3.41-1.31,4.81A7.72,7.72,0,0,0,263.86,214.94Z"/><path class="cls-4" d="M263.18,267.61a5.41,5.41,0,0,0,1.67-.11,5.09,5.09,0,0,0,1.29-1,5.71,5.71,0,0,0-1.28-1.23,5,5,0,0,0-1.66-.15c0-1.24-.06-2.48,0-3.72s-.27-1.83-1.68-1.76c-2.36.12-4.74,0-7.11.05l-.09-1.93h16.72V300.2l-4.43,0c.58-1.29.11-1.9-1.26-2-.73,0-1.46-.07-2.19-.1V293.4a5.37,5.37,0,0,0,1.67-.14,5.28,5.28,0,0,0,1.27-1.07c-.44-.4-.86-1.13-1.31-1.16-2.43-.11-4.88,0-7.32,0h-3v-6.2H262a13.13,13.13,0,0,0,2.88-.09c.48-.11.83-.82,1.23-1.26-.44-.32-.89-.92-1.34-.93-3.4-.08-6.8,0-10.31,0v-6.33h9.17a3.77,3.77,0,0,0,1.51-.07,1.77,1.77,0,0,0,.9-1.16c0-.3-.51-.85-.9-1a8.76,8.76,0,0,0-2-.2Q263.19,270.67,263.18,267.61Z"/><path class="cls-5" d="M213.66,161.45a6.28,6.28,0,0,1,.42,1.61c0,10.38,0,20.75,0,31.42H193l.68-4,1.2,0a5.64,5.64,0,0,0,.12,1.66,4.8,4.8,0,0,0,1,1.25c.39-.43,1-.8,1.13-1.3a9.75,9.75,0,0,0,.2-2.31c1.53,0,3.06-.06,4.58.07s1.69-.49,1.69-1.76c-.05-9.3,0-18.59,0-27.89v-1.95c3.24-.51,5.69.65,8,2.26A13.49,13.49,0,0,0,213.66,161.45Z"/><path class="cls-6" d="M197.32,189.75a9.75,9.75,0,0,1-.2,2.31c-.16.5-.74.87-1.13,1.3a4.8,4.8,0,0,1-1-1.25,5.64,5.64,0,0,1-.12-1.66q0-7.32,0-14.64c.05-5.22.11-10.43.12-15.65,0-1,.11-1.82,1.39-1.79a6.66,6.66,0,0,1,.84,2.14C197.28,170.26,197.29,180,197.32,189.75Z"/><path class="cls-5" d="M198.73,280.34H159.11V212c.57.4,1,.66,1.36,1q18.5,14.79,37,29.56a3.05,3.05,0,0,1,1.31,2.7c0,11.07,0,22.15,0,33.23Zm-20.58-20c3.68,0,7.37,0,11.06,0,1.23,0,1.75-.49,1.73-1.72,0-3,0-6,0-9,0-1.24-.5-1.73-1.72-1.73q-10.89,0-21.78,0c-1.3,0-1.83.45-1.81,1.79.06,3,.07,5.9,0,8.84,0,1.46.62,1.86,2,1.83C171.12,260.35,174.63,260.38,178.15,260.38Z"/><path class="cls-7" d="M147,248.06c3.05,1.95,6.11,3.89,9.12,5.9a1.72,1.72,0,0,1,.61,1.26c0,8.34,0,16.69,0,25.19h-1.91c-10.34,0-20.67,0-31,0-1.64,0-2.18.46-2.14,2.11.09,4.65,0,9.31,0,14v1.74h-5.62V227.64l8.88,5.83L145.56,247c.27.19.52.43.77.64l-.22.28H123.65c-1,0-2-.07-2,1.41,0,3.23,0,6.46.07,9.69a1.88,1.88,0,0,0,1.3,1.28q11.24.12,22.46,0a1.75,1.75,0,0,0,1.28-1.13c.05-3.63,0-7.25-.11-10.87Z"/><path class="cls-8" d="M216.55,185.37l6.72.68c0,1.53.9,1.54,2.08,1.19a16.16,16.16,0,0,1,14.27,1.9,14.72,14.72,0,0,1,2,2c-.75-.36-1.52-.68-2.24-1.08-2.23-1.24-4.44-2.47-7.24-1.75v2c0,9.26,0,18.52,0,27.78,0,1.28-.25,1.88-1.68,1.76-1.58-.12-3.18,0-4.77,0q0-14.31-.05-28.6c0-.46.16-1,0-1.34a2,2,0,0,0-1.25-1c-.31,0-.84.57-1.05,1a3.36,3.36,0,0,0,0,1.35q0,14.64-.05,29.28l-1.17.47c-1.43-.94-2-.79-2.44.75-.39,1.24-.75,2.49-1.07,3.75-.41,1.61.1,2.15,1.81,2.08,1,0,2,0,3.16,0v18a12.62,12.62,0,0,0-2.76.05c-.56.13-1,.76-1.51,1.16.51.4,1,1,1.55,1.15a13.72,13.72,0,0,0,2.82,0v11.64c0,.9-.18,2,1.19,2s1.2-1.11,1.21-2V248h8.84v17.13l-12.55.05c-.4,0-.88-.14-1.18,0a14.81,14.81,0,0,0-1.61,1.28c.53.37,1,1,1.57,1,3.17.1,6.34.05,9.5.05l4.25.05c0,2,0,4.08,0,6.12-4.56,0-9.12,0-13.68.1-.55,0-1.08.55-1.62.85l1,1.54c0,2,0,4.11,0,6.16-1.42.91-1.41,1.44,0,2.47l0,6.08-1,1.5c.53.31,1.06.88,1.6.89,4.57.09,9.15.07,13.72.09v4.76H215.48l-.06-.46a9.35,9.35,0,0,0,1.05-1.49,2.9,2.9,0,0,0,0-1.18q0-48.3,0-96.59a10.73,10.73,0,0,1,.71-2.19,3.62,3.62,0,0,0,0-1.57,12.59,12.59,0,0,1-.73-2.17C216.46,190.14,216.53,187.75,216.55,185.37Z"/><path class="cls-9" d="M197.66,199l-.15-2H214v83.42h-7.78q0-18.84,0-37.67c0-13.86,0-27.72,0-41.59,0-1.79-.51-2.23-2.2-2.13C202,199.09,199.82,199,197.66,199Z"/><path class="cls-8" d="M197.66,199c2.16,0,4.32.14,6.47,0,1.69-.1,2.21.34,2.2,2.13-.08,13.87,0,27.73,0,41.59q0,18.84,0,37.67h-5c0-.52-.1-1-.1-1.49q0-21.89.07-43.75a3.81,3.81,0,0,0-2-3.46,3.3,3.3,0,0,1-1.59-3.24C197.65,218.58,197.64,208.77,197.66,199Z"/><path class="cls-10" d="M245.1,203.58c3.6,1.45,7.22,2.88,10.8,4.38a6.16,6.16,0,0,1,1.75,1.32c1.68,1.59,1.62,3-.12,4.61a7.7,7.7,0,0,0-.54.6,27.55,27.55,0,0,0-4,.9c-.54.2-.83,1.06-1.24,1.62.65.22,1.41.76,1.94.6A16.44,16.44,0,0,1,267,218.87c1.37.76,2.38,2.16,3.56,3.27a8.54,8.54,0,0,1-1.79-.7,13.19,13.19,0,0,0-6.46-2.71c-1.53-.13-1.91.4-1.89,1.89.06,8.27,0,16.54,0,24.81h-6.27v-1.9q0-10.9,0-21.82a3.37,3.37,0,0,0-.08-1.5,2,2,0,0,0-1.25-1c-.29,0-.82.61-1,1.05a3.31,3.31,0,0,0,0,1.34v23.81H245V240.8c0-3.92,0-7.84,0-11.75a12,12,0,0,1,.69-2.45c.11-.46.27-1.25.07-1.38-1.17-.78-.78-1.9-.79-2.91,0-5.62,0-11.25,0-16.87C245,204.82,245.06,204.2,245.1,203.58Z"/><path class="cls-7" d="M225.75,219.77c1.59,0,3.19-.08,4.77,0,1.43.12,1.69-.48,1.68-1.76,0-9.26,0-18.52,0-27.78v-2c2.8-.72,5,.51,7.24,1.75.72.4,1.49.72,2.24,1.08a11.09,11.09,0,0,1,.93,3c.07,9.93,0,19.85,0,29.78a7.47,7.47,0,0,1-.14.93H221.39l.7-3.91,1.17-.47a7.92,7.92,0,0,0,.1,2c.15.49.68.85,1,1.27.43-.42,1.11-.77,1.23-1.27A12.09,12.09,0,0,0,225.75,219.77Z"/><path class="cls-7" d="M260.45,245.43c0-8.27.07-16.54,0-24.81,0-1.49.36-2,1.89-1.89a13.19,13.19,0,0,1,6.46,2.71,8.54,8.54,0,0,0,1.79.7,6.28,6.28,0,0,1,.42,1.61q0,15.41,0,30.82a5.24,5.24,0,0,1-.17.71H249.78c.26-1.19.55-2.5.84-3.81h1.08a4.67,4.67,0,0,0,.17,1.47,6.39,6.39,0,0,0,1,1.27c.4-.43,1-.8,1.16-1.31a11.05,11.05,0,0,0,.2-2.46l3.87,0c2.42,0,2.42,0,2.33-2.48,2,0,3.94-.11,5.92-.13.87,0,1.76-.17,1.55-1.23-.09-.44-1-1-1.55-1C264.41,245.45,262.43,245.48,260.45,245.43Z"/><path class="cls-9" d="M138.66,284.87c0,2.88.06,5.77.07,8.66,0,.92.12,1.9,1.25,1.71.44-.07,1-1.09,1-1.71.14-2.87.12-5.76.16-8.65l15.41,0v13.27c-.4,0-.78.1-1.17.1H127.34a8,8,0,0,1-.84-.1c0-3.9.07-7.8,0-11.7,0-1.3.41-1.64,1.65-1.61C131.65,284.93,135.15,284.88,138.66,284.87Z"/><path class="cls-11" d="M198.65,284.87v13.32H170.74V284.91l14.62,0c0,2.94,0,5.88.12,8.81,0,.57.63,1.1,1,1.65.43-.54,1.21-1.07,1.24-1.64.16-2.93.13-5.87.17-8.81Z"/><path class="cls-12" d="M116,218.28l12.32,8.06q13.64,9,27.27,17.91a2.27,2.27,0,0,1,1.29,2.3c-.12,1.56,0,3.14,0,5-1.59-1-3-1.88-4.3-2.76Q134.76,237.14,117,225.42a2.77,2.77,0,0,1-1-1.84C115.85,222,116,220.3,116,218.28Z"/><path class="cls-12" d="M158.93,202.47c2.51,2,4.71,3.72,6.91,5.48,9.66,7.73,19.2,15.63,29,23.13,3.32,2.53,4.64,5.23,3.62,9.33-2.79-2.23-5.62-4.46-8.43-6.71-9.93-7.94-19.83-15.91-29.79-23.81a3,3,0,0,1-1.38-2.84C159,205.67,158.93,204.26,158.93,202.47Z"/><path class="cls-10" d="M197.32,189.75c0-9.74,0-19.49-.12-29.24a6.66,6.66,0,0,0-.84-2.14l0-1.29c5.33-1.79,10.43-1.53,15.1,1.84a13.33,13.33,0,0,1,2.17,2.53,13.49,13.49,0,0,1-2.07-1c-2.34-1.61-4.79-2.77-8-2.26v1.95c0,9.3,0,18.59,0,27.89,0,1.27-.27,1.88-1.69,1.76S198.85,189.77,197.32,189.75Z"/><path class="cls-13" d="M226.1,229v-1.72h16.41v18.16h-7.63c0-5,0-10,.05-14.93,0-1.18-.35-1.58-1.54-1.54C231,229,228.53,229,226.1,229Z"/><path class="cls-8" d="M226.1,229c2.43,0,4.87,0,7.29,0,1.19,0,1.56.36,1.54,1.54-.06,5,0,9.95-.05,14.93H226.1Z"/><path class="cls-13" d="M220.56,282.38c0-2.05,0-4.11,0-6.16h22v6.16Z"/><path class="cls-13" d="M234.9,265.11V248h7.65v17.13Z"/><path class="cls-7" d="M220.57,290.93l0-6.08h21.94v6.08Z"/><path class="cls-14" d="M215.42,297.71l.06.46h-9.21V282.84h7.83v4.77c0,2.77,0,5.53,0,8.29A1.54,1.54,0,0,0,215.42,297.71Z"/><path class="cls-15" d="M251.7,251.46h-1.08c-1.38-1.17-2-1-2.48.62-.4,1.29-.76,2.6-1.15,3.9s.11,1.87,1.37,1.9,2.27,0,3.53,0v7.17H245V248h6.66Z"/><path class="cls-8" d="M263.2,293.4v4.78H245V293.4Z"/><path class="cls-16" d="M168.19,285.21v13H162c0-3.74.07-7.48,0-11.21,0-1.47.47-1.87,1.84-1.78S166.72,285.21,168.19,285.21Z"/><path class="cls-8" d="M206.27,282.84v15.34h-5V282.84Z"/><path class="cls-15" d="M168.19,285.21c-1.47,0-2.95.09-4.42,0s-1.88.31-1.84,1.78c.1,3.73,0,7.47,0,11.21h-2.8v-15.3h9Z"/><path class="cls-10" d="M263.18,267.61q0,3.06,0,6.12h-8.69v-6.12Z"/><path class="cls-17" d="M234.89,273.73c0-2,0-4.08,0-6.12h7.68v6.12Z"/><path class="cls-8" d="M254.45,259.68c2.37,0,4.75.07,7.11-.05,1.41-.07,1.77.48,1.68,1.76s0,2.48,0,3.72h-8.75Z"/><path class="cls-18" d="M252,276.27v6.1h-7v-6.1Z"/><path class="cls-19" d="M252,267.67v6.06h-6.9v-6.06Z"/><path class="cls-13" d="M245,284.87h7v6h-7Z"/><path class="cls-4" d="M234.9,298.17v-4.76h7.65v4.76Z"/><path class="cls-8" d="M156.58,284.91l-15.41,0v-2h15.41Z"/><path class="cls-8" d="M185.36,284.87l-14.62,0v-2.05h14.62Z"/><path class="cls-8" d="M198.65,284.87H187.87v-2h10.78Z"/><path class="cls-8" d="M260.45,248c.09,2.49.09,2.49-2.33,2.48l-3.87,0V248Z"/><path class="cls-7" d="M146.33,247.66l.64.4-.29.27-.57-.39Z"/><path class="cls-20" d="M178.15,260.38c-3.52,0-7,0-10.55,0-1.34,0-2-.37-2-1.83.07-2.94.06-5.89,0-8.84,0-1.34.51-1.8,1.81-1.79q10.89,0,21.78,0c1.22,0,1.74.49,1.72,1.73,0,3,0,6,0,9,0,1.23-.5,1.73-1.73,1.72C185.52,260.36,181.83,260.38,178.15,260.38Zm10.3-2.44v-7.55h-9.3v7.55Zm-11.85-7.55h-8.47v7.49h8.47Z"/><path class="cls-21" d="M146.11,247.94l.57.39c.06,3.62.16,7.24.11,10.87a1.75,1.75,0,0,1-1.28,1.13q-11.23.1-22.46,0a1.88,1.88,0,0,1-1.3-1.28c-.11-3.23,0-6.46-.07-9.69,0-1.48,1-1.41,2-1.41Zm-1.67,2.42h-9.3v7.55h9.3Zm-11.85,0h-8.44v7.49h8.44Z"/><path class="cls-6" d="M225.75,219.77a12.09,12.09,0,0,1-.11,2.7c-.12.5-.8.85-1.23,1.27-.37-.42-.9-.78-1-1.27a7.92,7.92,0,0,1-.1-2q0-14.64.05-29.28a3.36,3.36,0,0,1,0-1.35c.21-.42.74-1,1.05-1a2,2,0,0,1,1.25,1c.21.33,0,.88,0,1.34Q225.73,205.46,225.75,219.77Z"/><path class="cls-22" d="M188.45,257.94h-9.3v-7.55h9.3Z"/><path class="cls-8" d="M176.6,250.39v7.49h-8.47v-7.49Z"/><path class="cls-22" d="M144.44,250.36v7.55h-9.3v-7.55Z"/><path class="cls-23" d="M390.51,442.53l-3.57-.11-1.72-1.11-.87,2.68L374,438.84c-1.22-1-2.39-2.15-3.67-3.13s-2.62-1.81-3.77-2.59l1.4-3,.45-1.64c2.09-.3,3.17-1.79,3.69-3.65a41.93,41.93,0,0,0,4.19,3.93c1.64,1.19,3.39.19,3.43-1.84a29.32,29.32,0,0,0-.44-3.94,4.26,4.26,0,0,1,3.78,3.29c-1.05.47-1.44,1.12-.75,2.23,1.6,2.59,3.13,5.24,4.79,7.8.27.43,1.05.54,1.6.79a6.58,6.58,0,0,0,.68-1.69c.06-.42-.29-.89-.48-1.39L407,418.52c1,1.21,2.17,2.66,3.3,4.16,2.17,2.87,2.16,2.88,4.58.26,0,.36,0,.62-.05.86q-.75,5.81-1.53,11.59c-.13,1,0,1.82,1.12,1.79.38,0,1-.89,1.08-1.43.79-5.29,1.46-10.59,2.24-15.88a3.22,3.22,0,0,1,1-2c6.45-4.94,12.95-9.8,19.44-14.68.87,1.72,1.77,3.44,2.56,5.2.06.12-.62.57-.95.86-.69-1.15-1.47-1.17-2.41-.24s-2.11,2.14-3.25,3.1c-4.34,3.65-8.73,7.23-13,10.9-.46.39-.49,1.26-.72,1.91.62,0,1.48.3,1.83,0,5.89-5,11.72-10,17.56-15.06l4.78.7a3.82,3.82,0,0,0,1.3.55c3.9,0,6.82,1.91,9.22,4.7C460.37,422,463,429.37,465.32,437a5.15,5.15,0,0,1-.91.31c-3.53.35-7.08.64-10.61,1.05-.51.06-1,.62-1.46.95a7.17,7.17,0,0,0,1.25,1.27,2.45,2.45,0,0,0,1.31.11l11.09-1,.83,3.83a16.19,16.19,0,0,1-2.67.77c-3,.29-6.09.44-9.13.73-.47.05-.91.54-1.36.82a9.47,9.47,0,0,0,1,1.34c.2.19.63.15.82.18.39,3.18.62,6.29,1.18,9.35.52,2.88,2.29,3.8,5.16,3.17a6.77,6.77,0,0,1,2.9-.11c.92.2,1.6.23,1.83-.73s-.16-1.73-1.25-1.71a28,28,0,0,0-3.77.38c-1.13.18-2.33.29-2.55-1.1-.5-3-.79-6.09-1.14-8.93l9.3-1.61c0,.07.14.16.16.25a75.69,75.69,0,0,1,.21,21.31c-.14,1-.06,1.76.91,2.24l-2.74,4.72a17.87,17.87,0,0,0-2.16.77,63.84,63.84,0,0,1-66.37-5.64,6,6,0,0,0-2-.57l-3.1-2a11.25,11.25,0,0,0,9.92-4.77c2.62-3.49,5-7.19,7.39-10.83.25-.36.17-.94.25-1.41a10.62,10.62,0,0,1,2.12,1.5,30.21,30.21,0,0,1,2.13,3.09,38.27,38.27,0,0,1-10.68,10.65c-.38.25-.38,1.07-.56,1.63a10.5,10.5,0,0,0,1.74.28c.27,0,.54-.35.82-.53a41.15,41.15,0,0,0,10.26-10.13l3.4,1.09c-.79,1.29-.31,2,1,2.51a46.51,46.51,0,0,0,21.25,3.1,80,80,0,0,0,10.44-2c.51-.12.83-1,1.23-1.59-.65-.21-1.32-.66-1.94-.58-1.42.18-2.8.61-4.2.93,0-1.34,0-2.68,0-4,1.13.06,1.62-.56,1.67-1.6.35-6.31.67-12.61,1-18.91.07-1.07-.36-1.55-1.37-1.63a10.78,10.78,0,0,0,.26-2.44,1.67,1.67,0,0,0-1-1.12c-.33-.11-.84.35-1.27.55-1.2-.36-2.41-.94-3.48.35-.21.25-.71.28-1.08.4a276,276,0,0,0-31.85,11.81c-3.33,1.48-6.63,3-9.94,4.51-1.92-3.83-3.95-5.62-7-6.27C391.76,441.62,391,441.53,390.51,442.53Z"/><path class="cls-24" d="M537.37,430.62a43.92,43.92,0,0,1-6.66,12.83A127.15,127.15,0,0,1,515,461.53c-2.75,2.66-5.72,5.1-8.6,7.62a3.28,3.28,0,0,1-.9.37,11.58,11.58,0,0,1-.56-1.37q-4.53-15.6-9-31.21c-.24-.86-.33-1.93-1.63-1.57s-.81,1.29-.61,2.08c1.23,4.73,2.37,9.49,3.74,14.18,1.95,6.66,4.07,13.26,6.12,19.89-1.77,1.06-3.51,2.18-5.33,3.14a14.85,14.85,0,0,1-2.78.8,13.72,13.72,0,0,0-.2-1.93c-1.32-5.29-3.05-10.5-3.9-15.86-1.05-6.64-1.39-13.39-2-20.09-.1-1.11-.06-2.2-1.67-2-.5-1.47-1-2.94-1.51-4.41.3-.4.6-.8.88-1.21a232.1,232.1,0,0,1,23-29.65,14.87,14.87,0,0,0,1.87-2.12c.23-.39,0-1.09-.09-1.64a8.33,8.33,0,0,0-1.59.18c-.28.09-.5.44-.71.7-6.12,7.49-12.29,14.95-18.34,22.49-2,2.44-3.62,5.11-5.5,7.79-.91-1.82-1.75-3.45-2.54-5.1-.4-.84-1-1.19-1.86-.84.09-.62.19-1.24.29-1.86,1.17.73,1.77.13,2.37-.87a69.68,69.68,0,0,1,12.91-15.86,60,60,0,0,1,15.77-10.74l1.19,2.52c-1.21,1.08-.5,1.9.31,2.79a150.94,150.94,0,0,1,21,29.17c.24.44.68.95.6,1.33C535.29,429.78,536.4,430.12,537.37,430.62Zm-30.81-20.49c-.52.44-1,.76-1.34,1.14A53.6,53.6,0,0,0,495,425.62a41.34,41.34,0,0,0-2,4.75c-.14.4.31,1,.48,1.54a6.72,6.72,0,0,0,1.53-.62c.28-.19.35-.68.49-1a51.06,51.06,0,0,1,10.1-16,22.46,22.46,0,0,0,1.83-1.95,1.72,1.72,0,0,0,.21-1.33C507.5,410.65,507,410.46,506.56,410.13Z"/><path class="cls-12" d="M303.66,471.19a16.49,16.49,0,0,1-2.09-2.43c-1-1.68-1.65-3.54-2.68-5.2a6.76,6.76,0,0,1-.41-6.34c1.38-3.71,2.64-7.47,5.78-10.18.08-.07.14-.19.24-.23,2.59-.93,2.18-3,1.89-5a80.46,80.46,0,0,1-.6-20.91,7.25,7.25,0,0,0,2-1.11c2.06-2.23,4-4.56,6.09-6.94.47.5.66.69.83.9a29.68,29.68,0,0,1,6.23,14.74c.91,6.74,1.74,5.18-3.67,9.18-2.74,2-6,3.32-9,5a2.07,2.07,0,0,0-.9,1.61c.15,1,1,.78,1.71.47a30.38,30.38,0,0,0,3.36-1.45c3-1.75,6-3.6,9.08-5.5a46.35,46.35,0,0,1-.77,5.5c-.91,3.56-1,7.42-3.5,10.46a1.5,1.5,0,0,0,.12,1.46,1.6,1.6,0,0,0,1.55-.05,6.4,6.4,0,0,0,1.69-2.6c1.09-4.36,2.16-8.73,2.91-13.16.42-2.5.23-5.1,2.58-6.82.09-.07.2-.18.19-.27,0-.6-.14-1.2-.22-1.8-.52.12-1.06.21-1.56.38a1.67,1.67,0,0,0-.53.42c-.89-3.5-1.46-7-2.71-10.34s-3.2-6.41-4.92-9.76l3.2-2c4.44,5.59,8.72,11,13,16.38a16.56,16.56,0,0,0,2.43,2.52,2.92,2.92,0,0,0,4.35-.11,55.62,55.62,0,0,0,4.16-4.11c.33-.36.22-1.14.3-1.73-.63,0-1.44-.15-1.85.17a37,37,0,0,0-3.15,3c-1.49,1.46-2.18,1.5-3.53-.16q-5.49-6.74-10.84-13.58c-.88-1.11-1.61-2.34-2.51-3.64l2.76-1.17.59-.46c2.58,2.85,5.16,5.71,7.75,8.55,1.78,1.95,3.53,3.95,5.44,5.78.67.64,1.7,1.64,2.76.63s-.07-1.66-.68-2.31l-7-7.45,8.75,5.82c-.76,2.32-.47,2.8,1.51,2.6,1,1.59,2,3.16,3,4.78a16.39,16.39,0,0,1,.87,2.11c-1,.29-1.15,1-1,1.95.36,1.9.74,3.82.91,5.74a47.36,47.36,0,0,1-2.62,19.35c-.19.57.2,1.33.33,2l-.33,2.42c-2.31-.13-4.62-.33-6.93-.35-.55,0-1.1.59-1.65.91.44.44.79,1.09,1.31,1.27a20.58,20.58,0,0,0,3.14.65c-.64.47-1.34.56-1.87.91a7.29,7.29,0,0,0-1.26,1.43c.56.29,1.11.81,1.67.82,2,0,3.95-.14,5.48-.21,1.44,4,2.78,7.74,4.11,11.47-7.91,0-15.82,0-23.73,0a7.81,7.81,0,0,1-2.24-.76l.56-4.12c.19,0,.67,0,1.15,0,1.38,0,2.65-.3,3.14-1.7a3.08,3.08,0,0,0-1.23-3.69,14.17,14.17,0,0,0-3.19-1.75A28.52,28.52,0,0,0,312,461.52c-.89-1.73-1.5-1.86-2.9-.59A16.69,16.69,0,0,0,303.66,471.19Zm30.81-22.81a7.93,7.93,0,0,1-8.8,7.56c-.48-.05-1,.53-1.54.82.36.47.71,1.31,1.09,1.33a13.26,13.26,0,0,0,4.59-.22c3.67-1.15,5.52-4.12,6.72-7.56.14-.42.14-1.08.42-1.23,1.7-.93,1.66-2.8,2.43-4.22.52-1,.24-1.65-.76-2.17-3.79-2-7.55-4.05-11.37-6-.45-.22-1.21.18-1.83.29.26.58.35,1.4.8,1.68,1.44.92,3,1.65,4.54,2.46l6.3,3.39-.89,2c-3-1.23-5.89-2.42-8.79-3.66-.88-.38-1.75-.5-2.05.53-.11.38.52,1.28,1,1.51C329,446.13,331.74,447.23,334.47,448.38Z"/><path class="cls-2" d="M343.76,419.93c-2,.2-2.27-.28-1.51-2.6l-8.75-5.82,7,7.45c.61.65,1.73,1.3.68,2.31s-2.09,0-2.76-.63c-1.91-1.83-3.66-3.83-5.44-5.78-2.59-2.84-5.17-5.7-7.75-8.55l-.59.46-2.76,1.17c.9,1.3,1.63,2.53,2.51,3.64q5.37,6.82,10.84,13.58c1.35,1.66,2,1.62,3.53.16a37,37,0,0,1,3.15-3c.41-.32,1.22-.13,1.85-.17-.08.59,0,1.37-.3,1.73a55.62,55.62,0,0,1-4.16,4.11,2.92,2.92,0,0,1-4.35.11,16.56,16.56,0,0,1-2.43-2.52c-4.31-5.38-8.59-10.79-13-16.38l-3.2,2c1.72,3.35,3.65,6.43,4.92,9.76s1.82,6.84,2.71,10.34a1.67,1.67,0,0,1,.53-.42c.5-.17,1-.26,1.56-.38.08.6.17,1.2.22,1.8,0,.09-.1.2-.19.27-2.35,1.72-2.16,4.32-2.58,6.82-.75,4.43-1.82,8.8-2.91,13.16a6.4,6.4,0,0,1-1.69,2.6,1.6,1.6,0,0,1-1.55.05,1.5,1.5,0,0,1-.12-1.46c2.55-3,2.59-6.9,3.5-10.46a46.35,46.35,0,0,0,.77-5.5c-3.12,1.9-6.07,3.75-9.08,5.5a30.38,30.38,0,0,1-3.36,1.45c-.71.31-1.56.55-1.71-.47a2.07,2.07,0,0,1,.9-1.61c3-1.72,6.25-3,9-5,5.41-4,4.58-2.44,3.67-9.18a29.68,29.68,0,0,0-6.23-14.74c-.17-.21-.36-.4-.83-.9-2.08,2.38-4,4.71-6.09,6.94a7.25,7.25,0,0,1-2,1.11c-.87-.66-.79-1.36-.13-2.12,2.13-2.49,4.24-5,6.25-7.36l-.31-2.46,3.18.37,8.66-4.76c-1.06-2-2.54-4-3.21-6.27-1.51-5.07.88-10.44,5.59-13.54.65-.43,1.53-.67,1.12-1.85-.08-.22.59-1,1-1a1.53,1.53,0,0,1,1.21.77c1.25,2.46,2.71,3.49,5.45,3,3.77-.65,7.47-1.68,11.22-2.47a72.75,72.75,0,0,1,20.61-1.32,1.78,1.78,0,0,0,2.11-1.28,21.73,21.73,0,0,0,1.76-9.61c0-.79-.3-1.84,1-1.85,1.1,0,1.28.8,1.34,1.73a23.91,23.91,0,0,1-2.19,11.26,33.94,33.94,0,0,1,3.7,1.08c2.92,1.18,4.24,4,3.19,6.59-.93,2.29-5.19,4.25-7.38,3.33a1.36,1.36,0,0,1-.64-1.15,1.62,1.62,0,0,1,.95-1.06,22.06,22.06,0,0,1,2.46-.34,2.72,2.72,0,0,0,2.53-2.3,2.53,2.53,0,0,0-1.89-2.83,28.73,28.73,0,0,0-6.48-1.16c-4.78-.17-9.56-.05-14.26-.05a17.13,17.13,0,0,1-7.9,9.43,13.88,13.88,0,0,1-7.22,2.19,23.37,23.37,0,0,0,.53,11.37c.09.35.58.64.95.84,2.93,1.59,5.9,3.12,8.79,4.77.43.24.54,1,.8,1.56l-2.11.9-.27-.4-.75,1.51a9.28,9.28,0,0,1,1.9,1.14c.35.35.7,1.13.53,1.47a1.66,1.66,0,0,1-1.45.59,7.76,7.76,0,0,1-2-1Zm-9.58-31.8-.87.06-5.59-2.05-2.25,2.32a6.42,6.42,0,0,0-1.24,1,9.72,9.72,0,0,0,3.47,14.73c1.78.95,1.87,1.29.77,3l2.68,2.53c.35-.61.53-1.35,1-1.57s1.13.11,1.61.37a20.67,20.67,0,0,1,2,1.44l7.54,5.38.9-1.94-8-3.88-1.07-4a33.07,33.07,0,0,1,1.33-15.42c.35-1,.92-1.76,2.05-1.27s.41,1.38.2,2.11-.5,1.59-.82,2.61l1.36-.35c4.88-1,8.21-4,10.36-8.66l-8.79,2.3Z"/><path class="cls-25" d="M419.86,457.73c-1.54-1.91-3.1-3.79-4.58-5.74a10.49,10.49,0,0,1-1.68-2.86,2.11,2.11,0,0,0-2.48-1.7,26.33,26.33,0,0,0-5.26,1.48c-1.95.8-3.76,1.91-5.64,2.88-.31-1,.08-1.52,1-1.93,2-.86,3.89-1.89,5.88-2.72,5-2.07,10.06-4.07,15.1-6.1a14.29,14.29,0,0,0,2-.2c3.68-.85,7.34-1.76,11-2.62,2.95-.69,5.91-1.34,9-2.05-.45,8.4-.89,16.53-1.33,24.67a6.31,6.31,0,0,1-1.26.27c-2.88,0-5.79.2-8.65,0A37,37,0,0,1,419.86,457.73Z"/><path class="cls-21" d="M429,398.6a11.8,11.8,0,0,1-1.06,2.61c-.35.5-1.16.67-1.77,1-.11-.62-.48-1.33-.29-1.84A38.43,38.43,0,0,0,428.24,382c-.08-.66-.21-1.31-.31-2l-14.1,2.09a16.92,16.92,0,0,0,1.58,9,9.63,9.63,0,0,1,2.34.78,1.64,1.64,0,0,1-.22,1.42c-.71.39-1.79.87-2.32.58a4.74,4.74,0,0,1-2.28-2.42c-.84-3-1.33-6-2-9.11h-6.79a35.05,35.05,0,0,0,2.43,15.32c.65,1.65,1.51,3.21,2.31,4.8.4.79,1.14,1.62,0,2.29s-1.66-.36-2.12-1.18A38.06,38.06,0,0,1,401.73,385v-2.49c-2.9-.21-5.76-.42-8.62-.65a5.7,5.7,0,0,1-2.13-.31c-.51-.26-.8-1-1.18-1.47.53-.26,1.09-.8,1.58-.74a108.88,108.88,0,0,0,20.34.5A103.19,103.19,0,0,0,435,375.48a8.23,8.23,0,0,0,2.71-1.55,1.9,1.9,0,0,0,.32-3c-.27-.31-.05-1-.06-1.58.59,0,1.37-.23,1.76.06a3,3,0,0,1,1,4,15.67,15.67,0,0,1-3.38,3.72,9.58,9.58,0,0,1-2.68,1.16l.26,1.56c.33-.13.56-.21.78-.31a6,6,0,0,1,7.12,1,6.51,6.51,0,0,1,1.76,7.2,6.35,6.35,0,0,1-5.61,4.59,2.1,2.1,0,0,1-.66,0c-.81-.15-2,.19-2-1.14s1-1.28,2.06-1.24a4,4,0,0,0,3.93-2.78,4.65,4.65,0,0,0-1.33-5.15,3.66,3.66,0,0,0-4.36-.29,2.46,2.46,0,0,0-1.36,2.43,42.19,42.19,0,0,1-2.9,17,3.45,3.45,0,0,1-.51,1.22,6.84,6.84,0,0,1-1.4.81c-.26-.55-.75-1.1-.73-1.63a6.93,6.93,0,0,1,.71-2c2.73-6.67,3.08-13.57,2.06-20.74l-2.18.54c.12,1.14.25,2.23.35,3.32A43.76,43.76,0,0,1,429,398.6Z"/><path class="cls-2" d="M512.54,392.44a60,60,0,0,0-15.77,10.74A69.68,69.68,0,0,0,483.86,419c-.6,1-1.2,1.6-2.37.87a5.75,5.75,0,0,1,.4-2.14,108.64,108.64,0,0,1,6.9-9.54c1.48-1.72,2-3.27,1.37-5.34-.36-9.52-3.13-18.41-7.09-27.14l-3.08.64c.21.48.32.78.47,1.07a68.49,68.49,0,0,1,6.22,17.31c.59,2.81,1,5.66,1.48,8.49,0,.44,0,.89,0,1.33.05.8.17,1.68-1,1.7s-1.26-.78-1.38-1.69c-.41-3.13-.75-6.29-1.38-9.38A64,64,0,0,0,477.61,377L473,378.4a8.62,8.62,0,0,1,.81,2.1c.05.49-.35,1-.55,1.54-.51-.21-1.18-.28-1.49-.65a10.63,10.63,0,0,1-1.09-2.1l-3.32,1.16h-.2l-.75.69,0,0c-1.51.67-3,1.43-4.55,2a25.14,25.14,0,0,1-5.41,1.38c-.88.08-1.93-.68-2.74-1.27a1.61,1.61,0,0,1-.13-1.59,1.55,1.55,0,0,1,1.52-.18c1.53,1.29,3,.77,4.53.12,3.62-1.57,7.15-3.36,10.84-4.72a77.92,77.92,0,0,1,34.48-4.33c.33,0,.77,0,1,.18a10.16,10.16,0,0,1,1.12,1.39c-.5.29-1,.84-1.5.83-3.56-.06-7.11-.38-10.67-.33-3.1,0-6.19.46-9.15.7,1.59,4.75,3.39,9.25,4.58,13.9s1.8,9.46,2.68,14.27a46.63,46.63,0,0,1,4.38-3.86c4.37-3.05,8.84-6,13.28-8.91a1.19,1.19,0,0,1,.59-.28c.69,0,1.64-.13,2,.24C514,391.41,513.15,392,512.54,392.44Z"/><path class="cls-20" d="M510.2,365.8c-4.62-.49-8.85-1.15-13.11-1.34a71.36,71.36,0,0,0-27.7,4.4c-.75.27-1.62.87-2.1-.32s.38-1.55,1.28-1.88a74,74,0,0,1,35.16-4c1.81.22,3.61.5,5.46.77a21,21,0,0,0-19.07-15.6c-9.78-.82-17.81,2.73-23.44,10.95A17.5,17.5,0,0,0,464,373.08c.2.87.33,1.75-.8,2s-1.36-.65-1.52-1.51c-1.56-8.1.86-15,6.64-20.68,9-8.92,24.89-10.33,34.55-2.84,7.79,6,10.86,14.14,9.06,23.92-.18,1-.07,2.79-1.82,2.39s-.58-1.79-.5-2.78C509.76,371.11,510,368.63,510.2,365.8Z"/><path class="cls-26" d="M468.41,469.91c-1-.48-1.05-1.25-.91-2.24a75.69,75.69,0,0,0-.21-21.31c0-.09-.12-.18-.16-.25l-9.3,1.61c.35,2.84.64,5.9,1.14,8.93.22,1.39,1.42,1.28,2.55,1.1a28,28,0,0,1,3.77-.38c1.09,0,1.49.76,1.25,1.71s-.91.93-1.83.73a6.77,6.77,0,0,0-2.9.11c-2.87.63-4.64-.29-5.16-3.17-.56-3.06-.79-6.17-1.18-9.35-.19,0-.62,0-.82-.18a9.47,9.47,0,0,1-1-1.34c.45-.28.89-.77,1.36-.82,3-.29,6.1-.44,9.13-.73a16.19,16.19,0,0,0,2.67-.77l-.83-3.83-11.09,1a2.45,2.45,0,0,1-1.31-.11,7.17,7.17,0,0,1-1.25-1.27c.49-.33,1-.89,1.46-.95,3.53-.41,7.08-.7,10.61-1.05a5.15,5.15,0,0,0,.91-.31c-2.3-7.66-4.95-15.07-10.24-21.19-2.4-2.79-5.32-4.72-9.22-4.7a3.82,3.82,0,0,1-1.3-.55c-.2-1.37.5-1.74,1.74-1.74,3.76,0,6.75,1.7,9.35,4.2,4.11,3.94,6.57,8.94,8.69,14.11,1.2,2.92,2.18,5.93,3.29,9,2.06.27,2.3.78,1.1,2.61a3.18,3.18,0,0,0,1.1,3.85c.39.19,1,.73.91,1a9.73,9.73,0,0,1-1.19,2.06,82.28,82.28,0,0,1,.53,20,17.18,17.18,0,0,1-.4,3.14C469.54,469.22,468.85,469.53,468.41,469.91Z"/><path class="cls-27" d="M438.2,403.22c-6.49,4.88-13,9.74-19.44,14.68a3.22,3.22,0,0,0-1,2c-.78,5.29-1.45,10.59-2.24,15.88-.08.54-.7,1.42-1.08,1.43-1.08,0-1.25-.83-1.12-1.79q.78-5.79,1.53-11.59c0-.24,0-.5.05-.86-2.42,2.62-2.41,2.61-4.58-.26-1.13-1.5-2.34-2.95-3.3-4.16l-18.14,15.53c.19.5.54,1,.48,1.39a6.58,6.58,0,0,1-.68,1.69c-.55-.25-1.33-.36-1.6-.79-1.66-2.56-3.19-5.21-4.79-7.8-.69-1.11-.3-1.76.75-2.23.79,1,1.62,1.87,2.35,2.87s1.22,2,1.91,3.08c6.07-5.15,12.06-10.24,18.31-15.53a10.91,10.91,0,0,1-1.63-1.36,2,2,0,0,1-.5-1.55c.16-.38.95-.49,1.46-.72l7.85,8.52c.37-1.11.68-2.22,1.1-3.28a10.23,10.23,0,0,1,1-1.59,7.54,7.54,0,0,0,2.34-.73c6.26-4.69,12.47-9.47,18.73-14.17a5.38,5.38,0,0,1,2-.48Z"/><path class="cls-2" d="M397.41,468.89a6.48,6.48,0,0,1,2,.58,65.3,65.3,0,0,0,67.9,5.77,18.09,18.09,0,0,1,2.21-.79c1.17,1.36,1.11,1.77-.55,2.64a65.28,65.28,0,0,1-34.6,7.36,67.54,67.54,0,0,1-35.84-12.68C397.51,471,396.5,470.36,397.41,468.89Z"/><path class="cls-2" d="M374,438.84,384.35,444l.87-2.68,1.72,1.11c.4,2.3,1.41,4.08,3.76,4.94a14.18,14.18,0,0,1,3.33,1.82c.4.29.44,1.07.65,1.62-.57.16-1.19.52-1.7.41a8.82,8.82,0,0,1-2.06-1l-.41-.09,0,.51c.57.88,1.13,1.77,1.71,2.65.46.69,1.18,1.42.14,2.11s-1.65,0-2.16-.83c-1.13-1.9-2.23-3.82-3.42-5.69a5.1,5.1,0,0,0-1.65-1.71c-2.23-1.21-4.53-2.29-6.81-3.41L366,437.62a4.47,4.47,0,0,0,.94,1.86c3.78,4.86,7.58,9.71,11.34,14.59a10,10,0,0,1,.88,1.73c-.6,1.32-1.35,1.36-2.21.25q-8.37-10.74-16.74-21.49c-.63-.8-1-1.6,0-2.3s1.49.13,1.82.79c.68,1.38,2,1.45,3.2,1.92,2.53,1,5,2.18,7.46,3.29C373.06,438.47,373.53,438.65,374,438.84Z"/><path class="cls-21" d="M351.66,358.69a26.91,26.91,0,0,1,12.79,2.93c.43.22,1.05.61,1.35.46,1.93-1,2,.36,2.27,1.63a24.9,24.9,0,0,1-1.48,14.07,2.18,2.18,0,0,1-1.13,1.23,1.5,1.5,0,0,1-1.27-.75,2.77,2.77,0,0,1,.27-1.74,20,20,0,0,0,1.47-10.92c0-.35-.63-.7-1-.94a23.55,23.55,0,0,0-35,13,3,3,0,0,1-.78,1.38,1.17,1.17,0,0,1-1.19-.12,2.34,2.34,0,0,1-.35-1.63,23.4,23.4,0,0,1,4.85-9.22A25.13,25.13,0,0,1,351.66,358.69Z"/><path class="cls-27" d="M422.2,441c-5,2-10.08,4-15.1,6.1-2,.83-3.9,1.86-5.88,2.72-.92.41-1.31.95-1,1.93a3.46,3.46,0,0,1-.14,1.31,11.89,11.89,0,0,1-1.28,1.59,6.16,6.16,0,0,1-1-1.76,35.26,35.26,0,0,0-.39-3.75,7,7,0,0,0-5.47-5.18c-.55-.11-.95-1-1.42-1.47.45-1,1.25-.91,2.12-.73,3.05.65,5.08,2.44,7,6.27,3.31-1.5,6.61-3,9.94-4.51a276,276,0,0,1,31.85-11.81c.37-.12.87-.15,1.08-.4,1.07-1.29,2.28-.71,3.48-.35.72,1.4-.13,1.89-1.27,2.24-4,1.26-8.06,2.45-12,3.82C429.15,438.28,425.69,439.7,422.2,441Z"/><path class="cls-20" d="M406.63,353.64c1.78-.76,3.54-1.57,5.36-2.23.77-.28,1.76-.42,2.06.73s-.61,1.36-1.45,1.57a15.49,15.49,0,0,0-7.29,4.19,4.36,4.36,0,0,0-1.11,2.15,28.58,28.58,0,0,0,.65,12.9c.22.81.89,1.82-.43,2.25s-1.71-.78-1.87-1.72c-.45-2.62-.78-5.27-1.16-7.91a9.11,9.11,0,0,0-.32-1,18.7,18.7,0,0,0-1,8.89,1,1,0,0,0,.16.46c1.51,2,1.47,2.1-1,2.84-1.55.46-3.07,1-4.65,1.32-.52.1-1.17-.42-1.76-.66.37-.53.62-1.31,1.12-1.53a31,31,0,0,1,3.85-1.22,19.2,19.2,0,0,1,1.5-11.82c2.06-4,3.79-8.12,5.58-12.22a3.12,3.12,0,0,1,.77-1.27,5.06,5.06,0,0,1,1.55-.52c.15.57.54,1.2.4,1.7a16.87,16.87,0,0,1-1.25,2.7Z"/><path class="cls-20" d="M379.27,423a29.32,29.32,0,0,1,.44,3.94c0,2-1.79,3-3.43,1.84a41.93,41.93,0,0,1-4.19-3.93c-.52,1.86-1.6,3.35-3.69,3.65l-.45,1.64a1.48,1.48,0,0,1-2.14-.84c-.68-1.24-1.75-2.26-2.52-3.46a5.76,5.76,0,0,1-.42-1.86,7.42,7.42,0,0,1,1.89.06c.44.12.78.61,1.13,1,1.18,1.18,2.47,1.43,3.3.62a2.94,2.94,0,0,0-.29-3.93c-.16-.15-.44-.21-.52-.39-.21-.43-.58-1-.42-1.33s.83-.54,1.3-.72a.77.77,0,0,1,.62.18c1.49,1.34,3,2.65,4.43,4.06.95.95,1.76,2.06,2.83,2.94-.2-3.94-1.49-7.31-4.95-9.41-3.13-1.9-7-.88-9.22,2.32-.55.8-1.11,1.58-2.11.84s-.33-1.49.12-2.2a9.21,9.21,0,0,1,13.82-2.08A15.18,15.18,0,0,1,379.27,423Z"/><path class="cls-26" d="M303.66,471.19a16.69,16.69,0,0,1,5.39-10.26c1.4-1.27,2-1.14,2.9.59a28.52,28.52,0,0,1,11.43,1.63,14.17,14.17,0,0,1,3.19,1.75,3.08,3.08,0,0,1,1.23,3.69c-.49,1.4-1.76,1.74-3.14,1.7-.48,0-1,0-1.15,0l-.56,4.12-1.92.77a5.14,5.14,0,0,1-.1-2c.57-1.54-.26-2.4-1.38-3-.91-.45-2.06-.41-3-.82-.59-.25-1.36-.9-1.4-1.42-.1-1.17.9-1,1.68-.87,2.27.26,4.53.54,6.79.78a17.22,17.22,0,0,0,1.76,0l.28-.47a6.41,6.41,0,0,0-1.39-1.28,24.14,24.14,0,0,0-14.62-1.95,1.73,1.73,0,0,0-1.07.86c-.87,1.9-1.64,3.85-2.49,5.76a12.34,12.34,0,0,1-.89,1.41Z"/><path class="cls-28" d="M481.2,421.77c.9-.35,1.46,0,1.86.84.79,1.65,1.63,3.28,2.54,5.1,1.88-2.68,3.55-5.35,5.5-7.79,6-7.54,12.22-15,18.34-22.49.21-.26.43-.61.71-.7a8.33,8.33,0,0,1,1.59-.18c.05.55.32,1.25.09,1.64a14.87,14.87,0,0,1-1.87,2.12A232.1,232.1,0,0,0,487,430c-.28.41-.58.81-.88,1.21-.62-.28-1.54-.39-1.81-.87a70.21,70.21,0,0,1-3.24-6.57C480.82,423.2,481.13,422.43,481.2,421.77Z"/><path class="cls-26" d="M537.37,430.62c-1-.5-2.08-.84-1.78-2.37.08-.38-.36-.89-.6-1.33a150.94,150.94,0,0,0-21-29.17c-.81-.89-1.52-1.71-.31-2.79a5.89,5.89,0,0,1,1.8.93,152.9,152.9,0,0,1,22.82,32.32C539,429.41,539,430.36,537.37,430.62Z"/><path class="cls-29" d="M506.08,385.4c0,5.18-3.15,8.5-8.32,8.74-1.55.07-3.1-.16-3.91-1.67a2.06,2.06,0,0,1,.12-1.89c.56-.7,1.16-.3,1.75.36a2.79,2.79,0,0,0,1.88.81,5.83,5.83,0,0,0,6.12-6.4,13.32,13.32,0,0,0-1.9-5.37,4.72,4.72,0,0,0-5.48-1.78,5.26,5.26,0,0,0-3.18,4.71c-.07.85.62,2.3-1.08,2.24s-1.25-1.43-1.25-2.43a7.15,7.15,0,0,1,4.65-6.69,7.43,7.43,0,0,1,7.94,2A10.41,10.41,0,0,1,506.08,385.4Z"/><path class="cls-20" d="M487.61,435.58c1.61-.2,1.57.89,1.67,2,.62,6.7,1,13.45,2,20.09.85,5.36,2.58,10.57,3.9,15.86a13.72,13.72,0,0,1,.2,1.93c-1.39.89-2,.18-2.39-1.11a120.61,120.61,0,0,1-5.91-32.21c-.07-1.61-.18-3.22-.14-4.83A5.75,5.75,0,0,1,487.61,435.58Z"/><path class="cls-28" d="M503.5,471.52c-2.05-6.63-4.17-13.23-6.12-19.89-1.37-4.69-2.51-9.45-3.74-14.18-.2-.79-.56-1.76.61-2.08s1.39.71,1.63,1.57q4.5,15.6,9,31.21a11.58,11.58,0,0,0,.56,1.37,33.92,33.92,0,0,1,1.12,3.64c.12.62,0,1.74-.35,1.92-1,.54-1.56-.26-1.86-1.23C504.14,473.06,503.8,472.3,503.5,471.52Z"/><path class="cls-2" d="M409.64,450.21c-.08.47,0,1.05-.25,1.41-2.42,3.64-4.77,7.34-7.39,10.83a11.25,11.25,0,0,1-9.92,4.77,25.08,25.08,0,0,1-9.57-4.13c-.78-.52-1.63-1.09-1-2.11s1.48-.39,2.27,0a49.79,49.79,0,0,0,5.72,3c3.95,1.58,7.58.76,10.22-2.58s5-7.07,7.42-10.67C407.83,449.77,408.5,449.21,409.64,450.21Z"/><path class="cls-27" d="M348.92,475.19c-1.33-3.73-2.67-7.46-4.11-11.47-1.53.07-3.5.23-5.48.21-.56,0-1.11-.53-1.67-.82a7.29,7.29,0,0,1,1.26-1.43c.53-.35,1.23-.44,1.87-.91a20.58,20.58,0,0,1-3.14-.65c-.52-.18-.87-.83-1.31-1.27.55-.32,1.1-.91,1.65-.91,2.31,0,4.62.22,6.93.35a18,18,0,0,1,2.83-.12c.53.06,1,.55,1.53.84a8.25,8.25,0,0,1-1,1.49,3.79,3.79,0,0,1-1.13.6,31.33,31.33,0,0,0,.7,3.4q1.51,4.72,3.2,9.41c.3.83,1.05,1.61-.06,2.3S349.48,475.8,348.92,475.19Z"/><path class="cls-3" d="M379.11,455.8a10,10,0,0,0-.88-1.73c-3.76-4.88-7.56-9.73-11.34-14.59a4.47,4.47,0,0,1-.94-1.86l12.41,6.1a8.3,8.3,0,0,0,2.13,8.56c.15.13.48.06.73.08l-.11,0,.35.69,0,0,.33.44c1.09,1.32,2.17,2.65,3.26,4Z"/><path class="cls-30" d="M419.86,457.73A37,37,0,0,0,433,461.07c2.86.24,5.77.06,8.65,0a6.31,6.31,0,0,0,1.26-.27l3.76-.66c1.4-.32,2.78-.75,4.2-.93.62-.08,1.29.37,1.94.58-.4.55-.72,1.47-1.23,1.59a80,80,0,0,1-10.44,2,46.51,46.51,0,0,1-21.25-3.1c-1.32-.52-1.8-1.22-1-2.51Z"/><path class="cls-31" d="M488.16,403.26c-.49-2.83-.89-5.68-1.48-8.49a68.49,68.49,0,0,0-6.22-17.31c-.15-.29-.26-.59-.47-1.07l3.08-.64c4,8.73,6.73,17.62,7.09,27.14Z"/><path class="cls-29" d="M356.17,374.05H360c.93,0,1.95-.06,1.92,1.23s-1,1.1-1.86,1.14c-4.55.21-9.13.26-13.66.75-3.86.42-7.67,1.33-11.48,2.09-1,.2-2,.55-2.28-.77s.9-1.33,1.73-1.54A93.68,93.68,0,0,1,356.17,374.05Z"/><path class="cls-20" d="M345.25,455.87c-.13-.68-.52-1.44-.33-2a47.36,47.36,0,0,0,2.62-19.35c-.17-1.92-.55-3.84-.91-5.74-.19-1-.08-1.66,1-1.95.44.47,1.17.87,1.3,1.41A45.94,45.94,0,0,1,347,454.78C346.77,455.28,345.83,455.51,345.25,455.87Z"/><path class="cls-20" d="M420.22,351.69c6.87,0,13.86,5.46,15.66,12.18a2.09,2.09,0,0,1-.59,1.85c-.87.48-1.39-.27-1.64-1.1-1.87-6.22-8.55-11.44-15.41-10.62-.42.05-.92-.5-1.38-.78.4-.51.7-1.25,1.22-1.47A6.08,6.08,0,0,1,420.22,351.69Z"/><path class="cls-26" d="M439.78,409.89c-5.84,5-11.67,10.09-17.56,15.06-.35.3-1.21,0-1.83,0,.23-.65.26-1.52.72-1.91,4.31-3.67,8.7-7.25,13-10.9,1.14-1,2.19-2,3.25-3.1s1.72-.91,2.41.24Z"/><path class="cls-21" d="M474.82,401.2a23.07,23.07,0,0,1,3-1.63c.47-.17,1.12.16,1.69.26-.15.57-.12,1.36-.48,1.67a19.81,19.81,0,0,1-3,1.74c1.34,1.37,2.6,2.68,3.88,4a9.58,9.58,0,0,0,1,.83c.75.58,1.73,1.2.89,2.26s-1.75.18-2.39-.42c-1.7-1.59-3.29-3.3-5-4.91a3.51,3.51,0,0,0-1.32-.67c-.64-.21-1.32-.32-2-.48l.73-2,.48.09a25,25,0,0,1-1.39-3.14c-.17-.55-.07-1.59.26-1.78.85-.49,1.52,0,1.9.94S474.23,400,474.82,401.2Z"/><path class="cls-20" d="M385,457.47c-1.09-1.33-2.17-2.66-3.26-4l-.33-.44,0,0-.35-.69.11,0c-.49-1.41-1-2.8-1.45-4.23-.24-.79-.21-1.73.86-1.74a2,2,0,0,1,1.39,1.14c1.59,5.32,4.6,9.4,9.74,11.79.49.23.65,1.17,1,1.78-.61.12-1.41.55-1.81.31C388.88,460.19,387,458.8,385,457.47Z"/><path class="cls-21" d="M467.12,380.46h.2c.16.14.31.36.49.39,1.43.28,1.48,1,.83,2.15a52.8,52.8,0,0,0-3.22,6.37c-1,2.52-.11,3.74,2.59,4.13.39.06.89,0,1.13.17s.83.87.79,1.28a1.49,1.49,0,0,1-1.09.93c-4.43.44-7.23-2.94-5.74-7.12.79-2.23,2.06-4.29,3.08-6.45a4.48,4.48,0,0,0,.21-1.18l0,0a2.21,2.21,0,0,0,.74-.09C467.19,381,467.12,380.67,467.12,380.46Z"/><path class="cls-32" d="M413.07,365.36c.37-2.59.64-5,1.1-7.29.09-.45.93-.75,1.42-1.12.28.56.9,1.2.79,1.68a31,31,0,0,0,.21,14c.11.48-.46,1.13-.72,1.7-.51-.38-1.37-.68-1.47-1.14C413.85,370.56,413.48,367.87,413.07,365.36Z"/><path class="cls-31" d="M429,398.6a43.76,43.76,0,0,0,1.61-15.93c-.1-1.09-.23-2.18-.35-3.32l2.18-.54c1,7.17.67,14.07-2.06,20.74Z"/><path class="cls-28" d="M415.47,456.7a41.15,41.15,0,0,1-10.26,10.13c-.28.18-.55.53-.82.53a10.5,10.5,0,0,1-1.74-.28c.18-.56.18-1.38.56-1.63a38.27,38.27,0,0,0,10.68-10.65C415.34,454.66,416,455.2,415.47,456.7Z"/><path class="cls-33" d="M414.89,416.75a10.23,10.23,0,0,0-1,1.59c-.42,1.06-.73,2.17-1.1,3.28L405,413.1l2.47-2.51c1.15,1.76,2.28,3.54,3.46,5.28.73,1.06,1.55,1.22,2.37.07Z"/><path class="cls-29" d="M350.34,413.49c-.19-.18-.76-.52-.71-.71a3.23,3.23,0,0,1,.83-1.74c1.32-1.08,2.83-1.93,4.12-3,.78-.67,1.23-1.72,2-2.45a1.66,1.66,0,0,1,1.52-.35,1.58,1.58,0,0,1,.44,1.49,14.83,14.83,0,0,1-7.6,6.66A3.39,3.39,0,0,1,350.34,413.49Z"/><path class="cls-34" d="M310.29,470.49c2.77,1.05,5.42,2,8,3.09.42.18.5,1.13.74,1.72-.62.13-1.31.51-1.85.35-2.43-.69-4.83-1.47-7.19-2.36a2.33,2.33,0,0,1-1.18-1.48C308.74,471.54,309.62,471.06,310.29,470.49Z"/><path class="cls-34" d="M367.31,388.44a9.56,9.56,0,0,1-2.24,6.23c-.56.67-1.16,1.38-2.06.66s-.41-1.43.18-2.14a7.06,7.06,0,0,0,1.66-5.88c-.09-.52.59-1.17.92-1.76a6.77,6.77,0,0,1,1.32,1.36A4.33,4.33,0,0,1,367.31,388.44Z"/><path class="cls-34" d="M355.7,393.38a.74.74,0,0,1,.57.15c.38.38.85.9.84,1.36s-.8.94-1.13.88c-1.54-.3-2.9-.44-3.91,1.12-.12.19-1.07.14-1.28-.11a1.59,1.59,0,0,1-.23-1.43,31.23,31.23,0,0,1,2.63-3.62c.25-.3,1.08-.53,1.27-.36A9.16,9.16,0,0,1,355.7,393.38Z"/><path class="cls-21" d="M413.25,415.94c-.82,1.15-1.64,1-2.37-.07-1.18-1.74-2.31-3.52-3.46-5.28l.82-1.9a6.68,6.68,0,0,1,1.51,1.19c1,1.43,1.95,2.93,2.86,4.43A9.69,9.69,0,0,1,413.25,415.94Z"/><path class="cls-34" d="M365,431c-.21.28-.4.8-.73.91a1.6,1.6,0,0,1-1.34-.19,22.69,22.69,0,0,1-2.83-3.05,1.86,1.86,0,0,1,.1-1.6,1.32,1.32,0,0,1,1.26-.15c1.18,1.08,2.25,2.29,3.34,3.46C364.94,430.53,364.94,430.73,365,431Z"/><path class="cls-29" d="M417.58,401.5a11.92,11.92,0,0,1-2.82-.67,1.7,1.7,0,0,1-.56-1.46c.05-.31.78-.66,1.23-.7a12.58,12.58,0,0,1,1.79.24c1,0,2.15,0,1.95,1.32C419.09,400.77,418,401.16,417.58,401.5Z"/><path class="cls-32" d="M357.27,401.21c1.22,1,3.17.21,3.24,2.18,0,.33-1.05,1.1-1.31,1-1.08-.48-2.95.14-3-1.82C356.16,402.14,356.85,401.7,357.27,401.21Z"/><path class="cls-34" d="M421.25,385.13c-.44.55-.81,1.47-1.35,1.57-1.06.21-1.37-.76-1.32-1.64s-.81-2.54.92-2.69S420.68,383.86,421.25,385.13Z"/><path class="cls-34" d="M344.2,404.33l2.32,2.2c-.41.35-1,1.09-1.19,1-.95-.4-2.66.46-2.74-1.35C342.57,405.7,343.42,405.19,344.2,404.33Z"/><path class="cls-34" d="M409.12,385.89c-.81.73-1.29,1.54-1.77,1.55-1.37,0-1.13-1.2-1.22-2.12s.25-1.8,1.15-1.57C407.92,383.92,408.34,384.93,409.12,385.89Z"/><path class="cls-35" d="M446.66,460.18l-3.76.66c.44-8.14.88-16.27,1.33-24.67-3.13.71-6.09,1.36-9,2.05-3.68.86-7.34,1.77-11,2.62a14.29,14.29,0,0,1-2,.2c3.49-1.34,6.95-2.76,10.48-4,4-1.37,8-2.56,12-3.82,1.14-.35,2-.84,1.27-2.24.43-.2.94-.66,1.27-.55a1.67,1.67,0,0,1,1,1.12A10.78,10.78,0,0,1,448,434c-.33.52-.92,1-1,1.57q-.6,9.44-1,18.89a4.91,4.91,0,0,0,.64,1.68C446.65,457.5,446.65,458.84,446.66,460.18Z"/><path class="cls-20" d="M446.64,456.15a4.91,4.91,0,0,1-.64-1.68q.44-9.45,1-18.89c0-.54.62-1.05,1-1.57,1,.08,1.44.56,1.37,1.63-.37,6.3-.69,12.6-1,18.91C448.26,455.59,447.77,456.21,446.64,456.15Z"/><path class="cls-27" d="M506.56,410.13c.42.33.94.52,1,.85a1.72,1.72,0,0,1-.21,1.33,22.46,22.46,0,0,1-1.83,1.95,51.06,51.06,0,0,0-10.1,16c-.14.36-.21.85-.49,1a6.72,6.72,0,0,1-1.53.62c-.17-.52-.62-1.14-.48-1.54a41.34,41.34,0,0,1,2-4.75,53.6,53.6,0,0,1,10.23-14.35C505.6,410.89,506,410.57,506.56,410.13Z"/><path class="cls-27" d="M334.47,448.38c-2.73-1.15-5.46-2.25-8.12-3.48-.5-.23-1.13-1.13-1-1.51.3-1,1.17-.91,2.05-.53,2.9,1.24,5.82,2.43,8.79,3.66l.89-2-6.3-3.39c-1.52-.81-3.1-1.54-4.54-2.46-.45-.28-.54-1.1-.8-1.68.62-.11,1.38-.51,1.83-.29,3.82,1.93,7.58,4,11.37,6,1,.52,1.28,1.2.76,2.17-.77,1.42-.73,3.29-2.43,4.22-.28.15-.28.81-.42,1.23-1.2,3.44-3,6.41-6.72,7.56a13.26,13.26,0,0,1-4.59.22c-.38,0-.73-.86-1.09-1.33.52-.29,1.06-.87,1.54-.82A7.93,7.93,0,0,0,334.47,448.38Z"/><path class="cls-31" d="M325.47,388.46l2.25-2.32,5.59,2.05a21,21,0,0,0-2.78,16c-4.56-1.53-7.59-5.72-6.76-9.91C324.17,392.32,324.9,390.41,325.47,388.46Z"/><path class="cls-36" d="M325.47,388.46c-.57,2-1.3,3.86-1.7,5.85-.83,4.19,2.2,8.38,6.76,9.91.11.43.23.86.34,1.29.23.87.62,1.77,1.65,1.29a2.1,2.1,0,0,0,.6-1.88,21.71,21.71,0,0,1,1.46-14.65c.39-.84.56-1.58-.4-2.14l6.67-1.22c-.52,2.12-1.05,4.24-1.57,6.36l-1.36.35c.32-1,.58-1.81.82-2.61s.95-1.62-.2-2.11-1.7.3-2.05,1.27c-.49.28-1.29.44-1.44.84-1.77,4.86-2.47,9.74.11,14.58l1.07,4-.47.44a20.67,20.67,0,0,0-2-1.44c-.48-.26-1.21-.56-1.61-.37s-.62,1-1,1.57l-2.68-2.53c1.1-1.75,1-2.09-.77-3a9.72,9.72,0,0,1-3.47-14.73A6.42,6.42,0,0,1,325.47,388.46Z"/><path class="cls-26" d="M334.18,388.13c1,.56.79,1.3.4,2.14a21.71,21.71,0,0,0-1.46,14.65,2.1,2.1,0,0,1-.6,1.88c-1,.48-1.42-.42-1.65-1.29-.11-.43-.23-.86-.34-1.29a21,21,0,0,1,2.78-16Z"/><path class="cls-31" d="M339.28,393.27c.52-2.12,1.05-4.24,1.57-6.36l8.79-2.3C347.49,389.26,344.16,392.23,339.28,393.27Z"/><path class="cls-31" d="M335.16,405.59c-2.58-4.84-1.88-9.72-.11-14.58.15-.4.95-.56,1.44-.84A33.07,33.07,0,0,0,335.16,405.59Z"/><path class="cls-37" d="M335.76,410l.47-.44,8,3.88-.9,1.94Z"/><path class="cls-8" d="M467.12,380.46c0,.21.07.56,0,.6a2.21,2.21,0,0,1-.74.09Z"/><path class="cls-8" d="M390.55,450.6l0-.51.41.09Z"/><path class="cls-8" d="M406.63,353.64l-.29-.42Z"/><path class="cls-8" d="M381.11,452.4l.35.69Z"/><path class="cls-8" d="M381.41,453.05l.33.44Z"/><path class="cls-8" d="M543.92,465.15v7.33h-8.25v-7.33Z"/></svg>