<svg xmlns="http://www.w3.org/2000/svg" width="1663.47" height="1279.19" viewBox="0 0 1663.47 1279.19"><g style="isolation:isolate"><g id="レイヤー_2" data-name="レイヤー 2"><rect x="97.98" y="54.56" width="1528.18" height="1170.07" fill="none"/><rect x="306.61" y="217.96" width="858.12" height="572.08" fill="none" stroke="#000" stroke-linecap="round" stroke-linejoin="round" stroke-width="8.33"/><polygon points="940.8 899.98 530.54 899.98 543.99 847.67 927.36 847.67 940.8 899.98" fill="none" stroke="#000" stroke-linecap="round" stroke-linejoin="round" stroke-width="8.33"/><rect x="360.95" y="254.18" width="749.45" height="499.63" fill="none" stroke="#000" stroke-linecap="round" stroke-linejoin="round" stroke-width="8.33"/><line x1="631.07" y1="790.03" x2="631.07" y2="847.67" fill="none" stroke="#000" stroke-linecap="round" stroke-linejoin="round" stroke-width="8.33"/><line x1="837.28" y1="790.03" x2="837.28" y2="847.67" fill="none" stroke="#000" stroke-linecap="round" stroke-linejoin="round" stroke-width="8.33"/><rect x="429.53" y="376.2" width="609.25" height="224.17" fill="#bdeff4"/><line x1="429.53" y1="645.81" x2="701.23" y2="645.81" fill="none" stroke="#000" stroke-linecap="round" stroke-linejoin="round" stroke-width="8.33" stroke-dasharray="10.24 40.97"/><line x1="429.53" y1="691.46" x2="701.23" y2="691.46" fill="none" stroke="#000" stroke-linecap="round" stroke-linejoin="round" stroke-width="8.33" stroke-dasharray="10.24 40.97"/><path d="M971.28,625c0-83.3-53.79-120.61-53.79-120.61,34.7-32.1,39-86.07,22.56-114.71s-65.95-48.59-103.26-20c-43.72,33.56-30.37,112.11-1.74,132.07,0,0-46.85,42.52-48.59,98" fill="none" stroke="#000" stroke-linecap="round" stroke-linejoin="round" stroke-width="7.5"/><polyline points="861.95 410.65 861.95 450.57 874.1 450.57" fill="none" stroke="#000" stroke-linecap="round" stroke-linejoin="round" stroke-width="7.5"/><rect x="1220.33" y="217.96" width="229.07" height="395.67" fill="none" stroke="#000" stroke-linecap="round" stroke-linejoin="round" stroke-width="8.33"/><rect x="1300.75" y="346.27" width="126.22" height="182.25" fill="#bdeff4"/><rect x="1244.07" y="244.22" width="181.58" height="313.64" fill="none" stroke="#000" stroke-linecap="round" stroke-linejoin="round" stroke-width="8.33"/><rect x="388.82" y="942.57" width="691.53" height="280.65" fill="#e6e6e6"/><rect x="432.98" y="1021.62" width="603.21" height="124.88" fill="none" stroke="#000" stroke-linecap="round" stroke-linejoin="round" stroke-width="8.33"/><rect x="432.98" y="984.6" width="603.21" height="37.02" fill="none" stroke="#000" stroke-linecap="round" stroke-linejoin="round" stroke-width="8.33"/><rect x="552.89" y="1146.5" width="259.15" height="36.86" fill="none" stroke="#000" stroke-linecap="round" stroke-linejoin="round" stroke-width="8.33"/><rect x="812.05" y="1146.5" width="56.04" height="36.86" fill="none" stroke="#000" stroke-linecap="round" stroke-linejoin="round" stroke-width="8.33"/><rect x="492.94" y="1146.5" width="59.95" height="36.86" fill="none" stroke="#000" stroke-linecap="round" stroke-linejoin="round" stroke-width="8.33"/><rect x="432.98" y="1146.5" width="59.96" height="36.86" fill="none" stroke="#000" stroke-linecap="round" stroke-linejoin="round" stroke-width="8.33"/><rect x="868.08" y="1146.5" width="56.04" height="36.86" fill="none" stroke="#000" stroke-linecap="round" stroke-linejoin="round" stroke-width="8.33"/><rect x="924.12" y="1146.5" width="56.04" height="36.86" fill="none" stroke="#000" stroke-linecap="round" stroke-linejoin="round" stroke-width="8.33"/><rect x="980.15" y="1146.5" width="56.04" height="36.86" fill="none" stroke="#000" stroke-linecap="round" stroke-linejoin="round" stroke-width="8.33"/><line x1="479.38" y1="1021.62" x2="479.38" y2="984.6" fill="none" stroke="#000" stroke-linecap="round" stroke-linejoin="round" stroke-width="8.33"/><line x1="525.78" y1="1021.62" x2="525.78" y2="984.6" fill="none" stroke="#000" stroke-linecap="round" stroke-linejoin="round" stroke-width="8.33"/><line x1="515.64" y1="1060.95" x2="515.64" y2="1023.92" fill="none" stroke="#000" stroke-linecap="round" stroke-linejoin="round" stroke-width="8.33"/><line x1="565.38" y1="1060.95" x2="565.38" y2="1023.92" fill="none" stroke="#000" stroke-linecap="round" stroke-linejoin="round" stroke-width="8.33"/><line x1="615.13" y1="1060.95" x2="615.13" y2="1023.92" fill="none" stroke="#000" stroke-linecap="round" stroke-linejoin="round" stroke-width="8.33"/><line x1="664.88" y1="1060.95" x2="664.88" y2="1023.92" fill="none" stroke="#000" stroke-linecap="round" stroke-linejoin="round" stroke-width="8.33"/><line x1="714.63" y1="1060.95" x2="714.63" y2="1023.92" fill="none" stroke="#000" stroke-linecap="round" stroke-linejoin="round" stroke-width="8.33"/><line x1="764.38" y1="1060.95" x2="764.38" y2="1023.92" fill="none" stroke="#000" stroke-linecap="round" stroke-linejoin="round" stroke-width="8.33"/><line x1="814.13" y1="1060.95" x2="814.13" y2="1023.92" fill="none" stroke="#000" stroke-linecap="round" stroke-linejoin="round" stroke-width="8.33"/><line x1="863.87" y1="1060.95" x2="863.87" y2="1023.92" fill="none" stroke="#000" stroke-linecap="round" stroke-linejoin="round" stroke-width="8.33"/><line x1="913.62" y1="1060.95" x2="913.62" y2="1023.92" fill="none" stroke="#000" stroke-linecap="round" stroke-linejoin="round" stroke-width="8.33"/><line x1="963.37" y1="1060.95" x2="963.37" y2="1023.92" fill="none" stroke="#000" stroke-linecap="round" stroke-linejoin="round" stroke-width="8.33"/><line x1="490.76" y1="1102.57" x2="490.76" y2="1065.55" fill="none" stroke="#000" stroke-linecap="round" stroke-linejoin="round" stroke-width="8.33"/><line x1="540.51" y1="1102.57" x2="540.51" y2="1065.55" fill="none" stroke="#000" stroke-linecap="round" stroke-linejoin="round" stroke-width="8.33"/><line x1="590.26" y1="1102.57" x2="590.26" y2="1065.55" fill="none" stroke="#000" stroke-linecap="round" stroke-linejoin="round" stroke-width="8.33"/><line x1="640.01" y1="1102.57" x2="640.01" y2="1065.55" fill="none" stroke="#000" stroke-linecap="round" stroke-linejoin="round" stroke-width="8.33"/><line x1="689.75" y1="1102.57" x2="689.75" y2="1065.55" fill="none" stroke="#000" stroke-linecap="round" stroke-linejoin="round" stroke-width="8.33"/><line x1="739.5" y1="1102.57" x2="739.5" y2="1065.55" fill="none" stroke="#000" stroke-linecap="round" stroke-linejoin="round" stroke-width="8.33"/><line x1="789.25" y1="1102.57" x2="789.25" y2="1065.55" fill="none" stroke="#000" stroke-linecap="round" stroke-linejoin="round" stroke-width="8.33"/><line x1="839" y1="1102.57" x2="839" y2="1065.55" fill="none" stroke="#000" stroke-linecap="round" stroke-linejoin="round" stroke-width="8.33"/><line x1="888.75" y1="1102.57" x2="888.75" y2="1065.55" fill="none" stroke="#000" stroke-linecap="round" stroke-linejoin="round" stroke-width="8.33"/><line x1="938.5" y1="1102.57" x2="938.5" y2="1065.55" fill="none" stroke="#000" stroke-linecap="round" stroke-linejoin="round" stroke-width="8.33"/><line x1="519.05" y1="1144.2" x2="519.05" y2="1107.18" fill="none" stroke="#000" stroke-linecap="round" stroke-linejoin="round" stroke-width="8.33"/><line x1="568.8" y1="1144.2" x2="568.8" y2="1107.18" fill="none" stroke="#000" stroke-linecap="round" stroke-linejoin="round" stroke-width="8.33"/><line x1="618.54" y1="1144.2" x2="618.54" y2="1107.18" fill="none" stroke="#000" stroke-linecap="round" stroke-linejoin="round" stroke-width="8.33"/><line x1="668.29" y1="1144.2" x2="668.29" y2="1107.18" fill="none" stroke="#000" stroke-linecap="round" stroke-linejoin="round" stroke-width="8.33"/><line x1="718.04" y1="1144.2" x2="718.04" y2="1107.18" fill="none" stroke="#000" stroke-linecap="round" stroke-linejoin="round" stroke-width="8.33"/><line x1="767.79" y1="1144.2" x2="767.79" y2="1107.18" fill="none" stroke="#000" stroke-linecap="round" stroke-linejoin="round" stroke-width="8.33"/><line x1="817.54" y1="1144.2" x2="817.54" y2="1107.18" fill="none" stroke="#000" stroke-linecap="round" stroke-linejoin="round" stroke-width="8.33"/><line x1="867.29" y1="1144.2" x2="867.29" y2="1107.18" fill="none" stroke="#000" stroke-linecap="round" stroke-linejoin="round" stroke-width="8.33"/><line x1="917.03" y1="1144.2" x2="917.03" y2="1107.18" fill="none" stroke="#000" stroke-linecap="round" stroke-linejoin="round" stroke-width="8.33"/><line x1="966.78" y1="1144.2" x2="966.78" y2="1107.18" fill="none" stroke="#000" stroke-linecap="round" stroke-linejoin="round" stroke-width="8.33"/><line x1="572.18" y1="1021.62" x2="572.18" y2="984.6" fill="none" stroke="#000" stroke-linecap="round" stroke-linejoin="round" stroke-width="8.33"/><line x1="618.58" y1="1021.62" x2="618.58" y2="984.6" fill="none" stroke="#000" stroke-linecap="round" stroke-linejoin="round" stroke-width="8.33"/><line x1="664.99" y1="1021.62" x2="664.99" y2="984.6" fill="none" stroke="#000" stroke-linecap="round" stroke-linejoin="round" stroke-width="8.33"/><line x1="711.39" y1="1021.62" x2="711.39" y2="984.6" fill="none" stroke="#000" stroke-linecap="round" stroke-linejoin="round" stroke-width="8.33"/><line x1="757.79" y1="1021.62" x2="757.79" y2="984.6" fill="none" stroke="#000" stroke-linecap="round" stroke-linejoin="round" stroke-width="8.33"/><line x1="804.19" y1="1021.62" x2="804.19" y2="984.6" fill="none" stroke="#000" stroke-linecap="round" stroke-linejoin="round" stroke-width="8.33"/><line x1="850.59" y1="1021.62" x2="850.59" y2="984.6" fill="none" stroke="#000" stroke-linecap="round" stroke-linejoin="round" stroke-width="8.33"/><line x1="896.99" y1="1021.62" x2="896.99" y2="984.6" fill="none" stroke="#000" stroke-linecap="round" stroke-linejoin="round" stroke-width="8.33"/><line x1="943.39" y1="1021.62" x2="943.39" y2="984.6" fill="none" stroke="#000" stroke-linecap="round" stroke-linejoin="round" stroke-width="8.33"/><line x1="989.79" y1="1021.62" x2="989.79" y2="984.6" fill="none" stroke="#000" stroke-linecap="round" stroke-linejoin="round" stroke-width="8.33"/><line x1="432.98" y1="1063.25" x2="1036.19" y2="1063.25" fill="none" stroke="#000" stroke-linecap="round" stroke-linejoin="round" stroke-width="8.33"/><line x1="432.98" y1="1104.87" x2="1036.19" y2="1104.87" fill="none" stroke="#000" stroke-linecap="round" stroke-linejoin="round" stroke-width="8.33"/><path d="M543.22,118.87s-39.92-16.48-39.92-56.4c0,39.92-40.78,56.4-40.78,56.4s40.78,16.49,40.78,56.4C503.3,135.36,543.22,118.87,543.22,118.87Z" fill="#f5ff9f" stroke="#000" stroke-linecap="round" stroke-linejoin="round" stroke-width="8.33"/><path d="M1558,175.27s-39.91-16.48-39.91-56.4c0,39.92-40.78,56.4-40.78,56.4s40.78,16.49,40.78,56.41C1518.07,191.76,1558,175.27,1558,175.27Z" fill="#f5ff9f" stroke="#000" stroke-linecap="round" stroke-linejoin="round" stroke-width="8.33"/><path d="M1410,733.31s-39.91-16.49-39.91-56.4c0,39.91-40.79,56.4-40.79,56.4s40.79,16.49,40.79,56.4C1370.13,749.8,1410,733.31,1410,733.31Z" fill="#f5ff9f" stroke="#000" stroke-linecap="round" stroke-linejoin="round" stroke-width="8.33"/><path d="M1318.76,1129.56H1211.91V970h106.85C1342.66,1035.46,1318.76,1129.56,1318.76,1129.56Z" fill="none" stroke="#000" stroke-linecap="round" stroke-linejoin="round" stroke-width="8.33"/><line x1="536.76" y1="875.77" x2="225.53" y2="875.77" fill="none" stroke="#000" stroke-linecap="round" stroke-linejoin="round" stroke-width="8.33"/><line x1="1232.46" y1="875.77" x2="934.58" y2="875.77" fill="none" stroke="#000" stroke-linecap="round" stroke-linejoin="round" stroke-width="8.33"/><path d="M190.35,618.09s-39.91-16.48-39.91-56.4c0,39.92-40.79,56.4-40.79,56.4s40.79,16.49,40.79,56.4C150.44,634.58,190.35,618.09,190.35,618.09Z" fill="#f5ff9f" stroke="#000" stroke-linecap="round" stroke-linejoin="round" stroke-width="8.33"/><rect x="278.86" y="96.02" width="71.73" height="50.91" transform="translate(10.01 -23.28) rotate(4.31)" fill="#b8d5ff" style="mix-blend-mode:multiply"/><rect x="101.88" y="95.45" width="71.73" height="50.91" transform="translate(8.13 250.49) rotate(-86.27)" fill="#bdeff4" style="mix-blend-mode:multiply"/><rect x="1382.57" y="119.16" width="71.73" height="50.91" transform="translate(178 847.6) rotate(-35.36)" fill="#b8d5ff" style="mix-blend-mode:multiply"/><rect x="1012.49" y="116.26" width="71.73" height="50.91" transform="translate(838.72 1178.62) rotate(-86.27)" fill="#bdeff4" style="mix-blend-mode:multiply"/><rect x="140.02" y="179.32" width="71.73" height="50.91" transform="translate(-86.06 139.58) rotate(-35.36)" fill="#b8d5ff" style="mix-blend-mode:multiply"/><rect x="259.19" y="271.88" width="71.73" height="50.91" transform="translate(246.73 713.42) rotate(-128.6)" fill="#bdeff4" style="mix-blend-mode:multiply"/><rect x="194.11" y="695.01" width="71.73" height="50.91" transform="translate(54.74 -15.23) rotate(4.31)" fill="#b8d5ff" style="mix-blend-mode:multiply"/><rect x="111.1" y="937.12" width="71.73" height="50.91" transform="translate(-823.13 1046.58) rotate(-86.27)" fill="#bdeff4" style="mix-blend-mode:multiply"/><rect x="219.93" y="535.24" width="71.73" height="50.91" transform="translate(-320.36 779.45) rotate(-86.27)" fill="#bdeff4" style="mix-blend-mode:multiply"/><rect x="252.26" y="711.51" width="71.73" height="50.91" transform="translate(-373.36 302.72) rotate(-35.36)" fill="#b8d5ff" style="mix-blend-mode:multiply"/><rect x="278.26" y="828.94" width="71.73" height="50.91" transform="translate(-157.69 1632.88) rotate(-128.6)" fill="#bdeff4" style="mix-blend-mode:multiply"/><rect x="1437.92" y="1106.8" width="71.73" height="50.91" transform="translate(1951.59 2928.28) rotate(-142.43)" fill="#b8d5ff" style="mix-blend-mode:multiply"/><rect x="1540.44" y="946.83" width="71.73" height="50.91" transform="translate(2520.24 -621.16) rotate(88.98)" fill="#bdeff4" style="mix-blend-mode:multiply"/><rect x="167.25" y="1047.26" width="71.73" height="50.91" transform="translate(1049.66 1762.14) rotate(139.88)" fill="#b8d5ff" style="mix-blend-mode:multiply"/><rect x="1510.45" y="500.03" width="71.73" height="50.91" transform="translate(3067.4 -69.09) rotate(139.88)" fill="#b8d5ff" style="mix-blend-mode:multiply"/><rect x="1305.06" y="794.81" width="71.73" height="50.91" transform="translate(1016.87 -717.88) rotate(46.65)" fill="#bdeff4" style="mix-blend-mode:multiply"/><rect x="1420.79" y="584.76" width="71.73" height="50.91" transform="translate(3022.16 818.55) rotate(164.85)" fill="#b8d5ff" style="mix-blend-mode:multiply"/><rect x="1251.84" y="65.94" width="71.73" height="50.91" transform="translate(1356.05 -1197.74) rotate(88.97)" fill="#bdeff4" style="mix-blend-mode:multiply"/><rect x="1533.05" y="375.82" width="71.73" height="50.91" transform="translate(1942.06 -1174.57) rotate(88.98)" fill="#bdeff4" style="mix-blend-mode:multiply"/><rect x="1514.6" y="711.69" width="71.73" height="50.91" transform="translate(3211.12 301.76) rotate(139.88)" fill="#b8d5ff" style="mix-blend-mode:multiply"/><rect x="1494.47" y="331.53" width="71.73" height="50.91" transform="translate(739.37 -1000.86) rotate(46.65)" fill="#bdeff4" style="mix-blend-mode:multiply"/><circle cx="451.28" cy="318.64" r="17.19" fill="#ff7474" stroke="#dbdbdb" stroke-linecap="round" stroke-linejoin="round" stroke-width="7.08"/><circle cx="521.64" cy="318.64" r="17.19" fill="#f5ff9f" stroke="#949494" stroke-linecap="round" stroke-linejoin="round" stroke-width="7.08"/><circle cx="587.99" cy="318.64" r="17.19" fill="#7dff9f" stroke="#000" stroke-linecap="round" stroke-linejoin="round" stroke-width="7.08"/></g></g></svg>