<svg xmlns="http://www.w3.org/2000/svg" width="7320.56" height="1457.74" viewBox="0 0 7320.56 1457.74"><g style="isolation:isolate"><g id="レイヤー_2" data-name="レイヤー 2"><rect x="3773.71" y="130.58" width="1528.18" height="1170.07" fill="none"/><path d="M4153.74,1301.51H3774.56s-2.61-170.07-2.61-190S3821.41,863.32,3941.16,800c0,0,98.91,79.83,174.4,87.64,0,0,101.53,63.35,131.9,156.19,0,0,85-140.57,93.71-165.73,0,0,75.49-11.28,118.87,51.19,0,0-54,209.3-131,283.74-26,25.16-59,48.59-96.32,47.72s-59-20-59-20Z" fill="#bdeff4"/><path d="M4865.54,1302.37H4735.1l-13-69.41s52.93-16.49,109.91-4Z" fill="#b8d5ff" style="mix-blend-mode:multiply"/><path d="M4893.89,1300.66h408V1087.18c-22.74-20.82-78.27-37.31-103.43-39.91,0,0-52.93,39.91-86.77,53.8s-90.82,32.39-90.82,32.39C4922,1186.39,4893.89,1300.66,4893.89,1300.66Z" fill="#b8d5ff" style="mix-blend-mode:multiply"/><path d="M4976,772.46c-44.43,29.62-33.78,99.58-37,141.78-1.06,13.75-33.85,63-33.85,63l30.68,12.7v53.43c0,23.28,18,30.68,37,30.68h66.66l20.1,37c7.41,16.93-7.41,45.5-11.64,59.25" fill="none" stroke="#000" stroke-linecap="round" stroke-linejoin="round" stroke-width="8.33"/><path d="M4985.56,919.53c9.52-6.35,26.45-2.12,30.68,1.06" fill="none" stroke="#000" stroke-linecap="round" stroke-linejoin="round" stroke-width="8.33"/><path d="M4971.19,1019.37c12.08,8.86,37.86,6.45,46.72.81" fill="none" stroke="#000" stroke-linecap="round" stroke-linejoin="round" stroke-width="8.33"/><path d="M4958.05,743.89c44.44-1.06,92.05-37,166.11-20.1,57.54,13.15,82.53,65.6,82.53,65.6s30.22,14.75,33.85,52.9c8.47,88.88-67.71,189.39-67.71,189.39l15.79,47.41" fill="none" stroke="#000" stroke-linecap="round" stroke-linejoin="round" stroke-width="8.33"/><path d="M5115.7,834.88c13.75,13.76,43.38,20.11,65.59,20.11" fill="none" stroke="#000" stroke-linecap="round" stroke-linejoin="round" stroke-width="8.33"/><path d="M5132.62,879.32s16.93,16.93,43.38,16.93" fill="none" stroke="#000" stroke-linecap="round" stroke-linejoin="round" stroke-width="8.33"/><path d="M5148.5,922.7c15.87-9.52,33.85-7.4,42.32,7.41s4.23,50.78-43.38,62.42" fill="none" stroke="#000" stroke-linecap="round" stroke-linejoin="round" stroke-width="8.33"/><path d="M5100.88,809.49c1.06-13.75-3.17-40.2-22.22-49.73" fill="none" stroke="#000" stroke-linecap="round" stroke-linejoin="round" stroke-width="8.33"/><path d="M5073.37,788.33c-1.05-9.52-31.74-27.51-50.78-28.57" fill="none" stroke="#000" stroke-linecap="round" stroke-linejoin="round" stroke-width="8.33"/><path d="M5024.7,784.1c-18,3.17-59.25,6.35-80.41-14.81" fill="none" stroke="#000" stroke-linecap="round" stroke-linejoin="round" stroke-width="8.33"/><line x1="5168.6" y1="944.92" x2="5148.5" y2="958.68" fill="none" stroke="#000" stroke-linecap="round" stroke-linejoin="round" stroke-width="8.33"/><path d="M4922.52,1300.66c0-72.33,78.48-151.2,103.93-158.14s109.91-26.61,170.07-79.83c0,0,58.89,9.26,104.93,47.15" fill="none" stroke="#000" stroke-linecap="round" stroke-linejoin="round" stroke-width="8.33"/><path d="M4161.26,629.31c7,0,8.54,10,8.54,16.07s-1.43,17.17-8.54,17.17c-7.76,0-8.09-12.43-8.09-17.17S4153.94,629.31,4161.26,629.31Z"/><path d="M4178,497.17c44.44,29.62,33.78,99.58,37,141.78,1.06,13.75,33.86,62.95,33.86,62.95l-30.69,12.7V768c0,23.27-18,30.68-37,30.68h-66.65l-20.11,37c-7.4,16.93,1.06,48.67,5.29,62.43" fill="none" stroke="#000" stroke-linecap="round" stroke-linejoin="round" stroke-width="8.33"/><path d="M4182.86,744.08c-12.08,8.86-37.86,6.44-46.72.81" fill="none" stroke="#000" stroke-linecap="round" stroke-linejoin="round" stroke-width="8.33"/><path d="M3969.58,788.13l11.64-31.74s-64.66-78.42-55-167.17c5.29-48.67,31.75-67.72,31.75-67.72s16.55-78.29,162.93-64.54c31.68,3,85.71,8.47,69.83,55s-47.61,64.54-60.3,69.83" fill="none" stroke="#000" stroke-linecap="round" stroke-linejoin="round" stroke-width="8.33"/><path d="M4005.56,647.41c-15.87-9.52-33.86-7.41-42.32,7.41s-4.24,50.78,43.38,62.42" fill="none" stroke="#000" stroke-linecap="round" stroke-linejoin="round" stroke-width="8.33"/><line x1="3985.45" y1="669.63" x2="4005.56" y2="683.38" fill="none" stroke="#000" stroke-linecap="round" stroke-linejoin="round" stroke-width="8.33"/><path d="M4134.64,492.94c-2.12,20.1-31.74,94.16-91,134.37" fill="none" stroke="#000" stroke-linecap="round" stroke-linejoin="round" stroke-width="8.33"/><path d="M4044.7,564.88s-14.81,38.09-43.38,61.37" fill="none" stroke="#000" stroke-linecap="round" stroke-linejoin="round" stroke-width="8.33"/><path d="M4254.68,1240.6c131.89-34.71,187.43-318.16,187.43-318.16-28.93-44-87.93-41.65-87.93-41.65s-87.48,154.1-125.7,186c-10.42,8.67-3,23.43,6.5,23.86s16.06-11.28,13.31-21.55c-17.7-66.12-76.91-137.36-130.67-181-25.45-6.94-109.91-26.61-170.07-79.83,0,0-171.55,95-171.55,492.44" fill="none" stroke="#000" stroke-linecap="round" stroke-linejoin="round" stroke-width="8.33"/><path d="M4363.42,881.09s12-91.12,33.28-125.72,56.83-64,72.2-75.56,26.24,4.51,18.77,17.9-40,45.42-47.39,58.21c15.19-2.07,20.95,4.43,22.82,15.44,17.35,1.79,23,8.85,22,19.29,15.75,3.82,20,8.83,19.06,22.21s-5.91,49.35-20.78,49.48a9.45,9.45,0,0,1-9.72-7.31,43.36,43.36,0,0,1-36.2,25.19l-6.88,28.39" fill="none" stroke="#000" stroke-linecap="round" stroke-linejoin="round" stroke-width="8.33"/><line x1="4473.68" y1="855.03" x2="4477.05" y2="838.59" fill="none" stroke="#000" stroke-linecap="round" stroke-linejoin="round" stroke-width="8.33"/><line x1="4440.28" y1="755.92" x2="4430.26" y2="758.71" fill="none" stroke="#000" stroke-linecap="round" stroke-linejoin="round" stroke-width="8.33"/><path d="M4214.19,1241.47c-20-2.6-85.9-56.4-100.65-103.26" fill="none" stroke="#000" stroke-linecap="round" stroke-linejoin="round" stroke-width="8.33"/><path d="M4158.66,1165.11s-6.25,69.6-21,135.55" fill="none" stroke="#000" stroke-linecap="round" stroke-linejoin="round" stroke-width="8.33"/><path d="M4865.54,1303l-33.54-74s-63.63,1.73-95.16,8.39l12.15,63.34" fill="none" stroke="#000" stroke-linecap="round" stroke-linejoin="round" stroke-width="8.33"/><path d="M4814.93,1229.49l-7-28.15s47-6.33,50-27.85c.65-4.56-6.2-13-15.34-7.83-4.43,2.54-19.9,6.2-33,2s-17.29-26.43-4.89-34.26,30.67-8.49,43.73-.66c6.44,3.87,17.62-3.59,13.05-12.07s-12.46-18.59-33-20.23c-16.32-1.31-31.22,3.91-31.22,3.91s-5.41-28.51,10.58-42.72" fill="none" stroke="#000" stroke-linecap="round" stroke-linejoin="round" stroke-width="8.33"/><path d="M4752,1233.83l-10.52-38.15s-21.53-24.27-27.73-64.93c-6.53-42.75.73-76.76,20-85.22" fill="none" stroke="#000" stroke-linecap="round" stroke-linejoin="round" stroke-width="8.33"/><path d="M4742.48,1120s-7.81-44.51,6.8-68.08c4.84-7.81,12.94-16.78,25.09-16.78" fill="none" stroke="#000" stroke-linecap="round" stroke-linejoin="round" stroke-width="8.33"/><path d="M4766.63,1113.12s-1.58-41.7,12-59.21c4.57-5.87,13.7-12.07,21.54-11.74" fill="none" stroke="#000" stroke-linecap="round" stroke-linejoin="round" stroke-width="8.33"/><rect x="3841.03" y="194.72" width="276.51" height="180.48" fill="none" stroke="#000" stroke-linecap="round" stroke-linejoin="round" stroke-width="8.33"/><rect x="4226.29" y="194.72" width="276.51" height="180.48" fill="#e6e6e6" style="mix-blend-mode:multiply"/><line x1="3841.03" y1="194.72" x2="4117.53" y2="375.2" fill="none" stroke="#000" stroke-linecap="round" stroke-linejoin="round" stroke-width="8.33"/><line x1="3841.03" y1="375.2" x2="4117.53" y2="194.72" fill="none" stroke="#000" stroke-linecap="round" stroke-linejoin="round" stroke-width="8.33"/><path d="M4395.05,194.72c-27.33,9-29.93,78-5.64,95.45,0,0-17.93,11-25.45,28.34s-5.2,56.69-5.2,56.69" fill="none" stroke="#000" stroke-linecap="round" stroke-linejoin="round" stroke-width="8.33"/><path d="M4447.12,194.72c27.33,9,29.93,78,5.64,95.45,0,0,17.93,11,25.45,28.34s5.21,56.69,5.21,56.69" fill="none" stroke="#000" stroke-linecap="round" stroke-linejoin="round" stroke-width="8.33"/><polyline points="4415.88 240.13 4415.88 256.62 4422.39 257.05" fill="none" stroke="#000" stroke-linecap="round" stroke-linejoin="round" stroke-width="8.33"/><polyline points="5221.02 130.58 5221.02 596.07 4618.83 596.07 4618.83 130.58" fill="none" stroke="#000" stroke-linecap="round" stroke-linejoin="round" stroke-width="8.33"/><rect x="4751.3" y="190.56" width="264.94" height="180.48" fill="none" stroke="#000" stroke-linecap="round" stroke-linejoin="round" stroke-width="8.33"/><path d="M4708.78,475.16C4692,455.58,4691,423.47,4696,399.55c9.68-46.56,49.79-85.1,94.47-98.87,46-14.18,102.61,2.64,121.05,50.65,7,18.31,6,38.4-1.61,56.35-15,35.43-53.25,52.07-87.75,62.54-26.24,8-54,9.79-81.22,6.68" fill="none" stroke="#bdeff4" stroke-linecap="round" stroke-linejoin="round" stroke-width="8.33"/><polyline points="4641.1 477.77 4685.36 475.17 4676.68 513.34" fill="none" stroke="#bdeff4" stroke-linecap="round" stroke-linejoin="round" stroke-width="8.33"/><path d="M4685.36,475.16s-115.7,87.93-174.7,180.49" fill="none" stroke="#bdeff4" stroke-linecap="round" stroke-linejoin="round" stroke-width="8.33"/><rect x="4689.98" y="672.42" width="117.14" height="117.14" fill="#bdeff4" style="mix-blend-mode:multiply"/><rect x="4689.98" y="858.92" width="117.14" height="117.14" fill="#b8d5ff" style="mix-blend-mode:multiply"/><line x1="4753.01" y1="410.5" x2="5039.21" y2="410.5" fill="none" stroke="#000" stroke-linecap="round" stroke-linejoin="round" stroke-width="8.33" stroke-dasharray="8.33 33.31"/><line x1="4848.48" y1="483.26" x2="5039.21" y2="483.26" fill="none" stroke="#000" stroke-linecap="round" stroke-linejoin="round" stroke-width="8.33" stroke-dasharray="8.33 33.31"/><line x1="4848.48" y1="520.29" x2="5039.21" y2="520.29" fill="none" stroke="#000" stroke-linecap="round" stroke-linejoin="round" stroke-width="8.33" stroke-dasharray="8.33 33.31"/><line x1="4376.74" y1="414.66" x2="4507.64" y2="414.66" fill="none" stroke="#000" stroke-linecap="round" stroke-linejoin="round" stroke-width="8.33" stroke-dasharray="8.33 33.31"/><line x1="4376.74" y1="463.13" x2="4507.64" y2="463.13" fill="none" stroke="#000" stroke-linecap="round" stroke-linejoin="round" stroke-width="8.33" stroke-dasharray="8.33 33.31"/><line x1="4445.07" y1="1203.94" x2="4592.8" y2="1203.94" fill="none" stroke="#000" stroke-linecap="round" stroke-linejoin="round" stroke-width="8.33" stroke-dasharray="8.33 33.31"/><line x1="4445.07" y1="1252.63" x2="4592.8" y2="1252.63" fill="none" stroke="#000" stroke-linecap="round" stroke-linejoin="round" stroke-width="8.33" stroke-dasharray="8.33 33.31"/><line x1="4445.07" y1="1301.32" x2="4592.8" y2="1301.32" fill="none" stroke="#000" stroke-linecap="round" stroke-linejoin="round" stroke-width="8.33" stroke-dasharray="8.33 33.31"/><rect x="1997.36" y="130.58" width="1528.18" height="1170.07" fill="none"/><polyline points="2432.02 568.59 2820.24 568.59 2820.24 1033.68 2122.61 1033.68 2122.61 568.59 2154.36 568.59" fill="none" stroke="#000" stroke-linecap="round" stroke-linejoin="round" stroke-width="8.33"/><polygon points="2638.2 1123.06 2304.66 1123.06 2315.59 1080.53 2627.26 1080.53 2638.2 1123.06" fill="none" stroke="#000" stroke-linecap="round" stroke-linejoin="round" stroke-width="8.33"/><rect x="2166.78" y="598.04" width="609.29" height="406.19" fill="none" stroke="#000" stroke-linecap="round" stroke-linejoin="round" stroke-width="8.33"/><line x1="2386.39" y1="1033.68" x2="2386.39" y2="1080.53" fill="none" stroke="#000" stroke-linecap="round" stroke-linejoin="round" stroke-width="8.33"/><line x1="2558.2" y1="1033.68" x2="2558.2" y2="1080.53" fill="none" stroke="#000" stroke-linecap="round" stroke-linejoin="round" stroke-width="8.33"/><g style="mix-blend-mode:multiply"><rect x="2376.49" y="730.55" width="187.42" height="236.32" fill="#e6e6e6"/></g><rect x="2937.02" y="131.45" width="374.85" height="295.02" fill="none" stroke="#000" stroke-linecap="round" stroke-linejoin="round" stroke-width="8.33"/><path d="M3287.57,423c0-83.3-53.79-120.61-53.79-120.61,34.7-32.11,39-86.08,22.56-114.72s-66-48.59-103.26-19.95c-43.72,33.55-30.37,112.11-1.74,132.06,0,0-46.85,42.52-48.59,98.05" fill="none" stroke="#000" stroke-linecap="round" stroke-linejoin="round" stroke-width="8.33"/><polyline points="3178.24 208.67 3178.24 248.59 3190.39 248.59" fill="none" stroke="#000" stroke-linecap="round" stroke-linejoin="round" stroke-width="8.33"/><g style="mix-blend-mode:multiply"><circle cx="2286.7" cy="355.2" r="192.18" fill="none" stroke="#b8d5ff" stroke-miterlimit="10" stroke-width="8.33"/><circle cx="2286.7" cy="355.2" r="220.52" fill="none" stroke="#b8d5ff" stroke-miterlimit="10" stroke-width="8.33"/></g><path d="M2384.43,369.24c0,10.86,5.21,19.66,16.13,19.66s16.14-8.8,16.14-19.66c0-24.67-32.27-13-32.27-38.31,0-10.86,5.21-19.66,16.13-19.66s16.14,8.8,16.14,19.66" fill="none" stroke="#b8d5ff" stroke-linecap="round" stroke-linejoin="round" stroke-width="9"/><path d="M2191.94,330.47c0-10.86-5.21-19.66-16.13-19.66s-16.13,8.8-16.13,19.66v38.77c0,10.86,5.21,19.66,16.13,19.66s16.13-8.8,16.13-19.66" fill="none" stroke="#b8d5ff" stroke-linecap="round" stroke-linejoin="round" stroke-width="9"/><polyline points="2263.57 388.9 2263.57 311.27 2288.19 348.78 2312.8 311.27 2312.8 388.9" fill="none" stroke="#b8d5ff" stroke-linecap="round" stroke-linejoin="round" stroke-width="9"/><line x1="2955.32" y1="1088.39" x2="3098.42" y2="1088.39" fill="none" stroke="#000" stroke-linecap="round" stroke-linejoin="round" stroke-width="8.33" stroke-dasharray="8.33 33.31"/><line x1="2955.32" y1="1125.51" x2="3098.42" y2="1125.51" fill="none" stroke="#000" stroke-linecap="round" stroke-linejoin="round" stroke-width="8.33" stroke-dasharray="8.33 33.31"/><line x1="2955.32" y1="1174.2" x2="3098.42" y2="1174.2" fill="none" stroke="#000" stroke-linecap="round" stroke-linejoin="round" stroke-width="8.33" stroke-dasharray="8.33 33.31"/><line x1="2955.32" y1="1222.89" x2="3098.42" y2="1222.89" fill="none" stroke="#000" stroke-linecap="round" stroke-linejoin="round" stroke-width="8.33" stroke-dasharray="8.33 33.31"/><rect x="2419.01" y="808.41" width="107.76" height="26.03" fill="none" stroke="#000" stroke-linecap="round" stroke-linejoin="round" stroke-width="7.08"/><rect x="2419.01" y="858.4" width="107.76" height="26.03" fill="none" stroke="#000" stroke-linecap="round" stroke-linejoin="round" stroke-width="7.08"/><rect x="2419.01" y="908.39" width="107.76" height="26.03" fill="none" stroke="#000" stroke-linecap="round" stroke-linejoin="round" stroke-width="7.08"/><rect x="2914.46" y="1015.7" width="211.72" height="284.61" fill="none" stroke="#000" stroke-linecap="round" stroke-linejoin="round" stroke-width="8.33"/><rect x="3190.6" y="349.3" width="211.72" height="284.61" fill="#bdeff4" style="mix-blend-mode:multiply"/><rect x="3313.45" y="520.52" width="211.72" height="284.61" fill="#b8d5ff" style="mix-blend-mode:multiply"/><rect x="3221.63" y="898.22" width="211.72" height="284.61" fill="none" stroke="#000" stroke-linecap="round" stroke-linejoin="round" stroke-width="8.33"/><path d="M3372.83,1071v-59.8s24.94-2,24.94,17.18c0,7.89-5.78,13.25-12.23,15" fill="none" stroke="#000" stroke-linecap="round" stroke-linejoin="round" stroke-width="8.33"/><path d="M3264.94,1071v-59.8s24.95-2,24.95,17.18c0,7.89-5.79,13.25-12.24,15" fill="none" stroke="#000" stroke-linecap="round" stroke-linejoin="round" stroke-width="8.33"/><line x1="3315.91" y1="1009.16" x2="3315.91" y2="1071.04" fill="none" stroke="#000" stroke-linecap="round" stroke-linejoin="round" stroke-width="8.33"/><line x1="3341.5" y1="1009.16" x2="3341.5" y2="1071.04" fill="none" stroke="#000" stroke-linecap="round" stroke-linejoin="round" stroke-width="8.33"/><line x1="3315.91" y1="1044.51" x2="3341.5" y2="1044.51" fill="none" stroke="#000" stroke-linecap="round" stroke-linejoin="round" stroke-width="8.33"/><path d="M2987.16,295.21l-1.53-57c-107,6-267.65,154.24-288.19,225.42L2668.92,454l39.49,58.48,65.32-22.78L2746,480.19C2764.83,426.09,2895.78,314.88,2987.16,295.21Z" fill="#bdeff4" style="mix-blend-mode:multiply"/><path d="M3248.39,961.58l51.9-23.57c-47.2-96.21-246.21-186.57-319.78-177.8l-2.15-30.06-38.51,59.13,46.4,51.31-2.09-29.24C3041.34,807.67,3194.73,885.05,3248.39,961.58Z" fill="#b8d5ff" style="mix-blend-mode:multiply"/><path d="M2932.21,1119.12c-82.43-38.28-172.6-117.82-188.66-161.33l27.58-10-65.73-21.58L2667,985.45l28.34-10.24c18.21,59,134.79,169.72,235.12,207.28Z" fill="#bdeff4" style="mix-blend-mode:multiply"/><line x1="2310.13" y1="1101.8" x2="1997.36" y2="1101.8" fill="none" stroke="#000" stroke-linecap="round" stroke-linejoin="round" stroke-width="8.33"/><line x1="2744.39" y1="1101.8" x2="2634.98" y2="1101.8" fill="none" stroke="#000" stroke-linecap="round" stroke-linejoin="round" stroke-width="8.33"/><rect x="221.88" y="130.58" width="1528.18" height="1170.07" fill="none"/><rect x="1164.33" y="414.73" width="585.73" height="441.88" fill="#bdeff4" style="mix-blend-mode:multiply"/><rect x="1002.23" y="130.58" width="585.73" height="441.88" fill="#b8d5ff" style="mix-blend-mode:multiply"/><polyline points="278.27 1300.65 278.27 374.28 924.94 374.28 924.94 1300.65" fill="none" stroke="#000" stroke-linecap="round" stroke-linejoin="round" stroke-width="8.33"/><rect x="337.45" y="508.71" width="525.7" height="193.43" fill="#e6e6e6"/><line x1="337.45" y1="741.35" x2="571.88" y2="741.35" fill="none" stroke="#000" stroke-linecap="round" stroke-linejoin="round" stroke-width="8.33" stroke-dasharray="8.84 35.36"/><line x1="337.45" y1="780.74" x2="571.88" y2="780.74" fill="none" stroke="#000" stroke-linecap="round" stroke-linejoin="round" stroke-width="8.33" stroke-dasharray="8.84 35.36"/><line x1="398.4" y1="1133.43" x2="632.83" y2="1133.43" fill="none" stroke="#000" stroke-linecap="round" stroke-linejoin="round" stroke-width="8.33" stroke-dasharray="8.84 35.36"/><line x1="398.4" y1="1172.82" x2="632.83" y2="1172.82" fill="none" stroke="#000" stroke-linecap="round" stroke-linejoin="round" stroke-width="8.33" stroke-dasharray="8.84 35.36"/><path d="M811.16,730.22c0-76.52-49.42-110.79-49.42-110.79,31.88-29.49,35.87-79.07,20.72-105.38s-60.58-44.63-94.85-18.33c-40.16,30.82-27.9,103-1.6,121.32,0,0-43,39.05-44.63,90.07" fill="none" stroke="#000" stroke-linecap="round" stroke-linejoin="round" stroke-width="7.5"/><polyline points="710.72 533.34 710.72 570.01 721.88 570.01" fill="none" stroke="#000" stroke-linecap="round" stroke-linejoin="round" stroke-width="7.5"/><rect x="715.26" y="826.97" width="108.68" height="92.14" fill="#ccc"/><rect x="715.26" y="951.68" width="108.68" height="92.14" fill="#bdeff4" style="mix-blend-mode:multiply"/><rect x="715.26" y="1076.39" width="108.68" height="92.14" fill="#e6e6e6"/><rect x="994.17" y="960.36" width="691.53" height="280.65" fill="#e6e6e6"/><rect x="1038.33" y="1039.41" width="603.21" height="124.88" fill="none" stroke="#000" stroke-linecap="round" stroke-linejoin="round" stroke-width="8.33"/><rect x="1038.33" y="1002.39" width="603.21" height="37.02" fill="none" stroke="#000" stroke-linecap="round" stroke-linejoin="round" stroke-width="8.33"/><rect x="1158.24" y="1164.29" width="259.15" height="36.86" fill="none" stroke="#000" stroke-linecap="round" stroke-linejoin="round" stroke-width="8.33"/><rect x="1417.39" y="1164.29" width="56.04" height="36.86" fill="none" stroke="#000" stroke-linecap="round" stroke-linejoin="round" stroke-width="8.33"/><rect x="1098.28" y="1164.29" width="59.95" height="36.86" fill="none" stroke="#000" stroke-linecap="round" stroke-linejoin="round" stroke-width="8.33"/><rect x="1038.33" y="1164.29" width="59.96" height="36.86" fill="none" stroke="#000" stroke-linecap="round" stroke-linejoin="round" stroke-width="8.33"/><rect x="1473.43" y="1164.29" width="56.04" height="36.86" fill="none" stroke="#000" stroke-linecap="round" stroke-linejoin="round" stroke-width="8.33"/><rect x="1529.47" y="1164.29" width="56.04" height="36.86" fill="none" stroke="#000" stroke-linecap="round" stroke-linejoin="round" stroke-width="8.33"/><rect x="1585.5" y="1164.29" width="56.04" height="36.86" fill="none" stroke="#000" stroke-linecap="round" stroke-linejoin="round" stroke-width="8.33"/><line x1="1084.73" y1="1039.41" x2="1084.73" y2="1002.39" fill="none" stroke="#000" stroke-linecap="round" stroke-linejoin="round" stroke-width="8.33"/><line x1="1131.13" y1="1039.41" x2="1131.13" y2="1002.39" fill="none" stroke="#000" stroke-linecap="round" stroke-linejoin="round" stroke-width="8.33"/><line x1="1120.98" y1="1078.74" x2="1120.98" y2="1041.72" fill="none" stroke="#000" stroke-linecap="round" stroke-linejoin="round" stroke-width="8.33"/><line x1="1170.73" y1="1078.74" x2="1170.73" y2="1041.72" fill="none" stroke="#000" stroke-linecap="round" stroke-linejoin="round" stroke-width="8.33"/><line x1="1220.48" y1="1078.74" x2="1220.48" y2="1041.72" fill="none" stroke="#000" stroke-linecap="round" stroke-linejoin="round" stroke-width="8.33"/><line x1="1270.23" y1="1078.74" x2="1270.23" y2="1041.72" fill="none" stroke="#000" stroke-linecap="round" stroke-linejoin="round" stroke-width="8.33"/><line x1="1319.98" y1="1078.74" x2="1319.98" y2="1041.72" fill="none" stroke="#000" stroke-linecap="round" stroke-linejoin="round" stroke-width="8.33"/><line x1="1369.72" y1="1078.74" x2="1369.72" y2="1041.72" fill="none" stroke="#000" stroke-linecap="round" stroke-linejoin="round" stroke-width="8.33"/><line x1="1419.47" y1="1078.74" x2="1419.47" y2="1041.72" fill="none" stroke="#000" stroke-linecap="round" stroke-linejoin="round" stroke-width="8.33"/><line x1="1469.22" y1="1078.74" x2="1469.22" y2="1041.72" fill="none" stroke="#000" stroke-linecap="round" stroke-linejoin="round" stroke-width="8.33"/><line x1="1518.97" y1="1078.74" x2="1518.97" y2="1041.72" fill="none" stroke="#000" stroke-linecap="round" stroke-linejoin="round" stroke-width="8.33"/><line x1="1568.72" y1="1078.74" x2="1568.72" y2="1041.72" fill="none" stroke="#000" stroke-linecap="round" stroke-linejoin="round" stroke-width="8.33"/><line x1="1096.11" y1="1120.36" x2="1096.11" y2="1083.34" fill="none" stroke="#000" stroke-linecap="round" stroke-linejoin="round" stroke-width="8.33"/><line x1="1145.86" y1="1120.36" x2="1145.86" y2="1083.34" fill="none" stroke="#000" stroke-linecap="round" stroke-linejoin="round" stroke-width="8.33"/><line x1="1195.6" y1="1120.36" x2="1195.6" y2="1083.34" fill="none" stroke="#000" stroke-linecap="round" stroke-linejoin="round" stroke-width="8.33"/><line x1="1245.35" y1="1120.36" x2="1245.35" y2="1083.34" fill="none" stroke="#000" stroke-linecap="round" stroke-linejoin="round" stroke-width="8.33"/><line x1="1295.1" y1="1120.36" x2="1295.1" y2="1083.34" fill="none" stroke="#000" stroke-linecap="round" stroke-linejoin="round" stroke-width="8.33"/><line x1="1344.85" y1="1120.36" x2="1344.85" y2="1083.34" fill="none" stroke="#000" stroke-linecap="round" stroke-linejoin="round" stroke-width="8.33"/><line x1="1394.6" y1="1120.36" x2="1394.6" y2="1083.34" fill="none" stroke="#000" stroke-linecap="round" stroke-linejoin="round" stroke-width="8.33"/><line x1="1444.35" y1="1120.36" x2="1444.35" y2="1083.34" fill="none" stroke="#000" stroke-linecap="round" stroke-linejoin="round" stroke-width="8.33"/><line x1="1494.09" y1="1120.36" x2="1494.09" y2="1083.34" fill="none" stroke="#000" stroke-linecap="round" stroke-linejoin="round" stroke-width="8.33"/><line x1="1543.84" y1="1120.36" x2="1543.84" y2="1083.34" fill="none" stroke="#000" stroke-linecap="round" stroke-linejoin="round" stroke-width="8.33"/><line x1="1124.39" y1="1161.99" x2="1124.39" y2="1124.97" fill="none" stroke="#000" stroke-linecap="round" stroke-linejoin="round" stroke-width="8.33"/><line x1="1174.14" y1="1161.99" x2="1174.14" y2="1124.97" fill="none" stroke="#000" stroke-linecap="round" stroke-linejoin="round" stroke-width="8.33"/><line x1="1223.89" y1="1161.99" x2="1223.89" y2="1124.97" fill="none" stroke="#000" stroke-linecap="round" stroke-linejoin="round" stroke-width="8.33"/><line x1="1273.64" y1="1161.99" x2="1273.64" y2="1124.97" fill="none" stroke="#000" stroke-linecap="round" stroke-linejoin="round" stroke-width="8.33"/><line x1="1323.39" y1="1161.99" x2="1323.39" y2="1124.97" fill="none" stroke="#000" stroke-linecap="round" stroke-linejoin="round" stroke-width="8.33"/><line x1="1373.14" y1="1161.99" x2="1373.14" y2="1124.97" fill="none" stroke="#000" stroke-linecap="round" stroke-linejoin="round" stroke-width="8.33"/><line x1="1422.88" y1="1161.99" x2="1422.88" y2="1124.97" fill="none" stroke="#000" stroke-linecap="round" stroke-linejoin="round" stroke-width="8.33"/><line x1="1472.63" y1="1161.99" x2="1472.63" y2="1124.97" fill="none" stroke="#000" stroke-linecap="round" stroke-linejoin="round" stroke-width="8.33"/><line x1="1522.38" y1="1161.99" x2="1522.38" y2="1124.97" fill="none" stroke="#000" stroke-linecap="round" stroke-linejoin="round" stroke-width="8.33"/><line x1="1572.13" y1="1161.99" x2="1572.13" y2="1124.97" fill="none" stroke="#000" stroke-linecap="round" stroke-linejoin="round" stroke-width="8.33"/><line x1="1177.53" y1="1039.41" x2="1177.53" y2="1002.39" fill="none" stroke="#000" stroke-linecap="round" stroke-linejoin="round" stroke-width="8.33"/><line x1="1223.93" y1="1039.41" x2="1223.93" y2="1002.39" fill="none" stroke="#000" stroke-linecap="round" stroke-linejoin="round" stroke-width="8.33"/><line x1="1270.33" y1="1039.41" x2="1270.33" y2="1002.39" fill="none" stroke="#000" stroke-linecap="round" stroke-linejoin="round" stroke-width="8.33"/><line x1="1316.73" y1="1039.41" x2="1316.73" y2="1002.39" fill="none" stroke="#000" stroke-linecap="round" stroke-linejoin="round" stroke-width="8.33"/><line x1="1363.13" y1="1039.41" x2="1363.13" y2="1002.39" fill="none" stroke="#000" stroke-linecap="round" stroke-linejoin="round" stroke-width="8.33"/><line x1="1409.53" y1="1039.41" x2="1409.53" y2="1002.39" fill="none" stroke="#000" stroke-linecap="round" stroke-linejoin="round" stroke-width="8.33"/><line x1="1455.94" y1="1039.41" x2="1455.94" y2="1002.39" fill="none" stroke="#000" stroke-linecap="round" stroke-linejoin="round" stroke-width="8.33"/><line x1="1502.34" y1="1039.41" x2="1502.34" y2="1002.39" fill="none" stroke="#000" stroke-linecap="round" stroke-linejoin="round" stroke-width="8.33"/><line x1="1548.74" y1="1039.41" x2="1548.74" y2="1002.39" fill="none" stroke="#000" stroke-linecap="round" stroke-linejoin="round" stroke-width="8.33"/><line x1="1595.14" y1="1039.41" x2="1595.14" y2="1002.39" fill="none" stroke="#000" stroke-linecap="round" stroke-linejoin="round" stroke-width="8.33"/><line x1="1038.33" y1="1081.04" x2="1641.54" y2="1081.04" fill="none" stroke="#000" stroke-linecap="round" stroke-linejoin="round" stroke-width="8.33"/><line x1="1038.33" y1="1122.67" x2="1641.54" y2="1122.67" fill="none" stroke="#000" stroke-linecap="round" stroke-linejoin="round" stroke-width="8.33"/><polyline points="1297.77 372.23 1297.77 304.4 1319.63 336.39 1341.49 304.4 1341.49 372.23" fill="none" stroke="#000" stroke-linecap="round" stroke-linejoin="round" stroke-width="8.33"/><polyline points="1373.73 302.89 1373.73 372.23 1399.8 372.23" fill="none" stroke="#000" stroke-linecap="round" stroke-linejoin="round" stroke-width="8.33"/><line x1="1166.13" y1="302.89" x2="1166.13" y2="372.23" fill="none" stroke="#000" stroke-linecap="round" stroke-linejoin="round" stroke-width="8.33"/><line x1="1194.8" y1="302.89" x2="1194.8" y2="372.23" fill="none" stroke="#000" stroke-linecap="round" stroke-linejoin="round" stroke-width="8.33"/><line x1="1166.13" y1="342.49" x2="1194.8" y2="342.49" fill="none" stroke="#000" stroke-linecap="round" stroke-linejoin="round" stroke-width="8.33"/><line x1="1244.82" y1="305.22" x2="1244.82" y2="372.23" fill="none" stroke="#000" stroke-linecap="round" stroke-linejoin="round" stroke-width="8.33"/><line x1="1230.33" y1="304.4" x2="1259.35" y2="304.4" fill="none" stroke="#000" stroke-linecap="round" stroke-linejoin="round" stroke-width="8.33"/><polyline points="1133.26 297.57 1115.95 335.31 1133.26 372.23" fill="none" stroke="#231814" stroke-linecap="round" stroke-linejoin="round" stroke-width="8.33"/><polyline points="1431.02 302.49 1447.19 337.74 1431.02 372.23" fill="none" stroke="#231814" stroke-linecap="round" stroke-linejoin="round" stroke-width="7.78"/><path d="M1437.27,663.78c0,9.69,4.63,17.55,14.33,17.55s14.33-7.86,14.33-17.55c0-22-28.66-9.5-28.66-32.14,0-9.7,4.63-17.56,14.33-17.56s14.33,7.86,14.33,17.56" fill="none" stroke="#000" stroke-linecap="round" stroke-linejoin="round" stroke-width="8.33"/><path d="M1497.39,663.78c0,9.69,4.63,17.55,14.32,17.55s14.33-7.86,14.33-17.55c0-22-28.65-9.5-28.65-32.14,0-9.7,4.63-17.56,14.32-17.56s14.33,7.86,14.33,17.56" fill="none" stroke="#000" stroke-linecap="round" stroke-linejoin="round" stroke-width="8.33"/><path d="M1406.9,629.14c0-9.7-4.63-17.56-14.33-17.56s-14.32,7.86-14.32,17.56v34.64c0,9.69,4.63,17.55,14.32,17.55s14.33-7.86,14.33-17.55" fill="none" stroke="#000" stroke-linecap="round" stroke-linejoin="round" stroke-width="8.33"/><line x1="1350.13" y1="674.93" x2="1350.13" y2="681.33" fill="none" stroke="#231814" stroke-linecap="round" stroke-linejoin="round" stroke-width="8.33"/><path d="M1579.66,612.91c-5.94,0-10.26,6.29-10.26,13.32v12.16c0,7.16-3.79,9.39-6.49,9.39,2.7,0,6.49,2.24,6.49,9.4v12.16c0,7,4.32,13.32,10.26,13.32" fill="none" stroke="#231814" stroke-linecap="round" stroke-linejoin="round" stroke-width="7.78"/><rect x="5548.31" y="130.58" width="1528.18" height="1170.07" fill="none"/><rect x="5756.94" y="293.98" width="858.12" height="572.08" fill="none" stroke="#000" stroke-linecap="round" stroke-linejoin="round" stroke-width="8.33"/><polygon points="6391.13 976 5980.87 976 5994.31 923.69 6377.69 923.69 6391.13 976" fill="none" stroke="#000" stroke-linecap="round" stroke-linejoin="round" stroke-width="8.33"/><rect x="5811.27" y="330.2" width="749.45" height="499.63" fill="none" stroke="#000" stroke-linecap="round" stroke-linejoin="round" stroke-width="8.33"/><line x1="6081.4" y1="866.06" x2="6081.4" y2="923.69" fill="none" stroke="#000" stroke-linecap="round" stroke-linejoin="round" stroke-width="8.33"/><line x1="6287.61" y1="866.06" x2="6287.61" y2="923.69" fill="none" stroke="#000" stroke-linecap="round" stroke-linejoin="round" stroke-width="8.33"/><rect x="5879.86" y="452.22" width="609.25" height="224.17" fill="#e6e6e6"/><line x1="5879.86" y1="721.83" x2="6151.55" y2="721.83" fill="none" stroke="#000" stroke-linecap="round" stroke-linejoin="round" stroke-width="8.33" stroke-dasharray="10.24 40.97"/><line x1="5879.86" y1="767.48" x2="6151.55" y2="767.48" fill="none" stroke="#000" stroke-linecap="round" stroke-linejoin="round" stroke-width="8.33" stroke-dasharray="10.24 40.97"/><path d="M6421.61,701c0-83.3-53.8-120.61-53.8-120.61,34.71-32.11,39-86.08,22.56-114.72s-65.94-48.59-103.25-19.95c-43.72,33.55-30.37,112.11-1.74,132.06,0,0-46.85,42.52-48.59,98.05" fill="none" stroke="#000" stroke-linecap="round" stroke-linejoin="round" stroke-width="7.5"/><polyline points="6312.28 486.67 6312.28 526.59 6324.43 526.59" fill="none" stroke="#000" stroke-linecap="round" stroke-linejoin="round" stroke-width="7.5"/><rect x="6670.65" y="293.98" width="229.07" height="395.67" fill="none" stroke="#000" stroke-linecap="round" stroke-linejoin="round" stroke-width="8.33"/><rect x="6751.08" y="422.3" width="126.22" height="182.25" fill="#e6e6e6"/><rect x="6694.4" y="320.25" width="181.58" height="313.64" fill="none" stroke="#000" stroke-linecap="round" stroke-linejoin="round" stroke-width="8.33"/><rect x="5839.15" y="1018.59" width="691.53" height="280.65" fill="#e6e6e6"/><rect x="5883.31" y="1097.64" width="603.21" height="124.88" fill="none" stroke="#000" stroke-linecap="round" stroke-linejoin="round" stroke-width="8.33"/><rect x="5883.31" y="1060.62" width="603.21" height="37.02" fill="none" stroke="#000" stroke-linecap="round" stroke-linejoin="round" stroke-width="8.33"/><rect x="6003.22" y="1222.52" width="259.15" height="36.86" fill="none" stroke="#000" stroke-linecap="round" stroke-linejoin="round" stroke-width="8.33"/><rect x="6262.37" y="1222.52" width="56.04" height="36.86" fill="none" stroke="#000" stroke-linecap="round" stroke-linejoin="round" stroke-width="8.33"/><rect x="5943.27" y="1222.52" width="59.95" height="36.86" fill="none" stroke="#000" stroke-linecap="round" stroke-linejoin="round" stroke-width="8.33"/><rect x="5883.31" y="1222.52" width="59.96" height="36.86" fill="none" stroke="#000" stroke-linecap="round" stroke-linejoin="round" stroke-width="8.33"/><rect x="6318.41" y="1222.52" width="56.04" height="36.86" fill="none" stroke="#000" stroke-linecap="round" stroke-linejoin="round" stroke-width="8.33"/><rect x="6374.45" y="1222.52" width="56.04" height="36.86" fill="none" stroke="#000" stroke-linecap="round" stroke-linejoin="round" stroke-width="8.33"/><rect x="6430.48" y="1222.52" width="56.04" height="36.86" fill="none" stroke="#000" stroke-linecap="round" stroke-linejoin="round" stroke-width="8.33"/><line x1="5929.71" y1="1097.64" x2="5929.71" y2="1060.62" fill="none" stroke="#000" stroke-linecap="round" stroke-linejoin="round" stroke-width="8.33"/><line x1="5976.11" y1="1097.64" x2="5976.11" y2="1060.62" fill="none" stroke="#000" stroke-linecap="round" stroke-linejoin="round" stroke-width="8.33"/><line x1="5965.96" y1="1136.97" x2="5965.96" y2="1099.95" fill="none" stroke="#000" stroke-linecap="round" stroke-linejoin="round" stroke-width="8.33"/><line x1="6015.71" y1="1136.97" x2="6015.71" y2="1099.95" fill="none" stroke="#000" stroke-linecap="round" stroke-linejoin="round" stroke-width="8.33"/><line x1="6065.46" y1="1136.97" x2="6065.46" y2="1099.95" fill="none" stroke="#000" stroke-linecap="round" stroke-linejoin="round" stroke-width="8.33"/><line x1="6115.21" y1="1136.97" x2="6115.21" y2="1099.95" fill="none" stroke="#000" stroke-linecap="round" stroke-linejoin="round" stroke-width="8.33"/><line x1="6164.96" y1="1136.97" x2="6164.96" y2="1099.95" fill="none" stroke="#000" stroke-linecap="round" stroke-linejoin="round" stroke-width="8.33"/><line x1="6214.71" y1="1136.97" x2="6214.71" y2="1099.95" fill="none" stroke="#000" stroke-linecap="round" stroke-linejoin="round" stroke-width="8.33"/><line x1="6264.45" y1="1136.97" x2="6264.45" y2="1099.95" fill="none" stroke="#000" stroke-linecap="round" stroke-linejoin="round" stroke-width="8.33"/><line x1="6314.2" y1="1136.97" x2="6314.2" y2="1099.95" fill="none" stroke="#000" stroke-linecap="round" stroke-linejoin="round" stroke-width="8.33"/><line x1="6363.95" y1="1136.97" x2="6363.95" y2="1099.95" fill="none" stroke="#000" stroke-linecap="round" stroke-linejoin="round" stroke-width="8.33"/><line x1="6413.7" y1="1136.97" x2="6413.7" y2="1099.95" fill="none" stroke="#000" stroke-linecap="round" stroke-linejoin="round" stroke-width="8.33"/><line x1="5941.09" y1="1178.59" x2="5941.09" y2="1141.57" fill="none" stroke="#000" stroke-linecap="round" stroke-linejoin="round" stroke-width="8.33"/><line x1="5990.84" y1="1178.59" x2="5990.84" y2="1141.57" fill="none" stroke="#000" stroke-linecap="round" stroke-linejoin="round" stroke-width="8.33"/><line x1="6040.59" y1="1178.59" x2="6040.59" y2="1141.57" fill="none" stroke="#000" stroke-linecap="round" stroke-linejoin="round" stroke-width="8.33"/><line x1="6090.33" y1="1178.59" x2="6090.33" y2="1141.57" fill="none" stroke="#000" stroke-linecap="round" stroke-linejoin="round" stroke-width="8.33"/><line x1="6140.08" y1="1178.59" x2="6140.08" y2="1141.57" fill="none" stroke="#000" stroke-linecap="round" stroke-linejoin="round" stroke-width="8.33"/><line x1="6189.83" y1="1178.59" x2="6189.83" y2="1141.57" fill="none" stroke="#000" stroke-linecap="round" stroke-linejoin="round" stroke-width="8.33"/><line x1="6239.58" y1="1178.59" x2="6239.58" y2="1141.57" fill="none" stroke="#000" stroke-linecap="round" stroke-linejoin="round" stroke-width="8.33"/><line x1="6289.33" y1="1178.59" x2="6289.33" y2="1141.57" fill="none" stroke="#000" stroke-linecap="round" stroke-linejoin="round" stroke-width="8.33"/><line x1="6339.08" y1="1178.59" x2="6339.08" y2="1141.57" fill="none" stroke="#000" stroke-linecap="round" stroke-linejoin="round" stroke-width="8.33"/><line x1="6388.82" y1="1178.59" x2="6388.82" y2="1141.57" fill="none" stroke="#000" stroke-linecap="round" stroke-linejoin="round" stroke-width="8.33"/><line x1="5969.38" y1="1220.22" x2="5969.38" y2="1183.2" fill="none" stroke="#000" stroke-linecap="round" stroke-linejoin="round" stroke-width="8.33"/><line x1="6019.12" y1="1220.22" x2="6019.12" y2="1183.2" fill="none" stroke="#000" stroke-linecap="round" stroke-linejoin="round" stroke-width="8.33"/><line x1="6068.87" y1="1220.22" x2="6068.87" y2="1183.2" fill="none" stroke="#000" stroke-linecap="round" stroke-linejoin="round" stroke-width="8.33"/><line x1="6118.62" y1="1220.22" x2="6118.62" y2="1183.2" fill="none" stroke="#000" stroke-linecap="round" stroke-linejoin="round" stroke-width="8.33"/><line x1="6168.37" y1="1220.22" x2="6168.37" y2="1183.2" fill="none" stroke="#000" stroke-linecap="round" stroke-linejoin="round" stroke-width="8.33"/><line x1="6218.12" y1="1220.22" x2="6218.12" y2="1183.2" fill="none" stroke="#000" stroke-linecap="round" stroke-linejoin="round" stroke-width="8.33"/><line x1="6267.87" y1="1220.22" x2="6267.87" y2="1183.2" fill="none" stroke="#000" stroke-linecap="round" stroke-linejoin="round" stroke-width="8.33"/><line x1="6317.61" y1="1220.22" x2="6317.61" y2="1183.2" fill="none" stroke="#000" stroke-linecap="round" stroke-linejoin="round" stroke-width="8.33"/><line x1="6367.36" y1="1220.22" x2="6367.36" y2="1183.2" fill="none" stroke="#000" stroke-linecap="round" stroke-linejoin="round" stroke-width="8.33"/><line x1="6417.11" y1="1220.22" x2="6417.11" y2="1183.2" fill="none" stroke="#000" stroke-linecap="round" stroke-linejoin="round" stroke-width="8.33"/><line x1="6022.51" y1="1097.64" x2="6022.51" y2="1060.62" fill="none" stroke="#000" stroke-linecap="round" stroke-linejoin="round" stroke-width="8.33"/><line x1="6068.91" y1="1097.64" x2="6068.91" y2="1060.62" fill="none" stroke="#000" stroke-linecap="round" stroke-linejoin="round" stroke-width="8.33"/><line x1="6115.31" y1="1097.64" x2="6115.31" y2="1060.62" fill="none" stroke="#000" stroke-linecap="round" stroke-linejoin="round" stroke-width="8.33"/><line x1="6161.71" y1="1097.64" x2="6161.71" y2="1060.62" fill="none" stroke="#000" stroke-linecap="round" stroke-linejoin="round" stroke-width="8.33"/><line x1="6208.12" y1="1097.64" x2="6208.12" y2="1060.62" fill="none" stroke="#000" stroke-linecap="round" stroke-linejoin="round" stroke-width="8.33"/><line x1="6254.52" y1="1097.64" x2="6254.52" y2="1060.62" fill="none" stroke="#000" stroke-linecap="round" stroke-linejoin="round" stroke-width="8.33"/><line x1="6300.92" y1="1097.64" x2="6300.92" y2="1060.62" fill="none" stroke="#000" stroke-linecap="round" stroke-linejoin="round" stroke-width="8.33"/><line x1="6347.32" y1="1097.64" x2="6347.32" y2="1060.62" fill="none" stroke="#000" stroke-linecap="round" stroke-linejoin="round" stroke-width="8.33"/><line x1="6393.72" y1="1097.64" x2="6393.72" y2="1060.62" fill="none" stroke="#000" stroke-linecap="round" stroke-linejoin="round" stroke-width="8.33"/><line x1="6440.12" y1="1097.64" x2="6440.12" y2="1060.62" fill="none" stroke="#000" stroke-linecap="round" stroke-linejoin="round" stroke-width="8.33"/><line x1="5883.31" y1="1139.27" x2="6486.52" y2="1139.27" fill="none" stroke="#000" stroke-linecap="round" stroke-linejoin="round" stroke-width="8.33"/><line x1="5883.31" y1="1180.9" x2="6486.52" y2="1180.9" fill="none" stroke="#000" stroke-linecap="round" stroke-linejoin="round" stroke-width="8.33"/><path d="M5993.54,194.9s-39.91-16.49-39.91-56.4c0,39.91-40.78,56.4-40.78,56.4s40.78,16.48,40.78,56.4C5953.63,211.38,5993.54,194.9,5993.54,194.9Z" fill="none" stroke="#000" stroke-linecap="round" stroke-linejoin="round" stroke-width="8.33"/><path d="M7008.31,251.3s-39.91-16.49-39.91-56.4c0,39.91-40.78,56.4-40.78,56.4s40.78,16.48,40.78,56.4C6968.4,267.78,7008.31,251.3,7008.31,251.3Z" fill="none" stroke="#000" stroke-linecap="round" stroke-linejoin="round" stroke-width="8.33"/><path d="M6860.37,809.33s-39.92-16.48-39.92-56.4c0,39.92-40.78,56.4-40.78,56.4s40.78,16.49,40.78,56.4C6820.45,825.82,6860.37,809.33,6860.37,809.33Z" fill="none" stroke="#000" stroke-linecap="round" stroke-linejoin="round" stroke-width="8.33"/><path d="M6769.09,1205.59H6662.24V1046h106.85C6793,1111.48,6769.09,1205.59,6769.09,1205.59Z" fill="none" stroke="#000" stroke-linecap="round" stroke-linejoin="round" stroke-width="8.33"/><line x1="5987.09" y1="951.8" x2="5675.86" y2="951.8" fill="none" stroke="#000" stroke-linecap="round" stroke-linejoin="round" stroke-width="8.33"/><line x1="6682.79" y1="951.8" x2="6384.91" y2="951.8" fill="none" stroke="#000" stroke-linecap="round" stroke-linejoin="round" stroke-width="8.33"/><path d="M5640.68,694.12s-39.92-16.49-39.92-56.41c0,39.92-40.78,56.41-40.78,56.41s40.78,16.48,40.78,56.4C5600.76,710.6,5640.68,694.12,5640.68,694.12Z" fill="none" stroke="#000" stroke-linecap="round" stroke-linejoin="round" stroke-width="8.33"/><rect x="5729.18" y="172.05" width="71.73" height="50.91" transform="translate(31.1 -432.24) rotate(4.31)" fill="#b8d5ff" style="mix-blend-mode:multiply"/><rect x="5552.21" y="171.47" width="71.73" height="50.91" transform="translate(5027.89 5760.33) rotate(-86.27)" fill="#bdeff4" style="mix-blend-mode:multiply"/><rect x="6832.9" y="195.19" width="71.73" height="50.91" transform="translate(1139.54 4015.98) rotate(-35.36)" fill="#b8d5ff" style="mix-blend-mode:multiply"/><rect x="6462.82" y="192.29" width="71.73" height="50.91" transform="translate(5858.48 6688.47) rotate(-86.27)" fill="#bdeff4" style="mix-blend-mode:multiply"/><rect x="5590.35" y="255.35" width="71.73" height="50.91" transform="translate(875.48 3307.96) rotate(-35.36)" fill="#b8d5ff" style="mix-blend-mode:multiply"/><rect x="5709.52" y="347.9" width="71.73" height="50.91" transform="translate(9037.66 5096.67) rotate(-128.6)" fill="#bdeff4" style="mix-blend-mode:multiply"/><rect x="5644.44" y="771.03" width="71.73" height="50.91" transform="translate(75.82 -424.18) rotate(4.31)" fill="#b8d5ff" style="mix-blend-mode:multiply"/><rect x="5561.43" y="1013.14" width="71.73" height="50.91" transform="matrix(0.07, -1, 1, 0.07, 4196.64, 6556.43)" fill="#bdeff4" style="mix-blend-mode:multiply"/><rect x="5670.26" y="611.26" width="71.73" height="50.91" transform="translate(4699.41 6289.3) rotate(-86.27)" fill="#bdeff4" style="mix-blend-mode:multiply"/><rect x="5702.59" y="787.54" width="71.73" height="50.91" transform="translate(588.19 3471.11) rotate(-35.36)" fill="#b8d5ff" style="mix-blend-mode:multiply"/><rect x="5728.58" y="904.96" width="71.73" height="50.91" transform="translate(8633.24 6016.13) rotate(-128.6)" fill="#bdeff4" style="mix-blend-mode:multiply"/><rect x="6888.25" y="1182.82" width="71.73" height="50.91" transform="translate(11675.61 6387.72) rotate(-142.43)" fill="#b8d5ff" style="mix-blend-mode:multiply"/><rect x="6990.76" y="1022.86" width="71.73" height="50.91" transform="translate(7949.08 -5995.95) rotate(88.98)" fill="#bdeff4" style="mix-blend-mode:multiply"/><rect x="5617.57" y="1123.28" width="71.73" height="50.91" transform="translate(10716.89 -1615.76) rotate(139.88)" fill="#b8d5ff" style="mix-blend-mode:multiply"/><rect x="6960.78" y="576.05" width="71.73" height="50.91" transform="translate(12734.64 -3446.98) rotate(139.88)" fill="#b8d5ff" style="mix-blend-mode:multiply"/><rect x="6755.39" y="870.84" width="71.73" height="50.91" transform="translate(2780.94 -4657.25) rotate(46.65)" fill="#bdeff4" style="mix-blend-mode:multiply"/><rect x="6871.12" y="660.79" width="71.73" height="50.91" transform="translate(13753.27 -456.4) rotate(164.85)" fill="#b8d5ff" style="mix-blend-mode:multiply"/><rect x="6702.17" y="141.97" width="71.73" height="50.91" transform="translate(6784.89 -6572.53) rotate(88.97)" fill="#bdeff4" style="mix-blend-mode:multiply"/><rect x="6983.38" y="451.85" width="71.73" height="50.91" transform="translate(7370.91 -6549.36) rotate(88.98)" fill="#bdeff4" style="mix-blend-mode:multiply"/><rect x="6964.93" y="787.71" width="71.73" height="50.91" transform="translate(12878.36 -3076.13) rotate(139.88)" fill="#b8d5ff" style="mix-blend-mode:multiply"/><rect x="6944.8" y="407.55" width="71.73" height="50.91" transform="translate(2503.45 -4940.23) rotate(46.65)" fill="#bdeff4" style="mix-blend-mode:multiply"/><circle cx="352.59" cy="457.3" r="17.19" transform="translate(-163.98 715.35) rotate(-78.91)" fill="#ff7474" stroke="#dbdbdb" stroke-linecap="round" stroke-linejoin="round" stroke-width="7.08"/><circle cx="422.95" cy="457.3" r="17.19" transform="translate(-142.8 196.67) rotate(-22.5)" fill="#f5ff9f" stroke="#949494" stroke-linecap="round" stroke-linejoin="round" stroke-width="7.08"/><circle cx="489.31" cy="457.3" r="17.19" transform="translate(-169.24 579.2) rotate(-53.55)" fill="#7dff9f" stroke="#000" stroke-linecap="round" stroke-linejoin="round" stroke-width="7.08"/><circle cx="2404.84" cy="681.33" r="17.19" fill="#ff7474" stroke="#dbdbdb" stroke-linecap="round" stroke-linejoin="round" stroke-width="7.08"/><circle cx="2475.2" cy="681.33" r="17.19" fill="#f5ff9f" stroke="#949494" stroke-linecap="round" stroke-linejoin="round" stroke-width="7.08"/><circle cx="2541.56" cy="681.33" r="17.19" fill="#7dff9f" stroke="#000" stroke-linecap="round" stroke-linejoin="round" stroke-width="7.08"/><circle cx="5901.61" cy="394.66" r="17.19" transform="translate(3216.87 5665.04) rotate(-66.83)" fill="#ff7474" stroke="#dbdbdb" stroke-linecap="round" stroke-linejoin="round" stroke-width="7.08"/><circle cx="5971.97" cy="394.66" r="17.19" transform="translate(3259.54 5729.73) rotate(-66.83)" fill="#f5ff9f" stroke="#949494" stroke-linecap="round" stroke-linejoin="round" stroke-width="7.08"/><circle cx="6038.32" cy="394.66" r="17.19" transform="translate(113.01 1622.58) rotate(-15.45)" fill="#7dff9f" stroke="#000" stroke-linecap="round" stroke-linejoin="round" stroke-width="7.08"/></g></g></svg>