<svg xmlns="http://www.w3.org/2000/svg" width="7320.56" height="1568.05" viewBox="0 0 7320.56 1568.05"><g style="isolation:isolate"><g id="レイヤー_2" data-name="レイヤー 2"><rect x="223.18" y="218.05" width="1528.18" height="1170.07" fill="none"/><path d="M221.88,1236.45c1.3-152.71,56.69-297.32,119.17-336.66,0,0,118,91.4,204.78,91.4,0,0,68.25,175.85,71.73,232.54l82.14-98.34s74,41.65,93.13,91.4L773.74,1277l34.71-16.19s45.12,48.59,32.39,107.59l-37,20.83H223Z" fill="#bdeff4"/><path d="M1416.42,1199.15H1262s15.62-99.79,38.18-142.3,64.21-71.16,96.31-77.23c0,0,94.58-14.75,163.13-70.28,66-13,189,100.66,190.9,193.49v285.48L1498.85,1390l-34.71-151,17.36,7.81s14.75,36.45,45.12,45.12l40.78,43.39,35.58-66.81-31.24-36.45-38.18-110.2,46.86-75.49s3.47-16.48-9.55-18.22-14.75,5.21-14.75,5.21l-49.46,73.75h0s-61.61,4.34-70.28,4.34-10.42,32.11-10.42,32.11l-6.94,13Z" fill="#b8d5ff" style="mix-blend-mode:multiply"/><path d="M1506.66,1107.17c10.41,0,24.3,11.86,24.88,18.22,0,0,47.43-71.15,50.32-75.77s2.89-13.89-1.16-15.62-9.25-7.52-15-6.94-12.72,8.67-12.72,8.67Z" fill="#606060"/><path d="M837.68,218.36c-133.38,0-241.51,71.19-241.51,159,0,76.22,81.46,139.88,190.17,155.38l-11.45,33.53,57.32-30c1.83,0,3.64.09,5.47.09,133.38,0,241.51-71.2,241.51-159S971.06,218.36,837.68,218.36Z" fill="#bdeff4"/><path d="M1274.87,546.59c0-69.9-84.56-126.57-188.87-126.57S897.12,476.69,897.12,546.59,981.69,673.17,1086,673.17a265.75,265.75,0,0,0,86.09-13.93L1230.3,680l-16-40.51C1251.53,616.34,1274.87,583.3,1274.87,546.59Z" fill="#b8d5ff" style="mix-blend-mode:multiply"/><path d="M1367.3,393.59c0-69.9,84.56-126.57,188.88-126.57s188.87,56.67,188.87,126.57-84.56,126.57-188.87,126.57a265.77,265.77,0,0,1-86.1-13.92L1423,524.94l4.93-38.49C1390.64,463.33,1367.3,430.29,1367.3,393.59Z" fill="#bdeff4"/><path d="M538.88,405.3c0-57.88-70-104.8-156.39-104.8S226.1,347.42,226.1,405.3s70,104.81,156.39,104.81a220.1,220.1,0,0,0,71.29-11.53L492.32,513l-3.6-30.82C519.56,463.05,538.88,435.69,538.88,405.3Z" fill="#b8d5ff" style="mix-blend-mode:multiply"/><path d="M1341.13,618.82c-44.44,29.62-33.79,99.58-37,141.78-1.06,13.75-33.86,62.95-33.86,62.95l30.68,12.7v53.43c0,23.27,18,30.68,37,30.68h66.65l20.11,37c7.4,16.93-7.41,45.5-11.64,59.25" fill="none" stroke="#000" stroke-linecap="round" stroke-linejoin="round" stroke-width="8.33"/><path d="M1350.65,765.89c9.52-6.35,26.45-2.12,30.69,1.05" fill="none" stroke="#000" stroke-linecap="round" stroke-linejoin="round" stroke-width="8.33"/><path d="M1336.29,865.73c12.08,8.86,37.85,6.45,46.71.81" fill="none" stroke="#000" stroke-linecap="round" stroke-linejoin="round" stroke-width="8.33"/><path d="M570.38,730.13c7,0,8.53,10,8.53,16.08s-1.43,17.17-8.53,17.17c-7.76,0-8.09-12.44-8.09-17.17S563.06,730.13,570.38,730.13Z"/><path d="M1323.14,590.25c44.44-1.06,92-37,166.12-20.1,57.53,13.15,82.52,65.6,82.52,65.6s30.23,14.75,33.86,52.9c8.46,88.88-67.71,189.39-67.71,189.39l11.63,31.74" fill="none" stroke="#000" stroke-linecap="round" stroke-linejoin="round" stroke-width="8.33"/><path d="M1480.79,681.24c13.76,13.76,43.38,20.11,65.6,20.11" fill="none" stroke="#000" stroke-linecap="round" stroke-linejoin="round" stroke-width="8.33"/><path d="M1497.72,725.68s16.93,16.93,43.38,16.93" fill="none" stroke="#000" stroke-linecap="round" stroke-linejoin="round" stroke-width="8.33"/><path d="M1513.59,769.06c15.87-9.52,33.86-7.41,42.32,7.41s4.23,50.78-43.38,62.42" fill="none" stroke="#000" stroke-linecap="round" stroke-linejoin="round" stroke-width="8.33"/><path d="M1466,655.85c1.06-13.75-3.18-40.21-22.22-49.73" fill="none" stroke="#000" stroke-linecap="round" stroke-linejoin="round" stroke-width="8.33"/><path d="M1438.47,634.69c-1.06-9.52-31.74-27.51-50.79-28.57" fill="none" stroke="#000" stroke-linecap="round" stroke-linejoin="round" stroke-width="8.33"/><path d="M1389.8,630.46c-18,3.17-59.25,6.35-80.41-14.82" fill="none" stroke="#000" stroke-linecap="round" stroke-linejoin="round" stroke-width="8.33"/><line x1="1533.69" y1="791.28" x2="1513.59" y2="805.03" fill="none" stroke="#000" stroke-linecap="round" stroke-linejoin="round" stroke-width="8.33"/><polyline points="1125.16 1311.08 1096.53 1197.13 1450.55 1197.13 1497.98 1388.02" fill="none" stroke="#000" stroke-linecap="round" stroke-linejoin="round" stroke-width="8.33"/><path d="M1273.54,1229.52c2.31-41.65,26.61-141.15,46.28-178.17s46.27-55.53,71.73-62.47,109.9-26.61,170.07-79.83c0,0,92.84,14.6,136.51,82.14" fill="none" stroke="#000" stroke-linecap="round" stroke-linejoin="round" stroke-width="8.33"/><path d="M1620,1283.32l-48.59-49.75s-34.13-97.76-37.6-105.86c0,0-6.94-18.51-27.77-18.51-16.24,0-59.44-1.59-68.76,2.31-8.34,3.49-9.76,12.37-9.84,19.67" fill="none" stroke="#000" stroke-linecap="round" stroke-linejoin="round" stroke-width="8.33"/><path d="M1508.4,1143.76h-74.05c-18.51,0-17.35,22-17.35,28.92" fill="none" stroke="#000" stroke-linecap="round" stroke-linejoin="round" stroke-width="8.33"/><path d="M1501.45,1179.19h-63.63" fill="none" stroke="#000" stroke-linecap="round" stroke-linejoin="round" stroke-width="8.33"/><line x1="1493.93" y1="1213.32" x2="1469.06" y2="1213.32" fill="none" stroke="#000" stroke-linecap="round" stroke-linejoin="round" stroke-width="8.33"/><path d="M1481.21,1246.29c2.31,15.62,27.19,42.23,46.85,44.55l39.92,43.38s34.71-49.75,47.43-90.24c0,0,63.06,44,81.57,61.32" fill="none" stroke="#000" stroke-linecap="round" stroke-linejoin="round" stroke-width="8.33"/><path d="M1494.73,1122.93l60.22-88.76a13.76,13.76,0,0,1,19.11-3.67l2.6,1.76a13.77,13.77,0,0,1,3.66,19.12l-48.78,72.28" fill="none" stroke="#000" stroke-linecap="round" stroke-linejoin="round" stroke-width="8.33"/><path d="M587.13,598c44.44,29.63,33.79,99.58,37,141.78,1.05,13.76,33.85,63,33.85,63l-30.68,12.69v53.43c0,23.28-18,30.69-37,30.69H523.65l-20.1,37c-7.41,16.93,1.06,48.67,5.29,62.42" fill="none" stroke="#000" stroke-linecap="round" stroke-linejoin="round" stroke-width="8.33"/><path d="M592,844.91c-12.08,8.86-37.86,6.44-46.72.8" fill="none" stroke="#000" stroke-linecap="round" stroke-linejoin="round" stroke-width="8.33"/><path d="M378.7,889l11.64-31.75s-64.67-78.41-55-167.17c5.29-48.67,31.74-67.71,31.74-67.71S383.62,544,530,557.79c31.67,3,85.7,8.46,69.83,55s-47.61,64.54-60.31,69.83" fill="none" stroke="#000" stroke-linecap="round" stroke-linejoin="round" stroke-width="8.33"/><path d="M414.67,748.24c-15.87-9.53-33.85-7.41-42.32,7.4s-4.23,50.79,43.38,62.43" fill="none" stroke="#000" stroke-linecap="round" stroke-linejoin="round" stroke-width="8.33"/><line x1="394.57" y1="770.45" x2="414.67" y2="784.21" fill="none" stroke="#000" stroke-linecap="round" stroke-linejoin="round" stroke-width="8.33"/><path d="M543.75,593.76c-2.11,20.1-31.74,94.17-91,134.37" fill="none" stroke="#000" stroke-linecap="round" stroke-linejoin="round" stroke-width="8.33"/><path d="M453.82,665.71S439,703.8,410.44,727.08" fill="none" stroke="#000" stroke-linecap="round" stroke-linejoin="round" stroke-width="8.33"/><path d="M718.79,1123.66S777.21,1012,824.65,1012h38.18c10.41,0,25.3,2.31,33.55,7.52" fill="none" stroke="#000" stroke-linecap="round" stroke-linejoin="round" stroke-width="8.33"/><path d="M835.64,1034l22,6.94H987.2" fill="none" stroke="#000" stroke-linecap="round" stroke-linejoin="round" stroke-width="8.33"/><path d="M877.29,1068.7s82.14,10.42,108.75-9.25" fill="none" stroke="#000" stroke-linecap="round" stroke-linejoin="round" stroke-width="8.33"/><path d="M877.29,1099.94c13.88,1.16,74,10.41,106.44-9.25" fill="none" stroke="#000" stroke-linecap="round" stroke-linejoin="round" stroke-width="8.33"/><path d="M859.93,1134.65s55.54,3.47,79.83-9.26" fill="none" stroke="#000" stroke-linecap="round" stroke-linejoin="round" stroke-width="8.33"/><path d="M917.78,1148.53s-44,23.14-119.16,17.36L779,1199.44" fill="none" stroke="#000" stroke-linecap="round" stroke-linejoin="round" stroke-width="8.33"/><path d="M698,1385.71c64.79-44,94.87-168.92,94.87-168.92-28.92-44-87.93-79.83-87.93-79.83s-69.8,89.77-108,121.63c-10.42,8.67-3,23.43,6.5,23.86s16.06-11.28,13.31-21.55c-17.7-66.12-64.5-217.94-90-272-25.46-7-109.91-26.61-170.07-79.83,0,0-74.63,64.79-91.78,172.14" fill="none" stroke="#000" stroke-linecap="round" stroke-linejoin="round" stroke-width="8.33"/><path d="M1088.71,1387.44c.88-20.82,6.08-79,116.28-72.89" fill="none" stroke="#000" stroke-linecap="round" stroke-linejoin="round" stroke-width="8.33"/><path d="M1130.37,1352.73s34.71-10.41,82.43-10.41" fill="none" stroke="#000" stroke-linecap="round" stroke-linejoin="round" stroke-width="8.33"/><path d="M1138.18,1377.9s48.59-12.15,77.22-10.42" fill="none" stroke="#000" stroke-linecap="round" stroke-linejoin="round" stroke-width="8.33"/><path d="M767.38,1292.86l45.12-20.53s23.72,42.22,28.92,96l-34.71,19.78" fill="none" stroke="#000" stroke-linecap="round" stroke-linejoin="round" stroke-width="8.33"/><path d="M812.5,1272.33l22.56-11.57s18.26-47,43.38-56.69c26.7-10.33,56.69-16.2,71.73-16.2" fill="none" stroke="#000" stroke-linecap="round" stroke-linejoin="round" stroke-width="8.33"/><path d="M967.53,1197.7c-10.41,22-58.43,28.93-58.43,28.93,1.88,7.3.92,27.8-4.15,36.24" fill="none" stroke="#000" stroke-linecap="round" stroke-linejoin="round" stroke-width="8.33"/><path d="M838,1345.21l31.82-12.15c41.65,9.84,74.62-24.87,74.62-24.87s26,27.77,60.74,28.35" fill="none" stroke="#000" stroke-linecap="round" stroke-linejoin="round" stroke-width="8.33"/><path d="M966.37,1226.05s60.16,2.31,82.14,7.52" fill="none" stroke="#000" stroke-linecap="round" stroke-linejoin="round" stroke-width="8.33"/><path d="M1028.85,1198.86c-15,15-74.63,30.66-74.63,30.66" fill="none" stroke="#000" stroke-linecap="round" stroke-linejoin="round" stroke-width="8.33"/><path d="M1024.8,1183.82c-15.62-1.74-57.27,13.88-57.27,13.88" fill="none" stroke="#000" stroke-linecap="round" stroke-linejoin="round" stroke-width="8.33"/><path d="M1047.36,1252.66c-24.88,6.94-91.4,4-91.4,4s52.64,12.14,86.19,21.4" fill="none" stroke="#000" stroke-linecap="round" stroke-linejoin="round" stroke-width="8.33"/><path d="M955.38,1285.63s54.38,12.15,80.41,11.57" fill="none" stroke="#000" stroke-linecap="round" stroke-linejoin="round" stroke-width="8.33"/><path d="M962.32,1287.94s36.45,24.88,52.06,33" fill="none" stroke="#000" stroke-linecap="round" stroke-linejoin="round" stroke-width="8.33"/><path d="M834.38,732.51l14.14-4.83" fill="none" stroke="#000" stroke-linecap="round" stroke-linejoin="round" stroke-width="8.33"/><path d="M783.68,749.82l32.7-11.17" fill="none" stroke="#000" stroke-linecap="round" stroke-linejoin="round" stroke-width="8.33"/><path d="M737.35,765.64l27.25-9.31" fill="none" stroke="#000" stroke-linecap="round" stroke-linejoin="round" stroke-width="8.33"/><path d="M839.71,854.77l16.77,2.84" fill="none" stroke="#000" stroke-linecap="round" stroke-linejoin="round" stroke-width="8.33"/><path d="M788.93,846.19,823,852" fill="none" stroke="#000" stroke-linecap="round" stroke-linejoin="round" stroke-width="8.33"/><path d="M740.66,838l31.23,5.28" fill="none" stroke="#000" stroke-linecap="round" stroke-linejoin="round" stroke-width="8.33"/><path d="M744.54,931l29.67,23.21" fill="none" stroke="#000" stroke-linecap="round" stroke-linejoin="round" stroke-width="8.33"/><path d="M709.08,903.26l21.65,16.93" fill="none" stroke="#000" stroke-linecap="round" stroke-linejoin="round" stroke-width="8.33"/><path d="M760.14,654.51l24.54-25.38" fill="none" stroke="#000" stroke-linecap="round" stroke-linejoin="round" stroke-width="8.33"/><path d="M703,713.57l41.34-42.74" fill="none" stroke="#000" stroke-linecap="round" stroke-linejoin="round" stroke-width="8.33"/><path d="M1088.53,758.91l-14.14-4.83" fill="none" stroke="#000" stroke-linecap="round" stroke-linejoin="round" stroke-width="8.33"/><path d="M1139.23,776.22l-32.7-11.16" fill="none" stroke="#000" stroke-linecap="round" stroke-linejoin="round" stroke-width="8.33"/><path d="M1185.56,792l-27.25-9.31" fill="none" stroke="#000" stroke-linecap="round" stroke-linejoin="round" stroke-width="8.33"/><path d="M1083.2,881.17,1066.43,884" fill="none" stroke="#000" stroke-linecap="round" stroke-linejoin="round" stroke-width="8.33"/><path d="M1134,872.59l-34.07,5.76" fill="none" stroke="#000" stroke-linecap="round" stroke-linejoin="round" stroke-width="8.33"/><path d="M1182.25,864.43,1151,869.71" fill="none" stroke="#000" stroke-linecap="round" stroke-linejoin="round" stroke-width="8.33"/><path d="M1178.37,957.4l-29.67,23.21" fill="none" stroke="#000" stroke-linecap="round" stroke-linejoin="round" stroke-width="8.33"/><path d="M1213.83,929.66l-21.65,16.93" fill="none" stroke="#000" stroke-linecap="round" stroke-linejoin="round" stroke-width="8.33"/><path d="M385.18,1097.63S413,1278.11,472,1351" fill="none" stroke="#000" stroke-linecap="round" stroke-linejoin="round" stroke-width="8.33"/><rect x="1997.17" y="218.05" width="1528.18" height="1170.07" fill="none"/><path d="M2243.91,645.43c-26-52.07-93.71-281.14-98.92-366.17h298.49c5.21,85,72.89,314.1,98.92,366.17Z" fill="none" stroke="#000" stroke-linecap="round" stroke-linejoin="round" stroke-width="8.33"/><path d="M2495.38,658.91c4.92,13.14,9.32,23.74,12.93,30.94H2209.82c-26-52.06-93.72-277-98.92-362h17.7" fill="none" stroke="#000" stroke-linecap="round" stroke-linejoin="round" stroke-width="8.33"/><path d="M2469.35,703.34c4.92,13.14,9.32,23.73,12.92,30.94H2183.78c-26-52.06-93.71-272.81-98.91-357.84h17.35" fill="none" stroke="#000" stroke-linecap="round" stroke-linejoin="round" stroke-width="8.33"/><polyline points="2782.66 818.23 2801.06 818.23 2801.06 1288.52 2060.04 1288.52 2060.04 818.23 2609.82 818.23" fill="none" stroke="#000" stroke-linecap="round" stroke-linejoin="round" stroke-width="8.33"/><polyline points="2804.53 842.52 2825.35 842.52 2825.35 1312.82 2084.33 1312.82 2084.33 1288.52" fill="none" stroke="#000" stroke-linecap="round" stroke-linejoin="round" stroke-width="8.33"/><polyline points="2830.56 866.82 2849.65 866.82 2849.65 1337.11 2108.63 1337.11 2108.63 1318.03" fill="none" stroke="#000" stroke-linecap="round" stroke-linejoin="round" stroke-width="8.33"/><line x1="2045.23" y1="859.88" x2="2072.99" y2="859.88" fill="none" stroke="#000" stroke-linecap="round" stroke-linejoin="round" stroke-width="8.33"/><line x1="2045.23" y1="894.59" x2="2072.99" y2="894.59" fill="none" stroke="#000" stroke-linecap="round" stroke-linejoin="round" stroke-width="8.33"/><line x1="2045.23" y1="929.29" x2="2072.99" y2="929.29" fill="none" stroke="#000" stroke-linecap="round" stroke-linejoin="round" stroke-width="8.33"/><line x1="2045.23" y1="964" x2="2072.99" y2="964" fill="none" stroke="#000" stroke-linecap="round" stroke-linejoin="round" stroke-width="8.33"/><line x1="2045.23" y1="998.71" x2="2072.99" y2="998.71" fill="none" stroke="#000" stroke-linecap="round" stroke-linejoin="round" stroke-width="8.33"/><line x1="2045.23" y1="1033.42" x2="2072.99" y2="1033.42" fill="none" stroke="#000" stroke-linecap="round" stroke-linejoin="round" stroke-width="8.33"/><line x1="2045.23" y1="1068.13" x2="2072.99" y2="1068.13" fill="none" stroke="#000" stroke-linecap="round" stroke-linejoin="round" stroke-width="8.33"/><line x1="2045.23" y1="1102.83" x2="2072.99" y2="1102.83" fill="none" stroke="#000" stroke-linecap="round" stroke-linejoin="round" stroke-width="8.33"/><line x1="2045.23" y1="1137.54" x2="2072.99" y2="1137.54" fill="none" stroke="#000" stroke-linecap="round" stroke-linejoin="round" stroke-width="8.33"/><line x1="2045.23" y1="1172.25" x2="2072.99" y2="1172.25" fill="none" stroke="#000" stroke-linecap="round" stroke-linejoin="round" stroke-width="8.33"/><line x1="2045.23" y1="1206.96" x2="2072.99" y2="1206.96" fill="none" stroke="#000" stroke-linecap="round" stroke-linejoin="round" stroke-width="8.33"/><line x1="2045.23" y1="1241.67" x2="2072.99" y2="1241.67" fill="none" stroke="#000" stroke-linecap="round" stroke-linejoin="round" stroke-width="8.33"/><path d="M2522.87,1059.13c0,9,4.28,16.26,13.26,16.26s13.27-7.28,13.27-16.26c0-20.41-26.53-8.79-26.53-29.76,0-9,4.28-16.26,13.26-16.26s13.27,7.28,13.27,16.26" fill="none" stroke="#000" stroke-linecap="round" stroke-linejoin="round" stroke-width="8.33"/><path d="M2376.31,1010.8c-9,0-13.26,7.28-13.26,16.26v32.07c0,9,4.28,16.26,13.26,16.26s13.27-7.28,13.27-16.26v-32.07C2389.58,1018.08,2385.29,1010.8,2376.31,1010.8Z" fill="none" stroke="#000" stroke-linecap="round" stroke-linejoin="round" stroke-width="8.33"/><path d="M2482.86,1010.8c-9,0-13.27,7.28-13.27,16.26v32.07c0,9,4.29,16.26,13.27,16.26s13.27-7.28,13.27-16.26v-32.07C2496.13,1018.08,2491.84,1010.8,2482.86,1010.8Z" fill="none" stroke="#000" stroke-linecap="round" stroke-linejoin="round" stroke-width="8.33"/><path d="M2256.83,1075.39v-62.05s25.88-2.08,25.88,17.83c0,8.18-6,13.73-12.69,15.59" fill="none" stroke="#000" stroke-linecap="round" stroke-linejoin="round" stroke-width="8.33"/><path d="M2416.65,1075.39v-62.05s25.88-2.08,25.88,17.83c0,8.18-6,13.73-12.7,15.59" fill="none" stroke="#000" stroke-linecap="round" stroke-linejoin="round" stroke-width="8.33"/><path d="M2309.6,1075.39v-62.05s25.88-4.32,25.88,15.59c0,14.6-24.22,15.6-24.22,15.6" fill="none" stroke="#000" stroke-linecap="round" stroke-linejoin="round" stroke-width="8.33"/><line x1="2330.17" y1="1055.81" x2="2336.48" y2="1074.39" fill="none" stroke="#000" stroke-linecap="round" stroke-linejoin="round" stroke-width="8.33"/><polyline points="2630.61 1011.18 2630.61 1075.39 2654.75 1075.39" fill="none" stroke="#000" stroke-linecap="round" stroke-linejoin="round" stroke-width="8.33"/><polyline points="2569.16 1075.39 2589.41 1013 2609.65 1075.39" fill="none" stroke="#000" stroke-linecap="round" stroke-linejoin="round" stroke-width="8.33"/><line x1="2603.25" y1="1055.67" x2="2589.41" y2="1055.67" fill="none" stroke="#000" stroke-linecap="round" stroke-linejoin="round" stroke-width="8.33"/><line x1="2353.9" y1="1132.34" x2="2358.06" y2="1132.34" fill="none" stroke="#000" stroke-linecap="round" stroke-linejoin="round" stroke-width="8.33"/><line x1="2389.68" y1="1132.34" x2="2492.43" y2="1132.34" fill="none" stroke="#000" stroke-linecap="round" stroke-linejoin="round" stroke-width="8.33" stroke-dasharray="7.9 31.62"/><line x1="2508.24" y1="1132.34" x2="2512.4" y2="1132.34" fill="none" stroke="#000" stroke-linecap="round" stroke-linejoin="round" stroke-width="8.33"/><rect x="2818.36" y="279.2" width="143.46" height="189.28" fill="none" stroke="#000" stroke-linecap="round" stroke-linejoin="round" stroke-width="8.33"/><rect x="2650.22" y="724.74" width="108" height="137.23" fill="#b8d5ff"/><line x1="2704.22" y1="597.47" x2="2704.22" y2="724.74" fill="none" stroke="#000" stroke-linecap="round" stroke-linejoin="round" stroke-width="8.33"/><rect x="2890.09" y="724.74" width="108" height="137.23" fill="#fff" stroke="#000" stroke-linecap="round" stroke-linejoin="round" stroke-width="8.33"/><line x1="2944.09" y1="597.47" x2="2944.09" y2="724.74" fill="none" stroke="#000" stroke-linecap="round" stroke-linejoin="round" stroke-width="8.33"/><line x1="2890.09" y1="470.21" x2="2890.09" y2="597.47" fill="none" stroke="#000" stroke-linecap="round" stroke-linejoin="round" stroke-width="8.33"/><rect x="3129.97" y="724.74" width="108" height="137.23" fill="#bdeff4" style="mix-blend-mode:multiply"/><rect x="3369.84" y="724.74" width="108" height="137.23" fill="#add5d0"/><line x1="3183.97" y1="597.47" x2="3183.97" y2="724.74" fill="none" stroke="#000" stroke-linecap="round" stroke-linejoin="round" stroke-width="8.33"/><rect x="2890.09" y="990.97" width="108" height="137.23" fill="#bdeff4" style="mix-blend-mode:multiply"/><line x1="2944.09" y1="863.7" x2="2944.09" y2="990.97" fill="none" stroke="#000" stroke-linecap="round" stroke-linejoin="round" stroke-width="8.33"/><rect x="3129.97" y="990.97" width="108" height="137.23" fill="#b8d5ff"/><line x1="3183.97" y1="863.7" x2="3183.97" y2="990.97" fill="none" stroke="#000" stroke-linecap="round" stroke-linejoin="round" stroke-width="8.33"/><line x1="3423.84" y1="597.47" x2="3423.84" y2="724.74" fill="none" stroke="#000" stroke-linecap="round" stroke-linejoin="round" stroke-width="8.33"/><line x1="3516.39" y1="597.47" x2="2704.22" y2="597.47" fill="none" stroke="#000" stroke-linecap="round" stroke-linejoin="round" stroke-width="8.33"/><line x1="2308.2" y1="430.37" x2="2333.36" y2="449.17" fill="none" stroke="#000" stroke-linecap="round" stroke-linejoin="round" stroke-width="8.33"/><polyline points="2353.36 430.5 2333.36 449.17 2346.09 486.19" fill="none" stroke="#000" stroke-linecap="round" stroke-linejoin="round" stroke-width="8.33"/><line x1="2315.61" y1="454.7" x2="2355.67" y2="454.82" fill="none" stroke="#000" stroke-linecap="round" stroke-linejoin="round" stroke-width="8.33"/><line x1="2318.67" y1="472.66" x2="2358.73" y2="472.78" fill="none" stroke="#000" stroke-linecap="round" stroke-linejoin="round" stroke-width="8.33"/><rect x="5545.88" y="218.05" width="1528.18" height="1170.07" fill="none"/><rect x="6132.42" y="330.23" width="374.85" height="295.02" fill="#e6e6e6" style="mix-blend-mode:multiply"/><circle cx="5665.74" cy="339.21" r="121.15" transform="translate(1419.6 4105.63) rotate(-45)" fill="#e9f3f3" style="mix-blend-mode:multiply"/><circle cx="5827.92" cy="508.45" r="51.14" transform="translate(3964.81 6053.9) rotate(-76.42)" fill="#e6e6e6" style="mix-blend-mode:multiply"/><rect x="6659.99" y="959.13" width="416.5" height="303.7" fill="#e9f3f3" style="mix-blend-mode:multiply"/><rect x="6132.42" y="330.23" width="374.85" height="295.02" fill="#e6e6e6" style="mix-blend-mode:multiply"/><circle cx="5665.74" cy="339.21" r="121.15" transform="translate(1419.6 4105.63) rotate(-45)" fill="#bdeff4" style="mix-blend-mode:multiply"/><circle cx="5827.92" cy="508.45" r="51.14" transform="translate(3964.81 6053.9) rotate(-76.42)" fill="#e6e6e6" style="mix-blend-mode:multiply"/><rect x="6659.99" y="959.13" width="416.5" height="303.7" fill="#b8d5ff" style="mix-blend-mode:multiply"/><rect x="5710.72" y="546.11" width="697.63" height="465.09" fill="none" stroke="#000" stroke-linecap="round" stroke-linejoin="round" stroke-width="8.33"/><rect x="6533.3" y="615.52" width="229.07" height="395.67" fill="none" stroke="#000" stroke-linecap="round" stroke-linejoin="round" stroke-width="8.33"/><rect x="6822.25" y="615.52" width="114.54" height="97.18" fill="#ccc"/><rect x="6822.25" y="750.02" width="114.54" height="97.18" fill="#bdeff4" style="mix-blend-mode:multiply"/><rect x="6822.25" y="886.24" width="114.54" height="97.18" fill="#e6e6e6" style="mix-blend-mode:multiply"/><polygon points="6226.31 1100.58 5892.77 1100.58 5903.7 1058.05 6215.38 1058.05 6226.31 1100.58" fill="none" stroke="#000" stroke-linecap="round" stroke-linejoin="round" stroke-width="8.33"/><rect x="5754.89" y="575.55" width="609.29" height="406.19" fill="none" stroke="#000" stroke-linecap="round" stroke-linejoin="round" stroke-width="8.33"/><line x1="5974.5" y1="1011.19" x2="5974.5" y2="1058.05" fill="none" stroke="#000" stroke-linecap="round" stroke-linejoin="round" stroke-width="8.33"/><line x1="6130.69" y1="1011.19" x2="6130.69" y2="1058.05" fill="none" stroke="#000" stroke-linecap="round" stroke-linejoin="round" stroke-width="8.33"/><rect x="5810.65" y="674.75" width="495.31" height="182.25" fill="#e6e6e6"/><rect x="6612.41" y="740.7" width="126.22" height="182.25" fill="#e6e6e6"/><line x1="5810.65" y1="893.94" x2="6031.53" y2="893.94" fill="none" stroke="#000" stroke-linecap="round" stroke-linejoin="round" stroke-width="8.33" stroke-dasharray="8.33 33.31"/><line x1="5810.65" y1="931.06" x2="6031.53" y2="931.06" fill="none" stroke="#000" stroke-linecap="round" stroke-linejoin="round" stroke-width="8.33" stroke-dasharray="8.33 33.31"/><line x1="6746.03" y1="286.76" x2="7032.23" y2="286.76" fill="none" stroke="#000" stroke-linecap="round" stroke-linejoin="round" stroke-width="8.33" stroke-dasharray="8.33 33.31"/><line x1="6746.03" y1="323.88" x2="7032.23" y2="323.88" fill="none" stroke="#000" stroke-linecap="round" stroke-linejoin="round" stroke-width="8.33" stroke-dasharray="8.33 33.31"/><line x1="6746.03" y1="372.57" x2="7032.23" y2="372.57" fill="none" stroke="#000" stroke-linecap="round" stroke-linejoin="round" stroke-width="8.33" stroke-dasharray="8.33 33.31"/><line x1="6746.03" y1="421.25" x2="7032.23" y2="421.25" fill="none" stroke="#000" stroke-linecap="round" stroke-linejoin="round" stroke-width="8.33" stroke-dasharray="8.33 33.31"/><path d="M6483,621.78c0-83.3-53.8-120.62-53.8-120.62,34.71-32.1,39.05-86.07,22.56-114.71s-65.94-48.59-103.25-19.95c-43.72,33.55-30.37,112.1-1.74,132.06,0,0-46.85,42.52-48.59,98.05" fill="none" stroke="#000" stroke-linecap="round" stroke-linejoin="round" stroke-width="8.33"/><polyline points="6373.64 407.45 6373.64 447.37 6385.79 447.37" fill="none" stroke="#000" stroke-linecap="round" stroke-linejoin="round" stroke-width="8.33"/><rect x="6557.05" y="641.79" width="181.58" height="313.64" fill="none" stroke="#000" stroke-linecap="round" stroke-linejoin="round" stroke-width="8.33"/><line x1="5749.23" y1="425.98" x2="5790.16" y2="471.82" fill="none" stroke="#000" stroke-linecap="round" stroke-linejoin="round" stroke-width="8.33"/><polyline points="7042.64 1005.98 6902.08 1005.98 6839.6 1062.38 6839.6 1111.84 6729.4 1111.84 6729.4 1224.64" fill="none" stroke="#000" stroke-linecap="round" stroke-linejoin="round" stroke-width="8.33"/><rect x="6916.83" y="1043.29" width="39.91" height="33.84" fill="none" stroke="#000" stroke-linecap="round" stroke-linejoin="round" stroke-width="8.33"/><rect x="6916.83" y="1103.6" width="39.91" height="33.84" fill="none" stroke="#000" stroke-linecap="round" stroke-linejoin="round" stroke-width="8.33"/><rect x="6916.83" y="1163.9" width="39.91" height="33.84" fill="none" stroke="#000" stroke-linecap="round" stroke-linejoin="round" stroke-width="8.33"/><rect x="6360.63" y="1176.06" width="54.49" height="46.2" fill="none" stroke="#000" stroke-linecap="round" stroke-linejoin="round" stroke-width="8.33"/><rect x="6360.63" y="1258.38" width="54.49" height="46.2" fill="none" stroke="#000" stroke-linecap="round" stroke-linejoin="round" stroke-width="8.33"/><rect x="6360.63" y="1340.71" width="54.49" height="46.2" fill="none" stroke="#000" stroke-linecap="round" stroke-linejoin="round" stroke-width="8.33"/><rect x="6992.32" y="1043.29" width="39.91" height="33.84" fill="none" stroke="#000" stroke-linecap="round" stroke-linejoin="round" stroke-width="8.33"/><rect x="6992.32" y="1103.6" width="39.91" height="33.84" fill="none" stroke="#000" stroke-linecap="round" stroke-linejoin="round" stroke-width="8.33"/><rect x="6992.32" y="1163.9" width="39.91" height="33.84" fill="none" stroke="#000" stroke-linecap="round" stroke-linejoin="round" stroke-width="8.33"/><rect x="5646.51" y="1196.01" width="34.71" height="34.71" fill="none" stroke="#000" stroke-linecap="round" stroke-linejoin="round" stroke-width="8.33"/><rect x="5810.65" y="1306" width="34.71" height="34.71" fill="none" stroke="#000" stroke-linecap="round" stroke-linejoin="round" stroke-width="8.33"/><path d="M5666.87,1230.72c13.77,41.94,73.29,91.11,143.78,91.11" fill="none" stroke="#000" stroke-linecap="round" stroke-linejoin="round" stroke-width="8.33"/><rect x="5974.79" y="1196.01" width="34.71" height="34.71" transform="translate(11984.29 2426.74) rotate(180)" fill="none" stroke="#000" stroke-linecap="round" stroke-linejoin="round" stroke-width="8.33"/><path d="M5989.15,1230.72c-13.77,41.94-73.3,91.11-143.79,91.11" fill="none" stroke="#000" stroke-linecap="round" stroke-linejoin="round" stroke-width="8.33"/><circle cx="5826.34" cy="629.63" r="17.19" fill="#ff7474" stroke="#dbdbdb" stroke-linecap="round" stroke-linejoin="round" stroke-width="7.08"/><rect x="3771.9" y="225.85" width="1528.18" height="1170.07" fill="none"/><path d="M3822.52,471.64l496.22,317.7S4257.4,926.88,4187.67,985L3817.35,771.25Z" fill="#b8d5ff"/><path d="M5219.85,505.19,4740.39,792.57,4859.2,997.9s312.87-142.74,368.4-184.07Z" fill="#bdeff4" style="mix-blend-mode:multiply"/><path d="M3847.54,512.54l457.64,284.4L4190.69,984.12s-312-171.06-379.8-218.83" fill="none" stroke="#000" stroke-linecap="round" stroke-linejoin="round" stroke-width="8.33"/><path d="M5213.35,540.63,4746.84,796.94,4854,986.78S5147.53,846,5232.77,785.92" fill="none" stroke="#000" stroke-linecap="round" stroke-linejoin="round" stroke-width="8.33"/><path d="M4314.22,822.77l28.89,15.29s75.72-43.7,126.08-33.37c42.27,8.67,49.83,22.4,69.67,34.85s76.41,62.59,84,69.77c20.92,19.71,0,63.07-31.75,48.23s-89.57-60.41-89.57-60.41-53.42,23.48-108.58,21.2" fill="none" stroke="#000" stroke-linecap="round" stroke-linejoin="round" stroke-width="8.33"/><path d="M4551.55,822s75.19-49.57,150.58,14l31.8-17.06" fill="none" stroke="#000" stroke-linecap="round" stroke-linejoin="round" stroke-width="8.33"/><path d="M4834,962.91l-52.24,31.62s-1.47,64.23-125.37,145.21c-41.84,27.35-62.37,31.35-79.79,30.63s-35.48-9.22-35.48-9.22" fill="none" stroke="#000" stroke-linecap="round" stroke-linejoin="round" stroke-width="8.33"/><path d="M4622.87,1099.77s-55.05,54.41-87.54,59.52c-9.76,1.54-31-.31-44-13.45" fill="none" stroke="#000" stroke-linecap="round" stroke-linejoin="round" stroke-width="8.33"/><path d="M4577,1067.47s-53.49,58.37-89.05,74.35-46.9-14.54-46.9-14.54" fill="none" stroke="#000" stroke-linecap="round" stroke-linejoin="round" stroke-width="8.33"/><path d="M4529.18,1033.89s-75.76,66.76-85.76,74.1-29.75,16.22-47.78,6.75" fill="none" stroke="#000" stroke-linecap="round" stroke-linejoin="round" stroke-width="8.33"/><path d="M4518.27,942.87c-23.54,30-116.68,130.27-160.14,149.8-67.59-29.94-104.6-103.31-104.6-103.31l-47.2-31.74" fill="none" stroke="#000" stroke-linecap="round" stroke-linejoin="round" stroke-width="8.33"/><line x1="4878.75" y1="1025.6" x2="4878.75" y2="1395.92" fill="none" stroke="#000" stroke-linecap="round" stroke-linejoin="round" stroke-width="8.33"/><polyline points="4173.01 676.07 4173.01 394.35 4878.74 394.35 4878.74 681.27" fill="none" stroke="#000" stroke-linecap="round" stroke-linejoin="round" stroke-width="8.33"/><line x1="4173.01" y1="1395.92" x2="4173.01" y2="1025.6" fill="none" stroke="#000" stroke-linecap="round" stroke-linejoin="round" stroke-width="8.33"/><rect x="4258.34" y="504.95" width="535.08" height="217.5" fill="none" stroke="#000" stroke-linecap="round" stroke-linejoin="round" stroke-width="8.33"/><line x1="4258.34" y1="504.95" x2="4793.42" y2="722.45" fill="none" stroke="#000" stroke-linecap="round" stroke-linejoin="round" stroke-width="8.33"/><line x1="4793.42" y1="504.95" x2="4258.34" y2="722.45" fill="none" stroke="#000" stroke-linecap="round" stroke-linejoin="round" stroke-width="8.33"/><line x1="4258.34" y1="1282.06" x2="4525.88" y2="1282.06" fill="none" stroke="#000" stroke-linecap="round" stroke-linejoin="round" stroke-width="8.33" stroke-dasharray="8.33 33.31"/><line x1="4398.56" y1="1209.52" x2="4666.1" y2="1209.52" fill="none" stroke="#000" stroke-linecap="round" stroke-linejoin="round" stroke-width="8.33"/><line x1="4258.34" y1="1335.28" x2="4525.88" y2="1335.28" fill="none" stroke="#000" stroke-linecap="round" stroke-linejoin="round" stroke-width="8.33" stroke-dasharray="8.33 33.31"/><line x1="4258.34" y1="1388.5" x2="4525.88" y2="1388.5" fill="none" stroke="#000" stroke-linecap="round" stroke-linejoin="round" stroke-width="8.33" stroke-dasharray="8.33 33.31"/><rect x="4564.98" y="1248.75" width="228.44" height="147.18" fill="#e6e6e6" style="mix-blend-mode:multiply"/><line x1="4998.22" y1="1050.2" x2="4954.73" y2="1025.08" fill="none" stroke="#add5d0" stroke-linecap="round" stroke-linejoin="round" stroke-width="8.33"/><line x1="5195.83" y1="1164.28" x2="5057.64" y2="1084.5" fill="none" stroke="#add5d0" stroke-linecap="round" stroke-linejoin="round" stroke-width="8.33"/><line x1="5265.33" y1="1204.41" x2="5224.67" y2="1180.93" fill="none" stroke="#add5d0" stroke-linecap="round" stroke-linejoin="round" stroke-width="8.33"/><line x1="4525.88" y1="218.05" x2="4525.88" y2="322.18" fill="none" stroke="#add5d0" stroke-linecap="round" stroke-linejoin="round" stroke-width="8.33"/><line x1="4428.74" y1="247.52" x2="4439.11" y2="309.45" fill="none" stroke="#add5d0" stroke-linecap="round" stroke-linejoin="round" stroke-width="8.33"/><line x1="4207.72" y1="253.92" x2="4244.31" y2="312.82" fill="none" stroke="#add5d0" stroke-linecap="round" stroke-linejoin="round" stroke-width="8.33"/><line x1="4046.81" y1="230.68" x2="4121.83" y2="320.1" fill="none" stroke="#add5d0" stroke-linecap="round" stroke-linejoin="round" stroke-width="8.33"/><line x1="3891.19" y1="270.23" x2="4058.48" y2="410.6" fill="none" stroke="#add5d0" stroke-linecap="round" stroke-linejoin="round" stroke-width="8.33"/><line x1="3849.07" y1="414.73" x2="3967.25" y2="481.55" fill="none" stroke="#add5d0" stroke-linecap="round" stroke-linejoin="round" stroke-width="8.33"/><line x1="3773.79" y1="943.76" x2="3876.84" y2="928.41" fill="none" stroke="#add5d0" stroke-linecap="round" stroke-linejoin="round" stroke-width="8.33"/><line x1="3851.83" y1="1059.21" x2="4021.62" y2="997.41" fill="none" stroke="#add5d0" stroke-linecap="round" stroke-linejoin="round" stroke-width="8.33"/><line x1="3771.2" y1="1088.55" x2="3810.59" y2="1074.22" fill="none" stroke="#add5d0" stroke-linecap="round" stroke-linejoin="round" stroke-width="8.33"/><line x1="3939.68" y1="1155.81" x2="4087.82" y2="1070.28" fill="none" stroke="#add5d0" stroke-linecap="round" stroke-linejoin="round" stroke-width="8.33"/><line x1="3845.6" y1="1209.55" x2="3887.48" y2="1185.95" fill="none" stroke="#add5d0" stroke-linecap="round" stroke-linejoin="round" stroke-width="8.33"/><line x1="3987.16" y1="1274.16" x2="4086.34" y2="1190.93" fill="none" stroke="#add5d0" stroke-linecap="round" stroke-linejoin="round" stroke-width="8.33"/><line x1="3905.99" y1="1342.27" x2="3932.92" y2="1319.67" fill="none" stroke="#add5d0" stroke-linecap="round" stroke-linejoin="round" stroke-width="8.33"/><line x1="4102.91" y1="1333.14" x2="4153.93" y2="1272.33" fill="none" stroke="#add5d0" stroke-linecap="round" stroke-linejoin="round" stroke-width="8.33"/><line x1="4051.48" y1="1394.43" x2="4078.9" y2="1361.74" fill="none" stroke="#add5d0" stroke-linecap="round" stroke-linejoin="round" stroke-width="8.33"/><line x1="4981.81" y1="1309.15" x2="4955.34" y2="1277.61" fill="none" stroke="#add5d0" stroke-linecap="round" stroke-linejoin="round" stroke-width="8.33"/><line x1="5056.65" y1="1398.35" x2="5012.47" y2="1345.69" fill="none" stroke="#add5d0" stroke-linecap="round" stroke-linejoin="round" stroke-width="8.33"/><line x1="5045.01" y1="1208.34" x2="4988.5" y2="1160.92" fill="none" stroke="#add5d0" stroke-linecap="round" stroke-linejoin="round" stroke-width="8.33"/><line x1="5183.6" y1="1324.63" x2="5095.17" y2="1250.43" fill="none" stroke="#add5d0" stroke-linecap="round" stroke-linejoin="round" stroke-width="8.33"/><line x1="5177.43" y1="1018.13" x2="5156.06" y2="1010.35" fill="none" stroke="#add5d0" stroke-linecap="round" stroke-linejoin="round" stroke-width="8.33"/><line x1="5300.59" y1="1062.96" x2="5177.43" y2="1018.13" fill="none" stroke="#add5d0" stroke-linecap="round" stroke-linejoin="round" stroke-width="8.33"/><line x1="5210.2" y1="904.37" x2="5107.1" y2="886.19" fill="none" stroke="#add5d0" stroke-linecap="round" stroke-linejoin="round" stroke-width="8.33"/><line x1="5299.69" y1="920.15" x2="5261.15" y2="913.36" fill="none" stroke="#add5d0" stroke-linecap="round" stroke-linejoin="round" stroke-width="8.33"/><line x1="5132.5" y1="440.55" x2="5012.2" y2="510" fill="none" stroke="#add5d0" stroke-linecap="round" stroke-linejoin="round" stroke-width="8.33"/><line x1="5253.82" y1="370.51" x2="5206.8" y2="397.65" fill="none" stroke="#add5d0" stroke-linecap="round" stroke-linejoin="round" stroke-width="8.33"/><line x1="5088.1" y1="320.3" x2="4957.64" y2="429.77" fill="none" stroke="#add5d0" stroke-linecap="round" stroke-linejoin="round" stroke-width="8.33"/><line x1="5168.8" y1="252.59" x2="5123.06" y2="290.96" fill="none" stroke="#add5d0" stroke-linecap="round" stroke-linejoin="round" stroke-width="8.33"/><line x1="5001.42" y1="226.52" x2="4928.49" y2="316.39" fill="none" stroke="#add5d0" stroke-linecap="round" stroke-linejoin="round" stroke-width="8.33"/><line x1="4856.43" y1="221.82" x2="4800.89" y2="318.02" fill="none" stroke="#add5d0" stroke-linecap="round" stroke-linejoin="round" stroke-width="8.33"/><line x1="4726.03" y1="248.13" x2="4705.2" y2="305.98" fill="none" stroke="#add5d0" stroke-linecap="round" stroke-linejoin="round" stroke-width="8.33"/><circle cx="4336.17" cy="452.09" r="17.19" fill="#f5ff9f" stroke="#949494" stroke-linecap="round" stroke-linejoin="round" stroke-width="7.08"/><circle cx="4270.11" cy="452.09" r="17.19" fill="#ff7474" stroke="#dbdbdb" stroke-linecap="round" stroke-linejoin="round" stroke-width="7.08"/><circle cx="4402.53" cy="452.09" r="17.19" fill="#7dff9f" stroke="#000" stroke-linecap="round" stroke-linejoin="round" stroke-width="7.08"/><circle cx="5896.7" cy="629.63" r="17.19" fill="#f5ff9f" stroke="#949494" stroke-linecap="round" stroke-linejoin="round" stroke-width="7.08"/><circle cx="5963.06" cy="629.63" r="17.19" transform="translate(4828.3 6517.48) rotate(-85.12)" fill="#7dff9f" stroke="#000" stroke-linecap="round" stroke-linejoin="round" stroke-width="7.08"/></g></g></svg>