<svg id="レイヤー_1" data-name="レイヤー 1" xmlns="http://www.w3.org/2000/svg" width="370.23mm" height="193.06mm" viewBox="0 0 1049.48 547.26"><rect x="140.17" y="0.5" width="839.98" height="545.99" fill="#fff" stroke="#3f3d56" stroke-miterlimit="10" stroke-width="1"/><rect x="476.89" y="96.25" width="451.99" height="93" fill="none" stroke="#3f3d56" stroke-miterlimit="10" stroke-width="1"/><rect x="451.81" y="111.29" width="451.99" height="93" fill="#b8d5ff"/><circle cx="161.17" cy="15.5" r="7" fill="#ff7474"/><circle cx="185.17" cy="15.5" r="7" fill="#f5ff9f"/><circle cx="209.17" cy="15.5" r="7" fill="#7dff9f"/><line x1="140.17" y1="30.83" x2="980.15" y2="30.83" fill="none" stroke="#3f3d56" stroke-miterlimit="10" stroke-width="1"/><circle cx="161.17" cy="15.5" r="7" fill="none" stroke="#3f3d56" stroke-miterlimit="10" stroke-width="1"/><circle cx="185.17" cy="15.5" r="7" fill="none" stroke="#3f3d56" stroke-miterlimit="10" stroke-width="1"/><circle cx="209.17" cy="15.5" r="7" fill="none" stroke="#3f3d56" stroke-miterlimit="10" stroke-width="1"/><path d="M32.24,204.55A21.62,21.62,0,1,0,5.6,172.64l8.09,7.66-10.4-3.24a21.62,21.62,0,0,0,29,27.49Z" transform="translate(-0.01)" fill="#66d1a8"/><path d="M140.4,279.59c-7.89-5.54-7.9-17.17-5.93-26.61s4.95-19.74.5-28.3c-6.4-12.29-23.22-13-37-14.35a129.82,129.82,0,0,1-30-6.5c-3.9-1.35-7.8-2.92-11-5.53-4.59-3.75-7.29-9.3-9.81-14.68q-12.66-26.87-24-54.32" transform="translate(-0.01)" fill="none" stroke="#3f3d56" stroke-miterlimit="10" stroke-width="1"/><path d="M30.89,201.86A21.62,21.62,0,1,0,4.26,170l8.09,7.65L2,174.41a21.61,21.61,0,0,0,28.94,27.48Z" transform="translate(-0.01)" fill="none" stroke="#3f3d56" stroke-miterlimit="10" stroke-width="1"/><path d="M4.54,141.91a21.62,21.62,0,0,1,1.73-20.67l8.61,6.4-5.31-10.3a21.59,21.59,0,1,1-5,24.57Z" transform="translate(-0.01)" fill="#66d1a8"/><path d="M2.76,138.33a21.57,21.57,0,0,1,1.73-20.67l8.61,6.4-5.32-10.3a21.63,21.63,0,1,1-5,24.57Z" transform="translate(-0.01)" fill="none" stroke="#3f3d56" stroke-miterlimit="10" stroke-width="1"/><path d="M95.38,213.11a21.62,21.62,0,0,0-12.84-41L86.63,180l-8.71-6.48h-.06a21.62,21.62,0,0,0,17.52,39.52Z" transform="translate(-0.01)" fill="#66d1a8"/><path d="M93.44,209.61a21.6,21.6,0,0,0-12.83-41l4.08,7.91L76,170.07h0A21.63,21.63,0,1,0,92.72,210h0l.78-.35Z" transform="translate(-0.01)" fill="none" stroke="#3f3d56" stroke-miterlimit="10" stroke-width="1"/><path d="M104,254.6a21.64,21.64,0,1,0-8.71-15.1l17,3.79-14.83,3.56A21.53,21.53,0,0,0,104,254.6Z" transform="translate(-0.01)" fill="#66d1a8"/><path d="M102.65,251.92a21.64,21.64,0,1,0-8.7-15.1l17,3.79-14.82,3.56A21.47,21.47,0,0,0,102.65,251.92Z" transform="translate(-0.01)" fill="none" stroke="#3f3d56" stroke-miterlimit="10" stroke-width="1"/><path d="M977.11,410.45a20.81,20.81,0,1,0,8.34-39.13l-1,10.68-3.74-9.8a20.79,20.79,0,0,0-3.6,38.25Z" transform="translate(-0.01)" fill="#66d1a8"/><path d="M984.53,537c-.5-9.27,8.31-16.18,16.63-20.3s17.9-8,21.74-16.43c5.51-12.16-3.92-25.33-11.13-36.57a125.72,125.72,0,0,1-12.91-26.63,33.94,33.94,0,0,1-2.35-11.61c.11-5.71,2.71-11,5.29-16.15q12.88-25.5,27-50.37" transform="translate(-0.01)" fill="none" stroke="#3f3d56" stroke-miterlimit="10" stroke-width="1"/><path d="M978.35,407.84a20.81,20.81,0,1,0,8.34-39.13l-1,10.68-3.73-9.8a20.79,20.79,0,0,0-3.61,38.25Z" transform="translate(-0.01)" fill="none" stroke="#3f3d56" stroke-miterlimit="10" stroke-width="1"/><path d="M1008.11,352.26a20.81,20.81,0,0,1,16.68-11l.27,10.33,4.64-10.15a20.83,20.83,0,1,1-21.59,10.79Z" transform="translate(-0.01)" fill="#66d1a8"/><path d="M1009.76,348.78a20.81,20.81,0,0,1,16.68-11l.27,10.33,4.64-10.15a20.83,20.83,0,1,1-21.59,10.79Z" transform="translate(-0.01)" fill="none" stroke="#3f3d56" stroke-miterlimit="10" stroke-width="1"/><path d="M1008.13,463.38a20.81,20.81,0,0,0,23.42-34.08l-3.56,7.8-.27-10.45h0a20.81,20.81,0,0,0-19.58,36.73h0Z" transform="translate(-0.01)" fill="#66d1a8"/><path d="M1009.63,459.83a20.81,20.81,0,0,0,23.43-34.08l-3.57,7.8-.27-10.45h0a20.81,20.81,0,0,0-19.58,36.73h0Z" transform="translate(-0.01)" fill="none" stroke="#3f3d56" stroke-miterlimit="10" stroke-width="1"/><path d="M981.83,494.56A20.81,20.81,0,1,0,988.09,479l7.22,15.12L983.8,485A20.69,20.69,0,0,0,981.83,494.56Z" transform="translate(-0.01)" fill="#66d1a8"/><path d="M983.07,492a20.79,20.79,0,1,0,6.25-15.57l7.23,15.12L985,482.41A20.8,20.8,0,0,0,983.07,492Z" transform="translate(-0.01)" fill="none" stroke="#3f3d56" stroke-miterlimit="10" stroke-width="1"/><path d="M115.23,118.55A21.62,21.62,0,1,0,88.6,86.64l8.08,7.66L86.29,91.06a21.62,21.62,0,0,0,29,27.49Z" transform="translate(-0.01)" fill="#66d1a8"/><path d="M139.91,112.3c-4.59-3.75-7.29-9.3-9.81-14.68Q117.53,70.76,106.21,43.3" transform="translate(-0.01)" fill="none" stroke="#3f3d56" stroke-miterlimit="10" stroke-width="1"/><path d="M113.88,115.86A21.62,21.62,0,1,0,87.26,84l8.09,7.65L85,88.41a21.61,21.61,0,0,0,28.93,27.48Z" transform="translate(-0.01)" fill="none" stroke="#3f3d56" stroke-miterlimit="10" stroke-width="1"/><path d="M87.54,55.91a21.62,21.62,0,0,1,1.73-20.67l8.6,6.4-5.3-10.3a21.59,21.59,0,1,1-5,24.57Z" transform="translate(-0.01)" fill="#66d1a8"/><path d="M85.76,52.33a21.54,21.54,0,0,1,1.73-20.67l8.6,6.4-5.31-10.3a21.63,21.63,0,1,1-1,30.57,21.31,21.31,0,0,1-4-6Z" transform="translate(-0.01)" fill="none" stroke="#3f3d56" stroke-miterlimit="10" stroke-width="1"/><line x1="403.89" y1="30.83" x2="403.89" y2="547.26" fill="none" stroke="#3f3d56" stroke-miterlimit="10" stroke-width="1"/><rect x="498.39" y="284.74" width="147" height="20" fill="#f2f2f2"/><rect x="729.39" y="284.74" width="147" height="20" fill="#f2f2f2"/><rect x="506.39" y="274.74" width="147" height="20" fill="none" stroke="#3f3d56" stroke-miterlimit="10" stroke-width="1"/><rect x="498.39" y="439.74" width="147" height="20" fill="#f2f2f2"/><rect x="506.39" y="429.74" width="147" height="20" fill="none" stroke="#3f3d56" stroke-miterlimit="10" stroke-width="1"/><rect x="498.89" y="360.24" width="377.99" height="20" fill="#f2f2f2"/><rect x="506.89" y="352.24" width="377.99" height="20" fill="none" stroke="#3f3d56" stroke-miterlimit="10" stroke-width="1"/><rect x="737.39" y="274.74" width="147" height="20" fill="none" stroke="#3f3d56" stroke-miterlimit="10" stroke-width="1"/><path d="M934.75,484.21s-12.22,9-15.59,9.7S934.75,484.21,934.75,484.21Z" transform="translate(-0.01)" opacity="0.1" style="isolation:isolate"/><path d="M924.58,322.62s5.26-2.13,8.35-1.66" transform="translate(-0.01)" opacity="0.1" style="isolation:isolate"/><path d="M198.32,259.11c0,26.13,17.17,48.71,42.06,59.42l-35.6-86.29A59.61,59.61,0,0,0,198.32,259.11Zm125-3.33c0-8.16-3.31-13.81-6.16-18.21-3.78-5.44-7.32-10-7.32-15.48,0-6.07,5.2-11.72,12.53-11.72a8.39,8.39,0,0,1,1,.06A80,80,0,0,0,273,193.11c-26.08,0-49,11.83-62.36,29.74,1.75,0,3.4.08,4.8.08,7.81,0,19.89-.84,19.89-.84,4-.21,4.5,5,.48,5.44,0,0-4,.42-8.54.63l27.18,71.51,16.33-43.33-11.68-28.18c-4-.21-7.83-.63-7.83-.63-4-.21-3.55-5.65.48-5.44,0,0,12.32.84,19.65.84,7.81,0,19.89-.84,19.89-.84,4-.21,4.5,5,.48,5.44,0,0-4,.42-8.54.63l27,71,7.45-22c3.22-9.13,5.68-15.69,5.68-21.34Z" transform="translate(-0.01)" fill="#bdeff4" stroke="#000" stroke-miterlimit="10" stroke-width="1"/><path d="M274.26,267.89l-22.39,57.55a83.84,83.84,0,0,0,45.87-1,5.15,5.15,0,0,1-.53-.91Zm64.18-37.45a45.45,45.45,0,0,1,.51,6.79c0,6.7-1.42,14.23-5.68,23.64l-22.8,58.3c22.19-11.44,37.12-32.7,37.12-57.06a59.76,59.76,0,0,0-9.15-31.67Z" transform="translate(-0.01)" fill="#bdeff4" stroke="#000" stroke-miterlimit="10" stroke-width="1"/></svg>