<svg id="レイヤー_1" data-name="レイヤー 1" xmlns="http://www.w3.org/2000/svg" width="63" height="95" viewBox="0 0 63 95"><line x1="18.72" y1="41.9" x2="33.14" y2="40.57" fill="none" stroke="#000" stroke-miterlimit="10" stroke-width="0.5"/><line x1="18.97" y1="44.93" x2="33.39" y2="43.6" fill="none" stroke="#000" stroke-miterlimit="10" stroke-width="0.5"/><line x1="19.23" y1="47.96" x2="33.64" y2="46.64" fill="none" stroke="#000" stroke-miterlimit="10" stroke-width="0.5"/><line x1="19.48" y1="50.99" x2="33.9" y2="49.67" fill="none" stroke="#000" stroke-miterlimit="10" stroke-width="0.5"/><line x1="19.73" y1="54.03" x2="34.15" y2="52.7" fill="none" stroke="#000" stroke-miterlimit="10" stroke-width="0.5"/><rect x="4.25" y="4.25" width="54.5" height="87.5" rx="1.22" fill="#fff"/><path d="M57.53,4.5a1,1,0,0,1,1,1V90.53a1,1,0,0,1-1,1H5.47a1,1,0,0,1-1-1V5.47a1,1,0,0,1,1-1H57.53m0-.5H5.47A1.47,1.47,0,0,0,4,5.47V90.53A1.47,1.47,0,0,0,5.47,92H57.53A1.47,1.47,0,0,0,59,90.53V5.47A1.47,1.47,0,0,0,57.53,4Z"/><line x1="4.5" y1="14.5" x2="59" y2="14.65" fill="none" stroke="#000" stroke-miterlimit="10" stroke-width="0.5"/><ellipse cx="15.58" cy="10.09" rx="1.45" ry="1.52" fill="#ff7474" stroke="#000" stroke-miterlimit="10" stroke-width="0.5"/><ellipse cx="21.37" cy="10.09" rx="1.45" ry="1.52" fill="#f5ff9f" stroke="#000" stroke-miterlimit="10" stroke-width="0.5"/><ellipse cx="27.16" cy="10.09" rx="1.45" ry="1.52" fill="#7dff9f" stroke="#000" stroke-miterlimit="10" stroke-width="0.5"/><circle cx="32.05" cy="61.09" r="0.5" stroke="#000" stroke-miterlimit="10" stroke-width="0.5"/><circle cx="32.05" cy="64" r="0.5" stroke="#000" stroke-miterlimit="10" stroke-width="0.5"/><circle cx="32.05" cy="67" r="0.5" stroke="#000" stroke-miterlimit="10" stroke-width="0.5"/><rect x="11.24" y="20.74" width="40.53" height="15.22" fill="#bdeff4" stroke="#000" stroke-miterlimit="10" stroke-width="0.5"/><rect x="11.24" y="40.74" width="40.53" height="15.22" fill="#c9f4df" stroke="#000" stroke-miterlimit="10" stroke-width="0.5"/><rect x="11.24" y="74.74" width="40.53" height="15.22" fill="#f2e0fc" stroke="#000" stroke-miterlimit="10" stroke-width="0.5"/><line x1="32.95" y1="42.04" x2="47.42" y2="42.04" fill="none" stroke="#000" stroke-miterlimit="10" stroke-width="0.5"/><line x1="32.95" y1="45.09" x2="47.42" y2="45.09" fill="none" stroke="#000" stroke-miterlimit="10" stroke-width="0.5"/><line x1="32.95" y1="48.13" x2="47.42" y2="48.13" fill="none" stroke="#000" stroke-miterlimit="10" stroke-width="0.5"/><line x1="32.95" y1="51.17" x2="47.42" y2="51.17" fill="none" stroke="#000" stroke-miterlimit="10" stroke-width="0.5"/><line x1="32.95" y1="54.22" x2="47.42" y2="54.22" fill="none" stroke="#000" stroke-miterlimit="10" stroke-width="0.5"/><line x1="15.58" y1="80.3" x2="45.97" y2="80.3" fill="none" stroke="#000" stroke-miterlimit="10" stroke-width="0.5"/><line x1="15.58" y1="29.87" x2="48.87" y2="29.87" fill="none" stroke="#000" stroke-miterlimit="10" stroke-width="0.5"/><line x1="15.58" y1="26.83" x2="48.87" y2="26.83" fill="none" stroke="#000" stroke-miterlimit="10" stroke-width="0.5"/><line x1="15.58" y1="83.35" x2="45.97" y2="83.35" fill="none" stroke="#000" stroke-miterlimit="10" stroke-width="0.5"/><line x1="15.58" y1="86.39" x2="45.97" y2="86.39" fill="none" stroke="#000" stroke-miterlimit="10" stroke-width="0.5"/><circle cx="18.92" cy="48.13" r="6" fill="#b8d5ff" stroke="#000" stroke-miterlimit="10" stroke-width="0.5"/></svg>