<svg id="レイヤー_1" data-name="レイヤー 1" xmlns="http://www.w3.org/2000/svg" width="103" height="81" viewBox="0 0 103 81"><line x1="71.31" y1="17.24" x2="77.49" y2="16.67" fill="none" stroke="#000" stroke-miterlimit="10" stroke-width="0.5"/><line x1="71.42" y1="18.54" x2="77.6" y2="17.97" fill="none" stroke="#000" stroke-miterlimit="10" stroke-width="0.5"/><line x1="71.53" y1="19.84" x2="77.7" y2="19.27" fill="none" stroke="#000" stroke-miterlimit="10" stroke-width="0.5"/><line x1="71.63" y1="21.14" x2="77.81" y2="20.57" fill="none" stroke="#000" stroke-miterlimit="10" stroke-width="0.5"/><line x1="71.74" y1="22.44" x2="77.92" y2="21.87" fill="none" stroke="#000" stroke-miterlimit="10" stroke-width="0.5"/><rect x="65.25" y="1.25" width="23.07" height="29.5" rx="1.22" fill="#fff"/><path d="M87.1,1.5a1,1,0,0,1,1,1V29.53a1,1,0,0,1-1,1H66.47a1,1,0,0,1-1-1V2.47a1,1,0,0,1,1-1H87.1m0-.5H66.47A1.47,1.47,0,0,0,65,2.47V29.53A1.47,1.47,0,0,0,66.47,31H87.1a1.47,1.47,0,0,0,1.47-1.47V2.47A1.47,1.47,0,0,0,87.1,1Z"/><line x1="65.21" y1="5.5" x2="88.57" y2="5.57" fill="none" stroke="#000" stroke-miterlimit="10" stroke-width="0.5"/><ellipse cx="69.96" cy="3.61" rx="0.62" ry="0.65" fill="#ff7474" stroke="#000" stroke-miterlimit="10" stroke-width="0.5"/><ellipse cx="72.44" cy="3.61" rx="0.62" ry="0.65" fill="#f5ff9f" stroke="#000" stroke-miterlimit="10" stroke-width="0.5"/><ellipse cx="74.92" cy="3.61" rx="0.62" ry="0.65" fill="#7dff9f" stroke="#000" stroke-miterlimit="10" stroke-width="0.5"/><rect x="68.1" y="8.17" width="17.37" height="6.52" fill="#66d1a8" stroke="#000" stroke-miterlimit="10" stroke-width="0.5"/><line x1="77.41" y1="17.3" x2="83.61" y2="17.3" fill="none" stroke="#000" stroke-miterlimit="10" stroke-width="0.5"/><line x1="77.41" y1="18.61" x2="83.61" y2="18.61" fill="none" stroke="#000" stroke-miterlimit="10" stroke-width="0.5"/><line x1="77.41" y1="19.91" x2="83.61" y2="19.91" fill="none" stroke="#000" stroke-miterlimit="10" stroke-width="0.5"/><line x1="77.41" y1="21.22" x2="83.61" y2="21.22" fill="none" stroke="#000" stroke-miterlimit="10" stroke-width="0.5"/><line x1="77.41" y1="22.52" x2="83.61" y2="22.52" fill="none" stroke="#000" stroke-miterlimit="10" stroke-width="0.5"/><line x1="69.96" y1="25.13" x2="82.99" y2="25.13" fill="none" stroke="#000" stroke-miterlimit="10" stroke-width="0.5"/><line x1="69.96" y1="12.09" x2="84.23" y2="12.09" fill="none" stroke="#000" stroke-miterlimit="10" stroke-width="0.5"/><line x1="69.96" y1="10.78" x2="84.23" y2="10.78" fill="none" stroke="#000" stroke-miterlimit="10" stroke-width="0.5"/><line x1="69.96" y1="26.43" x2="82.99" y2="26.43" fill="none" stroke="#000" stroke-miterlimit="10" stroke-width="0.5"/><line x1="69.96" y1="27.74" x2="82.99" y2="27.74" fill="none" stroke="#000" stroke-miterlimit="10" stroke-width="0.5"/><circle cx="71.39" cy="19.91" r="2.57" fill="#b8d5ff" stroke="#000" stroke-miterlimit="10" stroke-width="0.5"/><line x1="83.31" y1="41.24" x2="89.49" y2="40.67" fill="none" stroke="#000" stroke-miterlimit="10" stroke-width="0.5"/><line x1="83.42" y1="42.54" x2="89.6" y2="41.97" fill="none" stroke="#000" stroke-miterlimit="10" stroke-width="0.5"/><line x1="83.53" y1="43.84" x2="89.7" y2="43.27" fill="none" stroke="#000" stroke-miterlimit="10" stroke-width="0.5"/><line x1="83.63" y1="45.14" x2="89.81" y2="44.57" fill="none" stroke="#000" stroke-miterlimit="10" stroke-width="0.5"/><line x1="83.74" y1="46.44" x2="89.92" y2="45.87" fill="none" stroke="#000" stroke-miterlimit="10" stroke-width="0.5"/><rect x="77.25" y="25.25" width="23.07" height="29.5" rx="1.22" fill="#fff"/><path d="M99.1,25.5a1,1,0,0,1,1,1V53.53a1,1,0,0,1-1,1H78.47a1,1,0,0,1-1-1V26.47a1,1,0,0,1,1-1H99.1m0-.5H78.47A1.47,1.47,0,0,0,77,26.47V53.53A1.47,1.47,0,0,0,78.47,55H99.1a1.47,1.47,0,0,0,1.47-1.47V26.47A1.47,1.47,0,0,0,99.1,25Z"/><line x1="77.21" y1="29.5" x2="100.57" y2="29.57" fill="none" stroke="#000" stroke-miterlimit="10" stroke-width="0.5"/><ellipse cx="81.96" cy="27.61" rx="0.62" ry="0.65" fill="#ff7474" stroke="#000" stroke-miterlimit="10" stroke-width="0.5"/><ellipse cx="84.44" cy="27.61" rx="0.62" ry="0.65" fill="#f5ff9f" stroke="#000" stroke-miterlimit="10" stroke-width="0.5"/><ellipse cx="86.92" cy="27.61" rx="0.62" ry="0.65" fill="#7dff9f" stroke="#000" stroke-miterlimit="10" stroke-width="0.5"/><rect x="80.1" y="32.17" width="17.37" height="6.52" fill="#bdeff4" stroke="#000" stroke-miterlimit="10" stroke-width="0.5"/><line x1="89.41" y1="41.3" x2="95.61" y2="41.3" fill="none" stroke="#000" stroke-miterlimit="10" stroke-width="0.5"/><line x1="89.41" y1="42.61" x2="95.61" y2="42.61" fill="none" stroke="#000" stroke-miterlimit="10" stroke-width="0.5"/><line x1="89.41" y1="43.91" x2="95.61" y2="43.91" fill="none" stroke="#000" stroke-miterlimit="10" stroke-width="0.5"/><line x1="89.41" y1="45.22" x2="95.61" y2="45.22" fill="none" stroke="#000" stroke-miterlimit="10" stroke-width="0.5"/><line x1="89.41" y1="46.52" x2="95.61" y2="46.52" fill="none" stroke="#000" stroke-miterlimit="10" stroke-width="0.5"/><line x1="81.96" y1="49.13" x2="94.99" y2="49.13" fill="none" stroke="#000" stroke-miterlimit="10" stroke-width="0.5"/><line x1="81.96" y1="36.09" x2="96.23" y2="36.09" fill="none" stroke="#000" stroke-miterlimit="10" stroke-width="0.5"/><line x1="81.96" y1="34.78" x2="96.23" y2="34.78" fill="none" stroke="#000" stroke-miterlimit="10" stroke-width="0.5"/><line x1="81.96" y1="50.43" x2="94.99" y2="50.43" fill="none" stroke="#000" stroke-miterlimit="10" stroke-width="0.5"/><line x1="81.96" y1="51.74" x2="94.99" y2="51.74" fill="none" stroke="#000" stroke-miterlimit="10" stroke-width="0.5"/><circle cx="83.39" cy="43.91" r="2.57" fill="#efb" stroke="#000" stroke-miterlimit="10" stroke-width="0.5"/><line x1="71.31" y1="64.24" x2="77.49" y2="63.67" fill="none" stroke="#000" stroke-miterlimit="10" stroke-width="0.5"/><line x1="71.42" y1="65.54" x2="77.6" y2="64.97" fill="none" stroke="#000" stroke-miterlimit="10" stroke-width="0.5"/><line x1="71.53" y1="66.84" x2="77.7" y2="66.27" fill="none" stroke="#000" stroke-miterlimit="10" stroke-width="0.5"/><line x1="71.63" y1="68.14" x2="77.81" y2="67.57" fill="none" stroke="#000" stroke-miterlimit="10" stroke-width="0.5"/><line x1="71.74" y1="69.44" x2="77.92" y2="68.87" fill="none" stroke="#000" stroke-miterlimit="10" stroke-width="0.5"/><rect x="65.25" y="48.25" width="23.07" height="29.5" rx="1.22" fill="#fff"/><path d="M87.1,48.5a1,1,0,0,1,1,1V76.53a1,1,0,0,1-1,1H66.47a1,1,0,0,1-1-1V49.47a1,1,0,0,1,1-1H87.1m0-.5H66.47A1.47,1.47,0,0,0,65,49.47V76.53A1.47,1.47,0,0,0,66.47,78H87.1a1.47,1.47,0,0,0,1.47-1.47V49.47A1.47,1.47,0,0,0,87.1,48Z"/><line x1="65.21" y1="52.5" x2="88.57" y2="52.57" fill="none" stroke="#000" stroke-miterlimit="10" stroke-width="0.5"/><ellipse cx="69.96" cy="50.61" rx="0.62" ry="0.65" fill="#ff7474" stroke="#000" stroke-miterlimit="10" stroke-width="0.5"/><ellipse cx="72.44" cy="50.61" rx="0.62" ry="0.65" fill="#f5ff9f" stroke="#000" stroke-miterlimit="10" stroke-width="0.5"/><ellipse cx="74.92" cy="50.61" rx="0.62" ry="0.65" fill="#7dff9f" stroke="#000" stroke-miterlimit="10" stroke-width="0.5"/><rect x="68.1" y="55.17" width="17.37" height="6.52" fill="#f2e0fc" stroke="#000" stroke-miterlimit="10" stroke-width="0.5"/><line x1="77.41" y1="64.3" x2="83.61" y2="64.3" fill="none" stroke="#000" stroke-miterlimit="10" stroke-width="0.5"/><line x1="77.41" y1="65.61" x2="83.61" y2="65.61" fill="none" stroke="#000" stroke-miterlimit="10" stroke-width="0.5"/><line x1="77.41" y1="66.91" x2="83.61" y2="66.91" fill="none" stroke="#000" stroke-miterlimit="10" stroke-width="0.5"/><line x1="77.41" y1="68.22" x2="83.61" y2="68.22" fill="none" stroke="#000" stroke-miterlimit="10" stroke-width="0.5"/><line x1="77.41" y1="69.52" x2="83.61" y2="69.52" fill="none" stroke="#000" stroke-miterlimit="10" stroke-width="0.5"/><line x1="69.96" y1="72.13" x2="82.99" y2="72.13" fill="none" stroke="#000" stroke-miterlimit="10" stroke-width="0.5"/><line x1="69.96" y1="59.09" x2="84.23" y2="59.09" fill="none" stroke="#000" stroke-miterlimit="10" stroke-width="0.5"/><line x1="69.96" y1="57.78" x2="84.23" y2="57.78" fill="none" stroke="#000" stroke-miterlimit="10" stroke-width="0.5"/><line x1="69.96" y1="73.43" x2="82.99" y2="73.43" fill="none" stroke="#000" stroke-miterlimit="10" stroke-width="0.5"/><line x1="69.96" y1="74.74" x2="82.99" y2="74.74" fill="none" stroke="#000" stroke-miterlimit="10" stroke-width="0.5"/><circle cx="71.39" cy="66.91" r="2.57" fill="#3fff60" stroke="#000" stroke-miterlimit="10" stroke-width="0.5"/><line x1="14.51" y1="42.27" x2="25.78" y2="41.23" fill="none" stroke="#000" stroke-miterlimit="10" stroke-width="0.5"/><line x1="14.71" y1="44.64" x2="25.98" y2="43.6" fill="none" stroke="#000" stroke-miterlimit="10" stroke-width="0.5"/><line x1="14.9" y1="47.01" x2="26.18" y2="45.97" fill="none" stroke="#000" stroke-miterlimit="10" stroke-width="0.5"/><line x1="15.1" y1="49.38" x2="26.37" y2="48.34" fill="none" stroke="#000" stroke-miterlimit="10" stroke-width="0.5"/><line x1="15.3" y1="51.75" x2="26.57" y2="50.71" fill="none" stroke="#000" stroke-miterlimit="10" stroke-width="0.5"/><rect x="3.25" y="12.89" width="42.5" height="54.23" rx="1.22" fill="#fff"/><path d="M44.53,13.14a1,1,0,0,1,1,1V65.9a1,1,0,0,1-1,1H4.47a1,1,0,0,1-1-1V14.1a1,1,0,0,1,1-1H44.53m0-.5H4.47A1.46,1.46,0,0,0,3,14.1V65.9a1.46,1.46,0,0,0,1.47,1.46H44.53A1.46,1.46,0,0,0,46,65.9V14.1a1.46,1.46,0,0,0-1.47-1.46Z"/><line x1="3.39" y1="20.85" x2="46" y2="20.96" fill="none" stroke="#000" stroke-miterlimit="10" stroke-width="0.5"/><ellipse cx="12.05" cy="17.4" rx="1.13" ry="1.19" fill="#ff7474" stroke="#000" stroke-miterlimit="10" stroke-width="0.5"/><ellipse cx="16.58" cy="17.4" rx="1.13" ry="1.19" fill="#f5ff9f" stroke="#000" stroke-miterlimit="10" stroke-width="0.5"/><ellipse cx="21.11" cy="17.4" rx="1.13" ry="1.19" fill="#7dff9f" stroke="#000" stroke-miterlimit="10" stroke-width="0.5"/><rect x="20.31" y="22.56" width="6.84" height="3.78" fill="none" stroke="#000" stroke-miterlimit="10" stroke-width="0.5"/><rect x="28.45" y="22.56" width="6.84" height="3.78" fill="none" stroke="#000" stroke-miterlimit="10" stroke-width="0.5"/><rect x="36.47" y="22.56" width="6.84" height="3.78" fill="none" stroke="#000" stroke-miterlimit="10" stroke-width="0.5"/><line x1="25.63" y1="42.38" x2="36.95" y2="42.38" fill="none" stroke="#000" stroke-miterlimit="10" stroke-width="0.5"/><line x1="25.63" y1="44.76" x2="36.95" y2="44.76" fill="none" stroke="#000" stroke-miterlimit="10" stroke-width="0.5"/><line x1="25.63" y1="47.14" x2="36.95" y2="47.14" fill="none" stroke="#000" stroke-miterlimit="10" stroke-width="0.5"/><line x1="25.63" y1="49.52" x2="36.95" y2="49.52" fill="none" stroke="#000" stroke-miterlimit="10" stroke-width="0.5"/><line x1="25.63" y1="51.9" x2="36.95" y2="51.9" fill="none" stroke="#000" stroke-miterlimit="10" stroke-width="0.5"/><line x1="12.05" y1="56.66" x2="35.82" y2="56.66" fill="none" stroke="#000" stroke-miterlimit="10" stroke-width="0.5"/><line x1="12.05" y1="32.86" x2="38.08" y2="32.86" fill="none" stroke="#000" stroke-miterlimit="10" stroke-width="0.5"/><line x1="12.05" y1="30.48" x2="38.08" y2="30.48" fill="none" stroke="#000" stroke-miterlimit="10" stroke-width="0.5"/><line x1="12.05" y1="59.04" x2="35.82" y2="59.04" fill="none" stroke="#000" stroke-miterlimit="10" stroke-width="0.5"/><line x1="12.05" y1="61.42" x2="35.82" y2="61.42" fill="none" stroke="#000" stroke-miterlimit="10" stroke-width="0.5"/><circle cx="14.67" cy="47.14" r="4.69" fill="#66d1a8" stroke="#000" stroke-miterlimit="10" stroke-width="0.5"/><text transform="translate(23.08 25.26)" font-size="3" font-family="KozGoPr6N-Regular-83pv-RKSJ-H, Kozuka Gothic Pr6N">A</text><text transform="translate(8.08 25.12)" font-size="3" font-family="KozGoPr6N-Regular-83pv-RKSJ-H, Kozuka Gothic Pr6N">TOP</text><text transform="translate(31.29 25.26)" font-size="3" font-family="KozGoPr6N-Regular-83pv-RKSJ-H, Kozuka Gothic Pr6N">B</text><text transform="translate(39.27 25.26)" font-size="3" font-family="KozGoPr6N-Regular-83pv-RKSJ-H, Kozuka Gothic Pr6N">C</text><line x1="45.5" y1="40.5" x2="77.5" y2="40.5" fill="none" stroke="#000" stroke-miterlimit="10" stroke-width="0.5"/><polyline points="65.5 15.5 56.5 15.5 56.5 63.04 65 63.04" fill="none" stroke="#000" stroke-miterlimit="10" stroke-width="0.5"/><rect x="3" y="34" width="43" height="14" fill="#150a00" opacity="0.63"/><rect x="65" y="10" width="23" height="10" fill="#150a00" opacity="0.63"/><rect x="77" y="35" width="23" height="10" fill="#150a00" opacity="0.63"/><rect x="65" y="59" width="23" height="10" fill="#150a00" opacity="0.63"/><text transform="translate(19.58 43.12)" font-size="6" fill="#fff" font-family="KozGoPr6N-Regular-83pv-RKSJ-H, Kozuka Gothic Pr6N">TOP</text><text transform="translate(75.36 16.06)" font-size="6" fill="#fff" font-family="KozGoPr6N-Regular-83pv-RKSJ-H, Kozuka Gothic Pr6N">A</text><text transform="translate(87.36 41.06)" font-size="6" fill="#fff" font-family="KozGoPr6N-Regular-83pv-RKSJ-H, Kozuka Gothic Pr6N">B</text><text transform="translate(74.36 65.06)" font-size="6" fill="#fff" font-family="KozGoPr6N-Regular-83pv-RKSJ-H, Kozuka Gothic Pr6N">C</text></svg>