<svg id="レイヤー_1" data-name="レイヤー 1" xmlns="http://www.w3.org/2000/svg" width="5473" height="3645" viewBox="0 0 5473 3645"><g style="isolation:isolate"><path d="M2811.24,2794.42c.92,9,1361.52,791.23,1366.75,797.17a16.9,16.9,0,0,1-6.25-6.53Z" fill="#818585"/><path d="M2811.24,2794.42l1360.5,790.64a20.84,20.84,0,0,1-1.11-2.33L2810.13,2792.1A19.88,19.88,0,0,0,2811.24,2794.42Z" fill="#868a8a"/><path d="M2810.13,2792.1l1360.5,790.63q-.39-.95-.72-2L2809.42,2790.12C2809.63,2790.8,2809.87,2791.46,2810.13,2792.1Z" fill="#8b8f8f"/><path d="M2809.42,2790.12l1360.49,790.63c-.18-.59-.35-1.2-.5-1.83l-1360.5-790.64C2809.06,2788.91,2809.23,2789.53,2809.42,2790.12Z" fill="#909494"/><path d="M2808.91,2788.28l1360.5,790.64c-.13-.55-.25-1.11-.35-1.69L2808.56,2786.6C2808.66,2787.17,2808.78,2787.74,2808.91,2788.28Z" fill="#959999"/><path d="M2808.56,2786.6l1360.5,790.63c-.1-.54-.19-1.08-.26-1.65L2808.31,2785C2808.38,2785.51,2808.46,2786.06,2808.56,2786.6Z" fill="#9a9e9e"/><path d="M2808.31,2785,4168.8,3575.58c-.07-.53-.12-1.08-.17-1.63l-1360.5-790.64C2808.18,2783.87,2808.24,2784.42,2808.31,2785Z" fill="#9fa3a3"/><path d="M2808.13,2783.31,4168.63,3574c0-.52-.07-1-.1-1.59L2808,2781.73C2808.06,2782.27,2808.09,2782.8,2808.13,2783.31Z" fill="#a4a8a8"/><path d="M2808,2781.73l1360.49,790.63c0-.53,0-1.07,0-1.61L2808,2780.11C2808,2780.66,2808,2781.2,2808,2781.73Z" fill="#a9adad"/><path d="M2808,2780.11l1360.5,790.64v0L2808,2780.09Z" fill="#aeb3b3"/></g><path d="M4201.13,3589.32l734.4-424c17.92-10.35,32.44-35.49,32.38-56.14L4168.5,3570.73C4168.56,3591.37,4183.17,3599.7,4201.13,3589.32Z" fill="#868989"/><polygon points="2808 2780.09 4168.5 3570.73 4967.91 3109.18 3607.42 2318.55 2808 2780.09" fill="#e6e6e6"/><path d="M3709.72,3248.35c-9.73,0-18.86-2.19-25.7-6.16l-330-191.78c-6.72-3.91-10.43-9.09-10.42-14.57s3.77-10.73,10.59-14.67l171.45-99c6.89-4,16-6.17,25.77-6.17s18.85,2.19,25.7,6.17l330,191.78c6.73,3.92,10.44,9.09,10.43,14.57s-3.77,10.72-10.6,14.67l-171.45,99c-6.89,4-16,6.16-25.77,6.16Z" fill="#fff"/><path d="M3551.4,2916.51c9.64,0,18.68,2.17,25.45,6.1l330,191.78c6.57,3.83,10.19,8.85,10.18,14.14s-3.68,10.39-10.35,14.24l-171.45,99c-6.81,3.93-15.87,6.1-25.52,6.1s-18.68-2.17-25.45-6.1l-330-191.78c-6.57-3.81-10.19-8.83-10.18-14.13s3.68-10.39,10.34-14.24l171.45-99c6.82-3.94,15.88-6.11,25.52-6.11m0-1c-9.4,0-18.81,2.08-26,6.24l-171.45,99c-14.39,8.3-14.46,21.79-.17,30.1l330,191.78c7.15,4.15,16.54,6.23,25.95,6.23s18.82-2.08,26-6.23l171.45-99c14.42-8.32,14.46-21.79.17-30.1l-330-191.78c-7.15-4.16-16.54-6.24-25.95-6.24Z"/><path d="M3403.35,2579.69a14.66,14.66,0,0,1-7.26-1.74,430.66,430.66,0,0,0-42.19-24.2c-10.9-5.61-17.47-9-17.53-12.31-.06-4,9.27-9.24,27.87-19.61,5.46-3,11.66-6.49,18.76-10.55a16.12,16.12,0,0,1,14.49,0,430.33,430.33,0,0,0,42.21,24.22c10.9,5.61,17.47,9,17.53,12.31.07,4.05-9.29,9.26-27.94,19.65-5.43,3-11.59,6.46-18.65,10.49a14.83,14.83,0,0,1-7.29,1.74Z" fill="#fff"/><path d="M3390.25,2510.06a14.13,14.13,0,0,1,7,1.64,434.07,434.07,0,0,0,42.26,24.25c10.73,5.51,17.21,8.85,17.26,11.87.06,3.75-9.79,9.24-27.68,19.21-5.44,3-11.6,6.46-18.66,10.49a15.65,15.65,0,0,1-14,0,431.7,431.7,0,0,0-42.23-24.24c-10.73-5.52-17.21-8.85-17.26-11.87-.06-3.74,9.77-9.22,27.61-19.16,5.47-3,11.66-6.5,18.77-10.56a14.34,14.34,0,0,1,7-1.65m0-1a15.4,15.4,0,0,0-7.5,1.79c-72.53,41.4-55.21,22.75,13.09,67.54a16.59,16.59,0,0,0,15,0c72.53-41.37,55.13-22.75-13.15-67.53a15.28,15.28,0,0,0-7.49-1.79Z"/><path d="M4561.12,3253.56a7.9,7.9,0,0,1-4-.89,482.26,482.26,0,0,0-52.51-30c-13.39-6.78-21.46-10.87-21.55-15.15-.12-5.47,12.16-12.36,39.07-27.44,7.61-4.26,16.22-9.09,26.13-14.76,2-1.34,2.89-2.67,2.82-4.07-.12-2.85-4.29-5.18-8.7-7.65s-8.72-4.87-8.9-7.58c-.09-1.26.76-2.54,2.58-3.9l44.1-25.46a12.92,12.92,0,0,1,6.39-1.42,21.15,21.15,0,0,1,10.34,2.69l94.79,55.09c2.82,1.64,4.5,3.78,4.5,5.73a4,4,0,0,1-2.33,3.41l-44.14,25.49c-4.13,1.49-13.12,7.09-24.5,14.18-21.53,13.41-51,31.77-64.08,31.77Z" fill="#fff"/><path d="M4586.55,3115.7a20.63,20.63,0,0,1,10.09,2.63l94.79,55.08c2.66,1.55,4.25,3.53,4.25,5.3a3.61,3.61,0,0,1-2.08,3l-31.8,18.36-12.27,7.09c-4.29,1.58-13.26,7.16-24.59,14.22-21.47,13.38-50.88,31.7-63.82,31.7a7.45,7.45,0,0,1-3.73-.81,482.76,482.76,0,0,0-52.55-30.07c-13.22-6.69-21.2-10.74-21.28-14.71-.11-5.17,12.9-12.46,38.82-27,7.6-4.26,16.22-9.09,26.13-14.77l0,0,0,0c2.09-1.42,3.07-2.89,3-4.49-.13-3.12-4.42-5.52-9-8.06-4-2.22-8.48-4.74-8.64-7.18-.07-1.05.71-2.2,2.33-3.42l44.1-25.46a12.52,12.52,0,0,1,6.14-1.36m0-1a13.55,13.55,0,0,0-6.64,1.49l-44.15,25.49c-13.07,9.78,24.76,14.66,12.25,23.16-100.48,57.55-75.49,32.25,8.85,88.26a8.34,8.34,0,0,0,4.26,1c20,0,76.51-41.56,88.84-46l44.14-25.49c4.17-2.41,3.18-6.91-2.17-10l-94.79-55.09a21.78,21.78,0,0,0-10.59-2.76Z"/><path d="M3366.38,2648.58a14.64,14.64,0,0,1-7.23-1.72l-98.42-57.2c-1.81-1.06-2.81-2.44-2.81-3.89s1-2.86,2.86-3.92l44.18-25.51a16.12,16.12,0,0,1,14.49,0l98.42,57.19c1.81,1.06,2.81,2.44,2.81,3.89s-1,2.86-2.86,3.93l-44.19,25.51a14.83,14.83,0,0,1-7.25,1.72Z" fill="#fff"/><path d="M3312.21,2555.12a14.07,14.07,0,0,1,7,1.65l98.42,57.19c1.66,1,2.57,2.2,2.57,3.46s-.93,2.52-2.61,3.49l-44.18,25.51a15.57,15.57,0,0,1-14,0L3261,2589.23c-1.65-1-2.56-2.19-2.56-3.46s.93-2.52,2.61-3.49l44.18-25.51a14.23,14.23,0,0,1,7-1.65m0-1a15.4,15.4,0,0,0-7.5,1.78l-44.18,25.51c-4.13,2.39-4.15,6.3-.05,8.68l98.42,57.2a16.59,16.59,0,0,0,15,0l44.18-25.51c4.13-2.39,4.15-6.29,0-8.68l-98.42-57.2a15.28,15.28,0,0,0-7.49-1.78Z"/><path d="M4486.39,3299.44a14.74,14.74,0,0,1-7.28-1.74l-95.23-55.34c-1.81-1.05-2.81-2.43-2.81-3.89s1-2.85,2.86-3.92l44.19-25.51a16.1,16.1,0,0,1,14.48,0l95.22,55.34c1.84,1.07,2.85,2.46,2.85,3.92s-1,2.85-2.86,3.91l-44.18,25.51a14.71,14.71,0,0,1-7.24,1.72Z" fill="#fff"/><path d="M4435.37,3207.82a14.24,14.24,0,0,1,7,1.65l95.22,55.34c1.68,1,2.6,2.21,2.6,3.49s-.93,2.51-2.61,3.48l-44.18,25.51a15.63,15.63,0,0,1-14,0l-95.22-55.34c-1.66-1-2.57-2.19-2.57-3.46s.93-2.51,2.61-3.49l44.19-25.5a14.18,14.18,0,0,1,7-1.66m0-1a15.35,15.35,0,0,0-7.5,1.79l-44.19,25.51c-4.13,2.38-4.15,6.29-.05,8.68l95.23,55.34a16.65,16.65,0,0,0,15,0l44.18-25.51c4.13-2.39,4.15-6.3,0-8.7l-95.22-55.34a15.27,15.27,0,0,0-7.48-1.79Z"/><path d="M4720.47,3164.29a14.73,14.73,0,0,1-7.28-1.73,417.3,417.3,0,0,0-41-23.55c-10.67-5.48-17.11-8.8-17.16-12.07-.07-4,9.28-9.22,27.91-19.61,5.45-3,11.62-6.48,18.71-10.52a16.12,16.12,0,0,1,14.55,0,416,416,0,0,0,41,23.54c10.68,5.49,17.12,8.81,17.17,12.08.07,4-9.27,9.22-27.89,19.6-5.46,3-11.65,6.5-18.76,10.55a14.71,14.71,0,0,1-7.24,1.72Z" fill="#fff"/><path d="M4708.91,3095.57a14.3,14.3,0,0,1,7,1.65,417.34,417.34,0,0,0,41.07,23.57c10.5,5.4,16.84,8.66,16.89,11.63.07,3.72-9.77,9.2-27.63,19.16-5.47,3.05-11.66,6.5-18.77,10.56a15.65,15.65,0,0,1-14,0,418.43,418.43,0,0,0-41.08-23.57c-10.5-5.4-16.84-8.66-16.89-11.63-.06-3.72,9.78-9.2,27.65-19.17,5.45-3,11.63-6.48,18.72-10.53a14.29,14.29,0,0,1,7-1.67m0-1a15.43,15.43,0,0,0-7.54,1.8c-72.3,41.27-55.07,22.88,11.57,66.62a16.65,16.65,0,0,0,15,0c72.33-41.3,55.12-22.89-11.54-66.64a15.31,15.31,0,0,0-7.51-1.8Z"/><path d="M4631,3112.32a14.64,14.64,0,0,1-7.23-1.72l-54.16-31.47c-1.83-1.07-2.84-2.46-2.84-3.92s1-2.85,2.86-3.92l44.18-25.51a14.93,14.93,0,0,1,7.28-1.73,14.72,14.72,0,0,1,7.27,1.74,398.24,398.24,0,0,0,39.82,22.84c10.41,5.34,16.69,8.57,16.75,11.79.07,4-9.41,9.3-28.3,19.84-5.36,3-11.44,6.38-18.38,10.34A14.75,14.75,0,0,1,4631,3112.32Z" fill="#fff"/><path d="M4621.12,3044.55a14.24,14.24,0,0,1,7,1.65,399.17,399.17,0,0,0,39.87,22.88c10.24,5.25,16.43,8.43,16.48,11.35.06,3.71-9.33,9-28.05,19.39-5.36,3-11.43,6.38-18.38,10.35a15.63,15.63,0,0,1-14,0l-54.16-31.47c-1.67-1-2.59-2.22-2.59-3.49s.93-2.51,2.61-3.48l44.18-25.51a14.26,14.26,0,0,1,7-1.67m0-1a15.43,15.43,0,0,0-7.54,1.8l-44.18,25.51c-4.13,2.39-4.16,6.3,0,8.7l54.16,31.47a16.57,16.57,0,0,0,15,0c72.29-41.22,54.79-23.11-9.89-65.68a15.31,15.31,0,0,0-7.51-1.8Z"/><path d="M4543.66,3061.56a14.64,14.64,0,0,1-7.23-1.73l-54.15-31.47c-1.84-1.06-2.85-2.46-2.85-3.91s1-2.86,2.86-3.92l44.19-25.51a16.16,16.16,0,0,1,14.55,0l54.15,31.47c1.82,1.06,2.81,2.44,2.81,3.89s-1,2.87-2.89,3.95l-44.18,25.5A14.79,14.79,0,0,1,4543.66,3061.56Z" fill="#fff"/><path d="M4533.76,2993.78a14.25,14.25,0,0,1,7,1.67l54.16,31.47c1.65,1,2.56,2.19,2.56,3.46s-.94,2.53-2.64,3.51l-44.18,25.51a14.25,14.25,0,0,1-7,1.66,14.06,14.06,0,0,1-7-1.66l-54.16-31.47c-1.68-1-2.6-2.21-2.59-3.48s.92-2.52,2.6-3.49l44.19-25.51a14.36,14.36,0,0,1,7-1.67m0-1a15.42,15.42,0,0,0-7.53,1.81L4482,3020.1c-4.13,2.38-4.15,6.29,0,8.69l54.15,31.48a16.59,16.59,0,0,0,15,0l44.18-25.51c4.16-2.41,4.19-6.32.08-8.7l-54.15-31.47a15.32,15.32,0,0,0-7.52-1.81Z"/><path d="M4456.31,3010.79a14.64,14.64,0,0,1-7.23-1.72l-54.15-31.47c-1.84-1.07-2.85-2.46-2.85-3.92s1-2.85,2.86-3.92l44.18-25.5a14.83,14.83,0,0,1,7.29-1.74,14.66,14.66,0,0,1,7.26,1.74,396.24,396.24,0,0,0,39.82,22.84c10.41,5.35,16.69,8.57,16.75,11.79.07,4-9.41,9.3-28.3,19.84-5.36,3-11.43,6.38-18.38,10.34A14.75,14.75,0,0,1,4456.31,3010.79Z" fill="#fff"/><path d="M4446.41,2943a14.2,14.2,0,0,1,7,1.66,400.78,400.78,0,0,0,39.86,22.87c10.24,5.26,16.43,8.43,16.48,11.35.06,3.71-9.33,8.95-28,19.39-5.36,3-11.44,6.38-18.39,10.35a15.63,15.63,0,0,1-14,0l-54.15-31.47c-1.68-1-2.6-2.22-2.6-3.49s.93-2.51,2.61-3.48l44.18-25.51a14.29,14.29,0,0,1,7-1.67m0-1a15.43,15.43,0,0,0-7.54,1.8l-44.18,25.51c-4.13,2.39-4.15,6.3,0,8.7l54.15,31.47a16.57,16.57,0,0,0,15,0c72.29-41.22,54.8-23.11-9.89-65.68a15.31,15.31,0,0,0-7.51-1.8Z"/><path d="M4369,2960a14.61,14.61,0,0,1-7.23-1.72l-54.16-31.48c-1.83-1.06-2.84-2.45-2.84-3.91s1-2.86,2.86-3.92l44.18-25.51a16.16,16.16,0,0,1,14.55,0,399.91,399.91,0,0,0,39.81,22.85c10.42,5.34,16.7,8.57,16.75,11.79.07,4-9.41,9.3-28.29,19.83-5.36,3-11.44,6.39-18.38,10.34A14.64,14.64,0,0,1,4369,2960Z" fill="#fff"/><path d="M4359.05,2892.26a14.17,14.17,0,0,1,7,1.65,398.69,398.69,0,0,0,39.87,22.87c10.24,5.26,16.42,8.43,16.47,11.35.07,3.72-9.32,9-28,19.4-5.37,3-11.44,6.38-18.39,10.34a14.24,14.24,0,0,1-7,1.66,14.07,14.07,0,0,1-7-1.66l-54.16-31.47c-1.67-1-2.59-2.21-2.59-3.48s.93-2.52,2.61-3.49l44.18-25.51a14.36,14.36,0,0,1,7-1.66m0-1a15.41,15.41,0,0,0-7.53,1.8l-44.18,25.51c-4.14,2.38-4.16,6.29,0,8.7l54.16,31.47a15.24,15.24,0,0,0,7.48,1.79,15.4,15.4,0,0,0,7.5-1.79c72.28-41.22,54.8-23.11-9.89-65.68a15.32,15.32,0,0,0-7.52-1.8Z"/><path d="M4281.62,2909.26a14.74,14.74,0,0,1-7.28-1.74l-54.12-31.45c-1.84-1.07-2.85-2.46-2.85-3.92s1-2.85,2.86-3.91l44.19-25.51a16.08,16.08,0,0,1,14.55,0,399.25,399.25,0,0,0,39.8,22.84c10.41,5.34,16.7,8.57,16.76,11.79.07,4-9.42,9.31-28.31,19.85-5.36,3-11.43,6.37-18.36,10.33a14.76,14.76,0,0,1-7.24,1.72Z" fill="#fff"/><path d="M4271.7,2841.49a14.2,14.2,0,0,1,7,1.66,398.36,398.36,0,0,0,39.85,22.86c10.25,5.26,16.44,8.44,16.49,11.36.06,3.72-9.34,9-28.06,19.4-5.35,3-11.42,6.38-18.37,10.34a15.61,15.61,0,0,1-14,0l-54.12-31.45c-1.68-1-2.6-2.21-2.6-3.49s.93-2.51,2.61-3.48l44.19-25.51a14.25,14.25,0,0,1,7-1.67m0-1a15.39,15.39,0,0,0-7.53,1.8L4220,2867.8c-4.13,2.39-4.15,6.3,0,8.7l54.12,31.45a16.55,16.55,0,0,0,15,0c72.28-41.21,54.8-23.11-9.88-65.67a15.24,15.24,0,0,0-7.52-1.81Z"/><path d="M4194.26,2858.5a14.7,14.7,0,0,1-7.27-1.74l-54.13-31.45c-1.83-1.07-2.84-2.46-2.84-3.92s1-2.85,2.86-3.92l44.18-25.51a14.83,14.83,0,0,1,7.29-1.73,14.65,14.65,0,0,1,7.26,1.73l54.12,31.46c1.84,1.06,2.84,2.45,2.84,3.91s-1,2.86-2.89,3.94l-44.18,25.51a14.82,14.82,0,0,1-7.24,1.72Z" fill="#fff"/><path d="M4184.35,2790.73a14.14,14.14,0,0,1,7,1.67l54.12,31.45c1.67,1,2.59,2.2,2.59,3.47s-.94,2.53-2.64,3.51l-44.18,25.51a15.53,15.53,0,0,1-14,0l-54.12-31.45c-1.68-1-2.6-2.21-2.6-3.48s.93-2.51,2.61-3.48l44.18-25.51a14.31,14.31,0,0,1,7-1.67m0-1a15.45,15.45,0,0,0-7.54,1.8L4132.63,2817c-4.13,2.38-4.15,6.29,0,8.7l54.12,31.45a16.57,16.57,0,0,0,15,0l44.18-25.51c4.17-2.4,4.19-6.31,0-8.72l-54.12-31.45a15.31,15.31,0,0,0-7.51-1.8Z"/><path d="M4106.91,2807.73a14.74,14.74,0,0,1-7.28-1.74l-54.12-31.45c-1.84-1.07-2.84-2.46-2.84-3.92s1-2.85,2.86-3.91l44.18-25.51a16.08,16.08,0,0,1,14.55,0,400.39,400.39,0,0,0,39.8,22.84c10.42,5.34,16.7,8.57,16.76,11.79.07,4-9.41,9.31-28.31,19.85-5.35,3-11.43,6.38-18.36,10.33a14.71,14.71,0,0,1-7.24,1.72Z" fill="#fff"/><path d="M4097,2740a14.2,14.2,0,0,1,7,1.66,398.36,398.36,0,0,0,39.85,22.86c10.25,5.26,16.44,8.44,16.49,11.36.06,3.72-9.33,9-28,19.4-5.36,3-11.43,6.38-18.37,10.34a15.63,15.63,0,0,1-14,0l-54.12-31.45c-1.67-1-2.59-2.21-2.59-3.49s.93-2.51,2.61-3.48l44.18-25.51a14.36,14.36,0,0,1,7-1.67m0-1a15.31,15.31,0,0,0-7.53,1.81l-44.18,25.51c-4.13,2.38-4.16,6.29,0,8.69l54.12,31.46a16.61,16.61,0,0,0,15,0c72.27-41.21,54.79-23.11-9.89-65.67A15.22,15.22,0,0,0,4097,2739Z"/><path d="M4019.56,2757a14.74,14.74,0,0,1-7.28-1.74l-54.12-31.45c-1.84-1.07-2.85-2.46-2.85-3.92s1-2.85,2.86-3.92l44.19-25.51a16.14,16.14,0,0,1,14.54,0l54.12,31.46c1.84,1.06,2.85,2.45,2.85,3.91s-1,2.87-2.89,3.94l-44.19,25.51a14.64,14.64,0,0,1-7.23,1.72Z" fill="#fff"/><path d="M4009.64,2689.2a14.14,14.14,0,0,1,7,1.67l54.12,31.45c1.68,1,2.6,2.21,2.6,3.48s-.94,2.53-2.64,3.51l-44.18,25.5a15.59,15.59,0,0,1-14,0l-54.12-31.46c-1.68-1-2.6-2.21-2.6-3.48s.93-2.51,2.61-3.48l44.19-25.51a14.25,14.25,0,0,1,7-1.67m0-1a15.41,15.41,0,0,0-7.53,1.8l-44.19,25.51c-4.13,2.39-4.15,6.29,0,8.7l54.12,31.45a16.57,16.57,0,0,0,15,0l44.18-25.51c4.16-2.4,4.18-6.31.05-8.72L4017.15,2690a15.28,15.28,0,0,0-7.51-1.8Z"/><path d="M3932.2,2706.2a14.76,14.76,0,0,1-7.28-1.74L3870.8,2673c-1.83-1.06-2.84-2.46-2.84-3.92s1-2.85,2.86-3.91l44.18-25.51a16.08,16.08,0,0,1,14.55,0l54.12,31.45c1.83,1.07,2.84,2.46,2.84,3.91s-1,2.87-2.89,3.94l-44.18,25.51a14.71,14.71,0,0,1-7.24,1.72Z" fill="#fff"/><path d="M3922.29,2638.43a14.25,14.25,0,0,1,7,1.67l54.12,31.45c1.67,1,2.59,2.21,2.59,3.48s-.94,2.53-2.64,3.51l-44.18,25.51a15.61,15.61,0,0,1-14,0l-54.13-31.45c-1.67-1-2.59-2.21-2.59-3.48s.93-2.52,2.61-3.49l44.18-25.51a14.4,14.4,0,0,1,7-1.67m0-1a15.43,15.43,0,0,0-7.54,1.81l-44.18,25.51c-4.13,2.38-4.15,6.29,0,8.69l54.12,31.46a16.65,16.65,0,0,0,15,0l44.18-25.51c4.17-2.41,4.19-6.32.05-8.72l-54.12-31.45a15.31,15.31,0,0,0-7.51-1.81Z"/><path d="M3844.85,2655.44a14.74,14.74,0,0,1-7.28-1.74l-54.15-31.47c-1.82-1.06-2.82-2.44-2.82-3.89s1-2.86,2.86-3.92l44.19-25.51a14.73,14.73,0,0,1,7.3-1.74,14.56,14.56,0,0,1,7.21,1.72l54.16,31.47c1.83,1.06,2.84,2.45,2.84,3.91s-1,2.87-2.89,3.94l-44.18,25.51a14.71,14.71,0,0,1-7.24,1.72Z" fill="#fff"/><path d="M3834.94,2587.67a14,14,0,0,1,7,1.65l54.16,31.47c1.67,1,2.59,2.21,2.59,3.48s-.94,2.53-2.64,3.51l-44.18,25.51a15.63,15.63,0,0,1-14,0l-54.15-31.47c-1.66-1-2.57-2.19-2.57-3.46s.93-2.52,2.61-3.49l44.19-25.51a14.29,14.29,0,0,1,7-1.67m0-1a15.45,15.45,0,0,0-7.54,1.8L3783.21,2614c-4.13,2.39-4.15,6.3,0,8.68l54.15,31.47a16.57,16.57,0,0,0,15,0l44.18-25.51c4.17-2.4,4.19-6.31.05-8.72l-54.16-31.47a15.17,15.17,0,0,0-7.47-1.78Z"/><path d="M3757.5,2604.67a14.63,14.63,0,0,1-7.28-1.74l-54.16-31.47c-1.81-1.05-2.81-2.43-2.81-3.89s1-2.86,2.86-3.92l44.18-25.51a14.9,14.9,0,0,1,7.3-1.74,14.6,14.6,0,0,1,7.22,1.72l54.15,31.47c1.84,1.07,2.85,2.46,2.84,3.91s-1,2.87-2.88,3.95L3764.73,2603a14.8,14.8,0,0,1-7.23,1.71Z" fill="#fff"/><path d="M3747.59,2536.9a14.17,14.17,0,0,1,7,1.65l54.15,31.47c1.68,1,2.6,2.21,2.59,3.48s-.93,2.53-2.63,3.51l-44.19,25.51a15.61,15.61,0,0,1-14,0L3696.31,2571c-1.65-1-2.56-2.19-2.56-3.46s.93-2.51,2.61-3.49l44.18-25.51a14.44,14.44,0,0,1,7.05-1.67m0-1a15.39,15.39,0,0,0-7.55,1.81l-44.18,25.51c-4.13,2.38-4.15,6.29-.05,8.68l54.16,31.47a16.63,16.63,0,0,0,15,0l44.19-25.51c4.16-2.41,4.18-6.31,0-8.72l-54.15-31.47a15.2,15.2,0,0,0-7.47-1.79Z"/><path d="M3670.14,2553.91a14.76,14.76,0,0,1-7.28-1.74l-54.15-31.47c-1.82-1.06-2.82-2.44-2.82-3.89s1-2.86,2.87-3.92l44.18-25.51a16.1,16.1,0,0,1,14.52,0l54.15,31.47c1.83,1.06,2.84,2.45,2.84,3.91s-1,2.87-2.89,3.94l-44.18,25.51a14.71,14.71,0,0,1-7.24,1.72Z" fill="#fff"/><path d="M3660.24,2486.14a14,14,0,0,1,7,1.65l54.16,31.47c1.67,1,2.59,2.21,2.59,3.48s-.94,2.53-2.64,3.51l-44.18,25.51a14.3,14.3,0,0,1-7,1.65,14.15,14.15,0,0,1-7-1.67L3609,2520.27c-1.66-1-2.57-2.19-2.57-3.46s.93-2.52,2.62-3.49l44.18-25.51a14.33,14.33,0,0,1,7-1.67m0-1a15.49,15.49,0,0,0-7.55,1.8l-44.18,25.51c-4.13,2.39-4.16,6.3-.05,8.68l54.15,31.47a16.57,16.57,0,0,0,15,0l44.18-25.51c4.17-2.4,4.19-6.31.05-8.71l-54.15-31.48a15.23,15.23,0,0,0-7.47-1.78Z"/><path d="M3580.08,2501.58a14.64,14.64,0,0,1-7.23-1.72l-78-45.35c-1.82-1.05-2.82-2.44-2.82-3.89s1-2.86,2.86-3.92l44.19-25.51a14.83,14.83,0,0,1,7.29-1.74,14.58,14.58,0,0,1,7.22,1.72l78,45.35c1.81,1.05,2.81,2.43,2.81,3.88s-1,2.88-2.89,3.95l-44.19,25.51a14.75,14.75,0,0,1-7.25,1.72Z" fill="#fff"/><path d="M3546.34,2420a14.17,14.17,0,0,1,7,1.65l78,45.35c1.65,1,2.56,2.19,2.56,3.45s-.94,2.54-2.64,3.52l-44.19,25.51a15.63,15.63,0,0,1-14,0l-78-45.35c-1.66-1-2.57-2.19-2.57-3.46s.93-2.52,2.61-3.49l44.19-25.51a14.29,14.29,0,0,1,7-1.67m0-1a15.35,15.35,0,0,0-7.54,1.81l-44.19,25.51c-4.13,2.38-4.15,6.29-.05,8.67l78,45.36a16.61,16.61,0,0,0,15,0l44.19-25.5c4.16-2.41,4.18-6.32.08-8.7l-78-45.35a15.18,15.18,0,0,0-7.47-1.79Z"/><path d="M4517.38,3136.69a14.6,14.6,0,0,1-7.22-1.72l-53.08-30.84c-1.81-1.06-2.81-2.43-2.81-3.88s1-2.88,2.9-4l44.14-25.49a14.87,14.87,0,0,1,7.3-1.73,14.6,14.6,0,0,1,7.22,1.72l53.08,30.84c1.81,1.06,2.81,2.44,2.81,3.89s-1,2.87-2.89,3.94L4524.68,3135a14.76,14.76,0,0,1-7.3,1.74Z" fill="#fff"/><path d="M4508.61,3069.57a14.06,14.06,0,0,1,7,1.65l53.08,30.84c1.65,1,2.56,2.19,2.56,3.45s-.94,2.54-2.64,3.52l-44.15,25.49a14.33,14.33,0,0,1-7.05,1.67,14.06,14.06,0,0,1-7-1.65l-53.08-30.84c-1.65-1-2.56-2.19-2.56-3.46s.94-2.53,2.65-3.51l44.14-25.49a14.33,14.33,0,0,1,7-1.67m0-1a15.49,15.49,0,0,0-7.55,1.8l-44.14,25.49c-4.17,2.41-4.19,6.32-.09,8.7l53.08,30.85a15.2,15.2,0,0,0,7.47,1.78,15.49,15.49,0,0,0,7.55-1.8l44.15-25.49c4.16-2.41,4.18-6.32.08-8.7l-53.08-30.85a15.2,15.2,0,0,0-7.47-1.78Z"/><path d="M4430.71,3086.32a14.66,14.66,0,0,1-7.26-1.74l-53.05-30.83c-1.81-1.05-2.81-2.43-2.81-3.88s1-2.87,2.89-3.95l44.15-25.49a14.87,14.87,0,0,1,7.3-1.74,14.6,14.6,0,0,1,7.22,1.72l53,30.83c1.84,1.06,2.85,2.45,2.84,3.91s-1,2.87-2.88,3.94L4438,3084.58A14.83,14.83,0,0,1,4430.71,3086.32Z" fill="#fff"/><path d="M4421.93,3019.19a14.2,14.2,0,0,1,7,1.65l53,30.83c1.67,1,2.59,2.21,2.59,3.48s-.94,2.53-2.63,3.51l-44.15,25.49a14.42,14.42,0,0,1-7,1.67,14.25,14.25,0,0,1-7-1.67l-53.05-30.83c-1.65-1-2.56-2.18-2.56-3.45s.94-2.53,2.64-3.52l44.15-25.49a14.44,14.44,0,0,1,7.05-1.67m0-1a15.39,15.39,0,0,0-7.55,1.81l-44.15,25.49c-4.16,2.4-4.18,6.31-.08,8.7l53,30.82a16.57,16.57,0,0,0,15.06,0l44.15-25.49c4.16-2.4,4.18-6.31,0-8.71l-53-30.83a15.2,15.2,0,0,0-7.47-1.79Z"/><path d="M4344,3035.93a14.56,14.56,0,0,1-7.21-1.72l-53.05-30.83c-1.83-1.06-2.84-2.45-2.84-3.91s1-2.87,2.89-3.94l44.15-25.49a16.08,16.08,0,0,1,14.55,0l53,30.83c1.82,1.05,2.82,2.43,2.81,3.88s-1,2.87-2.89,3.95l-44.15,25.49a14.84,14.84,0,0,1-7.3,1.74Z" fill="#fff"/><path d="M4335.2,2968.8a14.29,14.29,0,0,1,7,1.67l53,30.83c1.65,1,2.56,2.18,2.56,3.45s-.94,2.53-2.64,3.51L4351,3033.75a14.3,14.3,0,0,1-7.05,1.68,14.13,14.13,0,0,1-7-1.65L4284,3003c-1.67-1-2.59-2.21-2.59-3.48s.94-2.53,2.64-3.51l44.15-25.49a14.36,14.36,0,0,1,7-1.67m0-1a15.31,15.31,0,0,0-7.53,1.81l-44.15,25.48c-4.16,2.41-4.19,6.32-.05,8.72l53,30.83a15.23,15.23,0,0,0,7.47,1.79,15.47,15.47,0,0,0,7.55-1.81l44.15-25.49c4.17-2.4,4.19-6.31.08-8.7l-53-30.82a15.22,15.22,0,0,0-7.52-1.81Z"/><path d="M4257.3,2985.55a14.6,14.6,0,0,1-7.22-1.72L4197,2953c-1.82-1.06-2.82-2.44-2.81-3.89s1-2.87,2.89-3.95l44.15-25.48a14.72,14.72,0,0,1,7.29-1.74,14.58,14.58,0,0,1,7.22,1.72l53.08,30.84c1.82,1.06,2.81,2.44,2.81,3.89s-1,2.87-2.89,3.95l-44.15,25.48a14.84,14.84,0,0,1-7.3,1.74Z" fill="#fff"/><path d="M4248.53,2918.43a14,14,0,0,1,7,1.65l53.08,30.84c1.65,1,2.56,2.19,2.56,3.46s-.94,2.53-2.64,3.51l-44.15,25.49a14.3,14.3,0,0,1-7.05,1.67,14,14,0,0,1-7-1.65l-53.08-30.84c-1.66-1-2.57-2.19-2.56-3.45s.94-2.54,2.64-3.52l44.15-25.49a14.29,14.29,0,0,1,7-1.67m0-1a15.45,15.45,0,0,0-7.54,1.8l-44.15,25.49c-4.17,2.41-4.19,6.32-.08,8.7l53.07,30.85a15.23,15.23,0,0,0,7.47,1.78,15.47,15.47,0,0,0,7.55-1.8l44.15-25.49c4.17-2.41,4.19-6.32.08-8.7L4256,2919.21a15.17,15.17,0,0,0-7.47-1.78Z"/><path d="M4170.63,2935.18a14.71,14.71,0,0,1-7.26-1.74l-53-30.83c-1.82-1.05-2.82-2.43-2.81-3.88s1-2.87,2.89-3.95l44.15-25.49a14.83,14.83,0,0,1,7.29-1.74,14.58,14.58,0,0,1,7.22,1.72l53.05,30.83c1.83,1.06,2.84,2.45,2.84,3.91s-1,2.87-2.89,3.94l-44.15,25.49a14.83,14.83,0,0,1-7.29,1.74Z" fill="#fff"/><path d="M4161.85,2868.05a14.17,14.17,0,0,1,7,1.65l53.05,30.83c1.67,1,2.59,2.21,2.59,3.48s-.94,2.53-2.64,3.51L4177.67,2933a15.61,15.61,0,0,1-14.05,0l-53-30.83c-1.66-1-2.57-2.18-2.56-3.45s.94-2.53,2.64-3.52l44.15-25.48a14.29,14.29,0,0,1,7-1.68m0-1a15.35,15.35,0,0,0-7.54,1.81l-44.15,25.49c-4.17,2.4-4.19,6.31-.09,8.7l53.05,30.82a15.2,15.2,0,0,0,7.51,1.81,15.43,15.43,0,0,0,7.54-1.81l44.15-25.49c4.16-2.4,4.18-6.31.05-8.71l-53.05-30.83a15.18,15.18,0,0,0-7.47-1.79Z"/><path d="M4083.91,2884.79a14.6,14.6,0,0,1-7.22-1.72l-53.05-30.83c-1.83-1.06-2.84-2.45-2.84-3.91s1-2.87,2.89-3.94l44.15-25.49a16.08,16.08,0,0,1,14.55,0l53,30.83c1.81,1.05,2.81,2.43,2.81,3.88s-1,2.87-2.89,3.95l-44.15,25.49a14.87,14.87,0,0,1-7.3,1.74Z" fill="#fff"/><path d="M4075.13,2817.66a14.25,14.25,0,0,1,7,1.67l53,30.83c1.66,1,2.57,2.18,2.57,3.45s-.94,2.53-2.64,3.52L4091,2882.61a14.33,14.33,0,0,1-7.05,1.68,14.17,14.17,0,0,1-7-1.65l-53-30.83c-1.68-1-2.6-2.21-2.59-3.48s.93-2.53,2.63-3.51l44.15-25.49a14.4,14.4,0,0,1,7-1.67m0-1a15.32,15.32,0,0,0-7.54,1.81L4023.44,2844c-4.16,2.4-4.18,6.31-.05,8.71l53.05,30.83a15.2,15.2,0,0,0,7.47,1.79,15.52,15.52,0,0,0,7.55-1.81l44.15-25.49c4.16-2.4,4.18-6.31.08-8.7l-53-30.82a15.2,15.2,0,0,0-7.51-1.81Z"/><path d="M3997.22,2834.41a14.56,14.56,0,0,1-7.21-1.72l-53.08-30.84c-1.81-1.06-2.81-2.43-2.81-3.89s1-2.87,2.89-3.95l44.15-25.48a16.1,16.1,0,0,1,14.52,0l53.07,30.84c1.82,1.06,2.82,2.44,2.81,3.89s-1,2.87-2.89,3.94l-44.15,25.49a14.84,14.84,0,0,1-7.3,1.74Z" fill="#fff"/><path d="M3988.46,2767.29a14.09,14.09,0,0,1,7,1.65l53.07,30.84c1.66,1,2.57,2.19,2.56,3.45s-.94,2.54-2.64,3.52l-44.15,25.49a14.29,14.29,0,0,1-7,1.67,14,14,0,0,1-7-1.65l-53.08-30.84c-1.65-1-2.56-2.19-2.56-3.45s.94-2.54,2.64-3.52l44.15-25.49a14.33,14.33,0,0,1,7.05-1.67m0-1a15.49,15.49,0,0,0-7.55,1.8l-44.15,25.49c-4.16,2.41-4.18,6.32-.08,8.7l53.08,30.85a15.17,15.17,0,0,0,7.47,1.78,15.45,15.45,0,0,0,7.54-1.8l44.15-25.49c4.17-2.41,4.19-6.32.08-8.7l-53.07-30.85a15.23,15.23,0,0,0-7.47-1.78Z"/><path d="M3910.51,2784a14.6,14.6,0,0,1-7.22-1.72l-53-30.83c-1.81-1-2.81-2.43-2.81-3.88s1-2.87,2.89-4l44.15-25.49a14.84,14.84,0,0,1,7.3-1.74,14.6,14.6,0,0,1,7.22,1.72l53,30.83c1.81,1.05,2.81,2.43,2.81,3.88s-1,2.88-2.89,3.95l-44.15,25.49a14.84,14.84,0,0,1-7.3,1.74Z" fill="#fff"/><path d="M3901.78,2716.91a14.13,14.13,0,0,1,7,1.65l53.05,30.83c1.65,1,2.56,2.19,2.56,3.45s-.94,2.54-2.64,3.52l-44.15,25.49a14.33,14.33,0,0,1-7,1.67,14.13,14.13,0,0,1-7-1.65L3850.5,2751c-1.65-1-2.56-2.18-2.56-3.45s.94-2.53,2.64-3.52l44.15-25.48a14.33,14.33,0,0,1,7.05-1.68m0-1a15.39,15.39,0,0,0-7.55,1.81l-44.15,25.49c-4.16,2.4-4.19,6.31-.08,8.7l53,30.82a16.57,16.57,0,0,0,15,0l44.15-25.49c4.16-2.4,4.18-6.31.08-8.69l-53-30.83a15.23,15.23,0,0,0-7.47-1.79Z"/><path d="M3823.83,2733.65a14.6,14.6,0,0,1-7.22-1.72l-53-30.83c-1.83-1.06-2.84-2.45-2.84-3.91s1-2.87,2.89-3.94l44.15-25.49a16.06,16.06,0,0,1,14.54,0l53.05,30.82c1.81,1.06,2.81,2.44,2.81,3.89s-1,2.87-2.89,4l-44.15,25.49a14.84,14.84,0,0,1-7.3,1.74Z" fill="#fff"/><path d="M3815.05,2666.52a14.25,14.25,0,0,1,7,1.67l53.05,30.83c1.65,1,2.56,2.18,2.56,3.45s-.94,2.53-2.64,3.51l-44.15,25.49a14.33,14.33,0,0,1-7.05,1.68,14.06,14.06,0,0,1-7-1.66l-53-30.82c-1.67-1-2.59-2.21-2.59-3.48s.94-2.53,2.64-3.51l44.15-25.49a14.36,14.36,0,0,1,7-1.67m0-1a15.31,15.31,0,0,0-7.53,1.81l-44.15,25.49c-4.17,2.4-4.19,6.31,0,8.71l53,30.83a15.2,15.2,0,0,0,7.47,1.79,15.5,15.5,0,0,0,7.55-1.81l44.15-25.49c4.16-2.4,4.18-6.31.08-8.7l-53-30.82a15.22,15.22,0,0,0-7.52-1.81Z"/><path d="M3737.15,2683.27a14.6,14.6,0,0,1-7.22-1.72l-53.08-30.84c-1.81-1.06-2.81-2.44-2.81-3.89s1-2.87,2.9-3.94l44.14-25.49a14.79,14.79,0,0,1,7.3-1.74,14.6,14.6,0,0,1,7.22,1.72l53.08,30.84c1.81,1.06,2.81,2.44,2.81,3.89s-1,2.87-2.89,3.94l-44.15,25.49a14.84,14.84,0,0,1-7.3,1.74Z" fill="#fff"/><path d="M3728.38,2616.15a14.06,14.06,0,0,1,7,1.65l53.08,30.84c1.65,1,2.56,2.19,2.56,3.45s-.94,2.54-2.64,3.52l-44.15,25.49a14.33,14.33,0,0,1-7,1.67,14.06,14.06,0,0,1-7-1.65l-53.07-30.84c-1.66-1-2.57-2.19-2.57-3.45s.94-2.54,2.65-3.52l44.14-25.49a14.33,14.33,0,0,1,7.05-1.67m0-1a15.52,15.52,0,0,0-7.55,1.8l-44.14,25.49c-4.17,2.41-4.19,6.32-.09,8.7l53.08,30.85a15.2,15.2,0,0,0,7.47,1.78,15.49,15.49,0,0,0,7.55-1.8l44.15-25.49c4.16-2.41,4.18-6.32.08-8.7l-53.08-30.85a15.2,15.2,0,0,0-7.47-1.78Z"/><path d="M3650.43,2632.88a14.56,14.56,0,0,1-7.21-1.72l-53-30.83c-1.81-1-2.81-2.43-2.81-3.88s1-2.87,2.89-3.95L3634.4,2567a14.87,14.87,0,0,1,7.3-1.74,14.6,14.6,0,0,1,7.22,1.72l53,30.83c1.82,1,2.82,2.43,2.81,3.88s-1,2.88-2.89,4l-44.15,25.49a14.84,14.84,0,0,1-7.3,1.74Z" fill="#fff"/><path d="M3641.7,2565.77a14.17,14.17,0,0,1,7,1.65l53,30.83c1.66,1,2.57,2.19,2.56,3.45s-.94,2.54-2.64,3.52l-44.15,25.49a14.3,14.3,0,0,1-7.05,1.67,14.13,14.13,0,0,1-7-1.65l-53-30.83c-1.65-1-2.56-2.18-2.56-3.45s.94-2.53,2.64-3.52l44.15-25.49a14.44,14.44,0,0,1,7-1.67m0-1a15.39,15.39,0,0,0-7.55,1.81L3590,2592.07c-4.16,2.4-4.18,6.31-.08,8.7l53,30.82a15.16,15.16,0,0,0,7.46,1.79,15.36,15.36,0,0,0,7.55-1.81l44.15-25.49c4.17-2.4,4.19-6.31.09-8.69l-53-30.83a15.2,15.2,0,0,0-7.47-1.79Z"/><path d="M3563.75,2582.51a14.54,14.54,0,0,1-7.21-1.72l-53.08-30.85c-1.82-1.05-2.81-2.43-2.81-3.88s1-2.88,2.89-3.95l44.15-25.49a14.84,14.84,0,0,1,7.3-1.74,14.63,14.63,0,0,1,7.22,1.72l53.07,30.85c1.82,1.05,2.81,2.43,2.81,3.88s-1,2.87-2.89,4l-44.15,25.49a14.84,14.84,0,0,1-7.3,1.74Z" fill="#fff"/><path d="M3555,2515.38a14.13,14.13,0,0,1,7,1.65l53.08,30.85c1.65,1,2.56,2.18,2.56,3.45s-.94,2.53-2.64,3.51l-44.15,25.49a14.3,14.3,0,0,1-7.05,1.68,14.13,14.13,0,0,1-7-1.65l-53.08-30.85c-1.65-1-2.56-2.19-2.56-3.45s.94-2.54,2.64-3.52l44.15-25.49a14.33,14.33,0,0,1,7-1.67m0-1a15.39,15.39,0,0,0-7.55,1.81l-44.15,25.49c-4.16,2.4-4.19,6.31-.08,8.7l53.07,30.84a15.23,15.23,0,0,0,7.47,1.79,15.47,15.47,0,0,0,7.55-1.81l44.15-25.49c4.17-2.4,4.19-6.31.08-8.7l-53.07-30.84a15.23,15.23,0,0,0-7.47-1.79Z"/><path d="M3477.08,2532.13a14.82,14.82,0,0,1-7.26-1.73l-53-30.83c-1.82-1.06-2.82-2.43-2.81-3.89s1-2.87,2.89-3.95l44.15-25.48a14.72,14.72,0,0,1,7.29-1.74,14.58,14.58,0,0,1,7.22,1.72l53.05,30.82c1.83,1.07,2.84,2.46,2.84,3.91s-1,2.87-2.89,3.95l-44.15,25.48a14.83,14.83,0,0,1-7.29,1.74Z" fill="#fff"/><path d="M3468.3,2465a14,14,0,0,1,7,1.65l53.05,30.83c1.67,1,2.59,2.2,2.59,3.47s-.94,2.53-2.64,3.51L3484.12,2530a15.61,15.61,0,0,1-14,0l-53-30.82c-1.66-1-2.56-2.19-2.56-3.45s.94-2.54,2.64-3.52l44.15-25.49a14.29,14.29,0,0,1,7-1.67m0-1a15.45,15.45,0,0,0-7.54,1.8l-44.15,25.49c-4.17,2.41-4.19,6.32-.08,8.7l53,30.83a16.63,16.63,0,0,0,15,0l44.15-25.49c4.17-2.41,4.19-6.32.05-8.72l-53.05-30.83a15.17,15.17,0,0,0-7.47-1.78Z"/><path d="M4458.28,3192.75a14.6,14.6,0,0,1-7.22-1.72l-54.62-31.74c-1.84-1.07-2.85-2.46-2.85-3.91s1-2.87,2.89-3.94l44.19-25.51a16.08,16.08,0,0,1,14.51,0,402.82,402.82,0,0,0,40.17,23.05c10.48,5.38,16.81,8.62,16.86,11.86.07,4-9.39,9.29-28.24,19.81-5.36,3-11.44,6.38-18.39,10.34a14.79,14.79,0,0,1-7.3,1.74Z" fill="#fff"/><path d="M4447.9,3124.71a14.25,14.25,0,0,1,7,1.66,402.8,402.8,0,0,0,40.22,23.07c10.31,5.3,16.53,8.49,16.58,11.43.07,3.71-9.3,8.94-28,19.36-5.37,3-11.45,6.38-18.4,10.35a14.33,14.33,0,0,1-7.05,1.67,14.06,14.06,0,0,1-7-1.65l-54.62-31.74c-1.68-1-2.6-2.21-2.6-3.48s.94-2.53,2.64-3.51l44.19-25.51a14.24,14.24,0,0,1,7-1.65m0-1a15.29,15.29,0,0,0-7.48,1.78L4396.23,3151c-4.16,2.41-4.18,6.32,0,8.72l54.62,31.75a15.2,15.2,0,0,0,7.47,1.78,15.49,15.49,0,0,0,7.55-1.8c72.29-41.23,54.8-23-10.4-65.94a15.36,15.36,0,0,0-7.53-1.8Z"/><path d="M4370,3141.46a14.59,14.59,0,0,1-7.21-1.72,404.29,404.29,0,0,0-40.19-23.06c-10.49-5.38-16.82-8.63-16.87-11.87-.07-4,9.4-9.3,28.26-19.82,5.37-3,11.45-6.39,18.4-10.35a16.12,16.12,0,0,1,14.49,0,404.29,404.29,0,0,0,40.19,23.06c10.49,5.38,16.81,8.63,16.87,11.86.07,4-9.41,9.31-28.29,19.84-5.35,3-11.42,6.37-18.34,10.32a14.91,14.91,0,0,1-7.31,1.74Z" fill="#fff"/><path d="M4359.66,3073.41a14.22,14.22,0,0,1,6.95,1.64,401.54,401.54,0,0,0,40.25,23.09c10.31,5.3,16.54,8.5,16.59,11.43.06,3.72-9.33,9-28,19.4-5.36,3-11.42,6.37-18.36,10.32a15.65,15.65,0,0,1-14,0,401.67,401.67,0,0,0-40.23-23.09c-10.32-5.3-16.55-8.5-16.6-11.44-.07-3.72,9.31-9,28-19.37,5.37-3,11.46-6.39,18.41-10.36a14.25,14.25,0,0,1,7-1.66m0-1a15.41,15.41,0,0,0-7.51,1.79c-72.34,41.25-54.84,23.06,10.4,66a16.59,16.59,0,0,0,15,0c72.32-41.22,54.78-23.05-10.42-66a15.27,15.27,0,0,0-7.48-1.79Z"/><path d="M4281.77,3090.17a14.72,14.72,0,0,1-7.27-1.74,402.88,402.88,0,0,0-40.16-23c-10.49-5.38-16.81-8.63-16.87-11.86-.07-4,9.38-9.29,28.21-19.79,5.38-3,11.48-6.41,18.46-10.39a16.1,16.1,0,0,1,14.48,0,402.28,402.28,0,0,0,40.19,23.06c10.49,5.39,16.82,8.63,16.87,11.87.07,4-9.41,9.31-28.3,19.85-5.35,3-11.41,6.37-18.33,10.31a14.79,14.79,0,0,1-7.28,1.74Z" fill="#fff"/><path d="M4271.39,3022.12a14.13,14.13,0,0,1,7,1.64,403.68,403.68,0,0,0,40.23,23.09c10.32,5.29,16.55,8.49,16.6,11.43.07,3.72-9.33,9-28,19.41-5.35,3-11.41,6.36-18.34,10.31a14.36,14.36,0,0,1-7,1.67,14.2,14.2,0,0,1-7-1.66,406,406,0,0,0-40.21-23.07c-10.32-5.3-16.55-8.5-16.6-11.43-.06-3.71,9.3-8.94,28-19.35,5.38-3,11.48-6.4,18.46-10.38a14.24,14.24,0,0,1,7-1.66m0-1a15.4,15.4,0,0,0-7.5,1.79c-72.31,41.24-54.87,23.05,10.36,66a16.59,16.59,0,0,0,15.05,0c72.31-41.22,54.78-23.05-10.42-66a15.31,15.31,0,0,0-7.49-1.79Z"/><path d="M4193.46,3038.86a14.6,14.6,0,0,1-7.22-1.72,404,404,0,0,0-40.16-23c-10.49-5.38-16.81-8.63-16.87-11.86-.07-4,9.38-9.29,28.21-19.8,5.38-3,11.48-6.4,18.46-10.38a16.1,16.1,0,0,1,14.48,0,402.75,402.75,0,0,0,40.18,23c10.47,5.38,16.8,8.63,16.86,11.86.06,4-9.4,9.29-28.25,19.81-5.36,3-11.44,6.38-18.39,10.35a14.9,14.9,0,0,1-7.3,1.74Z" fill="#fff"/><path d="M4183.13,2970.83a14.13,14.13,0,0,1,7,1.64,402.8,402.8,0,0,0,40.22,23.07c10.31,5.3,16.53,8.5,16.59,11.43.06,3.72-9.31,9-28,19.36-5.37,3-11.45,6.39-18.4,10.36a14.44,14.44,0,0,1-7.05,1.67,14.08,14.08,0,0,1-6.94-1.64,402.8,402.8,0,0,0-40.22-23.07c-10.31-5.3-16.54-8.5-16.59-11.43-.06-3.72,9.3-8.94,28-19.35,5.38-3,11.48-6.41,18.46-10.39a14.32,14.32,0,0,1,7-1.65m0-1a15.35,15.35,0,0,0-7.5,1.79c-72.31,41.24-54.87,23.05,10.36,66a15.2,15.2,0,0,0,7.47,1.79,15.39,15.39,0,0,0,7.55-1.81c72.29-41.22,54.8-23-10.4-65.93a15.24,15.24,0,0,0-7.48-1.79Z"/><path d="M4105.2,2987.56a14.6,14.6,0,0,1-7.22-1.71,401.75,401.75,0,0,0-40.16-23c-10.5-5.39-16.83-8.64-16.89-11.88-.07-4,9.42-9.33,28.33-19.88,5.35-3,11.41-6.36,18.32-10.3a16.18,16.18,0,0,1,14.52,0,402.82,402.82,0,0,0,40.17,23c10.48,5.38,16.81,8.63,16.86,11.86.07,4-9.39,9.29-28.24,19.81-5.36,3-11.44,6.38-18.39,10.34a14.79,14.79,0,0,1-7.3,1.74Z" fill="#fff"/><path d="M4094.82,2919.53a14.47,14.47,0,0,1,7,1.65,402.87,402.87,0,0,0,40.21,23.07c10.32,5.3,16.54,8.49,16.59,11.43.07,3.71-9.31,8.94-28,19.36-5.37,3-11.45,6.39-18.41,10.35a15.65,15.65,0,0,1-14,0,403.82,403.82,0,0,0-40.2-23.07c-10.33-5.31-16.57-8.51-16.62-11.45-.06-3.73,9.34-9,28.08-19.43,5.34-3,11.4-6.36,18.32-10.31a14.25,14.25,0,0,1,7-1.64m0-1a15.3,15.3,0,0,0-7.49,1.78c-72.33,41.23-54.81,23.08,10.4,66a15.17,15.17,0,0,0,7.47,1.78,15.45,15.45,0,0,0,7.54-1.8c72.3-41.22,54.81-23-10.39-65.93a15.33,15.33,0,0,0-7.53-1.8Z"/><path d="M4016.93,2936.27a14.67,14.67,0,0,1-7.21-1.71,402.75,402.75,0,0,0-40.19-23.07c-10.49-5.38-16.82-8.63-16.87-11.87-.07-4,9.39-9.3,28.26-19.82,5.37-3,11.45-6.39,18.4-10.35a16.12,16.12,0,0,1,14.49,0,402.28,402.28,0,0,0,40.19,23.06c10.49,5.38,16.81,8.63,16.87,11.87.07,4-9.41,9.3-28.29,19.84-5.35,3-11.42,6.36-18.34,10.31a14.8,14.8,0,0,1-7.31,1.74Z" fill="#fff"/><path d="M4006.57,2868.23a14.13,14.13,0,0,1,7,1.64,403.54,403.54,0,0,0,40.25,23.09c10.31,5.29,16.54,8.49,16.59,11.42.06,3.73-9.33,9-28,19.4-5.35,3-11.41,6.37-18.35,10.32a15.65,15.65,0,0,1-14,0,401.61,401.61,0,0,0-40.24-23.09c-10.32-5.3-16.54-8.5-16.59-11.43-.07-3.72,9.31-9,28-19.38,5.37-3,11.45-6.39,18.41-10.36a14.23,14.23,0,0,1,7-1.65m0-1a15.4,15.4,0,0,0-7.5,1.78c-72.34,41.25-54.84,23.06,10.4,66a15.16,15.16,0,0,0,7.46,1.78,15.47,15.47,0,0,0,7.55-1.8c72.32-41.23,54.78-23.06-10.42-66a15.3,15.3,0,0,0-7.49-1.78Z"/><path d="M3928.68,2885a14.71,14.71,0,0,1-7.26-1.74,404.43,404.43,0,0,0-40.16-23c-10.49-5.39-16.81-8.64-16.87-11.87-.07-4,9.38-9.29,28.22-19.79,5.38-3,11.47-6.41,18.45-10.38a16.06,16.06,0,0,1,14.48,0,401.15,401.15,0,0,0,40.19,23.06c10.49,5.39,16.82,8.64,16.87,11.87.07,4-9.41,9.32-28.3,19.86-5.35,3-11.41,6.36-18.33,10.3a14.83,14.83,0,0,1-7.29,1.74Z" fill="#fff"/><path d="M3918.31,2816.93a14.24,14.24,0,0,1,7,1.64,403.68,403.68,0,0,0,40.23,23.09c10.32,5.3,16.55,8.49,16.6,11.43.07,3.73-9.33,9-28,19.41-5.34,3-11.4,6.36-18.33,10.31a15.63,15.63,0,0,1-14,0,404.48,404.48,0,0,0-40.21-23.08c-10.32-5.3-16.55-8.49-16.6-11.43-.06-3.71,9.3-8.94,28-19.35,5.38-3,11.48-6.4,18.46-10.38a14.21,14.21,0,0,1,7-1.66m0-1a15.37,15.37,0,0,0-7.5,1.79c-72.31,41.25-54.87,23.05,10.36,66a16.59,16.59,0,0,0,15,0c72.31-41.22,54.78-23.05-10.43-66a15.24,15.24,0,0,0-7.48-1.79Z"/><path d="M3840.38,2833.67a14.6,14.6,0,0,1-7.22-1.72,401.53,401.53,0,0,0-40.16-23c-10.49-5.39-16.81-8.64-16.87-11.87-.07-4,9.38-9.29,28.21-19.79,5.38-3,11.48-6.41,18.46-10.39a16.1,16.1,0,0,1,14.48,0,404,404,0,0,0,40.17,23c10.48,5.38,16.81,8.63,16.86,11.86.07,4-9.39,9.3-28.23,19.81-5.37,3-11.45,6.39-18.4,10.35a14.9,14.9,0,0,1-7.3,1.74Z" fill="#fff"/><path d="M3830.05,2765.64a14.13,14.13,0,0,1,7,1.64,403.27,403.27,0,0,0,40.22,23.08c10.31,5.29,16.53,8.49,16.58,11.42.07,3.72-9.3,8.95-28,19.36-5.36,3-11.45,6.39-18.4,10.36a14.44,14.44,0,0,1-7,1.67,14.12,14.12,0,0,1-7-1.64,401.74,401.74,0,0,0-40.21-23.07c-10.31-5.3-16.54-8.5-16.59-11.43-.06-3.71,9.3-8.94,27.95-19.34,5.38-3,11.49-6.41,18.47-10.39a14.21,14.21,0,0,1,7-1.66m0-1a15.35,15.35,0,0,0-7.5,1.79c-72.31,41.24-54.87,23.05,10.36,66a15.2,15.2,0,0,0,7.47,1.79,15.41,15.41,0,0,0,7.55-1.81c72.29-41.22,54.8-23-10.4-65.93a15.24,15.24,0,0,0-7.48-1.79Z"/><path d="M3752.12,2782.38a14.58,14.58,0,0,1-7.22-1.72,402.82,402.82,0,0,0-40.17-23c-10.48-5.38-16.81-8.63-16.86-11.86-.07-4,9.38-9.29,28.21-19.79,5.38-3,11.48-6.41,18.46-10.39a16.1,16.1,0,0,1,14.48,0,402.82,402.82,0,0,0,40.17,23c10.48,5.38,16.81,8.63,16.86,11.86.07,4-9.39,9.3-28.24,19.81-5.37,3-11.45,6.39-18.39,10.35a14.9,14.9,0,0,1-7.3,1.74Z" fill="#fff"/><path d="M3741.79,2714.35a14.12,14.12,0,0,1,6.95,1.64,403.93,403.93,0,0,0,40.22,23.07c10.32,5.3,16.54,8.5,16.59,11.43.07,3.72-9.31,9-28,19.37-5.36,3-11.44,6.38-18.39,10.35a14.46,14.46,0,0,1-7.05,1.67,14.12,14.12,0,0,1-6.95-1.64,402.87,402.87,0,0,0-40.21-23.07c-10.32-5.3-16.54-8.5-16.59-11.43-.07-3.72,9.3-8.94,28-19.35,5.39-3,11.49-6.4,18.47-10.39a14.29,14.29,0,0,1,7-1.65m0-1a15.35,15.35,0,0,0-7.5,1.79c-72.32,41.24-54.87,23.05,10.36,66a15.18,15.18,0,0,0,7.47,1.79,15.41,15.41,0,0,0,7.55-1.81c72.29-41.22,54.8-23-10.4-65.93a15.24,15.24,0,0,0-7.48-1.79Z"/><path d="M3663.85,2731.08a14.67,14.67,0,0,1-7.21-1.71L3602,2697.62c-1.83-1.06-2.84-2.45-2.84-3.91s1-2.87,2.89-3.94l44.18-25.51a16.1,16.1,0,0,1,14.52,0,402.82,402.82,0,0,0,40.17,23c10.48,5.38,16.8,8.63,16.86,11.86.07,4-9.39,9.29-28.24,19.81-5.36,3-11.45,6.38-18.4,10.34a14.73,14.73,0,0,1-7.3,1.74Z" fill="#fff"/><path d="M3653.48,2663a14.21,14.21,0,0,1,7,1.66,403.93,403.93,0,0,0,40.22,23.07c10.31,5.3,16.54,8.49,16.59,11.43.06,3.71-9.31,8.94-28,19.36-5.37,3-11.45,6.39-18.41,10.35a14.29,14.29,0,0,1-7,1.67,14,14,0,0,1-7-1.65l-54.63-31.74c-1.67-1-2.59-2.21-2.59-3.48s.94-2.53,2.64-3.51l44.18-25.51a14.3,14.3,0,0,1,7-1.65m0-1a15.31,15.31,0,0,0-7.49,1.79l-44.18,25.5c-4.17,2.41-4.19,6.32,0,8.72l54.63,31.75a15.17,15.17,0,0,0,7.47,1.78,15.45,15.45,0,0,0,7.54-1.8c72.29-41.22,54.81-23-10.39-65.93a15.26,15.26,0,0,0-7.53-1.81Z"/><path d="M3575.59,2679.79a14.64,14.64,0,0,1-7.21-1.71,402.68,402.68,0,0,0-40.2-23.07c-10.48-5.38-16.81-8.63-16.87-11.87-.07-4,9.4-9.3,28.27-19.82,5.36-3,11.45-6.39,18.4-10.35a16.1,16.1,0,0,1,14.48,0,402.21,402.21,0,0,0,40.2,23.06c10.48,5.38,16.81,8.63,16.87,11.86.07,4-9.41,9.31-28.29,19.84-5.36,3-11.42,6.37-18.35,10.32a14.84,14.84,0,0,1-7.3,1.74Z" fill="#fff"/><path d="M3565.23,2611.75a14.13,14.13,0,0,1,7,1.64,406.79,406.79,0,0,0,40.24,23.09c10.32,5.29,16.55,8.49,16.6,11.42.06,3.72-9.33,9-28,19.4-5.35,3-11.42,6.37-18.35,10.32a14.33,14.33,0,0,1-7,1.67,14.18,14.18,0,0,1-6.94-1.63,402.73,402.73,0,0,0-40.24-23.09c-10.32-5.3-16.55-8.5-16.6-11.43-.06-3.72,9.32-9,28-19.38,5.37-3,11.45-6.39,18.41-10.36a14.21,14.21,0,0,1,7-1.65m0-1a15.4,15.4,0,0,0-7.5,1.78c-72.34,41.25-54.84,23.06,10.39,66a15.23,15.23,0,0,0,7.47,1.78,15.49,15.49,0,0,0,7.55-1.8c72.32-41.23,54.78-23.06-10.43-66a15.24,15.24,0,0,0-7.48-1.78Z"/><path d="M3487.35,2628.49a14.67,14.67,0,0,1-7.27-1.73,402.34,402.34,0,0,0-40.17-23c-10.48-5.39-16.81-8.64-16.86-11.87-.07-4,9.38-9.29,28.21-19.79,5.38-3,11.48-6.41,18.46-10.38a16.06,16.06,0,0,1,14.48,0,402.82,402.82,0,0,0,40.17,23c10.49,5.39,16.83,8.64,16.88,11.88.07,4-9.43,9.33-28.36,19.89-5.33,3-11.37,6.34-18.26,10.27a14.76,14.76,0,0,1-7.28,1.73Z" fill="#fff"/><path d="M3477,2560.45a14.29,14.29,0,0,1,7,1.64,404.23,404.23,0,0,0,40.21,23.08c10.33,5.3,16.56,8.5,16.61,11.44.07,3.73-9.35,9-28.1,19.45-5.33,3-11.37,6.34-18.27,10.27a14.36,14.36,0,0,1-7,1.66,14.54,14.54,0,0,1-7-1.64,402.21,402.21,0,0,0-40.21-23.08c-10.31-5.3-16.54-8.49-16.59-11.43-.07-3.71,9.3-8.94,27.95-19.34,5.39-3,11.49-6.41,18.47-10.39a14.21,14.21,0,0,1,7-1.66m0-1a15.35,15.35,0,0,0-7.5,1.79c-72.32,41.25-54.87,23.05,10.36,66a16.67,16.67,0,0,0,15.05,0c72.31-41.21,54.75-23.07-10.43-66a15.24,15.24,0,0,0-7.48-1.79Z"/><path d="M4357.14,3224.34a14.64,14.64,0,0,1-7.23-1.72,362,362,0,0,0-35.85-20.58c-9.79-5-15.7-8.07-15.75-11.16-.07-4,9-9.05,28.89-20.16,5.19-2.9,11.08-6.19,17.76-10a16.12,16.12,0,0,1,14.49,0l49.18,28.58c1.81,1.06,2.81,2.44,2.81,3.89s-1,2.86-2.86,3.92l-44.19,25.51a14.72,14.72,0,0,1-7.25,1.72Z" fill="#fff"/><path d="M4352.22,3159.5a14.24,14.24,0,0,1,7,1.65l49.17,28.58c1.66,1,2.57,2.19,2.57,3.46s-.93,2.52-2.61,3.49l-44.18,25.51a15.67,15.67,0,0,1-14,0,359.54,359.54,0,0,0-35.9-20.61c-9.29-4.78-15.43-7.94-15.48-10.73-.06-3.68,9.53-9,28.63-19.71,5.2-2.91,11.08-6.2,17.78-10a14.29,14.29,0,0,1,7-1.65m0-1a15.35,15.35,0,0,0-7.5,1.79c-71.46,40.69-54.36,23.68,4.94,62.77a16.67,16.67,0,0,0,15,0l44.18-25.51c4.13-2.39,4.15-6.3.05-8.68l-49.18-28.58a15.27,15.27,0,0,0-7.48-1.79Z"/><path d="M4274.33,3176.22a14.61,14.61,0,0,1-7.23-1.72,362,362,0,0,0-35.84-20.58c-9.79-5-15.7-8.07-15.76-11.17-.07-4,9-9.05,28.88-20.15,5.2-2.91,11.09-6.19,17.77-10a16.1,16.1,0,0,1,14.52,0l49.14,28.55c1.82,1.06,2.82,2.44,2.82,3.89s-1,2.86-2.87,3.93l-44.18,25.51a14.75,14.75,0,0,1-7.25,1.72Z" fill="#fff"/><path d="M4269.39,3111.38a14.19,14.19,0,0,1,7,1.67l49.14,28.56c1.66,1,2.57,2.19,2.57,3.45s-.93,2.52-2.62,3.49l-44.18,25.51a15.59,15.59,0,0,1-14,0,358.94,358.94,0,0,0-35.88-20.6c-9.3-4.78-15.44-7.94-15.49-10.73-.06-3.69,9.53-9.05,28.63-19.72,5.19-2.9,11.08-6.19,17.77-10a14.19,14.19,0,0,1,7-1.65m0-1a15.36,15.36,0,0,0-7.49,1.78c-71.44,40.69-54.36,23.69,5,62.77a16.57,16.57,0,0,0,15,0l44.18-25.51c4.14-2.38,4.16-6.29.05-8.68l-49.14-28.56a15.36,15.36,0,0,0-7.53-1.8Z"/><path d="M4191.55,3128.11a14.64,14.64,0,0,1-7.23-1.72,360,360,0,0,0-35.85-20.58c-9.79-5-15.7-8.07-15.75-11.16-.07-4,9-9.05,28.88-20.16,5.2-2.9,11.09-6.19,17.77-10a16.12,16.12,0,0,1,14.49,0l49.17,28.58c1.82,1,2.82,2.43,2.82,3.89s-1,2.86-2.86,3.92l-44.19,25.51a14.75,14.75,0,0,1-7.25,1.72Z" fill="#fff"/><path d="M4186.63,3063.27a14.24,14.24,0,0,1,7,1.65l49.17,28.58c1.66,1,2.57,2.19,2.57,3.46s-.93,2.52-2.61,3.49L4198.55,3126a14.32,14.32,0,0,1-7,1.65,14.12,14.12,0,0,1-6.95-1.64,361.09,361.09,0,0,0-35.9-20.6c-9.29-4.78-15.43-7.94-15.48-10.73-.06-3.68,9.52-9,28.62-19.71,5.2-2.9,11.09-6.19,17.79-10a14.29,14.29,0,0,1,7-1.65m0-1a15.24,15.24,0,0,0-7.5,1.79c-71.46,40.69-54.36,23.68,4.94,62.77a16.61,16.61,0,0,0,15,0l44.19-25.51c4.13-2.38,4.15-6.29,0-8.67l-49.17-28.58a15.16,15.16,0,0,0-7.48-1.79Z"/><path d="M4108.74,3080a14.61,14.61,0,0,1-7.23-1.72,359.08,359.08,0,0,0-35.85-20.58c-9.79-5-15.7-8.07-15.75-11.17-.07-4,9-9.05,28.88-20.16,5.2-2.9,11.09-6.19,17.77-10a16.06,16.06,0,0,1,14.48,0l49.18,28.58c1.82,1.06,2.82,2.44,2.82,3.89s-1,2.86-2.87,3.93l-44.18,25.5a14.64,14.64,0,0,1-7.25,1.73Z" fill="#fff"/><path d="M4103.81,3015.14a14.07,14.07,0,0,1,7,1.66l49.18,28.57c1.66,1,2.57,2.19,2.57,3.46s-.93,2.52-2.62,3.49l-44.18,25.51a15.59,15.59,0,0,1-14,0,359.28,359.28,0,0,0-35.9-20.61c-9.29-4.78-15.43-7.93-15.47-10.73-.07-3.68,9.52-9,28.63-19.71,5.19-2.9,11.08-6.19,17.77-10a14.24,14.24,0,0,1,7-1.66m0-1a15.4,15.4,0,0,0-7.5,1.79c-71.45,40.69-54.35,23.69,4.95,62.77a15.23,15.23,0,0,0,7.47,1.79,15.41,15.41,0,0,0,7.51-1.79l44.18-25.51c4.13-2.39,4.16-6.3.05-8.68l-49.17-28.58a15.31,15.31,0,0,0-7.49-1.79Z"/><path d="M4026,3031.88a14.76,14.76,0,0,1-7.28-1.74,358.08,358.08,0,0,0-35.82-20.56c-9.79-5-15.69-8.08-15.75-11.17-.06-4,9-9,28.77-20.08,5.23-2.92,11.15-6.23,17.89-10.07a16.12,16.12,0,0,1,14.49,0l49.14,28.56c1.83,1.06,2.84,2.46,2.84,3.91s-1,2.86-2.86,3.92l-44.18,25.51a14.71,14.71,0,0,1-7.24,1.72Z" fill="#fff"/><path d="M4021,2967a14.06,14.06,0,0,1,7,1.65l49.15,28.56c1.67,1,2.59,2.21,2.59,3.48s-.93,2.52-2.61,3.49L4033,3029.73a15.61,15.61,0,0,1-14,0,362.59,362.59,0,0,0-35.87-20.59c-9.29-4.78-15.43-7.94-15.48-10.72-.06-3.68,9.49-9,28.52-19.65,5.23-2.92,11.15-6.23,17.89-10.07a14.25,14.25,0,0,1,7-1.65m0-1a15.3,15.3,0,0,0-7.51,1.79c-71.4,40.67-54.41,23.66,4.91,62.74a16.57,16.57,0,0,0,15,0l44.18-25.51c4.13-2.38,4.16-6.29,0-8.7l-49.14-28.55A15.16,15.16,0,0,0,4021,2966Z"/><path d="M3943.15,2983.75a14.72,14.72,0,0,1-7.23-1.71,360.36,360.36,0,0,0-35.86-20.59c-9.78-5-15.69-8.07-15.75-11.16-.06-4,9-9.05,28.89-20.16,5.19-2.9,11.08-6.19,17.77-10a16.1,16.1,0,0,1,14.48,0l49.18,28.58c1.82,1.06,2.82,2.44,2.81,3.89s-1,2.86-2.86,3.92L3950.4,2982a14.75,14.75,0,0,1-7.25,1.72Z" fill="#fff"/><path d="M3938.22,2918.91a14.18,14.18,0,0,1,7,1.65l49.18,28.58c1.66,1,2.57,2.19,2.56,3.46s-.92,2.52-2.61,3.49l-44.18,25.51a15.59,15.59,0,0,1-14,0,360.42,360.42,0,0,0-35.9-20.61c-9.29-4.78-15.43-7.93-15.48-10.73-.06-3.68,9.53-9,28.63-19.71,5.2-2.9,11.09-6.19,17.78-10a14.21,14.21,0,0,1,7-1.66m0-1a15.37,15.37,0,0,0-7.5,1.79c-71.46,40.69-54.35,23.68,5,62.77a15.23,15.23,0,0,0,7.47,1.79,15.41,15.41,0,0,0,7.51-1.79l44.18-25.51c4.13-2.39,4.15-6.3.05-8.68l-49.18-28.58a15.24,15.24,0,0,0-7.48-1.79Z"/><path d="M3860.33,2935.63a14.64,14.64,0,0,1-7.23-1.72,360.9,360.9,0,0,0-35.84-20.58c-9.79-5-15.7-8.07-15.75-11.16-.07-4,9-9.06,28.88-20.16,5.19-2.9,11.08-6.19,17.77-10a16.08,16.08,0,0,1,14.51,0l49.15,28.55c1.81,1.06,2.81,2.44,2.81,3.9s-1,2.85-2.86,3.92l-44.19,25.51a14.72,14.72,0,0,1-7.25,1.72Z" fill="#fff"/><path d="M3855.4,2870.79a14.18,14.18,0,0,1,7,1.67l49.14,28.56c1.66,1,2.57,2.19,2.57,3.46s-.93,2.51-2.61,3.49l-44.18,25.5a15.59,15.59,0,0,1-14,0,362,362,0,0,0-35.89-20.6c-9.29-4.78-15.44-7.94-15.48-10.73-.07-3.69,9.52-9,28.62-19.71,5.2-2.91,11.08-6.2,17.78-10a14.28,14.28,0,0,1,7-1.65m0-1a15.3,15.3,0,0,0-7.49,1.78c-71.44,40.69-54.36,23.69,4.94,62.77a16.59,16.59,0,0,0,15,0l44.18-25.51c4.13-2.38,4.15-6.29.05-8.68l-49.15-28.56a15.35,15.35,0,0,0-7.52-1.8Z"/><path d="M3777.55,2887.52a14.64,14.64,0,0,1-7.23-1.72,362,362,0,0,0-35.85-20.58c-9.79-5-15.69-8.07-15.75-11.16-.07-4,9-9,28.88-20.15,5.2-2.91,11.09-6.2,17.78-10a16.1,16.1,0,0,1,14.48,0l49.18,28.58c1.81,1.06,2.81,2.44,2.81,3.89s-1,2.86-2.86,3.92l-44.18,25.51a14.79,14.79,0,0,1-7.26,1.72Z" fill="#fff"/><path d="M3772.63,2822.68a14.21,14.21,0,0,1,7,1.65l49.18,28.58c1.65,1,2.56,2.19,2.56,3.46s-.93,2.52-2.61,3.49l-44.18,25.51a15.67,15.67,0,0,1-14,0,359.54,359.54,0,0,0-35.9-20.61c-9.29-4.78-15.43-7.94-15.48-10.73-.06-3.68,9.53-9,28.63-19.71,5.19-2.9,11.08-6.19,17.78-10a14.21,14.21,0,0,1,7-1.66m0-1a15.4,15.4,0,0,0-7.5,1.79c-71.46,40.69-54.36,23.68,4.94,62.77a16.63,16.63,0,0,0,15,0l44.18-25.5c4.13-2.39,4.15-6.3.05-8.68l-49.18-28.58a15.24,15.24,0,0,0-7.48-1.79Z"/><path d="M3694.74,2839.4a14.64,14.64,0,0,1-7.23-1.72,358,358,0,0,0-35.85-20.58c-9.79-5-15.7-8.07-15.75-11.17-.07-4,9-9,28.88-20.15,5.2-2.9,11.09-6.19,17.77-10a16,16,0,0,1,14.49,0l49.17,28.57c1.82,1.06,2.82,2.44,2.82,3.89s-1,2.86-2.86,3.93L3702,2837.68a14.75,14.75,0,0,1-7.25,1.72Z" fill="#fff"/><path d="M3689.82,2774.55a14.13,14.13,0,0,1,7,1.66l49.17,28.58c1.66,1,2.57,2.19,2.57,3.45s-.93,2.52-2.61,3.49l-44.19,25.51a15.57,15.57,0,0,1-13.95,0,361.55,361.55,0,0,0-35.9-20.61c-9.29-4.78-15.43-7.93-15.48-10.72-.06-3.69,9.52-9,28.62-19.71,5.2-2.91,11.09-6.2,17.79-10a14.18,14.18,0,0,1,7-1.66m0-1a15.35,15.35,0,0,0-7.5,1.79c-71.46,40.69-54.36,23.69,4.94,62.77a16.57,16.57,0,0,0,15,0l44.19-25.51c4.13-2.39,4.15-6.29.05-8.68l-49.18-28.58a15.27,15.27,0,0,0-7.48-1.79Z"/><path d="M3612,2791.29a14.72,14.72,0,0,1-7.27-1.74,361.24,361.24,0,0,0-35.82-20.56c-9.79-5-15.7-8.08-15.75-11.16-.07-4,9-9,28.77-20.09,5.22-2.92,11.15-6.23,17.88-10.07A14.82,14.82,0,0,1,3607,2726a14.64,14.64,0,0,1,7.23,1.72l49.14,28.56c1.84,1.06,2.85,2.46,2.85,3.92s-1,2.85-2.86,3.91l-44.19,25.51a14.71,14.71,0,0,1-7.24,1.72Z" fill="#fff"/><path d="M3607,2726.45a14.24,14.24,0,0,1,7,1.65l49.14,28.56c1.68,1,2.6,2.21,2.6,3.49s-.93,2.51-2.61,3.48L3619,2789.14a15.65,15.65,0,0,1-14,0,362.23,362.23,0,0,0-35.86-20.6c-9.3-4.78-15.43-7.93-15.48-10.72-.07-3.68,9.49-9,28.51-19.64,5.23-2.93,11.15-6.24,17.9-10.08a14.32,14.32,0,0,1,7-1.65m0-1a15.24,15.24,0,0,0-7.5,1.79c-71.41,40.68-54.42,23.66,4.91,62.75a16.59,16.59,0,0,0,15,0l44.19-25.51c4.13-2.38,4.15-6.29,0-8.69l-49.14-28.56a15.13,15.13,0,0,0-7.48-1.79Z"/><path d="M3529.15,2743.17a14.64,14.64,0,0,1-7.23-1.72,359.08,359.08,0,0,0-35.85-20.58c-9.79-5-15.7-8.08-15.75-11.17-.07-4,9-9,28.88-20.16,5.2-2.9,11.09-6.19,17.77-10a16.08,16.08,0,0,1,14.49,0l49.17,28.58c1.82,1.06,2.82,2.44,2.82,3.89s-1,2.86-2.86,3.93l-44.19,25.51a14.75,14.75,0,0,1-7.25,1.72Z" fill="#fff"/><path d="M3524.23,2678.32a14.06,14.06,0,0,1,7,1.66l49.18,28.57c1.66,1,2.57,2.2,2.57,3.46s-.93,2.52-2.61,3.49L3536.15,2741a15.59,15.59,0,0,1-14,0,360.48,360.48,0,0,0-35.89-20.61c-9.3-4.78-15.43-7.93-15.48-10.73-.07-3.68,9.52-9,28.63-19.71,5.19-2.9,11.08-6.19,17.77-10a14.25,14.25,0,0,1,7-1.66m0-1a15.41,15.41,0,0,0-7.51,1.79c-71.45,40.69-54.35,23.68,5,62.77a16.57,16.57,0,0,0,15,0l44.19-25.51c4.13-2.39,4.15-6.3,0-8.68l-49.17-28.58a15.27,15.27,0,0,0-7.48-1.79Z"/><path d="M3446.38,2695.06a14.7,14.7,0,0,1-7.27-1.74,359.15,359.15,0,0,0-35.83-20.56c-9.78-5-15.69-8.08-15.74-11.17-.07-4,9-9,28.77-20.08,5.22-2.92,11.15-6.23,17.88-10.07a16.12,16.12,0,0,1,14.49,0l49.14,28.56c1.84,1.06,2.85,2.46,2.84,3.92s-1,2.85-2.85,3.91l-44.19,25.51a14.71,14.71,0,0,1-7.24,1.72Z" fill="#fff"/><path d="M3441.45,2630.22a14.13,14.13,0,0,1,7,1.65l49.14,28.56c1.67,1,2.6,2.21,2.59,3.48s-.92,2.52-2.6,3.49l-44.19,25.51a15.61,15.61,0,0,1-14,0,362.59,362.59,0,0,0-35.87-20.59c-9.29-4.78-15.43-7.94-15.47-10.73-.07-3.67,9.48-9,28.51-19.64,5.23-2.92,11.15-6.23,17.89-10.07a14.25,14.25,0,0,1,7-1.65m0-1a15.3,15.3,0,0,0-7.51,1.79c-71.4,40.67-54.41,23.66,4.91,62.74a16.57,16.57,0,0,0,15,0l44.19-25.51c4.13-2.38,4.15-6.29,0-8.7L3448.93,2631a15.16,15.16,0,0,0-7.48-1.79Z"/><path d="M4408.35,3344.5a14.74,14.74,0,0,1-7.28-1.74,418.47,418.47,0,0,0-41-23.55c-10.67-5.48-17.11-8.79-17.16-12.06-.07-4,9.28-9.23,27.91-19.61,5.45-3,11.62-6.49,18.71-10.53a16.08,16.08,0,0,1,14.51,0,415.83,415.83,0,0,0,41,23.54c10.66,5.49,17.1,8.8,17.16,12.07.07,4-9.28,9.23-27.91,19.61-5.45,3-11.63,6.49-18.71,10.53a14.71,14.71,0,0,1-7.24,1.72Z" fill="#fff"/><path d="M4396.74,3275.79a14.24,14.24,0,0,1,7,1.66,418.43,418.43,0,0,0,41.08,23.57c10.5,5.4,16.84,8.66,16.89,11.63.06,3.71-9.78,9.2-27.66,19.17-5.45,3-11.62,6.48-18.71,10.53a15.61,15.61,0,0,1-14,0,418.43,418.43,0,0,0-41.08-23.57c-10.5-5.4-16.84-8.66-16.89-11.63-.06-3.71,9.78-9.2,27.65-19.17,5.45-3,11.63-6.48,18.72-10.53a14.28,14.28,0,0,1,7-1.65m0-1a15.31,15.31,0,0,0-7.49,1.79c-72.31,41.27-55.06,22.87,11.57,66.61a16.57,16.57,0,0,0,15,0c72.3-41.27,55.06-22.87-11.57-66.62a15.41,15.41,0,0,0-7.53-1.8Z"/><path d="M4229.46,3240.55a14.61,14.61,0,0,1-7.23-1.72,414.2,414.2,0,0,0-41-23.55c-10.66-5.49-17.1-8.8-17.15-12.06-.07-4,9.28-9.22,27.89-19.61,5.46-3,11.64-6.49,18.73-10.53a14.79,14.79,0,0,1,7.26-1.73,14.54,14.54,0,0,1,7.23,1.73,415.83,415.83,0,0,0,41,23.54c10.66,5.49,17.1,8.8,17.15,12.06.07,4-9.27,9.22-27.89,19.61-5.45,3-11.64,6.49-18.73,10.53a14.64,14.64,0,0,1-7.25,1.73Z" fill="#fff"/><path d="M4217.91,3171.85a14.22,14.22,0,0,1,6.95,1.64,417.94,417.94,0,0,0,41.09,23.58c10.5,5.4,16.83,8.65,16.88,11.62.07,3.71-9.77,9.2-27.63,19.16-5.46,3-11.64,6.49-18.74,10.54a15.59,15.59,0,0,1-14,0,416.78,416.78,0,0,0-41.09-23.58c-10.49-5.4-16.83-8.65-16.88-11.62-.06-3.71,9.78-9.2,27.64-19.16,5.45-3,11.64-6.49,18.73-10.54a14.25,14.25,0,0,1,7-1.66m0-1a15.41,15.41,0,0,0-7.51,1.79c-72.31,41.28-55.06,22.87,11.58,66.62a15.24,15.24,0,0,0,7.48,1.79,15.4,15.4,0,0,0,7.5-1.79c72.31-41.28,55.07-22.87-11.57-66.62a15.27,15.27,0,0,0-7.48-1.79Z"/><path d="M4140,3188.57a14.61,14.61,0,0,1-7.23-1.72,418.32,418.32,0,0,0-41.05-23.55c-10.66-5.48-17.1-8.79-17.15-12.06-.07-4,9.28-9.22,27.9-19.6,5.45-3,11.63-6.49,18.72-10.54a16.12,16.12,0,0,1,14.49,0,418.39,418.39,0,0,0,41,23.55c10.66,5.48,17.1,8.79,17.16,12.06.06,4-9.28,9.22-27.9,19.6-5.45,3-11.64,6.49-18.73,10.54a14.75,14.75,0,0,1-7.25,1.72Z" fill="#fff"/><path d="M4128.47,3119.88a14.12,14.12,0,0,1,6.95,1.64,419.53,419.53,0,0,0,41.09,23.57c10.5,5.4,16.84,8.66,16.89,11.63.06,3.71-9.78,9.19-27.64,19.15-5.46,3-11.64,6.49-18.74,10.55a14.34,14.34,0,0,1-7,1.65,14.13,14.13,0,0,1-7-1.64,415.13,415.13,0,0,0-41.09-23.57c-10.49-5.4-16.83-8.66-16.88-11.63-.06-3.71,9.78-9.2,27.64-19.16,5.45-3,11.64-6.49,18.73-10.54a14.25,14.25,0,0,1,7-1.65m0-1a15.3,15.3,0,0,0-7.51,1.79c-72.31,41.27-55.06,22.86,11.58,66.61a15.13,15.13,0,0,0,7.48,1.79,15.4,15.4,0,0,0,7.5-1.79c72.31-41.28,55.07-22.87-11.57-66.61a15.16,15.16,0,0,0-7.48-1.79Z"/><path d="M4050.62,3136.61a14.72,14.72,0,0,1-7.27-1.73,414.34,414.34,0,0,0-41-23.55c-10.67-5.49-17.11-8.8-17.17-12.07-.06-4,9.29-9.22,27.91-19.61,5.45-3,11.63-6.48,18.71-10.53a16.1,16.1,0,0,1,14.52,0,419.65,419.65,0,0,0,41,23.55c10.67,5.48,17.11,8.79,17.17,12.06.06,4-9.29,9.23-27.91,19.61-5.45,3-11.63,6.49-18.71,10.53a14.78,14.78,0,0,1-7.25,1.72Z" fill="#fff"/><path d="M4039,3067.9a14.25,14.25,0,0,1,7,1.66,418.43,418.43,0,0,0,41.08,23.57c10.5,5.4,16.84,8.66,16.89,11.63.06,3.71-9.78,9.2-27.65,19.17-5.46,3-11.64,6.48-18.73,10.53a15.65,15.65,0,0,1-14,0,417.76,417.76,0,0,0-41.08-23.58c-10.5-5.4-16.84-8.66-16.89-11.63-.06-3.71,9.79-9.2,27.66-19.16,5.45-3,11.63-6.49,18.71-10.54a14.3,14.3,0,0,1,7-1.65m0-1a15.36,15.36,0,0,0-7.49,1.79c-72.3,41.27-55.06,22.87,11.58,66.62a16.63,16.63,0,0,0,15,0c72.31-41.28,55.07-22.88-11.57-66.62a15.26,15.26,0,0,0-7.53-1.81Z"/><path d="M3961.17,3084.64a14.64,14.64,0,0,1-7.23-1.72,414.27,414.27,0,0,0-41-23.55c-10.66-5.49-17.1-8.8-17.15-12.06-.07-4,9.27-9.23,27.89-19.61,5.45-3,11.64-6.49,18.73-10.53a14.75,14.75,0,0,1,7.25-1.73,14.51,14.51,0,0,1,7.23,1.73,415.76,415.76,0,0,0,41.05,23.54c10.66,5.49,17.1,8.8,17.15,12.07.07,4-9.28,9.22-27.9,19.6-5.45,3-11.63,6.49-18.72,10.54A14.79,14.79,0,0,1,3961.17,3084.64Z" fill="#fff"/><path d="M3949.62,3015.94a14.24,14.24,0,0,1,7,1.64,415.62,415.62,0,0,0,41.09,23.58c10.5,5.4,16.83,8.66,16.88,11.62.06,3.71-9.78,9.2-27.64,19.16-5.46,3-11.64,6.49-18.73,10.54a15.59,15.59,0,0,1-14,0,417.94,417.94,0,0,0-41.09-23.58c-10.5-5.4-16.84-8.65-16.89-11.62-.06-3.71,9.78-9.2,27.64-19.16,5.46-3,11.64-6.49,18.74-10.54a14.24,14.24,0,0,1,7-1.66m0-1a15.4,15.4,0,0,0-7.5,1.79c-72.31,41.28-55.07,22.87,11.57,66.62a16.59,16.59,0,0,0,15,0c72.31-41.28,55.06-22.87-11.58-66.62a15.24,15.24,0,0,0-7.48-1.79Z"/><path d="M3871.74,3032.66a14.68,14.68,0,0,1-7.24-1.72l-178.87-104c-18.39-10.67-42.8-24.87-67.62-39.3-28.05-16.31-56.61-32.92-77.59-45.09-1.82-1-2.82-2.44-2.82-3.89s1-2.86,2.86-3.92l44.19-25.51a16.1,16.1,0,0,1,14.48,0l67.77,39.38c28.15,16.36,56.75,33,77.44,45l171.85,99.86,1.13.62c3.24,1.74,8.66,4.65,8.74,7.59,0,1.26-.94,2.5-2.9,3.7l-44.17,25.5a14.78,14.78,0,0,1-7.25,1.72Z" fill="#fff"/><path d="M3591.9,2808.06a14.21,14.21,0,0,1,7,1.65L3667,2849.3l77.08,44.8,82.15,47.74L3916,2994l1.13.61c2.93,1.58,8.4,4.51,8.47,7.17,0,1.06-.87,2.16-2.64,3.24l-44.18,25.51a14.34,14.34,0,0,1-7,1.65,14.18,14.18,0,0,1-7-1.65l-80.94-47-97.94-56.91c-18.43-10.7-42.41-24.65-67.81-39.41-27.76-16.14-56.46-32.84-77.4-45-1.66-1-2.57-2.19-2.57-3.46s.93-2.52,2.61-3.49l44.19-25.51a14.32,14.32,0,0,1,7-1.65m0-1a15.24,15.24,0,0,0-7.5,1.79l-44.19,25.51c-4.12,2.38-4.15,6.29,0,8.67,39.55,22.94,106,61.67,145.21,84.39l178.87,103.95a16.59,16.59,0,0,0,15,0l44.18-25.51c8.5-5.18-2.47-10.27-7-12.76l-171.85-99.87c-39-22.65-105.94-61.55-145.21-84.38a15.13,15.13,0,0,0-7.48-1.79Z"/><path d="M3514,2824.78a14.64,14.64,0,0,1-7.23-1.72,418,418,0,0,0-41-23.56c-10.67-5.48-17.1-8.79-17.16-12.06-.06-4,9.28-9.22,27.9-19.6,5.45-3,11.64-6.49,18.73-10.53a16.06,16.06,0,0,1,14.48,0,415.42,415.42,0,0,0,41,23.55c10.67,5.49,17.1,8.8,17.16,12.06.07,4-9.28,9.22-27.9,19.61-5.45,3-11.63,6.49-18.72,10.53A14.68,14.68,0,0,1,3514,2824.78Z" fill="#fff"/><path d="M3502.46,2756.08a14.18,14.18,0,0,1,7,1.64,415.62,415.62,0,0,0,41.09,23.58c10.49,5.4,16.83,8.65,16.88,11.62.06,3.71-9.78,9.2-27.64,19.16-5.46,3-11.64,6.49-18.74,10.54a15.57,15.57,0,0,1-14,0,417.94,417.94,0,0,0-41.09-23.58c-10.5-5.4-16.84-8.66-16.89-11.62-.06-3.71,9.78-9.2,27.64-19.16,5.46-3,11.64-6.49,18.74-10.54a14.21,14.21,0,0,1,7-1.66m0-1a15.35,15.35,0,0,0-7.5,1.79c-72.31,41.28-55.07,22.87,11.57,66.62a16.57,16.57,0,0,0,15,0c72.32-41.28,55.07-22.87-11.57-66.62a15.24,15.24,0,0,0-7.48-1.79Z"/><path d="M3424.57,2772.81a14.7,14.7,0,0,1-7.23-1.73,417.3,417.3,0,0,0-41-23.55c-10.67-5.48-17.11-8.79-17.16-12.06-.07-4,9.28-9.23,27.91-19.62,5.45-3,11.62-6.48,18.71-10.52a16.1,16.1,0,0,1,14.52,0,417.07,417.07,0,0,0,41,23.54c10.66,5.48,17.09,8.79,17.14,12.05.07,4-9.24,9.19-27.79,19.53-5.49,3.06-11.7,6.53-18.84,10.61a14.85,14.85,0,0,1-7.26,1.73Z" fill="#fff"/><path d="M3413,2704.11a14.24,14.24,0,0,1,7,1.66,419.61,419.61,0,0,0,41.08,23.57c10.49,5.39,16.82,8.65,16.87,11.61.06,3.7-9.74,9.16-27.54,19.09-5.48,3.06-11.7,6.52-18.85,10.61a15.53,15.53,0,0,1-14,0,418.43,418.43,0,0,0-41.08-23.57c-10.5-5.4-16.84-8.66-16.89-11.63-.06-3.72,9.78-9.21,27.66-19.17,5.44-3,11.62-6.48,18.71-10.53a14.17,14.17,0,0,1,7-1.65m0-1a15.3,15.3,0,0,0-7.49,1.78c-72.31,41.28-55.06,22.88,11.57,66.62a16.48,16.48,0,0,0,15,0c72.29-41.28,55.13-22.84-11.53-66.6a15.41,15.41,0,0,0-7.53-1.8Z"/><path d="M3335.17,2720.84a14.64,14.64,0,0,1-7.23-1.72,418.32,418.32,0,0,0-41.05-23.55c-10.66-5.48-17.1-8.79-17.15-12.06-.07-4,9.28-9.22,27.9-19.6,5.45-3,11.63-6.49,18.72-10.54a16.12,16.12,0,0,1,14.49,0,416.32,416.32,0,0,0,41,23.55c10.66,5.48,17.1,8.79,17.15,12.06.07,4-9.27,9.22-27.89,19.6-5.46,3-11.64,6.49-18.73,10.54a14.75,14.75,0,0,1-7.25,1.72Z" fill="#fff"/><path d="M3323.62,2652.15a14.12,14.12,0,0,1,7,1.64,417.45,417.45,0,0,0,41.09,23.57c10.5,5.4,16.83,8.66,16.88,11.63.07,3.71-9.77,9.2-27.64,19.16-5.45,3-11.63,6.49-18.73,10.54a15.63,15.63,0,0,1-14,0,418.36,418.36,0,0,0-41.09-23.57c-10.5-5.4-16.83-8.66-16.88-11.63-.06-3.71,9.78-9.2,27.64-19.16,5.45-3,11.64-6.49,18.73-10.54a14.36,14.36,0,0,1,7-1.65m0-1a15.3,15.3,0,0,0-7.51,1.79c-72.31,41.28-55.06,22.87,11.58,66.62a16.61,16.61,0,0,0,15,0c72.31-41.27,55.07-22.87-11.57-66.61a15.16,15.16,0,0,0-7.48-1.79Z"/><path d="M3245.73,2668.87a14.64,14.64,0,0,1-7.23-1.72,416.74,416.74,0,0,0-41.05-23.56c-10.66-5.48-17.1-8.79-17.15-12.06-.07-4,9.28-9.22,27.9-19.6,5.45-3,11.63-6.49,18.72-10.53a16.08,16.08,0,0,1,14.49,0,414.27,414.27,0,0,0,41,23.55c10.66,5.49,17.1,8.8,17.16,12.06.06,4-9.28,9.22-27.9,19.6-5.45,3.05-11.64,6.49-18.73,10.54A14.75,14.75,0,0,1,3245.73,2668.87Z" fill="#fff"/><path d="M3234.18,2600.17a14.12,14.12,0,0,1,7,1.64,417.94,417.94,0,0,0,41.09,23.58c10.5,5.4,16.84,8.65,16.89,11.62.06,3.71-9.78,9.2-27.64,19.16-5.46,3-11.64,6.49-18.74,10.54a15.59,15.59,0,0,1-14,0,415.62,415.62,0,0,0-41.09-23.58c-10.49-5.4-16.83-8.66-16.88-11.62-.06-3.71,9.78-9.2,27.64-19.16,5.46-3,11.64-6.49,18.73-10.54a14.25,14.25,0,0,1,7-1.66m0-1a15.41,15.41,0,0,0-7.51,1.79c-72.31,41.28-55.06,22.87,11.58,66.62a15.24,15.24,0,0,0,7.48,1.79,15.4,15.4,0,0,0,7.5-1.79c72.31-41.28,55.07-22.87-11.57-66.62a15.27,15.27,0,0,0-7.48-1.79Z"/><path d="M3678.51,2468.37a14.61,14.61,0,0,1-7.23-1.72l-98.42-57.19c-1.82-1.06-2.82-2.44-2.82-3.9s1-2.85,2.86-3.92l44.19-25.51a16.1,16.1,0,0,1,14.48,0l98.42,57.2c1.81,1.05,2.81,2.44,2.81,3.89s-1,2.86-2.86,3.92l-44.18,25.51A14.78,14.78,0,0,1,3678.51,2468.37Z" fill="#fff"/><path d="M3624.34,2374.91a14.13,14.13,0,0,1,7,1.66l98.42,57.19c1.65,1,2.56,2.19,2.56,3.46s-.93,2.52-2.61,3.49l-44.18,25.51a14.23,14.23,0,0,1-7,1.65,14.07,14.07,0,0,1-7-1.65l-98.42-57.2c-1.66-1-2.57-2.19-2.57-3.45s.93-2.52,2.61-3.49l44.19-25.51a14.18,14.18,0,0,1,7-1.66m0-1a15.35,15.35,0,0,0-7.5,1.79l-44.19,25.51c-4.13,2.38-4.15,6.29-.05,8.68l98.42,57.19a16.59,16.59,0,0,0,15,0l44.18-25.51c4.13-2.38,4.15-6.29,0-8.67l-98.42-57.2a15.27,15.27,0,0,0-7.48-1.79Z"/><path d="M4798.51,3119.24a14.76,14.76,0,0,1-7.28-1.74L4696,3062.16c-1.82-1.06-2.82-2.44-2.82-3.89s1-2.86,2.87-3.92l44.18-25.51a16.1,16.1,0,0,1,14.48,0l95.22,55.34c1.84,1.06,2.85,2.46,2.85,3.92s-1,2.85-2.86,3.91l-44.18,25.51a14.71,14.71,0,0,1-7.24,1.72Z" fill="#fff"/><path d="M4747.49,3027.62a14.13,14.13,0,0,1,7,1.65l95.22,55.34c1.68,1,2.6,2.21,2.6,3.49s-.93,2.51-2.61,3.48l-44.18,25.51a15.63,15.63,0,0,1-14,0l-95.22-55.34c-1.66-1-2.57-2.19-2.57-3.46s.93-2.52,2.62-3.49l44.18-25.51a14.21,14.21,0,0,1,7-1.65m0-1a15.34,15.34,0,0,0-7.5,1.78l-44.18,25.51c-4.14,2.39-4.16,6.3-.05,8.68l95.22,55.34a16.57,16.57,0,0,0,15,0l44.18-25.51c4.13-2.38,4.15-6.29,0-8.7L4755,3028.41a15.16,15.16,0,0,0-7.48-1.79Z"/><path d="M4669.26,3044.14a14.6,14.6,0,0,1-7.22-1.72,357.89,357.89,0,0,0-35.86-20.58c-9.79-5-15.69-8.07-15.75-11.16-.07-4,9-9.06,28.89-20.16,5.19-2.91,11.08-6.19,17.77-10a16.1,16.1,0,0,1,14.48,0l49.18,28.58c1.81,1.05,2.81,2.43,2.81,3.89s-1,2.85-2.86,3.92l-44.18,25.51a14.79,14.79,0,0,1-7.26,1.72Z" fill="#fff"/><path d="M4664.34,2979.3a14.13,14.13,0,0,1,7,1.65l49.18,28.58c1.65,1,2.56,2.19,2.56,3.46s-.93,2.51-2.61,3.49l-44.18,25.5a15.59,15.59,0,0,1-14,0,360.42,360.42,0,0,0-35.9-20.61c-9.29-4.77-15.43-7.93-15.48-10.72-.06-3.69,9.53-9,28.63-19.72,5.2-2.9,11.09-6.19,17.78-10a14.21,14.21,0,0,1,7-1.65m0-1a15.34,15.34,0,0,0-7.5,1.78c-71.46,40.69-54.35,23.69,4.94,62.77a16.59,16.59,0,0,0,15,0l44.18-25.51c4.13-2.38,4.15-6.29.05-8.68l-49.18-28.58a15.24,15.24,0,0,0-7.48-1.78Z"/><path d="M4586.45,2996a14.64,14.64,0,0,1-7.23-1.72,359.55,359.55,0,0,0-35.84-20.57c-9.79-5-15.7-8.08-15.76-11.17-.06-4,9-9.05,28.88-20.16,5.2-2.9,11.09-6.19,17.77-10a16.1,16.1,0,0,1,14.52,0l49.14,28.56c1.82,1.06,2.82,2.44,2.82,3.89s-1,2.86-2.86,3.92l-44.18,25.51a14.79,14.79,0,0,1-7.26,1.72Z" fill="#fff"/><path d="M4581.52,2931.17a14.29,14.29,0,0,1,7,1.67l49.14,28.56c1.66,1,2.57,2.19,2.57,3.46s-.93,2.52-2.61,3.49l-44.19,25.51a15.65,15.65,0,0,1-13.95,0,360.48,360.48,0,0,0-35.89-20.61c-9.3-4.78-15.44-7.94-15.49-10.73-.06-3.68,9.53-9,28.63-19.71,5.19-2.9,11.08-6.19,17.78-10a14.25,14.25,0,0,1,7-1.65m0-1A15.31,15.31,0,0,0,4574,2932c-71.44,40.68-54.36,23.68,4.94,62.77a16.61,16.61,0,0,0,15,0l44.19-25.5c4.13-2.39,4.15-6.3,0-8.68L4589,2932a15.24,15.24,0,0,0-7.52-1.81Z"/><path d="M4503.67,2947.91a14.64,14.64,0,0,1-7.23-1.72,358,358,0,0,0-35.85-20.58c-9.79-5-15.69-8.07-15.75-11.16-.07-4,9-9,28.88-20.16,5.2-2.9,11.09-6.19,17.78-10a16.1,16.1,0,0,1,14.48,0l49.18,28.57c1.81,1.06,2.81,2.44,2.81,3.9s-1,2.85-2.86,3.92l-44.18,25.51a14.79,14.79,0,0,1-7.26,1.72Z" fill="#fff"/><path d="M4498.75,2883.07a14.13,14.13,0,0,1,7,1.65l49.17,28.58c1.66,1,2.57,2.19,2.57,3.46s-.93,2.51-2.61,3.48l-44.18,25.51a15.59,15.59,0,0,1-14,0,361.55,361.55,0,0,0-35.9-20.61c-9.29-4.78-15.43-7.93-15.48-10.72-.06-3.69,9.52-9,28.62-19.71,5.2-2.91,11.09-6.2,17.79-10a14.21,14.21,0,0,1,7-1.65m0-1a15.34,15.34,0,0,0-7.5,1.78c-71.46,40.69-54.36,23.68,4.94,62.77a16.59,16.59,0,0,0,15,0l44.18-25.51c4.13-2.38,4.15-6.29.05-8.68l-49.18-28.58a15.26,15.26,0,0,0-7.48-1.78Z"/><path d="M4420.86,2899.78a14.64,14.64,0,0,1-7.23-1.72,359.08,359.08,0,0,0-35.85-20.58c-9.79-5-15.7-8.07-15.75-11.16-.07-4,9-9.05,28.88-20.16,5.2-2.9,11.09-6.19,17.77-10a16.12,16.12,0,0,1,14.49,0l49.17,28.58c1.82,1.05,2.82,2.44,2.82,3.89s-1,2.86-2.87,3.92l-44.18,25.51a14.75,14.75,0,0,1-7.25,1.72Z" fill="#fff"/><path d="M4415.93,2834.94a14.18,14.18,0,0,1,7,1.65l49.18,28.58c1.66,1,2.57,2.19,2.57,3.46s-.93,2.52-2.61,3.49l-44.19,25.51a15.65,15.65,0,0,1-13.95,0A359.54,359.54,0,0,0,4378,2877c-9.29-4.78-15.43-7.94-15.48-10.73-.06-3.68,9.52-9,28.63-19.71,5.19-2.9,11.08-6.2,17.78-10a14.28,14.28,0,0,1,7-1.65m0-1a15.34,15.34,0,0,0-7.49,1.79c-71.46,40.69-54.36,23.68,4.94,62.77a16.61,16.61,0,0,0,15,0l44.19-25.51c4.12-2.38,4.15-6.29,0-8.67l-49.17-28.58a15.31,15.31,0,0,0-7.49-1.79Z"/><path d="M4338.09,2851.67a14.72,14.72,0,0,1-7.27-1.73,360.82,360.82,0,0,0-35.82-20.57c-9.79-5-15.7-8.07-15.75-11.16-.07-4,9-9,28.77-20.09,5.22-2.92,11.15-6.23,17.88-10.06a16,16,0,0,1,14.49,0l49.14,28.55c1.84,1.07,2.85,2.46,2.84,3.92s-1,2.85-2.85,3.92l-44.19,25.5a14.71,14.71,0,0,1-7.24,1.72Z" fill="#fff"/><path d="M4333.16,2786.83a14.13,14.13,0,0,1,7,1.66l49.14,28.56c1.67,1,2.6,2.21,2.59,3.48s-.92,2.51-2.6,3.48l-44.19,25.51a15.65,15.65,0,0,1-14,0,358.54,358.54,0,0,0-35.87-20.59c-9.29-4.78-15.43-7.94-15.47-10.73-.07-3.67,9.48-9,28.51-19.64,5.23-2.92,11.15-6.23,17.9-10.07a14.18,14.18,0,0,1,7-1.66m0-1a15.35,15.35,0,0,0-7.5,1.79c-71.41,40.68-54.42,23.67,4.91,62.75a16.63,16.63,0,0,0,15,0l44.19-25.51c4.13-2.39,4.15-6.3,0-8.7l-49.14-28.56a15.27,15.27,0,0,0-7.48-1.79Z"/><path d="M4255.27,2803.55a14.64,14.64,0,0,1-7.23-1.72,359.08,359.08,0,0,0-35.85-20.58c-9.79-5-15.7-8.07-15.75-11.16-.07-4,9-9.05,28.88-20.16,5.2-2.9,11.09-6.19,17.77-10a16.1,16.1,0,0,1,14.48,0l49.18,28.58c1.82,1,2.82,2.44,2.82,3.89s-1,2.86-2.86,3.92l.17-.05c-.38.17-3.24,1.82-31.46,18.11l-12.9,7.45A14.75,14.75,0,0,1,4255.27,2803.55Z" fill="#fff"/><path d="M4250.34,2738.71a14.07,14.07,0,0,1,7,1.65l49.18,28.58c1.66,1,2.57,2.19,2.57,3.46s-.93,2.52-2.61,3.49l-44.19,25.51a14.32,14.32,0,0,1-7,1.65,14.16,14.16,0,0,1-7-1.64,360.48,360.48,0,0,0-35.89-20.61c-9.3-4.77-15.43-7.93-15.48-10.72-.07-3.69,9.52-9,28.63-19.72,5.19-2.9,11.08-6.19,17.77-10a14.34,14.34,0,0,1,7-1.65m0-1a15.29,15.29,0,0,0-7.5,1.79c-71.45,40.69-54.35,23.68,4.95,62.76a16.57,16.57,0,0,0,15,0l44.19-25.51c4.12-2.38,4.15-6.29,0-8.67l-49.18-28.58a15.13,15.13,0,0,0-7.48-1.79Z"/><path d="M4172.45,2755.43a14.68,14.68,0,0,1-7.22-1.72,358,358,0,0,0-35.85-20.58c-9.79-5-15.7-8.08-15.75-11.17-.07-4,9-9.05,28.88-20.15,5.19-2.91,11.08-6.2,17.77-10a16,16,0,0,1,14.51,0l49.15,28.56c1.81,1.06,2.81,2.44,2.81,3.89s-1,2.86-2.86,3.92l-44.18,25.51a14.75,14.75,0,0,1-7.25,1.73Z" fill="#fff"/><path d="M4167.52,2690.59a14.18,14.18,0,0,1,7,1.67l49.15,28.55c1.65,1,2.56,2.2,2.56,3.46s-.93,2.52-2.61,3.49l-44.18,25.51a15.59,15.59,0,0,1-14,0,360.48,360.48,0,0,0-35.89-20.61c-9.29-4.78-15.43-7.93-15.48-10.73-.07-3.68,9.52-9,28.62-19.71,5.2-2.9,11.09-6.19,17.78-10a14.19,14.19,0,0,1,7-1.65m0-1a15.3,15.3,0,0,0-7.49,1.78c-71.44,40.68-54.36,23.68,4.94,62.77a16.59,16.59,0,0,0,15,0l44.18-25.51c4.13-2.39,4.15-6.3,0-8.68l-49.14-28.56a15.41,15.41,0,0,0-7.53-1.8Z"/><path d="M4089.68,2707.32a14.61,14.61,0,0,1-7.23-1.72,357.89,357.89,0,0,0-35.86-20.58c-9.78-5-15.69-8.07-15.74-11.16-.07-4,9-9.05,28.87-20.16,5.2-2.9,11.09-6.19,17.78-10a16.1,16.1,0,0,1,14.48,0l49.18,28.58c1.82,1,2.82,2.43,2.81,3.89s-1,2.85-2.86,3.92l-44.18,25.51a14.75,14.75,0,0,1-7.25,1.72Z" fill="#fff"/><path d="M4084.75,2642.48a14.07,14.07,0,0,1,7,1.65l49.18,28.58c1.65,1,2.57,2.19,2.56,3.46s-.93,2.51-2.61,3.49l-44.18,25.5a15.59,15.59,0,0,1-14,0,360.42,360.42,0,0,0-35.9-20.61c-9.29-4.77-15.43-7.93-15.47-10.72-.07-3.68,9.52-9,28.62-19.71,5.19-2.9,11.09-6.2,17.78-10a14.23,14.23,0,0,1,7-1.65m0-1a15.4,15.4,0,0,0-7.5,1.78c-71.45,40.7-54.36,23.69,4.95,62.77a15.24,15.24,0,0,0,7.48,1.79,15.4,15.4,0,0,0,7.5-1.79l44.18-25.51c4.13-2.38,4.15-6.29.05-8.68l-49.18-28.58a15.24,15.24,0,0,0-7.48-1.78Z"/><path d="M4006.86,2659.19a14.64,14.64,0,0,1-7.23-1.72,362,362,0,0,0-35.85-20.58c-9.79-5-15.69-8.07-15.75-11.16-.07-4,9-9.05,28.88-20.15,5.2-2.91,11.09-6.2,17.78-10a16.1,16.1,0,0,1,14.48,0l49.17,28.58c1.82,1.06,2.82,2.44,2.82,3.89s-1,2.86-2.86,3.92l-44.18,25.51a14.79,14.79,0,0,1-7.26,1.72Z" fill="#fff"/><path d="M4001.94,2594.35a14.24,14.24,0,0,1,7,1.65l49.17,28.58c1.66,1,2.57,2.19,2.57,3.46s-.93,2.52-2.61,3.49L4013.87,2657a15.67,15.67,0,0,1-14,0,359.54,359.54,0,0,0-35.9-20.61c-9.29-4.78-15.43-7.94-15.48-10.73-.06-3.68,9.52-9,28.62-19.71,5.2-2.9,11.09-6.19,17.79-10a14.32,14.32,0,0,1,7-1.65m0-1a15.35,15.35,0,0,0-7.5,1.79c-71.46,40.69-54.36,23.68,4.94,62.77a16.63,16.63,0,0,0,15,0l44.18-25.5c4.13-2.39,4.15-6.3,0-8.68l-49.18-28.58a15.27,15.27,0,0,0-7.48-1.79Z"/><path d="M3924.09,2611.08a14.72,14.72,0,0,1-7.27-1.73,359.68,359.68,0,0,0-35.82-20.57c-9.79-5-15.7-8.07-15.75-11.16-.07-4,9-9,28.77-20.08,5.23-2.92,11.15-6.23,17.89-10.07a16.1,16.1,0,0,1,14.48,0l49.14,28.56c1.84,1.06,2.85,2.45,2.85,3.91s-1,2.85-2.86,3.92l-44.18,25.51a14.86,14.86,0,0,1-7.25,1.71Z" fill="#fff"/><path d="M3919.16,2546.25a14.1,14.1,0,0,1,7,1.65l49.14,28.56c1.68,1,2.6,2.21,2.6,3.48s-.93,2.51-2.61,3.48l-44.18,25.51a15.57,15.57,0,0,1-14,0,360.81,360.81,0,0,0-35.87-20.59c-9.29-4.78-15.43-7.94-15.48-10.73-.06-3.67,9.49-9,28.51-19.64,5.23-2.92,11.16-6.23,17.9-10.07a14.21,14.21,0,0,1,7-1.65m0-1a15.34,15.34,0,0,0-7.5,1.78c-71.41,40.68-54.41,23.67,4.91,62.75a16.57,16.57,0,0,0,15,0l44.18-25.51c4.13-2.38,4.15-6.29,0-8.7L3926.64,2547a15.24,15.24,0,0,0-7.48-1.78Z"/><path d="M3841.27,2563a14.64,14.64,0,0,1-7.23-1.72,358,358,0,0,0-35.85-20.58c-9.79-5-15.7-8.07-15.75-11.16-.07-4,9-9.05,28.88-20.16,5.2-2.9,11.09-6.19,17.77-10a16.12,16.12,0,0,1,14.49,0l49.17,28.58c1.82,1,2.82,2.44,2.82,3.89s-1,2.86-2.86,3.92l-44.18,25.51a14.79,14.79,0,0,1-7.26,1.72Z" fill="#fff"/><path d="M3836.35,2498.12a14.24,14.24,0,0,1,7,1.65l49.17,28.58c1.66,1,2.57,2.19,2.57,3.46s-.93,2.52-2.61,3.49l-44.18,25.51a15.63,15.63,0,0,1-14,0,361.09,361.09,0,0,0-35.9-20.6c-9.29-4.78-15.43-7.94-15.48-10.73-.06-3.68,9.52-9,28.63-19.71,5.19-2.9,11.08-6.2,17.78-10a14.29,14.29,0,0,1,7-1.65m0-1a15.35,15.35,0,0,0-7.5,1.79c-71.46,40.69-54.36,23.68,4.94,62.77a16.63,16.63,0,0,0,15,0l44.18-25.5c4.13-2.39,4.15-6.3.05-8.68l-49.18-28.58a15.27,15.27,0,0,0-7.48-1.79Z"/><path d="M3758.51,2514.85a14.73,14.73,0,0,1-7.28-1.73,360.82,360.82,0,0,0-35.82-20.57c-9.79-5-15.7-8.07-15.75-11.16-.07-4,9-9,28.77-20.09,5.22-2.92,11.15-6.23,17.88-10.06a16,16,0,0,1,14.49,0l49.14,28.55c1.84,1.07,2.85,2.46,2.85,3.92s-1,2.85-2.86,3.92l-44.18,25.51a14.85,14.85,0,0,1-7.24,1.71Z" fill="#fff"/><path d="M3753.57,2450a14.13,14.13,0,0,1,7,1.66l49.14,28.56c1.68,1,2.6,2.21,2.6,3.48s-.93,2.51-2.61,3.48l-44.18,25.51a15.67,15.67,0,0,1-14,0,359.73,359.73,0,0,0-35.86-20.59c-9.3-4.78-15.43-7.94-15.48-10.73-.06-3.67,9.49-9,28.51-19.64,5.23-2.92,11.15-6.23,17.9-10.07a14.21,14.21,0,0,1,7-1.66m0-1a15.35,15.35,0,0,0-7.5,1.79c-71.41,40.68-54.42,23.66,4.91,62.75a16.65,16.65,0,0,0,15,0l44.18-25.51c4.13-2.38,4.15-6.29,0-8.7l-49.14-28.56a15.27,15.27,0,0,0-7.48-1.79Z"/><path d="M4352.23,3273.27a14.63,14.63,0,0,1-7.22-1.72l-55.8-32.43c-1.81-1-2.81-2.43-2.81-3.89s1-2.87,2.89-3.94l1.79-1.09c5-3.09,11.32-6.94,17.24-6.94a11.41,11.41,0,0,1,6.24,1.78l55.82,32.44c2,1.22,2.95,2.47,2.91,3.72-.11,3-5.63,5.86-9.67,8a34.1,34.1,0,0,0-4.14,2.38,14.83,14.83,0,0,1-7.25,1.71Z" fill="#fff"/><path d="M4308.32,3223.76a10.83,10.83,0,0,1,6,1.72l55.78,32.42c1.82,1.12,2.72,2.23,2.69,3.29-.1,2.65-5.7,5.6-9.4,7.55a34.37,34.37,0,0,0-4.16,2.39,14.48,14.48,0,0,1-7,1.64,14.13,14.13,0,0,1-7-1.65l-55.81-32.43c-1.65-1-2.56-2.19-2.56-3.45s.94-2.54,2.66-3.53l1.78-1.08c5-3.06,11.2-6.87,17-6.87m0-1c-6.79,0-14,4.93-19.28,8.09-4.16,2.41-4.18,6.32-.08,8.7l55.8,32.43a15.23,15.23,0,0,0,7.47,1.79,15.39,15.39,0,0,0,7.55-1.81c4-3,20.95-8.67,10.85-14.91l-55.8-32.43a11.85,11.85,0,0,0-6.51-1.86Z"/><path d="M4318.9,3292.52a14.61,14.61,0,0,1-7.23-1.72l-55.81-32.43c-1.81-1-2.81-2.44-2.81-3.89s1-2.86,2.86-3.92l1.78-1.09c5.05-3.09,11.33-6.94,17.24-6.94a11.37,11.37,0,0,1,6.24,1.78l55.82,32.44c2,1.22,3,2.48,2.91,3.73-.1,2.94-5.63,5.85-9.66,8a33.94,33.94,0,0,0-4.14,2.39,14.85,14.85,0,0,1-7.2,1.68Z" fill="#fff"/><path d="M4274.94,3243a10.78,10.78,0,0,1,6,1.73l55.78,32.41c1.82,1.13,2.72,2.23,2.68,3.29-.09,2.66-5.69,5.6-9.4,7.55a36.37,36.37,0,0,0-4.15,2.39,14.31,14.31,0,0,1-7,1.62,14.07,14.07,0,0,1-7-1.65l-55.81-32.43c-1.65-1-2.56-2.19-2.56-3.46s.93-2.52,2.62-3.5c.58-.34,1.17-.7,1.78-1.08,5-3.06,11.21-6.87,17-6.87m0-1c-6.79,0-14,4.93-19.28,8.1-4.13,2.38-4.15,6.29-.05,8.68l55.81,32.42a15.13,15.13,0,0,0,7.48,1.79,15.4,15.4,0,0,0,7.5-1.78c4-3,20.94-8.68,10.85-14.92l-55.81-32.43a11.8,11.8,0,0,0-6.5-1.86Z"/><path d="M4937.82,3116.58c20,3.28,35.9-15,45.47-33.9l436.57-930.06c10.71-22.77,7.66-44.48-6.79-48.47Z" fill="#868989"/><g style="isolation:isolate"><path d="M4052.57,1313.51c2.14.76,1360.31,791.46,1362.62,791.39C5413.06,2104.14,4054.88,1313.44,4052.57,1313.51Z" fill="#868a8a"/><path d="M4054.69,1314.26c.62.24,1361.24,791.31,1362.12,791.45C5416.2,2105.48,4055.57,1314.41,4054.69,1314.26Z" fill="#818585"/></g><polygon points="3577.32 2325.95 4937.82 3116.59 5413.07 2104.15 4052.57 1313.52 3577.32 2325.95" fill="#f1f7f7"/><polygon points="3634.41 2319.05 4910.29 3060.51 5355.98 2111.05 4080.1 1369.59 3634.41 2319.05" fill="#b8d5ff"/><path d="M3673.43,2325l1205.8,707.35,23.47-49.54L3696.89,2275.46Z" fill="#34455e"/><path d="M5002.49,2419.46l156.41-330.25L4077.54,1454.86l-367.71,776.38,1081.36,634.35,63.64-134.37-16.85-9.88-50,105.59-855.08-501.61L4233,1691.59l855.08,501.61-102.48,216.37Zm-853.31-858.9,45.73,26.82-22.45,47.42L4126.73,1608Zm-68.88-40,45.73,26.82-22.45,47.42-45.74-26.85Zm-163.13,795.54-176.85-103.75,300.14-633.71,176.86,103.74ZM4237,1672.33l-45.73-26.84,22.45-47.4,45.73,26.82Z" fill="#34455e"/><polygon points="4103.58 1594.77 4126.03 1547.35 4080.3 1520.53 4057.84 1567.92 4103.58 1594.77" fill="#ff7474"/><polygon points="4172.46 1634.8 4194.91 1587.38 4149.18 1560.56 4126.73 1607.96 4172.46 1634.8" fill="#f5ff9f"/><polygon points="4237.04 1672.33 4259.49 1624.91 4213.76 1598.09 4191.31 1645.49 4237.04 1672.33" fill="#7dff9f"/><path d="M4699.85,2241.92,4552.2,2553.69l444.25,260.61,147.66-311.77Zm411.61,299.9L4993,2792l-422.29-247.72,118.5-250.2Z" fill="#34455e"/><polygon points="4992.97 2792 4821.35 2691.33 4939.85 2441.14 5111.46 2541.82 4689.18 2294.09 4570.68 2544.28 4992.97 2792" fill="#b8d5ff"/><polygon points="4992.97 2792 5111.46 2541.82 4939.85 2441.14 4821.35 2691.33 4992.97 2792" fill="#bdeff4"/><path d="M4037.16,855.44C4032.87,834,2422.72,544.66,2409.39,536.29c-.19-.52-1153.53,211.45-1154.21,211.27-7.47-.7-937.78,774.14-944.06,776.7-8.24,6.37-5.76,21.15,4.59,24l9.62,3.12c-.79,19.52,1123.52,1239.47,1137.35,1250.37,9.28,4.85,1670.68-888.77,1679.25-889.88,4.44,9.82,11.68,20.61,23.77,14.35,11.74-7,6.68-18.4.81-27.49,9.52-5.6,7.92-21.07-2.44-24.68C3166.82,1860.46,4048.37,873.2,4037.16,855.44Zm-894.54,999.75-272.56-496.75L3965.74,906l-822.2,949.2ZM2437.14,569.44,3987,867.07,2856.57,1333.86Zm393.52,775.12L1546.87,1874.7,2409.53,577.06ZM1532.49,1846,1275,772.25l1106-202.46Zm1311.66-476.86,267,486.59-1507.69,25.75Zm-1594.53-583,261.82,1091.53-3.62,5.45-63.48,1.08L348.47,1529.57ZM1438,1911.42c-1.32,1.47,56.61-.47,57.76-.23L1452.79,2754,368.08,1565.2Zm42.2,852.73,43.29-849.64c6.13-11.11,1594-27.27,1602.83-31.17l2.24,4.09Z" fill="#b8d5ff"/><path d="M2467.63,551l-29.12-28.75-9.18-31,13.38-24.44-21.63-37.46-28-.87-22.31-23.53-10.27-39.49-30.69-17.72-36.45,21.18-24.29-27.32c-14.09,7.89-54.17,31.21-68.68,39.66l11.25,33.94-36.57,21.26-.1,35.26,29.12,28.74,9.18,31-13.37,24.45,21.62,37.46,28,.87,22.3,23.53,10.27,39.49L2312.79,675l36.45-21.19,24.29,27.33c14.09-7.89,54.17-31.22,68.68-39.67L2431,607.5l36.57-21.26Z" fill="#fff"/><path d="M2391.42,550c-2.69-7.82-6.93-23.59-9.49-31.52l.1-.18-.09-.3,13.22-24.15c-4.74-8.2-16.26-28.15-21.11-36.56l-27.66-.86-.22-.23h-.2c-5.52-5.92-16.7-17.71-22.31-23.53-.57-.47-10.12-38.89-10.44-39.54l-29.95-17.29L2272.93,403l-.21,0-.08.21c-5.57-.66-16.78-1.8-22.36-2.26l-.21-.23-.22,0-27.58-31L2201,381.73l11,33.21-37,21.49.43,35.14c.37.56,29,28.24,29.08,28.92,2.21,7.74,6.83,23.3,9.18,31l-.1.19.08.29-13.21,24.16,21.1,36.55,27.66.86c.09.3,23,23.64,22.81,24.06.45,0,10.16,39,10.37,39.25l29.94,17.28,10.34-27.19.22,0,.08-.2c5.56.66,16.78,1.8,22.36,2.26l.21.24.21,0c.1.1,27.49,30.94,27.58,31l21.24-12.11-13-39.31.09-.2-.09-.29c2.41-5,7.08-15.22,9.32-20.32l.22,0,.09-.19,28.84,4.86.1-34.41Z" fill="#fff"/><path d="M2472.83,545.72l-27.77-27.41-7.76-26.23,11.9-21.75c5.19-5-20.43-39.89-21.71-44.71-2.44-6.51-26.08-3.29-31.13-4.47l-18.9-19.93-9.8-37.66c.41-4.79-31.21-19.62-34.14-22.26-5.49-5.12-33.53,16.69-38.64,18.16-27.47-27.79-15.06-33.29-51.28-11.89-56.5,36.31-57,16.62-40.86,64.23-42.86,26.22-34.35,9.35-35.16,59.87-1.76,4.48,27.85,29.4,30,32.69l7.77,26.23-11.9,21.75c-5.2,5,20.43,39.89,21.7,44.7,2.45,6.52,26.08,3.3,31.13,4.48l18.9,19.93,9.79,37.65c-.4,4.79,31.22,19.63,34.15,22.26,5.49,5.13,33.53-16.68,38.64-18.15,27.38,27.68,15.09,33.33,51.28,11.88,56.47-36.29,57-16.61,40.86-64.22l31.38-18.23a7.41,7.41,0,0,0,3.68-6.38C2474.12,582.3,2477.2,547.88,2472.83,545.72ZM2202.07,429.3l13.69-8a7.4,7.4,0,0,0,3.31-8.72L2210,385.15l10.77-6.13,23.59,26.55a7.66,7.66,0,0,0,1.92,1.54c2,1.75,11.77,1.69,14.31,2.17,3.54,0,13.22,2.7,16.23,0,3.72-1.33,8.56-19.68,10.32-22.75l19.74,11.4c.92,2.23,9.28,39.58,11.48,39.79l11.19,11.7c1.29,1.14,11.63,13,13.1,13.31,1.69,1.88,24.55,1.34,27.09,1.76l17,29.39c-1,2.55-12.86,21.62-12.13,24.13-.47,1.4,4.56,16.13,4.9,17.8l4.56,15.68c-1,2,27.42,28.1,28.78,29.94l-.06,22.58c-3.66,0-21.84-5.13-24.94-2.64-3.84,1.2-6.44,11-8.22,14-.88,2.47-5.8,10.67-5.33,13.36-.9.34,11.39,34.92,11.5,36L2375,670.92c-1.59-1.25-23.91-27.93-25.51-28.1-2-1.74-11.94-1.7-14.47-2.18-3.44,0-13-2.6-15.91-.11-3.94,1.32-8.65,19.67-10.48,22.85L2288.86,652c-10.93-40.74-3.82-33-34.21-63.56-2.65-4.17-24.59-2.15-28.66-3L2209,556c1-2.47,12.83-21.65,12.13-24,.51-1.47-4.6-16.36-5-18.09l-4.5-15.47c1-1.94-27.47-28.15-28.82-30l-.34-27.79Zm122.51-31.38,31.91-18.55,5.14,19.74c-.7.31-33.41,19.41-34.06,19.76l-5.23-20.12A7.43,7.43,0,0,0,2324.58,397.92Zm76.26,100.92c.7-.25,22.57-13.12,23.26-13.47-1.42,2.34-2.84,5.17-1.86,7.95l8,27.16c-.5.22-33.67,19.57-34.14,19.81-1.43-5-4.78-16.2-6.33-21.31Zm.83,118.33-9.08,5.28c.26-.5,2.55-5.67,2.85-6.32Zm-74,37.55,4.34.48-5.81,3.38Zm127.49-105.6-34.07,19.8-16.6-16.4,32.79-19a7.31,7.31,0,0,0,1.17-.85Zm-22.8-85.39a7.52,7.52,0,0,0-1.77.73l-32.86,19.1L2384,459.67l33.37-19.4a6.88,6.88,0,0,0,1.07-.76Zm-44.69-30.19c1.88,2.19,5,2.43,7.69,2.38l-22,12.82a6.91,6.91,0,0,0-1.39,1l-22.5-.69c-3.8-4.08-12-12.73-15.77-16.67l34.14-19.85Zm-57.89-77.28L2348.39,367l-31.25,18.16a7.54,7.54,0,0,0-1.28.94l-18.73-10.81ZM2251,360.39l16.56-9.43,15.51,17.45a7.43,7.43,0,0,0-6.69,4.76l-8.39,22c-3.44-.42-10.81-1.12-14.32-1.42l-20.48-23ZM2399.06,658l-6.17-18.58c.92-.63,33.45-19.25,34.22-20l6.19,18.66Zm28.46-57,.05-18.65,32.63-19,0,18.65Z" fill="#34455e"/><path d="M2294,573.58c11.3,6.38,22.66,8.52,33.45,2.58,33.25-24.24,4-83.22-25.82-99.81-24.37-14.77-48.45-1.13-47.94,27.39C2253.65,529.81,2271.35,560.49,2294,573.58Zm-25-69.5c-.05-17.14,10.45-23,25.23-14.32,20.36,11.82,44.93,53.21,25.47,73C2292.83,569.71,2269,527.57,2269,504.08Z" fill="#34455e"/><path d="M2662.16,519.18,2633,490.43l-9.18-31L2637.23,435l-21.62-37.45-28-.88-22.3-23.52L2555,333.62l-30.68-17.71-36.45,21.18-24.29-27.33c-14.09,7.89-54.17,31.22-68.68,39.67l11.25,33.94-36.58,21.25-.1,35.26,29.13,28.75,9.18,31-13.38,24.45,21.63,37.45,28,.87,22.31,23.53,10.27,39.49,30.68,17.72L2543.77,622l24.29,27.33c14.09-7.9,54.16-31.22,68.68-39.67l-11.26-33.94,36.58-21.25Z" fill="#fff"/><path d="M2585.94,518.16c-2.68-7.82-6.92-23.59-9.49-31.52l.1-.18-.09-.3L2589.68,462l-21.1-36.56-27.66-.85-.22-.23h-.21c-5.51-5.92-16.69-17.7-22.3-23.52-.57-.48-10.13-38.89-10.45-39.55L2477.8,344l-10.34,27.19-.21,0-.09.21c-5.56-.66-16.78-1.8-22.36-2.27l-.21-.23-.21,0-27.58-31-21.24,12.11,11,33.21-37,21.48.43,35.14c.38.57,29,28.24,29.09,28.92,2.21,7.74,6.82,23.31,9.18,31l-.11.18.09.3-13.21,24.15,21.1,36.56,27.66.86c.08.29,23,23.64,22.81,24,.45,0,10.16,39,10.36,39.25L2507,642.33l10.33-27.19.22,0,.08-.2c5.57.66,16.78,1.79,22.37,2.26l.2.23.22,0,27.57,31,21.25-12.11-13-39.31.09-.2-.1-.3c2.42-5,7.09-15.21,9.33-20.32l.22,0,.09-.19,28.84,4.85.1-34.41Z" fill="#fff"/><path d="M2667.35,513.91l-27.76-27.41-7.77-26.23,11.9-21.75c5.2-5-20.43-39.89-21.7-44.7-2.45-6.51-26.08-3.29-31.13-4.47L2572,369.41l-9.8-37.65c.4-4.79-31.21-19.63-34.15-22.26-5.49-5.13-33.53,16.68-38.63,18.15-27.47-27.78-15.07-33.28-51.28-11.88-56.5,36.31-57,16.62-40.86,64.22-42.87,26.22-34.35,9.36-35.16,59.87-1.76,4.49,27.84,29.4,30,32.7l7.76,26.23-11.9,21.75c-5.19,5,20.43,39.89,21.71,44.7,2.44,6.51,26.08,3.29,31.13,4.47l18.9,19.94,9.79,37.65c-.4,4.79,31.21,19.62,34.15,22.26,5.49,5.12,33.53-16.69,38.63-18.16,27.38,27.69,15.09,33.33,51.29,11.89,56.47-36.3,57-16.61,40.86-64.22l31.37-18.24a7.35,7.35,0,0,0,3.68-6.37C2668.65,550.5,2671.72,516.07,2667.35,513.91ZM2396.59,397.49l13.7-8a7.39,7.39,0,0,0,3.3-8.72l-9.1-27.46,10.76-6.14,23.6,26.55a7.12,7.12,0,0,0,1.92,1.54c2,1.75,11.77,1.69,14.3,2.17,3.54,0,13.23,2.7,16.24,0,3.72-1.33,8.56-19.67,10.31-22.75l19.75,11.4c.92,2.24,9.28,39.58,11.47,39.8L2524,417.63c1.29,1.15,11.63,13,13.11,13.31,1.69,1.88,24.54,1.35,27.09,1.77l17,29.39c-1,2.54-12.87,21.62-12.13,24.13-.48,1.4,4.55,16.13,4.89,17.8l4.57,15.68c-1,1.95,27.42,28.1,28.78,29.94l-.06,22.58c-3.67,0-21.84-5.14-24.95-2.64-3.83,1.2-6.43,10.95-8.21,14-.88,2.48-5.81,10.68-5.34,13.37-.89.33,11.39,34.91,11.51,36l-10.77,6.14c-1.6-1.24-23.91-27.92-25.52-28.09-2-1.75-11.94-1.71-14.47-2.19-3.43,0-12.95-2.6-15.9-.1-3.94,1.31-8.65,19.67-10.48,22.85l-19.74-11.4c-10.93-40.74-3.81-33-34.21-63.55-2.65-4.17-24.58-2.15-28.66-3l-17-29.39c1-2.46,12.83-21.64,12.13-24,.5-1.47-4.61-16.36-5-18.1l-4.5-15.46c1-1.94-27.47-28.16-28.83-30l-.34-27.78Zm122.51-31.38L2551,347.56l5.13,19.75c-.69.3-33.4,19.41-34.06,19.75L2516.86,367A7.26,7.26,0,0,0,2519.1,366.11ZM2595.36,467c.71-.24,22.58-13.12,23.27-13.46-1.43,2.34-2.84,5.17-1.86,7.95l8,27.16c-.49.21-33.66,19.56-34.13,19.81-1.44-5.05-4.78-16.21-6.33-21.32Zm.83,118.34-9.07,5.27c.25-.5,2.55-5.66,2.85-6.32Zm-74,37.54,4.35.48-5.82,3.38Zm127.5-105.6-34.07,19.8-16.61-16.39,32.8-19.06a8.27,8.27,0,0,0,1.17-.84Zm-22.81-85.38a7.05,7.05,0,0,0-1.76.73l-32.86,19.09-13.8-23.89,33.38-19.39a8.14,8.14,0,0,0,1.06-.76Zm-44.68-30.2c1.88,2.2,5,2.43,7.68,2.39l-22,12.81a7.61,7.61,0,0,0-1.38,1.05l-22.5-.7c-3.81-4.07-12-12.72-15.78-16.67l34.15-19.84Zm-57.89-77.28,18.55,10.72-31.24,18.15a6.75,6.75,0,0,0-1.28.95l-18.73-10.81Zm-78.85,4.14,16.55-9.44,15.51,17.46a7.38,7.38,0,0,0-6.68,4.75l-8.39,22.05c-3.45-.42-10.82-1.12-14.33-1.42l-20.48-23.05Zm148.07,297.56-6.16-18.57c.92-.63,33.45-19.26,34.22-20l6.19,18.66Zm28.47-57,0-18.66,32.63-19-.06,18.65Z" fill="#34455e"/><path d="M2488.55,541.78c11.31,6.37,22.66,8.51,33.45,2.58,33.26-24.24,4-83.23-25.81-99.81-24.37-14.78-48.45-1.13-47.94,27.38C2448.17,498,2465.88,528.68,2488.55,541.78Zm-25-69.51c0-17.13,10.45-23,25.23-14.31,20.37,11.82,44.94,53.2,25.48,73C2487.35,537.9,2463.52,495.77,2463.56,472.27Z" fill="#34455e"/><path d="M2190.86,112.38h-10.34l-5.51,2.76c-3.48,6.18-2.74,6.34-2.75,13.09h16.53v13.09h-16.53c.24,8.56-1.39,47.87,2.75,55.11h-23.42c4.13-7.18,2.51-46.68,2.75-55.11h-9.64V131l9.64-4.82v-12.4l16.54-16.54h22.46l5.79,17.92Z" fill="#34455e"/><path d="M2245.28,196.43l-2.06-5.51-11,5.51H2215l-13.78-13.77V137.87l-4.82-9.64,22.73-7.58V173l2.76,5.51,5.51,2.76c6.27.16,6.18.21,11.71-2.76l3.45-6.89V137.87l-4.82-9.64,22.73-7.58c.42,8.14-1.71,69.88,2.76,75.78Z" fill="#34455e"/><path d="M2323.83,196.43l2.75-11v-40l-2.75-5.51-5.52-2.76c-6.27-.16-6.17-.2-11.71,2.76l-3.44,6.89v38.58l2.75,11h-23.42c4.18-6.84,2.48-50.29,2.75-58.56l-4.82-9.64,20.67-6.89,1.38,6.89c15.14-8,11.61-6.06,28.25-6.2l13.77,13.78c.32,8.54-1.5,53.61,2.76,60.62Z" fill="#34455e"/><path d="M2410.36,196.43h-30l-15.16-15.15v-44.1L2380.32,122h30l6.47,19.29-12.4-4.14H2392l-5.51,2.76-2.76,5.51v25.49l3.45,6.89,6.89,3.45h10.33l12.4-4.14Z" fill="#34455e"/><path d="M2464.79,196.43h-18.33l-13.78-13.77V135.81H2423V125.47l9.65-4.82V110.31c1.18-.35,19-10.27,20-9l-2.07,6.89V122h19.29v13.78h-19.29V173l2.76,5.51c8.07,4.77,9.11,2.46,17.22,0Z" fill="#34455e"/><path d="M2482.28,196.43c4.19-6.84,2.49-50.29,2.76-58.56l-4.82-9.64,22.73-7.58c.42,8.14-1.71,69.88,2.76,75.78Zm16.54-81.29h-9.65l-5.51-5.51v-8.27l5.51-5.51h9.65l5.51,5.51v8.27Z" fill="#34455e"/><path d="M2573.23,196.43h-33.07L2525,181.28v-44.1L2540.16,122h33.07l15.15,15.15v44.1Zm-3.45-51-2.75-5.51-5.51-2.76h-9.65l-5.51,2.76-2.76,5.51V173l2.76,5.51,5.51,2.76h9.65l5.51-2.76,2.75-5.51Z" fill="#34455e"/><path d="M2649,196.43l2.76-11v-40l-2.76-5.51-5.51-2.76c-6.27-.16-6.18-.2-11.71,2.76l-3.45,6.89v38.58l2.76,11h-23.42c4.18-6.84,2.48-50.29,2.75-58.56l-4.82-9.64,20.67-6.89,1.38,6.89c15.14-8,11.61-6.06,28.24-6.2l13.78,13.78c.31,8.54-1.5,53.61,2.76,60.62Z" fill="#34455e"/><path d="M3350.73,1816.21a10,10,0,0,1-.41,4c9.1.28-84.46-151.5-84.6-154.47-2.21-3.41-5.38-6.67-9.41-7.23a9.84,9.84,0,0,1,4.52,1.88c-.91-.73-157.6-91-158.66-91.67-2.37-1.37-4.69-1.6-6.37-.64-7.55,3.52-1.12,356.34-3.67,362.07a19.84,19.84,0,0,0,9,15.53l239.9,138.5c2.37,1.37,4.69,1.61,6.38.65s2.64-3.07,2.65-5.79C3349.86,2077.7,3351,1817.37,3350.73,1816.21Z" fill="#fff"/><path d="M3350.73,1816.21a10,10,0,0,1-.41,4c9.1.28-84.46-151.5-84.6-154.47-2.21-3.41-5.38-6.67-9.41-7.23a9.84,9.84,0,0,1,4.52,1.88c-.91-.73-157.6-91-158.66-91.67-2.37-1.37-4.69-1.6-6.37-.64-7.55,3.52-1.12,356.34-3.67,362.07a19.84,19.84,0,0,0,9,15.53l239.9,138.5c2.37,1.37,4.69,1.61,6.38.65s2.64-3.07,2.65-5.79C3349.86,2077.7,3351,1817.37,3350.73,1816.21Zm-82.06-116,51.41,89-51.58-29.78Zm63.39,358.1-221.9-128.12,1-335.59,139.6,80.6c1.33,118.34-19.07,81.43,82,142.08Z" fill="#34455e"/><path d="M3336.28,1819.3l5.47,3.15Z" fill="#34455e"/><path d="M3251,1816.21a9.81,9.81,0,0,1-.4,4c9.1.28-84.46-151.5-84.6-154.47-2.22-3.41-5.38-6.67-9.41-7.23a9.76,9.76,0,0,1,4.51,1.88c-.9-.73-157.6-91-158.66-91.67-2.37-1.37-4.68-1.6-6.36-.64-7.55,3.52-1.12,356.34-3.67,362.07A18.2,18.2,0,0,0,2995,1939a18.4,18.4,0,0,0,6.35,6.71l239.9,138.5c2.37,1.37,4.69,1.61,6.37.65s2.65-3.07,2.66-5.79C3250.09,2077.7,3251.18,1817.37,3251,1816.21Z" fill="#fff"/><path d="M3251,1816.21a9.81,9.81,0,0,1-.4,4c9.1.28-84.46-151.5-84.6-154.47-2.22-3.41-5.38-6.67-9.41-7.23a9.76,9.76,0,0,1,4.51,1.88c-.9-.73-157.6-91-158.66-91.67-2.37-1.37-4.68-1.6-6.36-.64-7.55,3.52-1.12,356.34-3.67,362.07A18.2,18.2,0,0,0,2995,1939a18.4,18.4,0,0,0,6.35,6.71l239.9,138.5c2.37,1.37,4.69,1.61,6.37.65s2.65-3.07,2.66-5.79C3250.09,2077.7,3251.18,1817.37,3251,1816.21Zm-82-116,51.41,89-51.58-29.78Zm63.39,358.1-221.91-128.12,1-335.59,139.6,80.6c1.33,118.34-19.07,81.43,82,142.08Z" fill="#34455e"/><path d="M3236.5,1819.3l5.47,3.15Z" fill="#34455e"/><path d="M3106.46,2239.07h-20l-9.64-4.83v18.61l2.75,11h-23.42c4.46-4.69,2.34-76,2.75-83.36l-4.82-9.65,20.67-6.89,1.38,6.2,11-5.51h19.29l15.16,15.16v44.09Zm-3.44-51-2.76-5.51-5.51-2.75h-9l-5.51,2.75-3.44,6.89v24.8l3.44,6.89,5.51,2.76h9l5.51-2.76,2.76-5.51Z" fill="#34455e"/><path d="M3182.25,2239.07l2.75-11v-40l-2.75-5.51-5.52-2.75c-6.27-.17-6.17-.21-11.71,2.75l-3.44,6.89V2228l2.75,11h-23.42l2.75-11c-.47-7.37,1.82-83.8-2.75-88.18h20.67v29.62l9.64-4.82h17.92l13.78,13.78c.31,8.54-1.51,53.61,2.75,60.63Z" fill="#34455e"/><path d="M3273.88,2239.07h-20l-9.65-4.83v18.61l2.76,11h-23.43c4.47-4.69,2.34-76,2.76-83.36l-4.82-9.65,20.67-6.89,1.37,6.2,11-5.51h19.29l15.16,15.16v44.09Zm-3.45-51-2.75-5.51-5.51-2.75h-9l-5.51,2.75-3.45,6.89v24.8l3.45,6.89,5.51,2.76h9l5.51-2.76,2.75-5.51Z" fill="#34455e"/><path d="M4158.45,677.54C4145.83,545,3834,544,3819.73,676.1c1.14,5.75-.77,287.72-.42,294-.07,25.22,16.59,50.5,49.94,69.76,80.48,42.23,194.66,41.48,265.39-19.65,10.14-10,18.37-22.43,21.53-36.46a58.82,58.82,0,0,0,1.44-11.21c.38-1.3.61-294.49.86-295.94C4158.47,676.91,4158.45,677.22,4158.45,677.54Z" fill="#fff"/><path d="M4167,676.61h0c-11.8-144.5-355.16-144-355.29,6.34l-.24,83.93h-.16c.1,4.12-.31,198.93-.42,203.18-2.84,45.26,54.9,85.57,100.9,96.53,82.49,22.17,218.61,13.27,252.43-79.73,3.55-6.18,1.58-110.69,2.37-119.17h-.12Zm-338.32-.74h0c19.21-104.71,202.14-105.76,275.24-61.71,60,33.57,60.85,90.05.77,123.9C4030.18,782.79,3846.8,780.24,3828.63,675.87Zm36.8,76.87c79.46,45.33,222.34,42.45,284.43-30.82l-.13,45h-.16c-18.15,120.15-296.73,119.64-321.21,3.33l.13-48.14C3837.51,733.41,3849.92,743.78,3865.43,752.74Zm0,90.73c79.38,45.29,221.92,42.42,284.18-30.49l-.16,58.62c-24.6,116.53-302.28,115.5-321.23-3.91h-.13l.16-55.22C3837.27,823.94,3849.77,834.43,3865.42,843.47ZM4149.16,971c0,.42,0,.84,0,1.28v0c-18.25,119.45-308,116.16-321.35-2.16L3828,913c67.64,81.49,253,82,321.37,1.25Z" fill="#34455e"/><path d="M3742.93,1250.43l-2.06-5.51-11,5.51h-19.29l-15.15-15.15v-44.1l15.15-15.15h20l9.65,4.82v-18.6l-2.76-11h20.67c.47,6.45-1.81,96.76,2.76,99.21Zm-2.75-49.6-3.45-6.89-5.51-2.76h-8.95l-5.52,2.76-2.75,5.51V1227l2.75,5.51,5.52,2.76h8.95l5.51-2.76,3.45-6.89Z" fill="#34455e"/><path d="M3824.92,1250.43l-2.76-6.88-13.77,6.88h-18.61l-11-11v-22.73l22-11,19.29-4.82v-2.76l-2.76-5.51-5.51-2.75H3801.5l-20.67,6.89,5.51-16.54,12.4-4.13h25.49l13.78,13.78v46.85l5.51,13.77Zm-4.82-37.2-11,2.76-11,5.51-2.07,4.13v4.14l2.07,4.13,4.13,2.07h8.27l9.65-4.83Z" fill="#34455e"/><path d="M3894.92,1250.43h-18.33l-13.78-13.77v-46.85h-9.64v-10.34l9.64-4.82v-10.34c1.18-.34,19-10.27,20-9l-2.06,6.89V1176H3900v13.78h-19.29V1227l2.75,5.51c8.07,4.77,9.11,2.46,17.22,0Z" fill="#34455e"/><path d="M3957.2,1250.43l-2.76-6.88-13.78,6.88h-18.6l-11-11v-22.73l22.05-11,19.29-4.82v-2.76l-2.76-5.51-5.51-2.75h-10.34l-20.66,6.89,5.51-16.54L3931,1176h25.49l13.78,13.78v46.85l5.51,13.77Zm-4.82-37.2-11,2.76-11,5.51-2.07,4.13v4.14l2.07,4.13,4.13,2.07h8.27l9.65-4.83Z" fill="#34455e"/><path d="M4042.63,1250.43h-20l-9.65-4.82-4.82,4.82h-13.09c-.47-6.44,1.81-96.75-2.76-99.21h20v30.32l11-5.51h19.29l15.16,15.15v44.1Zm-3.45-51-2.75-5.51-5.51-2.76h-9l-5.51,2.76-3.45,6.89v24.8l3.45,6.89,5.51,2.76h9l5.51-2.76,2.75-5.51Z" fill="#34455e"/><path d="M4121.86,1250.43l-2.76-6.88-13.78,6.88h-18.6l-11-11v-22.73l22.05-11,19.29-4.82v-2.76l-2.76-5.51-5.51-2.75h-10.34l-20.66,6.89,5.51-16.54,12.4-4.13h25.49l13.78,13.78v46.85l5.51,13.77Zm-4.82-37.2-11,2.76-11,5.51-2.07,4.13v4.14l2.07,4.13,4.13,2.07h8.27l9.65-4.83Z" fill="#34455e"/><path d="M4191.44,1250.43h-33.07l-6.2-18.6,12,4.14h17.64l4.13-2.07,2.07-4.13v-3.45l-4.14-4.13-17.22-3.45-12.4-12.4v-15.16L4169.4,1176H4199l6.2,18.6-12.4-4.13H4179l-4.13,2.06-2.07,4.14v3.44l4.14,4.13,17.22,3.45,12.4,12.4v15.16Z" fill="#34455e"/><path d="M4240.36,1217.37c-.19,8-.26,7.4,3.44,14.46l6.89,3.45h17.64l12-4.14-6.48,19.29h-36.93l-15.15-15.15v-44.1l15.15-15.15h30.32l15.16,15.15v26.19Zm23.42-19.3-2.75-5.51c-5.9-3.25-5.87-2.83-12.4-2.75l-5.52,2.75c-3.24,5.89-2.83,5.88-2.75,12.4h23.42Z" fill="#34455e"/><path d="M484.05,1483.21a10.17,10.17,0,0,1-.4,4c9.09.28-84.47-151.5-84.6-154.47-2.22-3.41-5.38-6.67-9.41-7.23a9.81,9.81,0,0,1,4.51,1.88c-.91-.73-157.6-91-158.66-91.67-2.37-1.37-4.69-1.6-6.37-.64-7.55,3.52-1.12,356.34-3.67,362.07a19.84,19.84,0,0,0,9,15.53l239.91,138.5c2.37,1.37,4.68,1.61,6.37.65s2.65-3.07,2.65-5.79C483.19,1744.7,484.28,1484.37,484.05,1483.21Z" fill="#fff"/><path d="M484.05,1483.21a10.17,10.17,0,0,1-.4,4c9.09.28-84.47-151.5-84.6-154.47-2.22-3.41-5.38-6.67-9.41-7.23a9.81,9.81,0,0,1,4.51,1.88c-.91-.73-157.6-91-158.66-91.67-2.37-1.37-4.69-1.6-6.37-.64-7.55,3.52-1.12,356.34-3.67,362.07a19.84,19.84,0,0,0,9,15.53l239.91,138.5c2.37,1.37,4.68,1.61,6.37.65s2.65-3.07,2.65-5.79C483.19,1744.7,484.28,1484.37,484.05,1483.21Zm-82.06-116,51.41,89-51.57-29.78Zm63.4,358.1L243.48,1597.17l1-335.59L384,1342.18c1.32,118.34-19.07,81.43,82,142.08Z" fill="#34455e"/><path d="M469.6,1486.3l5.47,3.15Z" fill="#34455e"/><path d="M384.28,1483.21a10,10,0,0,1-.41,4c9.1.28-84.46-151.5-84.6-154.47-2.21-3.41-5.38-6.67-9.41-7.23a9.84,9.84,0,0,1,4.52,1.88c-.91-.73-157.61-91-158.66-91.67-2.37-1.37-4.69-1.6-6.37-.64-7.55,3.52-1.12,356.34-3.67,362.07a19.84,19.84,0,0,0,9,15.53l239.9,138.5c2.37,1.37,4.69,1.61,6.38.65s2.64-3.07,2.65-5.79C383.41,1744.7,384.51,1484.37,384.28,1483.21Z" fill="#fff"/><path d="M384.28,1483.21a10,10,0,0,1-.41,4c9.1.28-84.46-151.5-84.6-154.47-2.21-3.41-5.38-6.67-9.41-7.23a9.84,9.84,0,0,1,4.52,1.88c-.91-.73-157.61-91-158.66-91.67-2.37-1.37-4.69-1.6-6.37-.64-7.55,3.52-1.12,356.34-3.67,362.07a19.84,19.84,0,0,0,9,15.53l239.9,138.5c2.37,1.37,4.69,1.61,6.38.65s2.64-3.07,2.65-5.79C383.41,1744.7,384.51,1484.37,384.28,1483.21Zm-82.06-116,51.41,89-51.58-29.78Zm63.39,358.1-221.9-128.12.95-335.59,139.6,80.6c1.33,118.34-19.07,81.43,82,142.08Z" fill="#34455e"/><path d="M369.83,1486.3l5.46,3.15Z" fill="#34455e"/><path d="M183.29,1903.31l2.75-11V1860.6l-1.37-1.38H161.24l-1.38,1.38v31.69l2.76,11H136.44l2.76-11c-.48-7.57,1.8-80.65-2.76-85.43h26.18l-2.76,11v23.43l1.38,1.38h23.43l1.37-1.38v-23.43l-2.75-11h26.18l-2.76,11c.47,7.57-1.8,80.65,2.76,85.43Z" fill="#34455e"/><path d="M282.5,1824.77H270.1l-1.38,1.38v64.76l4.13,12.4H243.92l4.13-12.4v-64.76l-1.38-1.38h-12.4l-14.47,4.83,7.58-22.74h62L297,1829.6Z" fill="#34455e"/><path d="M375.51,1903.31c5.22-11.2,1.23-54.16,3.44-66.14.06,1.27-24.25,56.2-25.49,59.25h-.69l-23.42-53.73-2.07-5.52c2.22,12-1.79,54.86,3.44,66.14H307.3l2.76-11c-.48-7.57,1.8-80.65-2.76-85.43h26.87l19.29,43.68.69,3.17.69-3.17,19.29-43.68H401l-2.76,11c.47,7.57-1.81,80.65,2.76,85.43Z" fill="#34455e"/><path d="M476.78,1903.31H423.05l2.75-11c-.47-7.57,1.81-80.65-2.75-85.43h26.87c-5.33,8.53-3.06,66.07-3.45,76.47l2.07,2.07H469.9l14.46-4.82Z" fill="#34455e"/><path d="M1469.26,734.21a9.81,9.81,0,0,1-.4,4c9.1.28-84.46-151.5-84.6-154.47-2.22-3.41-5.38-6.67-9.41-7.23a9.76,9.76,0,0,1,4.51,1.88c-.9-.73-157.6-91-158.66-91.67-2.37-1.37-4.69-1.6-6.36-.64-7.55,3.52-1.12,356.34-3.67,362.07a18.29,18.29,0,0,0,2.61,8.82,18.5,18.5,0,0,0,6.36,6.71l239.9,138.5c2.37,1.37,4.69,1.61,6.37.65s2.65-3.07,2.66-5.79C1468.4,995.7,1469.49,735.37,1469.26,734.21Z" fill="#fff"/><path d="M1469.26,734.21a9.81,9.81,0,0,1-.4,4c9.1.28-84.46-151.5-84.6-154.47-2.22-3.41-5.38-6.67-9.41-7.23a9.76,9.76,0,0,1,4.51,1.88c-.9-.73-157.6-91-158.66-91.67-2.37-1.37-4.69-1.6-6.36-.64-7.55,3.52-1.12,356.34-3.67,362.07a18.29,18.29,0,0,0,2.61,8.82,18.5,18.5,0,0,0,6.36,6.71l239.9,138.5c2.37,1.37,4.69,1.61,6.37.65s2.65-3.07,2.66-5.79C1468.4,995.7,1469.49,735.37,1469.26,734.21Zm-82-116,51.41,89L1387,677.46Zm63.39,358.1L1228.69,848.17l1-335.59,139.6,80.6c1.33,118.34-19.07,81.43,82,142.08Z" fill="#34455e"/><path d="M1454.81,737.3l5.47,3.15Z" fill="#34455e"/><path d="M1369.49,734.21a10.17,10.17,0,0,1-.4,4c9.09.28-84.47-151.5-84.6-154.47-2.22-3.41-5.39-6.67-9.41-7.23a9.85,9.85,0,0,1,4.51,1.88c-.91-.73-157.6-91-158.66-91.67-2.37-1.37-4.69-1.6-6.37-.64-7.55,3.52-1.12,356.34-3.67,362.07a19.84,19.84,0,0,0,9,15.53l239.9,138.5c2.37,1.37,4.69,1.61,6.38.65s2.65-3.07,2.65-5.79C1368.62,995.7,1369.72,735.37,1369.49,734.21Z" fill="#fff"/><path d="M1369.49,734.21a10.17,10.17,0,0,1-.4,4c9.09.28-84.47-151.5-84.6-154.47-2.22-3.41-5.39-6.67-9.41-7.23a9.85,9.85,0,0,1,4.51,1.88c-.91-.73-157.6-91-158.66-91.67-2.37-1.37-4.69-1.6-6.37-.64-7.55,3.52-1.12,356.34-3.67,362.07a19.84,19.84,0,0,0,9,15.53l239.9,138.5c2.37,1.37,4.69,1.61,6.38.65s2.65-3.07,2.65-5.79C1368.62,995.7,1369.72,735.37,1369.49,734.21Zm-82.06-116,51.41,89-51.58-29.78Zm63.39,358.1-221.9-128.12.95-335.59,139.61,80.6c1.32,118.34-19.08,81.43,82,142.08Z" fill="#34455e"/><path d="M1355,737.3l5.47,3.15Z" fill="#34455e"/><path d="M1232.18,397.31h-35.82L1177.07,378V320.15l19.29-19.29h34.45l7.57,22.74-14.19-4.83h-14.74l-6.89,3.45-3.44,6.89v40l3.44,6.88,6.89,3.45h15.84l14.47-4.82Z" fill="#34455e"/><path d="M1292.81,397.31h-37.89l-7.58-22.73,14.06,4.82h19l5.51-2.76,2.76-5.51v-8.95l-4.82-4.83-20.67-4.82-13.09-13.09V318.77L1268,300.86h35.83l6.89,20.67-12.41-4.13h-17.91l-5.51,2.75-2.75,5.51v5.51L1277,336l20.67,4.82,13.09,13.09V379.4Z" fill="#34455e"/><path d="M1370,397.31h-37.89l-7.58-22.73,14,4.82h19l5.51-2.76,2.75-5.51v-8.95l-4.82-4.83-20.67-4.82-13.09-13.09V318.77l17.92-17.91H1381l6.89,20.67-12.4-4.13h-17.91l-5.52,2.75-2.75,5.51v5.51l4.82,4.83,20.67,4.82,13.09,13.09V379.4Z" fill="#34455e"/><path d="M1682.83,1784.21a10.17,10.17,0,0,1-.4,4c9.09.28-84.47-151.5-84.61-154.47-2.21-3.41-5.38-6.67-9.4-7.23a9.85,9.85,0,0,1,4.51,1.88c-.91-.73-157.6-91-158.66-91.67-2.37-1.37-4.69-1.6-6.37-.64-7.55,3.52-1.12,356.34-3.67,362.07a19.84,19.84,0,0,0,9,15.53l239.9,138.5c2.37,1.37,4.69,1.61,6.38.65s2.64-3.07,2.65-5.79C1682,2045.7,1683.06,1785.37,1682.83,1784.21Z" fill="#fff"/><path d="M1682.83,1784.21a10.17,10.17,0,0,1-.4,4c9.09.28-84.47-151.5-84.61-154.47-2.21-3.41-5.38-6.67-9.4-7.23a9.85,9.85,0,0,1,4.51,1.88c-.91-.73-157.6-91-158.66-91.67-2.37-1.37-4.69-1.6-6.37-.64-7.55,3.52-1.12,356.34-3.67,362.07a19.84,19.84,0,0,0,9,15.53l239.9,138.5c2.37,1.37,4.69,1.61,6.38.65s2.64-3.07,2.65-5.79C1682,2045.7,1683.06,1785.37,1682.83,1784.21Zm-82.06-116,51.41,89-51.58-29.78Zm63.39,358.1-221.9-128.12,1-335.59,139.6,80.6c1.33,118.34-19.07,81.43,82,142.08Z" fill="#34455e"/><path d="M1668.38,1787.3l5.47,3.15Z" fill="#34455e"/><path d="M1583.05,1784.21a9.81,9.81,0,0,1-.4,4c9.1.28-84.46-151.5-84.6-154.47-2.22-3.41-5.38-6.67-9.41-7.23a9.76,9.76,0,0,1,4.51,1.88c-.9-.73-157.6-91-158.66-91.67-2.36-1.37-4.68-1.6-6.36-.64-7.55,3.52-1.12,356.34-3.67,362.07a19.84,19.84,0,0,0,9,15.53l239.9,138.5c2.37,1.37,4.69,1.61,6.37.65s2.65-3.07,2.66-5.79C1582.19,2045.7,1583.28,1785.37,1583.05,1784.21Z" fill="#fff"/><path d="M1583.05,1784.21a9.81,9.81,0,0,1-.4,4c9.1.28-84.46-151.5-84.6-154.47-2.22-3.41-5.38-6.67-9.41-7.23a9.76,9.76,0,0,1,4.51,1.88c-.9-.73-157.6-91-158.66-91.67-2.36-1.37-4.68-1.6-6.36-.64-7.55,3.52-1.12,356.34-3.67,362.07a19.84,19.84,0,0,0,9,15.53l239.9,138.5c2.37,1.37,4.69,1.61,6.37.65s2.65-3.07,2.66-5.79C1582.19,2045.7,1583.28,1785.37,1583.05,1784.21Zm-82-116,51.41,89-51.58-29.78Zm63.39,358.1-221.9-128.12,1-335.59,139.6,80.6c1.33,118.34-19.07,81.43,82,142.08Z" fill="#34455e"/><path d="M1568.6,1787.3l5.47,3.15Z" fill="#34455e"/><path d="M1194,2226.36h-9.64v-13.78l6.89-3.45,5.51-11v-52.36l-4.82-9.64,22.73-7.58v77.16ZM1210.52,2123h-9.65l-5.51-5.51v-8.27l5.51-5.51h9.65l5.51,5.51v8.27Z" fill="#34455e"/><path d="M1281.48,2204.31l-2.76-6.89-13.78,6.89h-18.6l-11-11v-22.74l22-11,19.29-4.82V2152l-2.76-5.51-5.51-2.75h-10.34l-20.66,6.88,5.51-16.53,12.4-4.13h25.49l13.78,13.78v46.84l5.51,13.78Zm-4.82-37.2-11,2.75-11,5.52-2.07,4.13v4.13l2.07,4.14,4.13,2.06H1267l9.65-4.82Z" fill="#34455e"/><path d="M1369,2140.93l-21.36,63.38h-15.16c-3.06-8.33-22.07-68.71-26.87-74.4h24.81l-1.38,11c.7,2.53,12.28,35.33,11.71,37.2-.61-1.69,11.06-34.83,11.71-37.2l-1.38-11h23.43Z" fill="#34455e"/><path d="M1427.54,2204.31l-2.76-6.89-13.78,6.89h-18.6l-11-11v-22.74l22-11,19.29-4.82V2152l-2.76-5.51-5.51-2.75h-10.34l-20.66,6.88L1389,2134l12.4-4.13h25.49l13.78,13.78v46.84l5.51,13.78Zm-4.82-37.2-11,2.75-11,5.52-2.07,4.13v4.13l2.07,4.14,4.13,2.06h8.27l9.65-4.82Z" fill="#34455e"/><path d="M1497.12,2204.31h-33.07l-6.2-18.6,12,4.13h17.64l4.13-2.06,2.07-4.14v-3.44l-4.14-4.13-17.22-3.45-12.4-12.4v-15.16l15.16-15.15h29.62l6.2,18.6-12.4-4.14h-13.78l-4.13,2.07-2.07,4.13V2154l4.14,4.13,17.22,3.45,12.4,12.4v15.15Z" fill="#34455e"/><path d="M1572.63,2204.31h-30l-15.15-15.16v-44.09l15.15-15.15h30l6.48,19.29-12.4-4.14h-12.4l-5.52,2.76-2.75,5.51v25.49l3.44,6.89,6.89,3.44h10.34l12.4-4.13Z" fill="#34455e"/><path d="M1634.91,2153.33l-6.89-6.89c-6.29-.17-6.17-.21-11.71,2.76l-3.44,6.89v37.2l2.75,11H1592.2c4.18-6.84,2.48-50.29,2.75-58.56l-4.82-9.64,20.67-6.89,2.07,10.33,9.64-9.64h15.16l6.89,6.89v6.89Z" fill="#34455e"/><path d="M1652.83,2204.31c4.18-6.84,2.48-50.29,2.75-58.56l-4.82-9.64,22.73-7.58c.43,8.14-1.71,69.87,2.76,75.78Zm16.53-81.29h-9.65l-5.51-5.51v-8.27l5.51-5.51h9.65l5.51,5.51v8.27Z" fill="#34455e"/><path d="M1745.83,2204.31h-20l-9.64-4.82v18.6l2.75,11h-23.42c4.46-4.68,2.34-76,2.76-83.36l-4.83-9.64,20.67-6.89,1.38,6.2,11-5.51h19.29l15.16,15.15v44.09Zm-3.44-51-2.76-5.51-5.51-2.76h-8.95l-5.52,2.76-3.44,6.89v24.8l3.44,6.89,5.52,2.75h8.95l5.51-2.75,2.76-5.51Z" fill="#34455e"/><path d="M1815.14,2204.31h-18.32L1783,2190.53v-46.84h-9.65v-10.34l9.65-4.82v-10.34c1.17-.34,19-10.27,20-9l-2.07,6.89v13.78h19.29v13.78H1801v37.2l2.76,5.51c8.07,4.77,9.11,2.46,17.22,0Z" fill="#34455e"/><polygon points="4985.63 2409.57 5088.11 2193.2 4040.46 1578.61 3740.32 2212.32 4787.97 2826.93 4837.98 2721.34 4552.19 2553.69 4699.85 2241.93 4985.63 2409.57" fill="#bdeff4"/><path d="M4125.22,1971.24l-80.13,83.19-16-8.52,17.49-74.9,2.16-6-3.72,5.12-52.31,56.39-16-8.52c1.56-9.6,28.19-122.94,24.66-128.91l31.1,16.53-8.28,11.83c-1.08,4.18-11.49,55.79-13.7,57.65-.55-1.91,47.73-52,50-54.59l20.22,10.74c-1,3.63-15.34,71-17.32,72,.18-2.71,37.4-40.52,40.13-43.59l5.17-13.48,29.55,15.7Z" fill="#34455e"/><path d="M4129,2050.36c-5.24,9.46-4.75,7.92-4.94,18.68l5.67,8.08,19.9,10.59,16.05,2.45-19.08,18.25L4105,2086.26l-7.85-26.5,26.91-50.61,26.35-8.31,34.21,18.19,7.85,26.49-16,30.06Zm38.21-8.09.25-8-4.54-6.47c-7.68-4.14-6.72-4.41-15.67-4.28-7.51,5-6.6,4.82-10.68,12.59l26.43,14Z" fill="#34455e"/><path d="M4231.67,2153.64l-22.54-12-7.95-11.32-8.38,2.64-14.77-7.86c3.39-7.64,61.11-110,57.44-115.54l22.55,12-18.5,34.8,15.8.29,21.77,11.57,7.85,26.5L4258,2145.33Zm27.23-60.59.26-8-4.54-6.47-10.11-5.37-7.9-.14-8.09,5.84-15.14,28.47-.32,10,4.54,6.47,10.11,5.37,7.9.14,6.47-4.67Z" fill="#34455e"/><path d="M4348.29,2215.64,4311,2195.8l4.36-25.07,11,11.93,19.9,10.59,5.93.1,4.85-3.5,2.11-4-2.14-7.22-17.34-14.29-6.42-21.68,9.25-17.4,26.35-8.3,33.43,17.77-4.35,25.08-11.47-12.19-15.55-8.27-5.93-.1-4.85,3.5-2.11,4,2.14,7.22,17.34,14.29,6.42,21.68-9.25,17.4Z" fill="#34455e"/><path d="M4382.49,2233.83c9.15-5.69,33.33-56,38.86-65.57l.44-14,30.28,4.94c-4.48,9.58-44.58,79.2-43.14,88.65Zm68.28-83.4-10.88-5.79L4437,2135l5.05-9.49,9.58-3,10.89,5.78,2.85,9.64-5,9.49Z" fill="#34455e"/><path d="M4470,2280.38l-20.68-11-7.14-24.09,28.6-53.78-10.89-5.78,6.31-11.87,13.83.26,6.31-11.87c1.54.31,27.67-.4,28,1.71l-6.54,6.67-8.41,15.82L4521.2,2198l-8.41,15.82L4491,2202.26,4468.31,2245l-.25,8,4.54,6.47,3.88,2.07,11,1.8Z" fill="#34455e"/><path d="M4531,2264.07c-5.24,9.46-4.74,7.93-4.94,18.68l5.67,8.09,19.9,10.58,16.06,2.45-19.09,18.26L4506.88,2300l-7.85-26.5,26.91-50.61,26.36-8.31,34.21,18.19,7.85,26.5-16,30.05Zm38.21-8.09.26-8-4.54-6.47c-7.69-4.14-6.72-4.4-15.68-4.27-7.5,5-6.6,4.81-10.68,12.58l26.44,14Z" fill="#34455e"/></svg>